<svg xmlns="http://www.w3.org/2000/svg" xmlns:xlink="http://www.w3.org/1999/xlink" width="240" height="209" fill="none" xmlns:v="https://vecta.io/nano"><style><![CDATA[.B{fill:#d7e2ff}.C{fill:#8796a1}.D{fill:#ffd2fd}.E{fill:#ffebd7}.F{stroke-miterlimit:10}.G{stroke-linecap:round}]]></style><g clip-path="url(#C)"><mask id="A" maskUnits="userSpaceOnUse" x="0" y="0" width="240" height="209"><path d="M240 .48H0V208.8h240V.48z" fill="#fff"/></mask><g mask="url(#A)"><path d="M240 .48H0V208.8h240V.48z" fill="#f4f4f4"/><path d="M174.432 131.424H65.664a5.16 5.16 0 0 1-5.184-5.184V17.568a5.16 5.16 0 0 1 5.184-5.184h108.672a5.16 5.16 0 0 1 5.184 5.184V126.24c.096 2.88-2.208 5.184-5.088 5.184z" class="C"/><path d="M76.8 64.128a2.09 2.09 0 0 0-2.88 0l-6.432 6.432a2.09 2.09 0 0 0 0 2.88l6.528 6.432c.192.288.768.48 1.248.48.576 0 .96-.192 1.536-.096a2.09 2.09 0 0 0 0-2.88l-5.184-5.184 5.184-5.184a2.09 2.09 0 0 0 0-2.88zm95.616 6.048l-6.432-6.432a2.09 2.09 0 0 0-2.88 0 2.09 2.09 0 0 0 0 2.88l5.184 5.184-5.184 5.184a2.09 2.09 0 0 0 0 2.88c.192.288.768.48 1.248.48.576 0 1.056-.192 1.632-.864l6.432-6.432c.864-.768.864-2.112 0-2.88zm-18.72-8.448L137.472 45.6l-8.064-1.536c0 4.992-4.128 9.12-9.312 9.12s-9.312-4.128-9.312-9.12L102.72 45.6 86.304 61.344 97.44 72.48l5.376-5.376v32.64h34.656v-32.16l5.184 5.184 11.04-11.04z" fill="#fff"/><path d="M131.904 58.752h-23.712v28.8h23.712v-28.8z" class="D"/><path d="M123.072 58.752h-6.24v28.8h6.24v-28.8z" class="B"/><path d="M123.072 58.752h-6.24v28.8h6.24v-28.8z" class="E"/><path d="M67.968 192.96H64.8l-.672 1.92h-1.344l2.976-8.16h1.248l2.976 8.16H68.64l-.672-1.92zm-2.784-1.152h2.4l-1.152-3.456-1.248 3.456zm8.16 2.112c.288 0 .576-.096.864-.288s.384-.48.384-.768h1.248c0 .576-.192 1.056-.672 1.44s-1.056.576-1.728.576c-.864 0-1.536-.288-2.016-.864s-.672-1.344-.672-2.208v-.192c0-.864.192-1.632.672-2.208s1.152-.864 2.016-.864c.768 0 1.344.192 1.824.672s.672.96.672 1.632h-1.248c0-.288-.096-.576-.288-.864s-.48-.384-.864-.384c-.48 0-.864.192-1.056.576s-.288.864-.288 1.44v.192c0 .576.096 1.056.288 1.44-.096.48.288.672.864.672zm5.184-6.624v1.44h1.056v1.056h-1.056v3.36c0 .288.096.384.192.576s.288.192.48.192h.192s.096 0 .192-.096l.192.96c-.096.096-.288.096-.384.192s-.288.096-.48.096a1.59 1.59 0 0 1-1.152-.48c-.288-.288-.384-.768-.384-1.344v-3.36h-.96v-1.056h.96v-1.44h1.152v-.096zm3.744 0h-1.344v-1.152h1.344v1.152zm0 7.584h-1.344v-6.048h1.344v6.048zm3.648-2.016l.096.48.096-.48 1.248-4.032h1.44l-2.112 6.048H85.44l-2.208-6.048h1.44l1.248 4.032zm6.24 2.112c-.864 0-1.536-.288-2.016-.864s-.768-1.248-.768-2.208v-.192c0-.864.288-1.632.768-2.208s1.152-.864 1.92-.864c.864 0 1.44.288 1.92.768s.672 1.152.672 2.016v.768h-3.84c0 .48.192.864.384 1.152s.576.48 1.056.48c.384 0 .672 0 .96-.096s.48-.192.768-.384l.48.864c-.192.192-.576.384-.864.48s-.864.288-1.44.288zm-.096-5.184c-.384 0-.576.096-.864.384s-.384.576-.384 1.056h2.4v-.096a1.62 1.62 0 0 0-.288-.96c-.192-.288-.48-.384-.864-.384zm12.288-2.016h-2.496v7.104h-1.344v-7.104h-2.496v-1.056h6.336v1.056zm2.208 1.824c.192-.288.48-.48.768-.672s.576-.192.96-.192c.672 0 1.152.192 1.536.576s.576 1.056.576 1.92v3.744h-1.344v-3.744c0-.48-.096-.864-.288-1.056s-.48-.288-.864-.288c-.288 0-.48.096-.672.192a1.16 1.16 0 0 0-.48.48v4.416h-1.344v-8.736h1.344v3.36h-.192zm8.928 4.416a2.92 2.92 0 0 1-.768.768c-.288.192-.672.288-1.056.288-.672 0-1.152-.192-1.536-.672s-.576-1.056-.576-1.92v-3.648h1.344v3.648c0 .576.096.864.288 1.152s.48.288.768.288.576-.096.864-.192.384-.288.48-.48v-4.416h1.344v6.048h-1.152v-.864zm4.032-5.184l.096.768c.192-.288.48-.48.768-.672s.672-.192 1.056-.192.768.096 1.056.288.48.48.672.768c.192-.384.48-.576.768-.768s.672-.288 1.056-.288c.576 0 1.056.192 1.44.672s.576 1.056.576 1.92v3.648h-1.344v-3.648c0-.48-.096-.864-.288-1.056s-.48-.288-.768-.288a1.81 1.81 0 0 0-.768.192c-.192.096-.384.384-.48.672v.192.096 3.936h-1.344v-3.648c0-.48-.096-.864-.288-1.056s-.48-.288-.768-.288-.48.096-.672.192a1.16 1.16 0 0 0-.48.48v4.512h-1.344v-6.048h1.056v-.384zM133.632 192c0 .864-.192 1.632-.576 2.112s-.96.768-1.728.768c-.384 0-.672-.096-.96-.192s-.48-.384-.672-.672l-.096.768h-1.152v-8.736h1.344v3.36c.192-.288.384-.48.672-.576s.576-.192.96-.192c.768 0 1.344.288 1.728.864s.576 1.344.576 2.304V192h-.096zm-1.344-.096c0-.672-.096-1.152-.288-1.536s-.576-.576-1.056-.576a1.81 1.81 0 0 0-.768.192c-.192.096-.384.288-.48.576v2.592c.096.288.288.48.48.576a1.81 1.81 0 0 0 .768.192c.48 0 .768-.192 1.056-.48s.288-.768.288-1.344v-.192zm3.744-3.072l.096.864a2.92 2.92 0 0 1 .768-.768c.288-.192.672-.288 1.056-.288.672 0 1.152.192 1.44.576s.576.96.576 1.824v3.84h-1.344v-3.84c0-.48-.096-.768-.288-.96s-.48-.288-.864-.288c-.288 0-.48.096-.672.192a1.16 1.16 0 0 0-.48.48v4.416h-1.344v-6.048h1.056zm8.928 6.048c-.096-.192-.096-.288-.096-.48s-.096-.288-.096-.48c-.192.288-.48.48-.768.672s-.672.288-1.056.288c-.672 0-1.152-.192-1.44-.48s-.48-.768-.48-1.344.192-1.056.672-1.344 1.152-.48 1.92-.48h1.056v-.576c0-.288-.096-.576-.288-.768s-.48-.288-.768-.288a1.81 1.81 0 0 0-.768.192c-.192.096-.288.384-.288.576h-1.344c0-.48.192-.864.672-1.248s1.056-.576 1.824-.576c.672 0 1.248.192 1.728.576s.672.864.672 1.536v2.688c0 .288 0 .48.096.768s.096.48.192.672h-1.44v.096zm-1.632-.96a1.62 1.62 0 0 0 .96-.288c.288-.192.48-.384.576-.576v-.864h-1.056a1.62 1.62 0 0 0-.96.288c-.288.192-.384.384-.384.672 0 .192.096.384.192.576s.384.192.672.192zm5.76-6.624h-1.344v-1.152h1.344v1.152zm0 7.584h-1.344v-6.048h1.344v6.048zm2.976 0h-1.344v-8.736h1.344v8.736zm4.512 0v-8.16h2.688c.864 0 1.632.192 2.112.576a2.05 2.05 0 0 1 .768 1.632 1.62 1.62 0 0 1-.288.96c-.192.288-.48.48-.864.672.48.096.864.384 1.152.672s.384.768.384 1.248c0 .768-.288 1.344-.768 1.728s-1.152.576-2.112.576h-3.072v.096zm1.44-4.704h1.536c.384 0 .768-.096.96-.288s.384-.48.384-.864-.096-.672-.384-.864-.672-.288-1.152-.288h-1.344v2.304zm0 .96v2.592h1.728c.48 0 .864-.096 1.056-.288.288-.192.384-.48.384-.96s-.096-.768-.288-1.056c-.192-.192-.576-.384-.96-.384h-1.92v.096zm5.568.672c0-.864.288-1.632.768-2.208s1.152-.864 2.016-.864 1.536.288 2.016.864.768 1.344.768 2.208v.096c0 .96-.288 1.632-.768 2.208s-1.152.864-2.016.864-1.536-.288-2.016-.864-.768-1.344-.768-2.208v-.096zm1.344.096c0 .576.096 1.056.384 1.44.192.384.576.576 1.056.576s.864-.192 1.056-.576.384-.864.384-1.44v-.096c0-.576-.096-1.056-.384-1.44-.192-.384-.576-.576-1.056-.576s-.864.192-1.056.576-.384.864-.384 1.44v.096zm8.448-1.92h-.576c-.288 0-.48.096-.672.192s-.288.288-.384.48v4.224H170.4v-6.048h1.248l.096.864c.192-.288.384-.576.576-.768s.48-.288.864-.288h.192.192l-.192 1.344zm.672 1.92c0-.96.192-1.728.672-2.304s.96-.864 1.728-.864c.288 0 .672.096.864.192a1.8 1.8 0 0 1 .672.576v-3.36h1.344v8.736h-1.152l-.096-.768a2.24 2.24 0 0 1-.672.672c-.288.192-.576.192-.96.192-.768 0-1.344-.288-1.728-.768s-.672-1.248-.672-2.112v-.192zm1.44.096c0 .576.096 1.056.288 1.344s.576.48 1.056.48a1.81 1.81 0 0 0 .768-.192c.192-.096.384-.288.48-.576v-2.496a1.16 1.16 0 0 0-.48-.48 1.81 1.81 0 0 0-.768-.192c-.48 0-.768.192-1.056.576s-.288.864-.288 1.536zm7.968 2.976c-.864 0-1.536-.288-2.016-.864s-.768-1.248-.768-2.208v-.192c0-.864.288-1.632.768-2.208s1.152-.864 1.92-.864c.864 0 1.44.288 1.92.768s.672 1.152.672 2.016v.768h-3.84c0 .48.192.864.384 1.152s.576.48 1.056.48c.384 0 .672 0 .96-.096s.48-.192.768-.384l.48.864c-.192.192-.576.384-.864.48s-.96.288-1.44.288zm-.096-5.184c-.384 0-.576.096-.864.384s-.384.576-.384 1.056h2.4v-.096a1.62 1.62 0 0 0-.288-.96c-.192-.288-.48-.384-.864-.384zm6.624.192h-.576c-.288 0-.48.096-.672.192s-.288.288-.384.48v4.224h-1.344v-6.048h1.248l.096.864c.192-.288.384-.576.576-.768s.48-.288.864-.288h.192.192l-.192 1.344z" fill="#231f20"/><mask id="B" maskUnits="userSpaceOnUse" x="49" y="186" width="11" height="11"><path d="M54.528 196.32a4.8 4.8 0 0 0 0-9.6 4.8 4.8 0 0 0 0 9.6z" fill="#fff"/></mask><g mask="url(#B)" class="F G"><use xlink:href="#D" stroke="#f21197" stroke-width=".5"/><path d="M53.376 208.032l29.856-29.856M52.32 208.032l29.856-29.856m-31.008 29.856l29.952-29.856m-31.008 29.856l29.856-29.856m-30.912 29.856l29.856-29.856m-31.008 29.856l29.952-29.856m-31.008 29.856l29.856-29.856m-30.912 29.856l29.856-29.856m-30.912 29.856l29.856-29.856m-31.008 29.856l29.952-29.856m-31.008 29.856l29.856-29.856m-30.912 29.856l29.856-29.856M40.32 208.032l29.952-29.856m-31.008 29.856l29.856-29.856m-30.912 29.856l29.856-29.856m-30.912 29.856l29.856-29.856M36 208.032l29.952-29.856m-31.008 29.856L64.8 178.176m-30.912 29.856l29.856-29.856m-30.912 29.856l29.856-29.856M31.68 208.032l29.952-29.856m-31.008 29.856l29.856-29.856m-30.912 29.856l29.856-29.856m-31.008 29.856l29.952-29.856M27.36 208.032l29.856-29.856m-30.912 29.856l29.856-29.856m-30.912 29.856l29.856-29.856m-31.008 29.856l29.952-29.856M23.04 208.032l29.856-29.856m-30.912 29.856l29.856-29.856m-31.008 29.856l29.952-29.856m-31.008 29.856l29.856-29.856m5.856 29.856l29.952-29.856" stroke="#f21197" stroke-width=".5"/></g><path d="M92.544 173.088H62.88c-1.44 0-2.4-.96-2.4-2.4v-29.664c0-1.44.96-2.4 2.4-2.4h29.664c1.44 0 2.4.96 2.4 2.4v29.664c.096 1.344-.96 2.4-2.4 2.4z" class="C"/><use xlink:href="#E" class="B"/><use xlink:href="#F" class="D"/><use xlink:href="#G" class="E"/><use xlink:href="#H" class="B"/><path d="M135.552 173.088h-29.664c-1.44 0-2.4-.96-2.4-2.4v-29.76c0-1.44.96-2.4 2.4-2.4h29.76c1.44 0 2.4.96 2.4 2.4v29.76c0 1.344-.96 2.4-2.496 2.4z" class="C"/><path d="M111.552 164.352c4.416 1.152 8.544.864 14.304-.48.96-.288 2.016-.768 2.976-1.344-.384 0-.864 0-1.44.096-10.08-.192-12.576-1.536-13.152-2.304-.096-.096-.096-.192-.192-.288-2.496.384-6.048 1.344-6.24 2.112-.096.384 1.248 1.536 3.744 2.208z" class="B"/><path d="M127.2 162.144v-5.856s.096-3.84-2.112-6.528h-.288c-1.248 0-2.112-.384-2.304-.96-2.592.288-7.392 1.632-7.776 7.584l-.192 3.456c0 .096.096.192.192.288.384.384 2.592 1.728 12.48 2.016z" class="D"/><path d="M127.584 156.288v5.856c4.416-.096 5.664-.864 6.048-1.44.096-.096.096-.192.096-.384v-.096-3.936c0-1.44-.384-2.784-1.152-4.128-1.44-2.304-3.744-3.264-5.568-3.552-.192.384-.768.672-1.536.864 2.208 2.976 2.112 6.624 2.112 6.816z" class="E"/><path d="M126.816 148.416c0 .48-.864.768-2.016.768s-2.016-.384-2.016-.768c0-.48.864-.768 2.016-.768 1.056-.096 2.016.288 2.016.768z" class="B"/><path d="M135.636 173.088h-29.741c-1.444 0-2.407-.963-2.407-2.407v-29.746c0-1.444.963-2.407 2.407-2.407h29.741c1.443 0 2.406.963 2.406 2.407v29.746c.096 1.348-.963 2.407-2.406 2.407z" class="C"/><path d="M134.577 151.62l-6.545-6.546-3.368-.481c0 1.925-1.637 3.658-3.851 3.658s-3.849-1.636-3.849-3.658l-3.369.481-6.545 6.546 4.427 4.429 2.118-2.118v13.093h14.244v-13.093l2.118 2.118 4.62-4.429z" fill="#fff"/><path d="M125.915 150.177h-10.01v12.129h10.01v-12.129z" class="D"/><path d="M118.503 150.177h-2.598v12.129h2.598v-12.129z" class="B"/><path d="M125.915 150.177h-2.599v12.129h2.599v-12.129z" class="E"/><path d="M177.024 173.088H147.36c-1.44 0-2.4-.96-2.4-2.4v-29.76c0-1.44.96-2.4 2.4-2.4h29.76c1.44 0 2.4.96 2.4 2.4v29.76c0 1.344-.96 2.4-2.496 2.4z" class="C"/><path d="M170.112 143.712H154.56c-.192 0-.384.192-.384.384v1.92h16.32v-1.92c.096-.192-.192-.384-.384-.384z" class="B"/><path d="M170.592 151.392v-4.512H168c0 .768.096 3.072 2.592 4.512zm-16.32 0c2.4-1.44 2.496-3.744 2.496-4.512h-2.496v4.512z" class="E"/><path d="M170.592 168.48v-16.32c-2.976-1.536-3.264-4.32-3.264-5.472h-4.512v9.408l2.88 12.384c0 .192.192.288.384.288h4.128c.096.096.384-.096.384-.288zm-16.032.384h4.128c.192 0 .288-.096.384-.288l2.88-12.384v-9.408h-4.512c0 1.152-.192 3.936-3.264 5.472v16.32c.096.096.192.288.384.288z" class="D"/><path d="M135.648 139.488c.864 0 1.44.576 1.44 1.44v29.76c0 .768-.576 1.44-1.536 1.44h-29.664c-.864 0-1.44-.576-1.44-1.44v-29.76c0-.864.576-1.44 1.44-1.44h29.76zm0-.96h-29.76c-1.44 0-2.4.96-2.4 2.4v29.76c0 1.44.96 2.4 2.4 2.4h29.664c1.536 0 2.496-1.152 2.496-2.4v-29.76c0-1.344-.96-2.4-2.4-2.4zm-12.96 46.08v-6.624h1.728l-2.208-4.032-2.304 4.032h1.824v6.624c-.576.192-1.056.768-1.056 1.44 0 .864.672 1.536 1.536 1.536s1.536-.672 1.536-1.536c0-.672-.384-1.152-1.056-1.44z" fill="#f21197"/></g></g><defs><clipPath id="C"><path fill="#fff" transform="translate(0 .48)" d="M0 0h240v208.32H0z"/></clipPath><path id="D" d="M54.432 208.032l29.856-29.856"/><path id="E" d="M68.069 164.079c4.416 1.152 8.544.864 14.304-.48.96-.288 2.016-.768 2.976-1.344-.384 0-.864 0-1.44.096-10.08-.192-12.576-1.536-13.152-2.304-.096-.096-.096-.192-.192-.288-2.496.384-6.048 1.344-6.24 2.112-.096.384 1.248 1.536 3.744 2.208z"/><path id="F" d="M83.717 161.87v-5.856s.096-3.84-2.112-6.528h-.288c-1.248 0-2.112-.384-2.304-.96-2.592.288-7.392 1.632-7.776 7.584l-.192 3.456c0 .096.096.192.192.288.384.384 2.592 1.728 12.48 2.016z"/><path id="G" d="M84.101 156.014v5.856c4.416-.096 5.664-.864 6.048-1.44.096-.096.096-.192.096-.384v-.096-3.936c0-1.44-.384-2.784-1.152-4.128-1.44-2.304-3.744-3.264-5.568-3.552-.192.384-.768.672-1.536.864 2.208 2.976 2.112 6.624 2.112 6.816z"/><path id="H" d="M83.333 148.142c0 .48-.864.768-2.016.768s-2.016-.384-2.016-.768c0-.48.864-.768 2.016-.768 1.056-.096 2.016.288 2.016.768z"/></defs></svg>