<svg xmlns="http://www.w3.org/2000/svg" width="240" height="188" fill="none" xmlns:v="https://vecta.io/nano"><g clip-path="url(#B)"><mask id="A" maskUnits="userSpaceOnUse" x="0" y="0" width="240" height="188"><path d="M237.12.6H2.88A2.88 2.88 0 0 0 0 3.48v181.056a2.88 2.88 0 0 0 2.88 2.88h234.24a2.88 2.88 0 0 0 2.88-2.88V3.48A2.88 2.88 0 0 0 237.12.6z" fill="#fff"/></mask><g mask="url(#A)"><path d="M240 .6H0v186.816h240V.6z" fill="#f4f4f4"/><path d="M57.043 177.151c-.461 0-.876-.092-1.245-.276s-.665-.435-.888-.753a2.06 2.06 0 0 1-.366-1.093h.943a1.29 1.29 0 0 0 .495.904c.294.238.65.353 1.061.353a1.68 1.68 0 0 0 .88-.231c.257-.155.462-.367.609-.637a1.91 1.91 0 0 0 .224-.923c0-.351-.077-.664-.231-.939-.146-.272-.364-.499-.629-.656s-.572-.241-.915-.244a2.52 2.52 0 0 0-.758.114c-.259.079-.472.174-.64.295l-.912-.11.488-3.96h4.181v.864h-3.363l-.283 2.373h.047c.165-.131.371-.24.621-.327s.508-.129.778-.129c.492 0 .931.118 1.316.354s.691.552.911.958.334.87.334 1.391a2.72 2.72 0 0 1-.346 1.375c-.223.396-.549.725-.943.951-.4.231-.856.346-1.367.346h-.001zm6.841 0c-.592 0-1.096-.161-1.513-.484s-.734-.795-.954-1.41-.33-1.364-.33-2.24c0-.869.11-1.612.33-2.227s.542-1.09.959-1.414.922-.492 1.509-.492 1.089.164 1.504.492.738.796.959 1.414.334 1.358.334 2.227c0 .876-.11 1.622-.33 2.24s-.538 1.086-.955 1.41-.921.484-1.513.484zm0-.865c.587 0 1.043-.282 1.367-.849s.487-1.372.487-2.42c0-.696-.075-1.289-.224-1.779s-.359-.863-.636-1.12-.607-.385-.994-.385c-.582 0-1.036.287-1.363.86s-.492 1.38-.492 2.424c0 .697.073 1.289.22 1.776s.357.858.633 1.112a1.43 1.43 0 0 0 1.002.381zm8.392-.754v-.424a1.79 1.79 0 0 1 .18-.805 1.45 1.45 0 0 1 .535-.59c.236-.15.521-.224.856-.224.341 0 .626.074.856.224.227.143.408.347.522.59s.177.511.177.805v.424a1.83 1.83 0 0 1-.18.81 1.43 1.43 0 0 1-.526.589c-.23.146-.514.22-.849.22-.341 0-.627-.074-.86-.22a1.43 1.43 0 0 1-.53-.589 1.82 1.82 0 0 1-.181-.81zm.802-.424v.424a1.26 1.26 0 0 0 .173.656c.115.194.314.287.597.287.275 0 .469-.096.582-.287a1.27 1.27 0 0 0 .173-.656v-.424c.004-.228-.053-.454-.165-.653s-.306-.291-.589-.291c-.275 0-.472.097-.593.291a1.22 1.22 0 0 0-.177.653zm-4.809-4.181v-.424a1.8 1.8 0 0 1 .18-.806c.123-.245.302-.442.535-.589s.521-.224.856-.224c.341 0 .626.075.856.224a1.42 1.42 0 0 1 .522.589c.117.246.177.513.177.806v.424c.003.28-.059.557-.18.809a1.42 1.42 0 0 1-.526.59c-.23.147-.514.22-.849.22-.341 0-.628-.073-.86-.22s-.412-.348-.53-.59c-.122-.252-.185-.529-.181-.809zm.802-.424v.424c0 .244.058.463.173.657s.314.286.597.286c.275 0 .468-.095.582-.286s.173-.413.173-.657v-.424a1.28 1.28 0 0 0-.165-.652c-.11-.191-.306-.291-.589-.291-.276 0-.473.097-.593.291s-.177.409-.177.652zm-.503 6.537l5.532-8.045h.896l-5.531 8.045h-.896z" fill="#231f20"/><path d="M13.152 153.624v5.184h101.664v-5.184m-50.496 5.28v6.432" stroke="#f21197" stroke-miterlimit="10" stroke-linecap="round"/><path d="M165.23 177.151c-.46 0-.875-.092-1.245-.276s-.665-.435-.888-.753-.344-.685-.365-1.093h.943c.037.364.202.666.495.904s.65.353 1.06.353a1.67 1.67 0 0 0 .881-.231c.257-.153.468-.373.608-.637.15-.273.225-.58.225-.923a1.89 1.89 0 0 0-.232-.939c-.155-.276-.361-.497-.629-.656s-.572-.241-.915-.244c-.247-.003-.499.036-.758.114a2.17 2.17 0 0 0-.641.295l-.912-.11.488-3.96h4.18v.864h-3.363l-.282 2.373h.047c.165-.131.371-.24.62-.327a2.37 2.37 0 0 1 .778-.129c.492 0 .931.118 1.317.354a2.5 2.5 0 0 1 .911.958c.219.406.334.87.334 1.391 0 .514-.115.972-.346 1.375a2.53 2.53 0 0 1-.943.951c-.417.235-.889.354-1.368.346zm6.841 0c-.591 0-1.095-.161-1.512-.484s-.734-.795-.955-1.41-.329-1.364-.329-2.24c0-.869.109-1.612.329-2.227s.543-1.09.959-1.414.922-.492 1.508-.492 1.089.164 1.506.492.738.796.959 1.414.333 1.358.333 2.227c0 .876-.11 1.622-.329 2.24s-.539 1.086-.956 1.41-.92.484-1.513.484zm0-.865c.588 0 1.043-.282 1.368-.849s.487-1.372.487-2.42c0-.696-.075-1.289-.224-1.779s-.359-.863-.636-1.12a1.41 1.41 0 0 0-.995-.385c-.58 0-1.035.287-1.363.86s-.49 1.38-.49 2.424c0 .697.073 1.289.219 1.776s.358.858.633 1.112.631.388 1.001.381zm8.393-.754v-.424a1.78 1.78 0 0 1 .18-.805c.124-.247.302-.443.535-.59s.521-.224.856-.224c.341 0 .626.074.857.224s.405.343.523.59.176.511.176.805v.424a1.83 1.83 0 0 1-.18.81c-.117.242-.3.446-.527.589s-.514.22-.849.22c-.341 0-.627-.074-.86-.22s-.412-.348-.531-.589a1.83 1.83 0 0 1-.18-.81zm.801-.424v.424c0 .243.058.462.173.656s.315.287.597.287c.276 0 .47-.096.582-.287s.173-.413.173-.656v-.424c0-.244-.055-.461-.165-.653s-.307-.291-.59-.291c-.274 0-.472.097-.593.291a1.22 1.22 0 0 0-.177.653zm-4.808-4.181v-.424c0-.293.06-.562.18-.806a1.45 1.45 0 0 1 .535-.589c.233-.147.521-.224.856-.224.34 0 .626.075.856.224a1.41 1.41 0 0 1 .523.589c.119.252.18.527.176.806v.424a1.8 1.8 0 0 1-.18.809 1.42 1.42 0 0 1-.526.59c-.231.147-.514.22-.849.22-.341 0-.628-.073-.86-.22a1.45 1.45 0 0 1-.531-.59c-.121-.243-.18-.515-.18-.809zm.801-.424v.424c0 .244.058.463.173.657s.314.286.597.286c.275 0 .469-.095.581-.286s.174-.413.174-.657v-.424c0-.243-.056-.461-.165-.652s-.308-.291-.59-.291c-.275 0-.473.097-.593.291s-.177.409-.177.652zm-.503 6.537l5.532-8.045h.895l-5.531 8.045h-.896z" fill="#231f20"/><path d="M121.248 153.624v5.184h101.76v-5.184m-50.496 5.28v6.432" stroke="#8796a1" stroke-miterlimit="10"/><path d="M41.664 148.728H15.168c-1.344 0-2.208-.864-2.208-2.208v-26.688c0-1.344.864-2.208 2.208-2.208h26.688c1.344 0 2.208.864 2.208 2.208v26.688c-.096 1.152-.96 2.208-2.4 2.208zm35.328 0H50.496c-1.344 0-2.208-.864-2.208-2.208v-26.688c0-1.344.864-2.208 2.208-2.208h26.688c1.344 0 2.208.864 2.208 2.208v26.688c-.096 1.152-.96 2.208-2.4 2.208zm35.424 0H85.728c-1.344 0-2.208-.864-2.208-2.208v-26.688c0-1.344.864-2.208 2.208-2.208h26.688c1.344 0 2.208.864 2.208 2.208v26.688c.096 1.152-.864 2.208-2.208 2.208zm-2.304-34.56H17.28c-2.496 0-4.416-2.016-4.416-4.416V16.92c0-2.496 2.016-4.416 4.416-4.416h92.832c2.496 0 4.416 2.016 4.416 4.416v92.832c0 2.4-1.92 4.416-4.416 4.416z" fill="#8796a1"/><path d="M101.76 70.584c-.384 0-.864-.192-1.056-.384-.672-.672-.672-1.728 0-2.496l4.416-4.416-4.416-4.416c-.672-.672-.672-1.728 0-2.496s1.728-.672 2.496 0l5.472 5.472c.672.672.672 1.728 0 2.496l-5.472 5.472c-.576.576-.96.768-1.44.768zm-76.032 0c-.384 0-.864-.192-1.056-.384L19.2 64.728c-.672-.672-.672-1.728 0-2.496l5.472-5.472c.672-.672 1.728-.672 2.496 0 .672.672.672 1.728 0 2.496l-4.416 4.416 4.416 4.416c.672.672.672 1.728 0 2.496-.576-.192-.96 0-1.44 0zm66.816-15.84L78.72 40.92l-6.912-1.248c0 4.224-3.552 7.776-7.968 7.776s-7.968-3.552-7.968-7.776l-6.816 1.248L35.04 54.36l9.504 9.504 4.608-4.608v27.84h29.664v-27.36l4.416 4.416 9.312-9.408z" fill="#fff"/><path d="M73.92 52.152H53.664v24.576H73.92V52.152z" fill="#ffd2fd"/><path d="M58.944 52.152h-5.28v24.576h5.28V52.152z" fill="#d7e2ff"/><path d="M73.92 52.152h-5.28v24.576h5.28V52.152z" fill="#ffebd7"/><path d="M39.552 129.816l-5.28-5.28-2.688-.48c0 1.536-1.344 2.88-3.168 2.88s-3.168-1.344-3.168-2.88l-2.688.48-5.28 5.28 3.552 3.552 1.728-1.728v10.656h11.616V131.64l1.728 1.728 3.648-3.552z" fill="#fff"/><path d="M32.544 128.664H24.48v9.792h8.064v-9.792z" fill="#ffd2fd"/><path d="M26.496 128.664h-2.112v9.792h2.112v-9.792z" fill="#d7e2ff"/><path d="M32.544 128.664h-2.112v9.792h2.112v-9.792z" fill="#ffebd7"/><path d="M105.408 123H92.736a.25.25 0 0 0-.288.288v1.536h13.344v-1.536c-.096-.192-.192-.288-.384-.288z" fill="#d7e2ff"/><path d="M105.696 129.144V125.4h-2.016c0 .672.096 2.592 2.016 3.744zm-13.248 0c1.92-1.152 2.016-3.072 2.016-3.744h-2.016v3.744z" fill="#ffebd7"/><path d="M105.696 143.16v-13.248c-2.496-1.248-2.688-3.552-2.592-4.416H99.36v7.68l2.4 10.08c0 .096.192.192.288.192h3.36c.192 0 .288-.192.288-.288zm-12.96.288h3.36c.096 0 .288-.096.288-.192l2.4-10.08v-7.68H95.04c0 .864-.192 3.168-2.592 4.416v13.248c0 .096.096.288.288.288z" fill="#ffd2fd"/><path d="M55.392 139.704c3.552.864 7.008.768 11.712-.384.864-.288 1.632-.672 2.4-1.056h-1.152c-8.16-.096-10.272-1.248-10.752-1.92-.096-.096-.096-.192-.096-.288-2.112.384-4.896 1.056-5.088 1.728-.096.48 1.056 1.44 2.976 1.92z" fill="#d7e2ff"/><path d="M68.16 137.88v-4.8s.096-3.072-1.728-5.376h-.192c-.96 0-1.728-.288-1.92-.768-2.112.192-5.952 1.344-6.336 6.144l-.192 2.784c0 .096.096.192.096.288.48.48 2.304 1.632 10.272 1.728z" fill="#ffd2fd"/><path d="M68.544 133.176v4.8c3.552-.096 4.608-.768 4.896-1.152.096-.096.096-.192.096-.288v-.096-3.168c0-1.152-.288-2.304-.864-3.36-1.152-1.92-2.976-2.592-4.512-2.88-.192.384-.576.576-1.248.672 1.632 2.304 1.632 5.28 1.632 5.472z" fill="#ffebd7"/><path d="M67.872 126.744c0 .384-.768.672-1.632.672s-1.632-.288-1.632-.672.768-.672 1.632-.672 1.632.288 1.632.672z" fill="#d7e2ff"/><path d="M224.832 30.168H124.224c-1.248 0-2.208-1.056-2.208-2.208 0-1.248 1.056-2.208 2.208-2.208h100.704c1.248 0 2.208 1.056 2.208 2.208 0 1.248-1.056 2.208-2.304 2.208z" fill="#8796a1"/><path d="M141.312 135.288h-19.008c-.192 0-.384-.192-.384-.384v-8.16c0-.192.192-.384.384-.384h19.008c.192 0 .384.192.384.384v8.16c0 .192-.192.384-.384.384z" fill="#acb6bc"/><path d="M174.432 135.288h-29.376c-.192 0-.384-.192-.384-.384v-8.16c0-.192.192-.384.384-.384h29.376c.192 0 .384.192.384.384v8.16c0 .192-.192.384-.384.384z" fill="#8796a1"/><path d="M148.896 40.056H123.36c-.379-.01-.74-.165-1.007-.433a1.48 1.48 0 0 1-.433-1.007 1.48 1.48 0 0 1 .433-1.008c.267-.268.628-.423 1.007-.433h25.536a1.48 1.48 0 0 1 1.44 1.441c.096.768-.576 1.44-1.44 1.44zm0 69.216H123.36a1.47 1.47 0 0 1-1.007-.432 1.48 1.48 0 0 1-.433-1.008 1.48 1.48 0 0 1 .433-1.007c.267-.268.628-.423 1.007-.433h25.536a1.48 1.48 0 0 1 1.44 1.44c.096.864-.576 1.44-1.44 1.44zm10.752 6.72h-36.192a1.47 1.47 0 0 1-1.007-.432 1.48 1.48 0 0 1-.433-1.008 1.48 1.48 0 0 1 .433-1.007c.267-.268.628-.423 1.007-.433h36.192a1.48 1.48 0 0 1 1.44 1.44 1.48 1.48 0 0 1-.433 1.008c-.268.268-.628.423-1.007.432zm66.72-59.616H122.592a.67.67 0 1 1 0-1.344h103.776a.67.67 0 1 1 0 1.344h0zm0 6.72H122.592a.67.67 0 1 1 0-1.344h103.776a.67.67 0 1 1 0 1.344zm0 6.624H122.592a.67.67 0 1 1 0-1.344h103.776a.67.67 0 1 1 0 1.344zm-22.848 6.624h-80.928a.67.67 0 1 1 0-1.344h80.928a.67.67 0 1 1 0 1.344zm-24.768 11.04h-56.16a.67.67 0 0 1-.257-.051.66.66 0 0 1-.218-.146c-.062-.063-.112-.136-.146-.218a.67.67 0 0 1-.051-.257c0-.088.017-.176.051-.257a.67.67 0 0 1 .146-.218c.063-.062.136-.112.218-.146a.67.67 0 0 1 .257-.051h56.16a.67.67 0 0 1 .257.051.66.66 0 0 1 .218.146c.062.063.112.136.146.218a.67.67 0 0 1 .051.257c0 .088-.017.176-.051.257a.67.67 0 0 1-.146.218c-.063.062-.136.112-.218.146a.67.67 0 0 1-.257.051zm-5.472 6.624h-50.688a.67.67 0 1 1 0-1.344h50.688a.67.67 0 1 1 0 1.344z" fill="#acb6bc"/><path d="M136.8 128.28v4.8" stroke="#fff"/><path d="M134.4 130.68h4.8" stroke="#fff"/></g></g><defs><clipPath id="B"><path fill="#fff" transform="translate(0 .6)" d="M0 0h240v187.2H0z"/></clipPath></defs></svg>