<svg xmlns="http://www.w3.org/2000/svg" width="240" height="215" fill="none" xmlns:v="https://vecta.io/nano"><g clip-path="url(#B)"><mask id="A" maskUnits="userSpaceOnUse" x="0" y="0" width="240" height="215"><path d="M237.12.72H2.88A2.88 2.88 0 0 0 0 3.6v208.032a2.88 2.88 0 0 0 2.88 2.88h234.24a2.88 2.88 0 0 0 2.88-2.88V3.6a2.88 2.88 0 0 0-2.88-2.88z" fill="#fff"/></mask><g mask="url(#A)"><path d="M240 .72H0v213.6h240V.72z" fill="#f4f4f4"/><path d="M93.696 172.08H62.592c-1.536 0-2.496-1.056-2.496-2.496v-31.2c0-1.536 1.056-2.496 2.496-2.496h31.2c1.536 0 2.496 1.056 2.496 2.496v31.2c.096 1.344-.96 2.496-2.592 2.496zm41.376 0h-31.104c-1.536 0-2.496-1.056-2.496-2.496v-31.2c0-1.536 1.056-2.496 2.496-2.496h31.2c1.536 0 2.496 1.056 2.496 2.496v31.2c0 1.344-.96 2.496-2.592 2.496zm41.472 0h-31.2c-1.536 0-2.496-1.056-2.496-2.496v-31.2c0-1.536 1.056-2.496 2.496-2.496h31.2c1.536 0 2.496 1.056 2.496 2.496v31.2c.096 1.344-1.056 2.496-2.496 2.496zm-2.688-40.416H65.184A5.16 5.16 0 0 1 60 126.48V17.808a5.16 5.16 0 0 1 5.184-5.184h108.672a5.16 5.16 0 0 1 5.184 5.184V126.48a5.16 5.16 0 0 1-5.184 5.184z" fill="#8796a1"/><path d="M164.064 80.592c-.48 0-1.056-.192-1.248-.48a2.09 2.09 0 0 1 0-2.88L168 72.048l-5.184-5.184a2.09 2.09 0 0 1 0-2.88c.389-.369.904-.574 1.44-.574s1.051.205 1.44.574l6.432 6.432a2.09 2.09 0 0 1 0 2.88l-6.432 6.432c-.576.672-1.056.864-1.632.864zm-89.088 0c-.48 0-1.056-.192-1.248-.48L67.2 73.68c-.369-.389-.574-.904-.574-1.44s.206-1.051.574-1.44l6.432-6.432c.389-.369.904-.574 1.44-.574s1.051.206 1.44.574c.369.389.574.904.574 1.44s-.206 1.051-.574 1.44l-5.184 5.184 5.184 5.184c.369.389.574.904.574 1.44s-.206 1.051-.574 1.44c-.576-.096-.96.096-1.536.096z" fill="#fff"/><path d="M85.103 200.025v3.004c-.111.148-.286.31-.524.486s-.545.322-.935.449-.874.189-1.453.189c-.493 0-.946-.084-1.356-.249a2.98 2.98 0 0 1-1.064-.74c-.296-.324-.524-.719-.686-1.184s-.243-1-.243-1.598v-.546c0-.595.074-1.123.222-1.588s.368-.864.648-1.189a2.7 2.7 0 0 1 1.016-.734c.399-.17.852-.254 1.356-.254.644 0 1.178.108 1.599.324s.753.508.983.886a3.24 3.24 0 0 1 .438 1.296h-1.329c-.043-.273-.128-.518-.253-.734s-.299-.385-.53-.508-.522-.189-.886-.189c-.313 0-.588.059-.827.178s-.444.302-.594.525c-.155.23-.272.51-.351.841s-.119.711-.119 1.135v.557c0 .432.045.816.135 1.15s.227.618.399.849.391.405.643.524.537.173.853.173c.31 0 .564-.025.762-.076s.355-.117.47-.189a1.47 1.47 0 0 0 .276-.216v-1.561h-1.637v-1.011h2.987zm4.668 2.847v-2.788a1.19 1.19 0 0 0-.113-.539.8.8 0 0 0-.346-.352 1.2 1.2 0 0 0-.572-.124 1.29 1.29 0 0 0-.551.108c-.155.072-.276.169-.362.292a.7.7 0 0 0-.13.416h-1.296c0-.231.056-.454.167-.67a1.79 1.79 0 0 1 .487-.578 2.42 2.42 0 0 1 .761-.4c.321-.101.657-.15.994-.146a2.89 2.89 0 0 1 1.167.222c.339.148.611.371.805.669s.297.667.297 1.114v2.598a4.39 4.39 0 0 0 .054.719 2.32 2.32 0 0 0 .167.545v.086h-1.334c-.07-.171-.119-.351-.146-.534a4.39 4.39 0 0 1-.048-.638zm.189-2.383l.011.806h-.935a2.58 2.58 0 0 0-.638.07c-.183.043-.337.108-.459.195s-.214.19-.276.313-.092.261-.092.416c-.002.149.035.296.108.427s.182.23.313.296c.14.072.31.109.508.109.267 0 .499-.054.697-.162.186-.099.349-.237.475-.406.115-.162.177-.314.183-.458l.421.578c-.043.147-.117.306-.222.475a2.27 2.27 0 0 1-.411.485c-.17.155-.366.276-.6.374s-.497.146-.8.146c-.382 0-.722-.076-1.021-.228-.285-.142-.527-.356-.703-.621a1.61 1.61 0 0 1-.254-.891 1.86 1.86 0 0 1 .173-.821 1.61 1.61 0 0 1 .518-.605c.23-.162.512-.284.843-.368a4.67 4.67 0 0 1 1.135-.13h1.022.003zm3.874-4.742v8.297h-1.308v-8.297h1.308zm2.82 0v8.297h-1.308v-8.297h1.308zm4.003 8.406c-.433 0-.824-.071-1.173-.211s-.64-.344-.885-.599a2.61 2.61 0 0 1-.557-.903 3.16 3.16 0 0 1-.195-1.118v-.216a3.64 3.64 0 0 1 .201-1.242c.133-.371.319-.689.556-.952s.521-.471.843-.61a2.61 2.61 0 0 1 1.054-.211c.418 0 .783.07 1.097.211a2.07 2.07 0 0 1 .777.594c.21.252.364.553.465.902s.157.735.157 1.156v.557H98.48v-.935h3.23v-.103a1.85 1.85 0 0 0-.14-.658c-.086-.206-.211-.371-.384-.498s-.403-.189-.691-.189a1.17 1.17 0 0 0-.578.141c-.166.09-.304.221-.417.394a2.07 2.07 0 0 0-.259.627c-.06.267-.089.541-.086.816v.216a2.4 2.4 0 0 0 .103.713 1.69 1.69 0 0 0 .314.567c.136.162.305.292.497.383.208.094.435.14.664.136a1.82 1.82 0 0 0 .838-.189c.249-.13.467-.312.637-.535l.686.664a2.65 2.65 0 0 1-.492.529 2.35 2.35 0 0 1-.74.405c-.292.104-.623.158-1.004.158zm4.662-4.84v4.731h-1.302v-5.845h1.242l.06 1.114zm1.788-1.152l-.011 1.211a2.53 2.53 0 0 0-.26-.033l-.269-.011c-.224 0-.42.033-.59.098s-.311.151-.426.27a1.19 1.19 0 0 0-.259.421c-.062.166-.098.351-.109.557l-.296.021c0-.367.035-.708.107-1.021s.181-.589.325-.826a1.65 1.65 0 0 1 .551-.557c.222-.133.481-.2.773-.2.078 0 .163.007.253.022.072.009.143.025.211.048zm2.609 5.246l1.588-5.208h1.394l-2.345 6.737a4.49 4.49 0 0 1-.21.47c-.087.169-.2.329-.34.481a1.58 1.58 0 0 1-.514.372c-.205.093-.454.146-.746.146-.115 0-.226-.011-.335-.033l-.296-.058-.006-.995.13.011.129.006c.217 0 .397-.027.541-.081s.261-.134.351-.249.173-.27.238-.464l.421-1.135zm-.897-5.208l1.389 4.376.232 1.372-.902.233-2.124-5.981h1.405zm10.459 2.29h-2.004l-.011-.987h1.75c.296 0 .545-.044.751-.13s.368-.218.475-.384.162-.372.162-.611c0-.263-.05-.477-.15-.643a.87.87 0 0 0-.465-.362c-.208-.075-.469-.113-.789-.113h-1.313v6.785h-1.356v-7.865h2.669c.432 0 .818.041 1.156.124s.632.213.869.389c.238.167.426.395.547.659s.189.584.189.951c.003.312-.078.62-.233.891-.155.266-.384.484-.686.654s-.679.27-1.129.303l-.432.339zm-.059 3.555h-2.373l.611-1.075h1.762c.306 0 .561-.05.767-.151a1.05 1.05 0 0 0 .458-.427c.105-.183.157-.397.157-.642 0-.256-.045-.478-.134-.665a.93.93 0 0 0-.428-.437c-.194-.105-.448-.158-.761-.158h-1.523l.01-.987h1.983l.308.372c.432.015.787.11 1.064.286s.49.405.626.687.208.593.206.907c0 .501-.11.92-.33 1.258a2.05 2.05 0 0 1-.935.773c-.407.177-.896.259-1.468.259zm3.721-2.858v-.123c0-.422.062-.813.184-1.173a2.81 2.81 0 0 1 .53-.945c.23-.267.518-.479.853-.627s.72-.227 1.145-.227c.394-.006.784.071 1.146.227a2.39 2.39 0 0 1 .859.627c.233.267.412.582.535.945s.183.751.183 1.173v.123c0 .422-.061.813-.183 1.173s-.302.675-.535.945-.519.475-.854.627-.715.222-1.14.222-.812-.074-1.15-.222-.62-.36-.854-.627a2.76 2.76 0 0 1-.535-.945 3.61 3.61 0 0 1-.184-1.173zm1.302-.123v.123a3.28 3.28 0 0 0 .082.746c.054.235.138.44.253.616s.263.316.443.416.394.151.643.151c.241 0 .45-.05.627-.151a1.25 1.25 0 0 0 .442-.416c.116-.176.201-.381.255-.616a3.31 3.31 0 0 0 .086-.746v-.123c0-.26-.029-.504-.086-.735a2.05 2.05 0 0 0-.259-.622c-.111-.175-.263-.32-.444-.421s-.387-.157-.632-.157-.457.053-.637.157a1.27 1.27 0 0 0-.438.421c-.115.181-.199.388-.253.622s-.082.475-.082.735zm7.904-2.864v.951h-3.296v-.951h3.296zm-2.344-1.431h1.301v5.662c0 .179.025.318.076.415a.38.38 0 0 0 .221.189c.107.035.218.051.33.048a1.98 1.98 0 0 0 .259-.015l.2-.033.005.994c-.108.033-.233.061-.377.086a2.84 2.84 0 0 1-.487.039c-.299 0-.564-.053-.794-.158s-.411-.282-.54-.523-.194-.562-.194-.962v-5.742zm6.028 1.431v.951h-3.295v-.951h3.295zm-2.345-1.431h1.303v5.662c0 .179.025.318.075.415s.127.157.221.189.204.048.33.048c.086.001.173-.004.259-.015l.201-.033.004.994a3.12 3.12 0 0 1-.378.086 2.82 2.82 0 0 1-.486.039 1.9 1.9 0 0 1-.794-.158c-.23-.104-.41-.282-.54-.523s-.195-.562-.195-.962v-5.742zm2.971 4.418v-.123c0-.422.062-.813.185-1.173s.298-.678.529-.945.518-.479.853-.627.721-.227 1.145-.227.811.076 1.146.227a2.45 2.45 0 0 1 .859.627 2.76 2.76 0 0 1 .535.945c.122.36.183.751.183 1.173v.123c0 .422-.061.813-.183 1.173s-.301.675-.535.945-.519.475-.854.627-.715.222-1.14.222-.811-.074-1.15-.222-.619-.36-.854-.627c-.238-.277-.42-.598-.534-.945-.123-.36-.185-.751-.185-1.173zm1.303-.123v.123c0 .263.027.512.081.746s.138.44.253.616.263.316.444.416.394.151.642.151c.242 0 .45-.05.627-.151s.328-.24.443-.416.2-.381.254-.616.086-.483.086-.746v-.123c0-.26-.029-.504-.086-.735s-.14-.441-.259-.622a1.29 1.29 0 0 0-.443-.421 1.23 1.23 0 0 0-.633-.157c-.222-.005-.442.049-.637.157a1.27 1.27 0 0 0-.438.421c-.115.181-.2.388-.253.622-.055.241-.082.488-.081.735zm6.525-1.676v4.657h-1.302v-5.845h1.226l.076 1.188zm-.21 1.519l-.444-.006a3.94 3.94 0 0 1 .152-1.118c.101-.343.249-.639.443-.891a1.95 1.95 0 0 1 .723-.589c.292-.141.629-.211 1.011-.211.248-.003.495.037.729.119.224.075.417.196.578.362s.292.379.378.638.136.572.136.94v3.894h-1.302v-3.781c0-.284-.043-.508-.13-.67s-.203-.278-.362-.346a1.39 1.39 0 0 0-.557-.107c-.244 0-.453.046-.626.14a1.15 1.15 0 0 0-.416.383 1.72 1.72 0 0 0-.237.562c-.052.224-.078.452-.076.681zm3.625-.345l-.611.134a3.33 3.33 0 0 1 .146-.999c.098-.314.247-.595.438-.832s.439-.435.718-.567c.284-.137.611-.206.977-.206.3 0 .566.042.8.124s.44.206.606.378.291.399.377.676.131.605.131.994v3.781h-1.308v-3.787c0-.295-.043-.523-.129-.685a.67.67 0 0 0-.358-.335c-.154-.066-.339-.097-.555-.097-.185-.004-.368.035-.535.113-.15.071-.282.176-.384.307a1.38 1.38 0 0 0-.238.449 1.78 1.78 0 0 0-.075.552zm13.845-.536v3.004c-.111.148-.286.31-.524.486s-.545.322-.934.449-.874.189-1.454.189a3.6 3.6 0 0 1-1.355-.249c-.41-.165-.765-.416-1.065-.74-.295-.324-.524-.719-.685-1.184s-.244-1-.244-1.598v-.546c0-.595.074-1.123.222-1.588a3.34 3.34 0 0 1 .648-1.189c.276-.32.624-.572 1.015-.734.401-.17.852-.254 1.357-.254.644 0 1.177.108 1.598.324s.753.508.983.886.378.81.438 1.296h-1.329a2.11 2.11 0 0 0-.253-.734 1.3 1.3 0 0 0-.53-.508c-.23-.123-.522-.189-.886-.189-.313 0-.589.059-.827.178s-.435.294-.594.525a2.49 2.49 0 0 0-.351.841c-.08.332-.118.711-.118 1.135v.557c0 .432.045.816.134 1.15s.228.618.4.849a1.74 1.74 0 0 0 .643.524 2.03 2.03 0 0 0 .853.173c.31 0 .565-.025.762-.076s.355-.117.47-.189a1.43 1.43 0 0 0 .275-.216v-1.561h-1.637v-1.011h2.988zm4.668 2.847v-2.788c.004-.186-.034-.371-.114-.539a.8.8 0 0 0-.345-.352c-.155-.082-.342-.124-.573-.124-.213 0-.396.036-.552.108a.88.88 0 0 0-.361.292c-.087.121-.132.267-.13.416h-1.296a1.45 1.45 0 0 1 .167-.67c.111-.216.274-.408.487-.578.228-.178.486-.313.761-.4.296-.097.627-.146.995-.146a2.89 2.89 0 0 1 1.166.222 1.77 1.77 0 0 1 .805.669c.198.296.297.667.297 1.114v2.598c0 .267.018.506.054.719a2.35 2.35 0 0 0 .168.545v.086h-1.335c-.061-.14-.11-.318-.146-.534a4.25 4.25 0 0 1-.048-.638zm.189-2.383l.01.806h-.934a2.58 2.58 0 0 0-.637.07c-.164.035-.32.101-.459.195a.83.83 0 0 0-.276.313.92.92 0 0 0-.092.416c-.002.149.035.296.108.427a.76.76 0 0 0 .314.296c.137.072.309.109.507.109.266 0 .499-.054.697-.162a1.43 1.43 0 0 0 .476-.406c.115-.162.176-.314.183-.458l.421.578c-.043.147-.117.306-.221.475-.114.18-.252.343-.41.485a2.05 2.05 0 0 1-1.4.52c-.381 0-.722-.076-1.02-.228-.285-.142-.527-.356-.703-.621-.17-.266-.258-.575-.254-.891 0-.31.058-.583.173-.821s.292-.443.519-.605.511-.284.842-.368a4.68 4.68 0 0 1 1.135-.13h1.021zm3.787-1.166v6.969h-1.302v-8.093h1.199l.103 1.124zm3.808 1.744v.115c0 .424-.05.819-.151 1.182s-.243.675-.437.946c-.191.266-.428.473-.708.621s-.606.222-.972.222-.683-.067-.956-.201a1.94 1.94 0 0 1-.687-.578c-.187-.248-.339-.539-.454-.874a5.58 5.58 0 0 1-.237-1.114v-.437a5.94 5.94 0 0 1 .237-1.167 3.15 3.15 0 0 1 .454-.902c.18-.246.415-.446.687-.583s.584-.206.944-.206c.368 0 .694.072.978.216s.532.348.718.605c.195.259.341.573.438.94s.146.769.146 1.215zm-1.302.115v-.115c.002-.252-.023-.504-.075-.75a1.96 1.96 0 0 0-.238-.616 1.17 1.17 0 0 0-.416-.411c-.165-.1-.366-.15-.599-.15a1.36 1.36 0 0 0-.594.118c-.162.073-.305.182-.417.319s-.198.297-.259.48a2.84 2.84 0 0 0-.13.59v1.047a2.6 2.6 0 0 0 .222.714 1.29 1.29 0 0 0 .442.518c.191.13.444.189.746.189.235 0 .434-.05.599-.151a1.17 1.17 0 0 0 .406-.416c.108-.18.188-.387.238-.621s.075-.482.075-.745z" fill="#231f20"/><path d="M9.408 190.512h220.8" stroke="#8796a1" stroke-width=".5" stroke-miterlimit="10"/><path d="M91.296 150l-6.24-6.24-3.168-.48c0 1.824-1.536 3.456-3.648 3.456s-3.648-1.536-3.648-3.456l-3.168.48-6.24 6.24 4.224 4.224 2.016-2.016v12.48H84.96v-12.48l2.016 2.016 4.32-4.224z" fill="#fff"/><path d="M83.136 148.656h-9.504v11.52h9.504v-11.52z" fill="#ffd2fd"/><path d="M76.128 148.656h-2.496v11.52h2.496v-11.52z" fill="#d7e2ff"/><path d="M83.136 148.656H80.64v11.52h2.496v-11.52z" fill="#ffebd7"/><path d="M110.688 161.616c4.224 1.056 8.16.864 13.632-.48.96-.288 1.92-.768 2.88-1.248-.384 0-.864 0-1.344.096-9.6-.192-12-1.44-12.576-2.208-.096-.096-.096-.192-.192-.288-2.4.384-5.76 1.248-5.952 2.016 0 .384 1.248 1.536 3.552 2.112z" fill="#d7e2ff"/><path d="M125.664 159.504v-5.568s.096-3.648-2.016-6.24h-.288c-1.152 0-2.016-.384-2.208-.96-2.496.288-7.008 1.536-7.392 7.2l-.192 3.264c0 .096.096.192.192.288.384.48 2.496 1.824 11.904 2.016z" fill="#ffd2fd"/><path d="M126.048 153.936v5.568c4.224-.096 5.376-.864 5.76-1.344.096-.096.096-.192.096-.384v-.096-3.744c0-1.344-.384-2.688-1.056-3.936-1.344-2.208-3.552-3.072-5.28-3.36-.192.384-.768.672-1.44.864 2.016 2.784 1.92 6.24 1.92 6.432z" fill="#ffebd7"/><path d="M125.28 146.448c0 .48-.864.768-1.92.768s-1.92-.384-1.92-.768c0-.48.864-.768 1.92-.768 1.056-.096 1.92.288 1.92.768zm43.008-4.512h-14.88c-.192 0-.384.192-.384.384v1.824h15.552v-1.824c.096-.192-.096-.384-.288-.384z" fill="#d7e2ff"/><path d="M168.672 149.232v-4.32h-2.4c0 .768.096 2.976 2.4 4.32zm-15.552 0c2.304-1.344 2.4-3.552 2.4-4.32h-2.4v4.32z" fill="#ffebd7"/><path d="M168.672 165.552V150c-2.88-1.44-3.072-4.128-3.072-5.184h-4.32v8.928l2.784 11.808c0 .192.192.288.384.288h3.936c.096.096.288-.096.288-.288zm-15.168.384h3.936c.192 0 .288-.096.384-.288l2.784-11.808v-8.928h-4.32c0 1.056-.192 3.744-3.072 5.184v15.552c-.096.096.096.288.288.288z" fill="#ffd2fd"/><path d="M153.12 61.968L136.992 45.84l-8.064-1.536c0 4.992-4.128 9.12-9.312 9.12s-9.312-4.128-9.312-9.12l-8.064 1.536-16.416 15.744L97.056 72.72l5.376-5.376v32.64h34.656v-32.16l5.184 5.184 10.848-11.04z" fill="#fff"/><path d="M131.328 58.896h-23.712v28.8h23.712v-28.8z" fill="#ffd2fd"/><path d="M113.856 58.896h-6.24v28.8h6.24v-28.8z" fill="#d7e2ff"/><path d="M131.424 58.896h-6.24v28.8h6.24v-28.8z" fill="#ffebd7"/><path d="M179 173.5H61V189h118v-15.5zM70.154 204.308c2.294 0 4.154-1.86 4.154-4.154S72.448 196 70.154 196 66 197.86 66 200.154s1.86 4.154 4.154 4.154z" fill="#ffd9f1" stroke="#f21197" stroke-miterlimit="10"/></g></g><defs><clipPath id="B"><path fill="#fff" transform="translate(0 .72)" d="M0 0h240v214.08H0z"/></clipPath></defs></svg>