<svg xmlns="http://www.w3.org/2000/svg" xmlns:xlink="http://www.w3.org/1999/xlink" width="240" height="209" fill="none" xmlns:v="https://vecta.io/nano"><g clip-path="url(#A)"><path d="M240 .48H0V208.8h240V.48z" fill="#f4f4f4"/><g fill="#8796a1"><path d="M174.336 12.384H65.664a5.16 5.16 0 0 0-5.184 5.184V126.24a5.16 5.16 0 0 0 5.184 5.184h108.768c2.88 0 5.184-2.304 5.088-5.184V17.568a5.16 5.16 0 0 0-5.184-5.184zm-81.792 126.24H62.88c-1.44 0-2.4.96-2.4 2.4v29.664c0 1.44.96 2.4 2.4 2.4h29.664c1.44 0 2.496-1.056 2.4-2.4v-29.664c0-1.44-.96-2.4-2.4-2.4z"/><use xlink:href="#B"/><path d="M177.12 138.528h-29.76c-1.44 0-2.4.96-2.4 2.4v29.76c0 1.44.96 2.4 2.4 2.4h29.664c1.536 0 2.496-1.056 2.496-2.4v-29.76c0-1.44-.96-2.4-2.4-2.4z"/></g><path d="M139.584 121.248h-39.072c-.202.003-.403-.035-.591-.111a1.53 1.53 0 0 1-.501-.333 1.51 1.51 0 0 1-.332-.501c-.076-.187-.114-.388-.112-.591V115.2a1.52 1.52 0 0 1 .444-1.092c.143-.143.313-.256.501-.332s.389-.114.591-.112h39.072c.202-.002.403.036.591.112s.358.189.501.332.256.314.332.501a1.5 1.5 0 0 1 .112.591v4.512c0 .768-.672 1.536-1.536 1.536z" fill="#333233"/><path d="M74.016 79.872c.192.288.768.48 1.248.48.576 0 .96-.192 1.536-.096.369-.389.574-.904.574-1.44s-.206-1.051-.574-1.44l-5.184-5.184 5.184-5.184c.768-.768.768-2.112.096-2.88-.389-.369-.904-.574-1.44-.574s-1.051.206-1.44.574l-6.528 6.432c-.369.389-.574.904-.574 1.44s.206 1.051.574 1.44l6.528 6.432zm98.496-9.696l-6.432-6.432c-.389-.369-.904-.574-1.44-.574s-1.051.206-1.44.574a2.09 2.09 0 0 0 0 2.88l5.184 5.184-5.184 5.184a2.09 2.09 0 0 0 0 2.88c.192.288.768.48 1.248.48.576 0 1.056-.192 1.632-.864l6.432-6.432a2.09 2.09 0 0 0 0-2.88zm-43.104-26.112c0 4.992-4.128 9.12-9.312 9.12s-9.312-4.128-9.312-9.12L102.72 45.6 86.304 61.344 97.44 72.48l5.376-5.376v32.64h34.656v-32.16l5.184 5.184 11.04-11.04L137.472 45.6l-8.064-1.536zM81.6 144.672c0 1.92-1.632 3.648-3.84 3.648s-3.84-1.632-3.84-3.648l-3.36.48-6.528 6.528 4.416 4.416 2.112-2.112v13.056h14.208v-13.056l2.112 2.112 4.608-4.416-6.528-6.528-3.36-.48zm29.568-28.992a.87.87 0 0 1 .672-.288c.288 0 .48.096.672.192s.192.384.192.672h.672c0-.384-.096-.768-.384-1.056s-.672-.384-1.152-.384a1.59 1.59 0 0 0-1.152.48c-.288.288-.48.768-.48 1.248v.768c0 .48.192.96.48 1.248a1.59 1.59 0 0 0 1.152.48c.48 0 .864-.096 1.152-.384s.384-.576.384-1.056h-.672c0 .288-.096.48-.192.672-.192.192-.384.192-.672.192a.87.87 0 0 1-.672-.288c-.192-.192-.288-.48-.288-.864v-.768l.288-.864zm5.184 2.592v-1.344c0-.384-.096-.576-.288-.768s-.48-.288-.864-.288-.672.096-.864.288a.87.87 0 0 0-.288.672h.672c0-.096 0-.192.096-.288s.192-.096.384-.096.288 0 .384.096.096.192.096.384v.288h-.48c-.384 0-.768.096-.96.288s-.384.384-.384.672a.87.87 0 0 0 .288.672c.192.192.384.288.768.288.192 0 .384-.096.48-.192a.74.74 0 0 0 .384-.384v.192s0 .192.096.192h.672c0-.096-.096-.192-.096-.384 0 0-.096-.096-.096-.288zm-.672-.192c0 .096-.096.192-.288.288s-.288.096-.48.096c-.096 0-.288 0-.288-.096-.096-.096-.096-.192-.096-.288a.73.73 0 0 1 .192-.384c.096-.096.288-.192.48-.192h.576l-.096.576zm2.88-2.208c-.192 0-.384 0-.48.096s-.288.192-.384.288l-.096-.384h-.48v4.224h.672v-1.44a1.32 1.32 0 0 0 .384.288c.192.096.288.096.48.096.384 0 .672-.096.864-.384s.288-.672.288-1.056v-.096c0-.48-.096-.864-.288-1.152s-.576-.48-.96-.48zm.576 1.728c0 .288-.096.48-.192.672a.53.53 0 0 1-.199.213c-.085.051-.182.077-.281.075-.192 0-.288 0-.384-.096s-.192-.096-.192-.288v-1.344c.096-.096.096-.192.192-.288s.192-.096.384-.096c.099-.002.196.024.281.075a.53.53 0 0 1 .199.213c.096.192.192.48.192.864zm2.496.864c-.192 0-.288 0-.288-.096-.096-.096-.096-.096-.096-.288v-1.728h.576v-.48h-.576v-.768h-.672v.768h-.48v.48h.48v1.728c0 .288.096.576.192.672s.384.192.576.192h.288c.096 0 .192 0 .192-.096l-.096-.48c0 .096-.096.096-.096.096zm.768-3.84h.672v.576h-.672v-.576zm0 1.344h.672v3.072h-.672v-3.072zm2.784-.096c-.384 0-.768.192-1.056.48s-.384.672-.384 1.152v.096c0 .48.096.864.384 1.152s.576.48 1.056.48.768-.096 1.056-.384.384-.672.384-1.152v-.096c0-.48-.096-.864-.384-1.152-.288-.384-.672-.576-1.056-.576zm.672 1.632a1.81 1.81 0 0 1-.192.768c-.096.192-.288.288-.576.288s-.384-.096-.576-.288c-.096-.192-.192-.384-.192-.768v-.096c0-.288.096-.48.192-.672s.288-.288.576-.288.384.096.576.288c.096.192.192.384.192.768zm2.784-1.632c-.192 0-.384 0-.48.096a.74.74 0 0 0-.384.384v-.48h-.672v3.072h.672v-2.208l.288-.288c.096-.096.192-.096.384-.096s.384.096.384.192.096.288.096.48v1.92h.672v-1.92c0-.384-.096-.672-.288-.864s-.288-.288-.672-.288z" fill="#fff"/><path d="M108.192 58.752h23.712v28.8h-23.712v-28.8zM72.864 150.24h9.984v12.096h-9.984V150.24zm51.936-.48c-1.248 0-2.112-.384-2.304-.96-2.592.288-7.392 1.632-7.776 7.584l-.192 3.456c0 .096.096.192.192.288.384.384 2.592 1.728 12.48 2.016v-5.856s.096-3.84-2.112-6.528h-.288zm2.016-1.344c0-.48-.96-.864-2.016-.768-1.152 0-2.016.288-2.016.768 0 .384.864.768 2.016.768s2.016-.288 2.016-.768zm43.68-4.32c.096-.192-.192-.384-.384-.384H154.56c-.192 0-.384.192-.384.384v1.92h16.32v-1.92zm-3.168 2.592h-4.512v9.408l2.88 12.384c0 .192.192.288.384.288h4.128c.096.096.384-.096.384-.288v-16.32c-2.976-1.536-3.264-4.32-3.264-5.472zm-13.152 5.568v16.32c.096.096.192.288.384.288h4.128c.192 0 .288-.096.384-.288l2.88-12.384v-9.408h-4.512c0 1.152-.192 3.936-3.264 5.472z" fill="#ffd2fd"/><g fill="#231f20"><path d="M76.32 193.824c-.192.288-.576.576-1.056.864s-1.152.384-1.92.384c-.96 0-1.824-.288-2.4-.96s-.96-1.44-.96-2.4v-1.728c0-.96.288-1.824.864-2.4a3.18 3.18 0 0 1 1.054-.716 3.17 3.17 0 0 1 1.25-.244c.96 0 1.728.192 2.208.672s.768 1.056.864 1.824h-1.248c0-.48-.192-.768-.48-1.056s-.672-.384-1.248-.384-1.056.192-1.344.672c-.384.384-.48.96-.48 1.632v1.728c0 .672.192 1.248.576 1.632s.864.672 1.44.672c.384 0 .768-.096 1.056-.192s.48-.192.576-.384v-1.632H73.44v-1.056h2.976l-.096 3.072zm5.184 1.056c-.096-.192-.096-.288-.096-.48s-.096-.288-.096-.48c-.192.288-.48.48-.768.672s-.672.288-1.056.288c-.672 0-1.152-.192-1.44-.48s-.48-.768-.48-1.344.192-1.056.672-1.344 1.152-.48 1.92-.48h1.056v-.576c0-.288-.096-.576-.288-.768s-.48-.288-.768-.288a1.81 1.81 0 0 0-.768.192c-.192.096-.288.384-.288.576H77.76c0-.48.192-.864.672-1.248s1.056-.576 1.824-.576c.672 0 1.248.192 1.728.576s.672.864.672 1.536v2.688c0 .288 0 .48.096.768s.096.48.192.672l-1.44.096zm-1.632-.96a1.62 1.62 0 0 0 .96-.288c.288-.192.48-.384.576-.576v-.864h-1.056a1.62 1.62 0 0 0-.96.288c-.288.192-.384.384-.384.672 0 .192.096.384.192.576s.384.192.672.192zm5.664.96h-1.344v-8.736h1.344v8.736zm2.976 0h-1.344v-8.736h1.344v8.736zm4.224.096c-.864 0-1.536-.288-2.016-.864s-.768-1.248-.768-2.208v-.192c0-.864.288-1.632.768-2.208s1.152-.864 1.92-.864c.864 0 1.44.288 1.92.768s.672 1.152.672 2.016v.768h-3.84c0 .48.192.864.384 1.152s.576.48 1.056.48c.384 0 .672 0 .96-.096s.48-.192.768-.384l.48.864c-.192.192-.576.384-.864.48s-.96.288-1.44.288zm-.192-5.184c-.384 0-.576.096-.864.384s-.384.576-.384 1.056h2.4v-.096a1.62 1.62 0 0 0-.288-.96c-.192-.288-.48-.384-.864-.384h0zm6.624.192h-.576c-.288 0-.48.096-.672.192s-.288.288-.384.48v4.224h-1.344v-6.048h1.248l.096.864c.192-.288.384-.576.576-.768s.48-.288.864-.288h.192.192l-.192 1.344zm3.168 2.496l.096.576 1.344-4.224h1.536l-2.496 7.008c-.192.384-.384.768-.672 1.056s-.672.48-1.248.48h-.384c-.192 0-.288-.096-.384-.096l.192-1.056h.192.192c.288 0 .48-.096.576-.288s.288-.384.384-.576l.192-.576-2.208-6.048h1.536l1.152 3.744zm8.256 2.4h-1.344v-8.16h1.344v8.16zm2.976-6.048l.096.768c.192-.288.48-.48.768-.672s.672-.192 1.056-.192.768.096 1.056.288.48.48.672.768c.192-.384.48-.576.768-.768s.672-.288 1.056-.288c.576 0 1.056.192 1.44.672s.576 1.056.576 1.92v3.648h-1.344v-3.648c0-.48-.096-.864-.288-1.056s-.48-.288-.768-.288a1.81 1.81 0 0 0-.768.192c-.192.096-.384.384-.48.672v.192.096 3.936h-1.344v-3.648c0-.48-.096-.864-.288-1.056s-.48-.288-.768-.288-.48.096-.672.192a1.16 1.16 0 0 0-.48.48v4.512h-1.536v-6.048h1.248v-.384zm12.384 6.048c-.096-.192-.096-.288-.096-.48s-.096-.288-.096-.48c-.192.288-.48.48-.768.672s-.672.288-1.056.288c-.672 0-1.152-.192-1.44-.48-.384-.288-.48-.768-.48-1.344s.192-1.056.672-1.344 1.152-.48 1.92-.48h1.056v-.576c0-.288-.096-.576-.288-.768s-.48-.288-.768-.288a1.81 1.81 0 0 0-.768.192c-.192.096-.288.384-.288.576h-1.344c0-.48.192-.864.672-1.248s1.056-.576 1.824-.576c.672 0 1.248.192 1.728.576s.672.864.672 1.536v2.688c0 .288 0 .48.096.768s.096.48.192.672l-1.44.096zm-1.632-.96a1.62 1.62 0 0 0 .96-.288c.288-.192.48-.384.576-.576v-.864H124.8a1.62 1.62 0 0 0-.96.288c-.288.192-.384.384-.384.672 0 .192.096.384.192.576s.384.192.672.192zm4.032-2.016c0-.96.192-1.728.672-2.304s1.056-.864 1.728-.864c.384 0 .672.096.96.192s.48.384.672.672l.096-.768h1.152v6.048c0 .768-.288 1.344-.768 1.824s-1.152.672-2.016.672c-.288 0-.576 0-.96-.096l-.96-.288.288-1.056c.192.096.48.192.768.288s.576.096.864.096c.48 0 .864-.096 1.056-.288.24-.263.377-.604.384-.96v-.672c-.192.288-.384.384-.672.576s-.576.192-.864.192c-.768 0-1.344-.288-1.728-.768s-.672-1.248-.672-2.112v-.384zm1.344.096c0 .576.096.96.288 1.344s.576.48 1.056.48a1.81 1.81 0 0 0 .768-.192 1.16 1.16 0 0 0 .48-.48v-2.592a1.16 1.16 0 0 0-.48-.48 1.81 1.81 0 0 0-.768-.192c-.48 0-.864.192-1.056.576s-.384.864-.288 1.536zm8.064 2.976c-.864 0-1.536-.288-2.016-.864s-.768-1.248-.768-2.208v-.192c0-.864.288-1.632.768-2.208s1.152-.864 1.92-.864c.864 0 1.44.288 1.92.768s.672 1.152.672 2.016v.768h-3.84c0 .48.192.864.384 1.152s.576.48 1.056.48c.384 0 .672 0 .96-.096s.48-.192.768-.384l.48.864c-.192.192-.576.384-.864.48s-.96.288-1.44.288zm-.192-5.184c-.384 0-.576.096-.864.384s-.384.576-.384 1.056h2.4v-.096a1.62 1.62 0 0 0-.288-.96c-.192-.288-.48-.384-.864-.384h0zm12.672 2.4c0 .864-.288 1.536-.768 2.016s-1.344.768-2.208.768c-.96 0-1.728-.288-2.304-.96s-.864-1.44-.864-2.496v-1.536c0-.96.288-1.824.864-2.496s1.344-.96 2.304-.96 1.728.288 2.304.768.864 1.152.768 2.016h-1.344c0-.576-.192-.96-.48-1.248s-.768-.48-1.344-.48-.96.192-1.344.672c-.288.48-.48.96-.48 1.632v1.536c0 .672.192 1.248.48 1.632.288.48.768.672 1.344.672s.96-.192 1.248-.48.48-.768.48-1.248h1.344v.192zm4.8 2.688c-.096-.192-.096-.288-.096-.48s-.096-.288-.096-.48c-.192.288-.48.48-.768.672s-.672.288-1.056.288c-.672 0-1.152-.192-1.44-.48s-.48-.768-.48-1.344.192-1.056.672-1.344 1.152-.48 1.92-.48h1.056v-.576c0-.288-.096-.576-.288-.768s-.48-.288-.768-.288a1.81 1.81 0 0 0-.768.192c-.192.096-.288.384-.288.576h-1.344c0-.48.192-.864.672-1.248s1.056-.576 1.824-.576c.672 0 1.248.192 1.728.576s.672.864.672 1.536v2.688c0 .288 0 .48.096.768s.096.48.192.672l-1.44.096zm-1.632-.96a1.62 1.62 0 0 0 .96-.288c.288-.192.48-.384.576-.576v-.864h-1.056a1.62 1.62 0 0 0-.96.288c-.288.192-.384.384-.384.672 0 .192.096.384.192.576s.384.192.672.192zm9.6-1.92c0 .864-.192 1.632-.672 2.112s-.96.768-1.728.768c-.384 0-.672-.096-.96-.192s-.48-.288-.672-.576v2.976h-1.344v-8.448h1.152l.096.768a2.24 2.24 0 0 1 .672-.672c.288-.192.576-.192.96-.192.768 0 1.344.288 1.728.864s.672 1.344.672 2.304l.096.288zm-1.344-.096c0-.576-.096-1.152-.384-1.536-.192-.384-.576-.576-1.056-.576-.288 0-.48.096-.768.192s-.384.288-.48.48v2.784a1.16 1.16 0 0 0 .48.48 1.81 1.81 0 0 0 .768.192c.48 0 .768-.192 1.056-.48.192-.384.384-.768.384-1.344v-.192zm4.224-4.608v1.44h1.056v1.056h-1.056v3.36c0 .288.096.384.192.576s.288.192.48.192h.192s.096 0 .192-.096l.192.96c-.096.096-.288.096-.384.192s-.288.096-.48.096a1.59 1.59 0 0 1-1.152-.48c-.288-.288-.384-.768-.384-1.344v-3.36h-.96v-1.056h.96v-1.44h1.152v-.096zm3.744 0h-1.344v-1.152h1.344v1.152zm0 7.584h-1.344v-6.048h1.344v6.048zm1.344-3.072c0-.864.288-1.632.768-2.208s1.152-.864 2.016-.864 1.536.288 2.016.864.768 1.344.768 2.208v.096c0 .96-.288 1.632-.768 2.208s-1.152.864-2.016.864-1.536-.288-2.016-.864-.768-1.344-.768-2.208v-.096zm1.344.096c0 .576.096 1.056.384 1.44.192.384.576.576 1.056.576s.864-.192 1.056-.576.384-.864.384-1.44v-.096c0-.576-.096-1.056-.384-1.44-.192-.384-.576-.576-1.056-.576s-.864.192-1.056.576-.384.864-.384 1.44v.096zm6.624-3.072l.096.864a2.92 2.92 0 0 1 .768-.768c.288-.192.672-.288 1.056-.288.672 0 1.152.192 1.44.576s.576.96.576 1.824v3.84h-1.44v-3.84c0-.48-.096-.768-.288-.96s-.48-.288-.864-.288c-.288 0-.48.096-.672.192a1.16 1.16 0 0 0-.48.48v4.416h-1.344v-6.048h1.152z"/></g><g fill="#ffebd7"><path d="M154.272 151.392c2.4-1.44 2.496-3.744 2.496-4.512h-2.496v4.512zM168 146.88c0 .768.096 3.072 2.592 4.512v-4.512H168zm-51.168-88.128h6.24v28.8h-6.24v-28.8zM76.704 150.24h2.592v12.096h-2.592V150.24zm37.536 10.08c-.096-.096-.096-.192-.192-.288-2.496.384-6.048 1.344-6.24 2.112-.096.384 1.248 1.536 3.744 2.208 4.416 1.152 8.544.864 14.304-.48.96-.288 2.016-.768 2.976-1.344-.384 0-.864 0-1.44.096-10.08-.192-12.576-1.536-13.152-2.304z"/><path d="M132.576 152.16c-1.44-2.304-3.744-3.264-5.568-3.552-.192.384-.768.672-1.536.864 2.208 2.976 2.112 6.624 2.112 6.816v5.856c4.416-.096 5.664-.864 6.048-1.44.096-.096.096-.192.096-.384v-.096-3.936c0-1.44-.384-2.784-1.152-4.128z"/></g><path d="M195.552 116.928h-42.816v-1.824l-4.032 2.208 4.032 2.304v-1.728h42.336v73.248h-8.16c-.192-.576-.768-1.056-1.44-1.056-.407 0-.798.162-1.086.45s-.45.679-.45 1.086.162.798.45 1.086.679.45 1.086.45c.672 0 1.248-.48 1.44-1.056h8.64c.064.004.128-.005.189-.028s.114-.058.16-.103a.46.46 0 0 0 .103-.16.45.45 0 0 0 .028-.189v-74.208c.004-.064-.005-.128-.028-.188s-.058-.115-.103-.161a.47.47 0 0 0-.16-.103c-.061-.023-.125-.032-.189-.028zm-51.36-6.144h-48.48c-1.344 0-2.496 1.056-2.496 2.496v8.352c0 1.344 1.056 2.496 2.496 2.496h48.576c1.344 0 2.496-1.152 2.4-2.496v-8.352c0-1.344-1.056-2.496-2.496-2.496zm1.44 10.752a1.48 1.48 0 0 1-1.44 1.44h-48.48a1.48 1.48 0 0 1-1.44-1.44v-8.352c.01-.379.165-.739.432-1.007a1.48 1.48 0 0 1 1.008-.433h48.48a1.48 1.48 0 0 1 1.44 1.44v8.352zM66.24 190.56v-.288c0-.096-.096-.288-.096-.384s-.096-.192-.096-.192a.73.73 0 0 0-.192-.384c0-.096-.096-.192-.096-.192-.096-.096-.096-.192-.192-.288 0-.096-.096-.096-.096-.192-.096-.096-.192-.192-.192-.288s-.096-.096-.096-.192l-.288-.288-.192-.192c-.096-.096-.192-.192-.288-.192-.096-.096-.096-.096-.192-.096-.096-.096-.192-.096-.288-.192-.096 0-.096-.096-.192-.096-.096-.096-.288-.096-.384-.192-.096 0-.096-.096-.192-.096-.096-.096-.288-.096-.384-.096s-.192 0-.288-.096c-.192 0-.288 0-.48-.096h-.288-.576c-.096 0-.192 0-.384.096-.288.096-.48.096-.768.192l-.576.288c-.768.48-1.536 1.152-1.92 1.92l-.288.576a1.81 1.81 0 0 0-.192.768c0 .096 0 .192-.096.384v.576.288c-.015.166.018.333.096.48 0 .096 0 .192.096.288 0 .096.096.288.096.384s0 .192.096.192c.024.145.091.278.192.384 0 .096.096.096.096.192.096.096.096.192.192.384 0 .096.096.096.096.192.096.096.192.192.192.288l.192.192.288.288c.096.096.096.096.192.096.096.096.192.192.288.192.096.096.096.096.192.096.096.096.192.096.288.192.096 0 .096.096.192.096.096.096.192.096.384.192.096 0 .192.096.288.096.096.096.288.096.384.096h.288c.192 0 .288.096.48.096h.288.096.48c.096 0 .288 0 .384-.096.288 0 .48-.096.768-.192.192-.096.384-.096.48-.192.864-.48 1.632-1.152 2.112-2.112.096-.192.192-.384.192-.48a1.81 1.81 0 0 0 .192-.768c0-.096 0-.288.096-.384v-.48-.288c-.384-.096-.384-.288-.384-.48zm-8.064-1.44l.96-.96c.192-.192.48-.288.672-.384l-2.016 2.016c.096-.288.192-.48.384-.672zm-.672 1.44l3.072-3.072c.096 0 .288-.096.384-.096l-3.552 3.552c.096-.096.096-.288.096-.384zm-.096.96l4.128-4.128h.288l-4.416 4.416v-.288zm.096.768l4.8-4.8c.096 0 .192 0 .192.096L57.6 192.48s-.096-.096-.096-.192zm.288.864c0-.096-.096-.096-.096-.192l5.28-5.28c.096 0 .096.096.192.096l-5.376 5.376zm.288.48c0-.096-.096-.096-.096-.192l5.568-5.568c.096 0 .096.096.192.096l-5.664 5.664zm.384.48l-.192-.192 5.664-5.664c.096 0 .096.096.192.192l-5.664 5.664zm.48.48c-.096 0-.096-.096-.192-.096l5.76-5.76s.096.096.096.192l-5.664 5.664zm.288.192l5.664-5.664c0 .096.096.096.096.192l-5.568 5.568c-.096 0-.192-.096-.192-.096zm.672.384c-.096 0-.096-.096-.192-.096l5.376-5.376c0 .096.096.192.096.192l-5.28 5.28zm.672.192c-.096 0-.192 0-.288-.096l4.992-4.992c0 .096.096.192.096.288l-4.8 4.8zm4.32-1.632l-1.152 1.152c-.192.192-.48.288-.768.384l2.208-2.208c0 .192-.192.384-.288.672zm.576-1.536l-3.168 3.168c-.096 0-.192 0-.384.096l3.648-3.648c-.096.096-.096.288-.096.384zm-4.128 3.264h-.288l4.416-4.416v.288l-4.128 4.128z" fill="#f21197"/></g><defs><clipPath id="A"><path fill="#fff" transform="translate(0 .48)" d="M0 0h240v208.32H0z"/></clipPath><path id="B" d="M135.648 138.528h-29.76c-1.44 0-2.4.96-2.4 2.4v29.76c0 1.44.96 2.4 2.4 2.4h29.664c1.536 0 2.496-1.056 2.496-2.4v-29.76c0-1.44-.96-2.4-2.4-2.4z"/></defs></svg>