<svg xmlns="http://www.w3.org/2000/svg" xmlns:xlink="http://www.w3.org/1999/xlink" width="240" height="209" fill="none" xmlns:v="https://vecta.io/nano"><style><![CDATA[.B{fill:#ffd2fd}.C{fill:#ffebd7}.D{fill:#8796a1}]]></style><g clip-path="url(#B)"><path d="M240 0H0V208.32H240V0Z" fill="#f4f4f4"/><path d="M174.432 130.944H65.664a5.16 5.16 0 0 1-5.184-5.184V17.088a5.16 5.16 0 0 1 5.184-5.184h108.672a5.16 5.16 0 0 1 5.184 5.184V125.76c.096 2.88-2.208 5.184-5.088 5.184z" class="D"/><path d="M123.072 58.272h-6.24v28.8h6.24v-28.8z" fill="#d7e2ff"/><path d="M153.696 61.248L137.472 45.12l-8.064-1.536c0 4.992-4.128 9.12-9.312 9.12s-9.312-4.128-9.312-9.12l-8.064 1.536-16.416 15.744L97.44 72l5.376-5.376v32.64h34.656v-32.16l5.184 5.184 11.04-11.04z" fill="#fff"/><path d="M131.904 58.272h-23.712v28.8h23.712v-28.8z" class="B"/><path d="M123.072 58.272h-6.24v28.8h6.24v-28.8z" class="C"/><g fill="#231f20"><path d="M101.184 193.344h3.744v1.056H99.84v-8.16h1.344v7.104zm7.296 1.152c-.864 0-1.536-.288-2.016-.864s-.768-1.248-.768-2.208v-.192c0-.864.288-1.632.768-2.208s1.152-.864 1.92-.864c.864 0 1.44.288 1.92.768s.672 1.152.672 2.016v.768h-3.84c0 .48.192.864.384 1.152s.576.48 1.056.48c.384 0 .672 0 .96-.096s.48-.192.768-.384l.48.864c-.192.192-.576.384-.864.48s-.96.288-1.44.288zm-.192-5.184c-.384 0-.576.096-.864.384s-.384.576-.384 1.056h2.4v-.096a1.62 1.62 0 0 0-.288-.96c-.192-.288-.48-.384-.864-.384zm4.896-.96l.096.864a2.92 2.92 0 0 1 .768-.768c.288-.192.672-.288 1.056-.288.672 0 1.152.192 1.44.576s.576.96.576 1.824v3.84h-1.344v-3.84c0-.48-.096-.768-.288-.96s-.48-.288-.864-.288c-.288 0-.48.096-.672.192a1.16 1.16 0 0 0-.48.48v4.416h-1.344v-6.048h1.056zm8.736 4.416c.002-.099-.024-.196-.075-.281a.53.53 0 0 0-.213-.199c-.192-.096-.48-.288-.96-.384-.768-.192-1.248-.384-1.632-.672s-.576-.672-.576-1.152.192-.96.672-1.344.96-.576 1.728-.576 1.344.192 1.728.576.672.864.672 1.344h-1.344a.87.87 0 0 0-.288-.672c-.192-.192-.48-.288-.768-.288a1.81 1.81 0 0 0-.768.192c-.192.096-.288.288-.288.576s.096.384.288.48.48.192.96.288c.768.192 1.344.384 1.728.672s.576.672.576 1.152c0 .576-.192.96-.672 1.344s-1.056.48-1.824.48-1.44-.192-1.92-.576-.672-.864-.672-1.44h1.248c0 .384.096.576.384.768s.576.288.864.288c.384 0 .672-.096.768-.192s.384-.192.384-.384zm11.52-1.056c0 .864-.288 1.536-.768 2.016s-1.344.768-2.208.768c-.96 0-1.728-.288-2.304-.96s-.864-1.44-.864-2.496v-1.536c0-.96.288-1.824.864-2.496s1.344-.96 2.304-.96 1.728.288 2.304.768.864 1.152.768 2.016h-1.344c0-.576-.192-.96-.48-1.248s-.768-.48-1.344-.48-.96.192-1.344.672c-.288.48-.48.96-.48 1.632v1.536c0 .672.192 1.248.48 1.632.288.48.768.672 1.344.672s.96-.192 1.248-.48.48-.768.48-1.248h1.344v.192z"/><use xlink:href="#C"/><path d="M142.656 194.4h-1.344v-8.736h1.344v8.736zm1.248-3.072c0-.864.288-1.632.768-2.208s1.152-.864 2.016-.864 1.536.288 2.016.864.768 1.344.768 2.208v.096c0 .96-.288 1.632-.768 2.208s-1.152.864-2.016.864-1.536-.288-2.016-.864-.768-1.344-.768-2.208v-.096zm1.344.096c0 .576.096 1.056.384 1.44.192.384.576.576 1.056.576s.864-.192 1.056-.576.384-.864.384-1.44v-.096c0-.576-.096-1.056-.384-1.44-.192-.384-.576-.576-1.056-.576s-.864.192-1.056.576-.384.864-.384 1.44v.096zm8.448-1.92h-.576c-.288 0-.48.096-.672.192s-.288.288-.384.48v4.224h-1.344v-6.048h1.248l.096.864c.192-.288.384-.576.576-.768s.48-.288.864-.288h.192.192l-.192 1.344z"/></g><path d="M92.544 172.608H62.88c-1.44 0-2.4-.96-2.4-2.4v-29.664c0-1.44.96-2.4 2.4-2.4h29.664c1.44 0 2.4.96 2.4 2.4v29.664c.096 1.344-.96 2.4-2.4 2.4z" class="D"/><path d="M91.488 151.2l-6.528-6.528-3.36-.48c0 1.92-1.632 3.648-3.84 3.648s-3.84-1.632-3.84-3.648l-3.36.48-6.528 6.528 4.416 4.416 2.112-2.112v13.056h14.208v-13.056l2.112 2.112 4.608-4.416z" fill="#fff"/><path d="M82.848 149.76h-9.984v12.096h9.984V149.76z" class="B"/><path d="M79.104 149.76h-2.592v12.096h2.592V149.76z" class="C"/><path d="M135.552 172.608h-29.664c-1.44 0-2.4-.96-2.4-2.4v-29.76c0-1.44.96-2.4 2.4-2.4h29.76c1.44 0 2.4.96 2.4 2.4v29.76c0 1.344-.96 2.4-2.496 2.4z" class="D"/><path d="M111.552 163.872c4.416 1.152 8.544.864 14.304-.48.96-.288 2.016-.768 2.976-1.344-.384 0-.864 0-1.44.096-10.08-.192-12.576-1.536-13.152-2.304-.096-.096-.096-.192-.192-.288-2.496.384-6.048 1.344-6.24 2.112-.096.384 1.248 1.536 3.744 2.208z" class="C"/><path d="M127.2 161.664v-5.856s.096-3.84-2.112-6.528h-.288c-1.248 0-2.112-.384-2.304-.96-2.592.288-7.392 1.632-7.776 7.584l-.192 3.456c0 .096.096.192.192.288.384.384 2.592 1.728 12.48 2.016z" class="B"/><path d="M127.584 155.808v5.856c4.416-.096 5.664-.864 6.048-1.44.096-.096.096-.192.096-.384v-.096-3.936c0-1.44-.384-2.784-1.152-4.128-1.44-2.304-3.744-3.264-5.568-3.552-.192.384-.768.672-1.536.864 2.208 2.976 2.112 6.624 2.112 6.816z" class="C"/><path d="M126.816 147.936c0 .48-.864.768-2.016.768s-2.016-.384-2.016-.768c0-.48.864-.768 2.016-.768 1.056-.096 2.016.288 2.016.768z" class="B"/><path d="M177.024 172.608H147.36c-1.44 0-2.4-.96-2.4-2.4v-29.76c0-1.44.96-2.4 2.4-2.4h29.76c1.44 0 2.4.96 2.4 2.4v29.76c0 1.344-.96 2.4-2.496 2.4z" class="D"/><path d="M170.112 143.232H154.56c-.192 0-.384.192-.384.384v1.92h16.32v-1.92c.096-.192-.192-.384-.384-.384z" class="B"/><path d="M170.592 150.912V146.4H168c0 .768.096 3.072 2.592 4.512zm-16.32 0c2.4-1.44 2.496-3.744 2.496-4.512h-2.496v4.512z" class="C"/><path d="M170.592 168v-16.32c-2.976-1.536-3.264-4.32-3.264-5.472h-4.512v9.408l2.88 12.384c0 .192.192.288.384.288h4.128c.096.096.384-.096.384-.288zm-16.032.384h4.128c.192 0 .288-.096.384-.288l2.88-12.384v-9.408h-4.512c0 1.152-.192 3.936-3.264 5.472v16.32c.096.096.192.288.384.288z" class="B"/><g opacity=".62"><path d="M174.144 130.944H65.856c-.706.001-1.406-.137-2.059-.407s-1.246-.665-1.745-1.165-.895-1.092-1.165-1.745-.408-1.353-.407-2.059V17.28c-.001-.706.137-1.406.407-2.059s.666-1.246 1.165-1.745 1.093-.895 1.745-1.165 1.352-.408 2.059-.407h108.288a5.37 5.37 0 0 1 2.059.407 5.36 5.36 0 0 1 1.745 1.165c.5.5.896 1.093 1.165 1.745s.408 1.352.407 2.059v108.288a5.37 5.37 0 0 1-.407 2.059 5.34 5.34 0 0 1-2.91 2.91 5.37 5.37 0 0 1-2.059.407z" fill="#333233"/></g><path d="M150.528 115.296h-37.44c-2.304 0-4.128-1.824-4.128-4.128V74.4c0-2.304 1.824-4.128 4.128-4.128h37.44c2.304 0 4.128 1.824 4.128 4.128v36.768c.096 2.304-1.824 4.128-4.128 4.128zm-37.344-43.68c-1.536 0-2.688 1.248-2.688 2.688v36.768c0 1.536 1.248 2.688 2.688 2.688h37.44c1.536 0 2.688-1.248 2.688-2.688V74.4c0-1.536-1.248-2.688-2.688-2.688l-37.44-.096z" fill="#f21197"/><g opacity=".22"><path d="M114.432 76.032h33.696v32.736h-33.696V76.032z" fill="#eadfea"/></g><mask id="A" maskUnits="userSpaceOnUse" x="114" y="76" width="35" height="33"><path d="M114.432 76.032h33.696v32.736h-33.696V76.032z" fill="#fff"/></mask><g mask="url(#A)"><path d="M153.696 61.248L137.568 45.12l-8.064-1.536c0 4.992-4.128 9.12-9.312 9.12s-9.312-4.128-9.312-9.12l-8.064 1.536L86.4 60.864 97.536 72l5.376-5.376v32.64h34.656v-32.16l5.184 5.184 10.944-11.04z" fill="#fff"/><path d="M131.904 58.272h-23.712v28.8h23.712v-28.8z" class="B"/><path d="M123.168 58.272h-6.24v28.8h6.24v-28.8z" class="C"/></g><path d="M186.912 92.928h-24.768v-1.44l-4.032 1.92 4.032 2.016v-1.44h24.288v96.864h-26.784c-.096-.768-.768-1.248-1.536-1.248-.407 0-.798.162-1.086.45s-.45.679-.45 1.086.162.798.45 1.086.679.45 1.086.45c.576 0 1.152-.288 1.344-.864h27.456c.064.004.128-.005.189-.028s.114-.058.16-.103a.47.47 0 0 0 .103-.16c.023-.061.032-.125.028-.189v-97.92a.45.45 0 0 0-.028-.189c-.023-.06-.058-.115-.103-.16s-.1-.081-.16-.103-.125-.032-.189-.028zm-91.392 97.44v-.288c0-.096-.096-.288-.096-.384s-.096-.192-.096-.192a.73.73 0 0 0-.192-.384c0-.096-.096-.192-.096-.192-.096-.096-.096-.192-.192-.288 0-.096-.096-.096-.096-.192-.096-.096-.192-.192-.192-.288s-.096-.096-.096-.192l-.288-.288-.192-.192c-.096-.096-.192-.192-.288-.192-.096-.096-.096-.096-.192-.096-.096-.096-.192-.096-.288-.192-.096 0-.096-.096-.192-.096-.096-.096-.288-.096-.384-.192-.096 0-.096-.096-.192-.096-.096-.096-.288-.096-.384-.096s-.192 0-.288-.096c-.192 0-.288 0-.48-.096h-.288-.576c-.096 0-.192 0-.384.096-.288.096-.48.096-.768.192l-.576.288c-.768.48-1.536 1.152-1.92 1.92l-.288.576a1.81 1.81 0 0 0-.192.768c0 .096 0 .192-.096.384v.576.288c-.015.166.018.333.096.48 0 .096 0 .192.096.288 0 .096.096.288.096.384s0 .192.096.192a.73.73 0 0 0 .192.384c0 .096.096.096.096.192.096.096.096.192.192.384 0 .096.096.096.096.192.096.096.192.192.192.288l.192.192.288.288c.096.096.096.096.192.096.096.096.192.192.288.192.096.096.096.096.192.096.096.096.192.096.288.192.096 0 .096.096.192.096.096.096.192.096.384.192.096 0 .192.096.288.096.096.096.288.096.384.096h.288c.192 0 .288.096.48.096h.288.096.48c.096 0 .288 0 .384-.096.288 0 .48-.096.768-.192.192-.096.384-.096.48-.192.864-.48 1.632-1.152 2.112-2.112.096-.192.192-.384.192-.48a1.81 1.81 0 0 0 .192-.768c0-.096 0-.288.096-.384v-.48-.288c-.288-.096-.288-.288-.384-.48zm-7.968-1.44l.96-.96c.192-.192.48-.288.672-.384l-2.016 2.016c.096-.288.192-.48.384-.672zm-.672 1.44l3.072-3.072c.096 0 .288-.096.384-.096l-3.552 3.552c0-.096 0-.288.096-.384zm-.096.96l4.128-4.128h.288l-4.416 4.416v-.288zm.096.768l4.8-4.8c.096 0 .192 0 .192.096l-4.992 4.992v-.288zm.288.864c0-.096-.096-.096-.096-.192l5.28-5.28c.096 0 .096.096.192.096l-5.376 5.376zm.288.48c0-.096-.096-.096-.096-.192l5.568-5.568c.096 0 .096.096.192.096l-5.664 5.664zm.384.48l-.192-.192 5.664-5.664c.096 0 .096.096.192.192l-5.664 5.664zm.384.48c-.096 0-.096-.096-.192-.096l5.76-5.76s.096.096.096.192l-5.664 5.664zm.288.192l5.664-5.664c0 .096.096.096.096.192l-5.568 5.568s-.096-.096-.192-.096zm.768.384c-.096 0-.096-.096-.192-.096l5.376-5.376c0 .096.096.192.096.192l-5.28 5.28zm.672.192c-.096 0-.192 0-.288-.096l4.992-4.992c0 .096.096.192.096.288l-4.8 4.8zm4.224-1.728l-1.152 1.152c-.192.192-.48.288-.768.384l2.208-2.208a.87.87 0 0 1-.288.672zm.576-1.44l-3.168 3.168c-.096 0-.192 0-.384.096l3.648-3.648c0 .096 0 .288-.096.384zm-4.032 3.264h-.288l4.416-4.416v.288l-4.128 4.128z" fill="#f21197"/></g><defs><clipPath id="B"><path fill="#fff" d="M0 0h240v208.32H0z"/></clipPath><path id="C" d="M134.4 191.328c0-.864.288-1.632.768-2.208s1.152-.864 2.016-.864 1.536.288 2.016.864.768 1.344.768 2.208v.096c0 .96-.288 1.632-.768 2.208s-1.152.864-2.016.864-1.536-.288-2.016-.864-.768-1.344-.768-2.208v-.096zm1.344.096c0 .576.096 1.056.384 1.44.192.384.576.576 1.056.576s.864-.192 1.056-.576.384-.864.384-1.44v-.096c0-.576-.096-1.056-.384-1.44-.192-.384-.576-.576-1.056-.576s-.864.192-1.056.576-.384.864-.384 1.44v.096z"/></defs></svg>