<svg xmlns="http://www.w3.org/2000/svg" width="240" height="209" fill="none" xmlns:v="https://vecta.io/nano"><style><![CDATA[.B{fill:#d7e2ff}.C{fill:#8796a1}.D{fill:#ffd2fd}.E{fill:#ffebd7}]]></style><g clip-path="url(#A)"><path d="M240 .48H0v207.84h240V.48z" fill="#f4f4f4"/><path d="M62.112 173.472H37.056c-1.152 0-2.016-.864-2.016-2.016v-25.152c0-1.152.864-2.016 2.016-2.016h25.152c1.152 0 2.016.864 2.016 2.016v25.056c0 1.152-.768 2.112-2.112 2.112z" class="C"/><path d="M61.248 155.232l-5.568-5.568-2.784-.384c0 1.632-1.344 3.072-3.264 3.072s-3.264-1.344-3.264-3.072l-2.784.384-5.568 5.568 3.744 3.744 1.824-1.824v11.136H55.68v-11.136l1.824 1.824 3.744-3.744z" fill="#fff"/><path d="M53.952 154.08h-8.448v10.272h8.448V154.08z" class="D"/><path d="M47.712 154.08h-2.208v10.272h2.208V154.08z" class="B"/><path d="M53.952 154.08h-2.208v10.272h2.208V154.08z" class="E"/><path d="M98.592 173.472H73.536c-1.152 0-2.016-.864-2.016-2.016v-25.248c0-1.152.864-2.016 2.016-2.016h25.248c1.152 0 2.016.864 2.016 2.016v25.152c0 1.152-.864 2.112-2.208 2.112z" class="C"/><path d="M78.24 165.984c3.744.96 7.296.768 12.096-.384.898-.303 1.766-.689 2.592-1.152-.384 0-.768 0-1.152.096-8.544-.192-10.656-1.248-11.232-1.92-.096-.096-.096-.192-.192-.288-2.112.384-5.088 1.152-5.28 1.824 0 .288 1.056 1.344 3.168 1.824z" class="B"/><path d="M91.488 164.064v-4.992s.096-3.264-1.824-5.568h-.288c-1.056 0-1.824-.384-1.92-.864-2.208.288-6.24 1.344-6.624 6.432l-.192 2.88c0 .096.096.192.192.288.48.48 2.304 1.728 10.656 1.824z" class="D"/><path d="M91.872 159.168v4.992c3.744-.096 4.8-.768 5.088-1.152.096-.096.096-.192.096-.384v-.096-3.36c0-1.152-.384-2.4-.96-3.456-1.152-1.92-3.168-2.688-4.704-2.976-.192.384-.672.576-1.248.768 1.824 2.4 1.728 5.472 1.728 5.664z" class="E"/><path d="M91.2 152.448c0 .384-.768.672-1.728.672s-1.728-.384-1.728-.672c0-.384.768-.672 1.728-.672s1.728.288 1.728.672z" class="B"/><path d="M133.824 173.472h-25.152c-1.152 0-2.016-.864-2.016-2.016v-25.248c0-1.152.864-2.016 2.016-2.016h25.248c1.152 0 2.016.864 2.016 2.016v25.152c0 1.152-.864 2.112-2.112 2.112z" class="C"/><path d="M127.968 148.512H114.72c-.192 0-.384.192-.384.384v1.632h13.824v-1.632c.192-.288 0-.384-.192-.384z" class="B"/><path d="M128.352 154.944v-3.84h-2.112c-.096.672 0 2.688 2.112 3.84zm-13.92 0c2.016-1.152 2.112-3.168 2.112-3.84h-2.112v3.84z" class="E"/><path d="M128.352 169.536v-13.824c-2.592-1.248-2.688-3.648-2.688-4.608h-3.84v7.968l2.496 10.464c0 .192.192.288.384.288h3.456s.192-.192.192-.288zm-13.632.288h3.456c.192 0 .288-.096.384-.288l2.496-10.464v-7.968h-3.84c0 .96-.192 3.36-2.688 4.608v13.824c-.096.096 0 .288.192.288z" class="D"/><path d="M131.616 136.32H39.36c-2.4 0-4.416-1.92-4.416-4.416v-92.16c0-2.4 1.92-4.416 4.416-4.416h92.16c2.4 0 4.416 1.92 4.416 4.416v92.16c.096 2.496-1.92 4.416-4.32 4.416z" class="C"/><path d="M88.128 74.688h-5.28v24.384h5.28V74.688z" class="B"/><path d="M113.952 77.184L100.32 63.552l-6.816-1.344c0 4.224-3.456 7.776-7.872 7.776s-7.872-3.456-7.872-7.776l-6.816 1.344-14.016 13.344 9.408 9.408 4.512-4.512v27.648h29.376V82.176l4.416 4.416 9.312-9.408z" fill="#fff"/><path d="M95.52 74.688H75.36v24.384h20.064l.096-24.384z" class="D"/><path d="M88.128 74.688h-5.28v24.384h5.28V74.688z" class="E"/><path opacity=".75" d="M240 .48H0V208.8h240V.48z" fill="#000"/><path d="M183.552 174.144H56.544a6.02 6.02 0 0 1-6.048-6.048V41.184a6.02 6.02 0 0 1 6.048-6.048h126.912a6.02 6.02 0 0 1 6.048 6.048v126.912c.096 3.36-2.592 6.048-5.952 6.048z" class="C"/><path d="M159.264 92.736L140.448 73.92l-9.408-1.824c0 5.856-4.8 10.656-10.848 10.656s-10.848-4.8-10.848-10.656l-9.408 1.824-19.2 18.336 12.96 12.96 6.24-6.24v38.112h40.416V99.552l6.048 6.048 12.864-12.864z" fill="#fff"/><path d="M133.824 89.28h-27.648v33.6h27.648v-33.6z" class="D"/><path d="M123.648 89.28h-7.296v33.6h7.296v-33.6z" class="B"/><path d="M123.648 89.28h-7.296v33.6h7.296v-33.6z" class="E"/></g><defs><clipPath id="A"><path fill="#fff" transform="translate(0 .48)" d="M0 0h240v207.84H0z"/></clipPath></defs></svg>