<svg xmlns="http://www.w3.org/2000/svg" width="240" height="202" fill="none" xmlns:v="https://vecta.io/nano"><g clip-path="url(#B)"><mask id="A" maskUnits="userSpaceOnUse" x="0" y="0" width="240" height="202"><path d="M240 .12H0v201.312h240V.12z" fill="#fff"/></mask><g mask="url(#A)"><path d="M240 .12H0v201.312h240V.12z" fill="#f4f4f4"/><path d="M83.673 183.886a1.23 1.23 0 0 0-.574-.927c-.335-.22-.746-.33-1.234-.33-.356 0-.668.057-.935.172s-.471.274-.621.476a1.14 1.14 0 0 0-.22.688c0 .214.051.399.153.554a1.37 1.37 0 0 0 .401.381c.162.099.333.181.511.248l.491.152.817.22c.21.056.443.132.699.229s.507.228.743.396.435.377.589.637.232.578.232.955c0 .434-.114.827-.342 1.178s-.555.63-.99.837-.957.31-1.575.31c-.576 0-1.075-.093-1.497-.278s-.749-.446-.99-.779-.373-.719-.405-1.159h1.006c.026.305.128.556.307.755s.409.343.684.44.576.142.896.142c.372 0 .706-.061 1.002-.182s.53-.293.703-.511.259-.476.259-.769c0-.267-.075-.485-.224-.652a1.63 1.63 0 0 0-.589-.409c-.244-.105-.507-.196-.79-.275l-.99-.283c-.629-.181-1.126-.439-1.493-.774s-.55-.774-.55-1.316c0-.45.122-.844.365-1.179s.576-.6.99-.785.881-.283 1.395-.283c.519 0 .98.093 1.383.278s.723.435.959.755.364.682.377 1.088h-.943zm3.456-2.012v8.047h-.927v-8.047h.927zm1.698 8.047v-6.035h.927v6.035h-.927zm.472-7.041a.66.66 0 0 1-.468-.184c-.128-.123-.192-.272-.192-.445a.59.59 0 0 1 .192-.443.66.66 0 0 1 .468-.184c.181 0 .335.061.464.184s.196.271.196.443a.59.59 0 0 1-.196.445c-.128.123-.283.184-.464.184zm4.433 7.167c-.503 0-.947-.127-1.332-.382s-.686-.618-.904-1.084-.326-1.023-.326-1.662.109-1.184.326-1.65.52-.826.908-1.08.835-.381 1.344-.381c.393 0 .703.065.931.196s.406.275.526.44l.287.4h.079v-2.97h.927v8.047h-.896v-.928h-.11c-.068.111-.165.249-.291.417s-.305.313-.538.444-.544.193-.931.193zm.126-.834c.372 0 .686-.097.943-.291s.452-.467.585-.813.2-.749.2-1.205c0-.451-.066-.845-.196-1.183s-.325-.605-.582-.794-.574-.286-.951-.286c-.393 0-.72.101-.982.302a1.81 1.81 0 0 0-.585.813c-.128.341-.192.723-.192 1.148s.066.819.196 1.17.33.627.589.833.587.306.974.306zm6.997.834c-.581 0-1.083-.129-1.505-.385s-.743-.621-.971-1.085-.338-1.008-.338-1.626.112-1.163.338-1.634.545-.844.95-1.109.886-.4 1.431-.4a2.85 2.85 0 0 1 .931.157c.306.105.585.275.837.511s.451.541.601.927.224.858.224 1.422v.392h-4.652v-.801h3.709c0-.34-.068-.644-.205-.911a1.54 1.54 0 0 0-.573-.633 1.61 1.61 0 0 0-.872-.231c-.37 0-.689.091-.959.274s-.473.417-.617.708-.216.602-.216.935v.534c0 .456.079.843.235 1.159s.381.554.664.719.611.243.986.243a2.01 2.01 0 0 0 .66-.101c.199-.072.371-.176.515-.314s.255-.318.334-.527l.896.251c-.095.304-.253.571-.476.802a2.32 2.32 0 0 1-.825.534c-.328.125-.695.189-1.104.189zm3.909-.126v-6.035h.896v.911h.063a1.45 1.45 0 0 1 .597-.726 1.75 1.75 0 0 1 .974-.279l.256.004.231.012v.942a3.47 3.47 0 0 0-.216-.035 2.04 2.04 0 0 0-.349-.027c-.293 0-.555.061-.786.184a1.39 1.39 0 0 0-.542.503c-.132.212-.197.454-.197.727v3.819h-.927zm13.735-8.047v8.047h-.943l-4.385-6.318h-.078v6.318h-.975v-8.047h.943l4.401 6.334h.078v-6.334h.959zm3.6 8.188c-.383 0-.73-.072-1.042-.216s-.559-.357-.742-.633-.276-.612-.276-1.005c0-.346.069-.626.205-.841a1.44 1.44 0 0 1 .546-.511c.228-.122.479-.215.755-.275l.836-.149.892-.106c.23-.026.398-.07.503-.13s.161-.165.161-.314v-.032c0-.387-.106-.688-.318-.903s-.528-.322-.955-.322c-.443 0-.79.096-1.041.29s-.429.402-.531.621l-.88-.314c.158-.367.367-.652.629-.857a2.39 2.39 0 0 1 .864-.432 3.63 3.63 0 0 1 .927-.125c.194 0 .417.024.668.071s.5.137.735.278.437.355.593.64.236.668.236 1.148v3.976h-.927v-.817h-.047a1.66 1.66 0 0 1-.314.42c-.147.149-.343.276-.586.381s-.541.157-.891.157zm.141-.832c.366 0 .676-.072.927-.216s.445-.331.573-.559.197-.468.197-.718v-.849c-.039.047-.126.09-.259.13a4.61 4.61 0 0 1-.456.098l-.499.071-.389.047c-.241.031-.466.082-.676.152s-.374.172-.502.311-.189.322-.189.558c0 .322.119.566.357.731s.546.244.916.244zm9.035-5.344l-2.232 6.035h-.943l-2.231-6.035h1.006l1.665 4.809h.064l1.665-4.809h1.006zm1.224 6.035v-6.035h.928v6.035h-.928zm.472-7.041a.66.66 0 0 1-.468-.184c-.129-.123-.193-.272-.193-.445a.59.59 0 0 1 .193-.443.66.66 0 0 1 .468-.184c.18 0 .335.061.463.184s.196.271.196.443a.59.59 0 0 1-.196.445c-.128.123-.283.184-.463.184zm4.589 9.429c-.448 0-.833-.057-1.155-.173s-.591-.262-.805-.447-.381-.38-.507-.589l.738-.519.319.377c.128.144.303.268.526.373s.52.161.884.161c.487 0 .889-.118 1.206-.353s.476-.606.476-1.108v-1.226h-.078a5.37 5.37 0 0 1-.291.408c-.123.161-.302.303-.535.428s-.542.186-.935.186c-.487 0-.925-.115-1.312-.346s-.691-.566-.915-1.006-.334-.974-.334-1.603c0-.618.108-1.156.326-1.615s.519-.817.907-1.068.835-.381 1.344-.381c.393 0 .705.065.935.196s.411.275.534.44l.291.4h.094v-.958h.896v6.208c0 .518-.117.94-.354 1.265s-.547.567-.942.719-.831.231-1.313.231zm-.031-3.316c.372 0 .686-.085.942-.255s.453-.415.586-.734.201-.702.201-1.148a3.13 3.13 0 0 0-.197-1.151c-.131-.333-.325-.593-.581-.782s-.574-.282-.951-.282c-.393 0-.72.099-.982.298a1.81 1.81 0 0 0-.586.802c-.128.335-.192.707-.192 1.115 0 .419.065.79.196 1.112s.33.571.589.755.587.27.975.27zm6.113 1.069c-.382 0-.73-.072-1.041-.216s-.559-.357-.743-.633-.274-.612-.274-1.005c0-.346.068-.626.204-.841a1.44 1.44 0 0 1 .545-.511 2.92 2.92 0 0 1 .755-.275l.837-.149.892-.106c.23-.026.398-.07.503-.13s.16-.165.16-.314v-.032c0-.387-.105-.688-.317-.903s-.528-.322-.955-.322c-.443 0-.79.096-1.041.29s-.428.402-.531.621l-.88-.314c.157-.367.367-.652.629-.857s.552-.35.864-.432a3.62 3.62 0 0 1 .928-.125c.194 0 .416.024.668.071a2.14 2.14 0 0 1 .734.278c.238.142.436.355.593.64s.236.668.236 1.148v3.976h-.928v-.817h-.047c-.062.13-.167.271-.314.42a1.82 1.82 0 0 1-.585.381c-.244.105-.541.157-.892.157zm.142-.832c.366 0 .675-.072.926-.216s.446-.331.574-.559a1.42 1.42 0 0 0 .196-.718v-.849c-.038.047-.124.09-.259.13s-.282.069-.455.098l-.499.071-.389.047c-.241.031-.466.082-.676.152s-.374.172-.503.311-.188.322-.188.558c0 .322.119.566.357.731s.546.244.916.244zm6.941-5.344v.786h-3.128v-.786h3.128zm-2.216-1.445h.927v5.751c0 .262.038.459.114.589a.59.59 0 0 0 .298.26c.124.042.254.063.39.063a1.7 1.7 0 0 0 .251-.016l.157-.031.189.832c-.063.024-.151.047-.264.071s-.255.04-.428.04c-.262 0-.518-.057-.77-.169s-.456-.285-.62-.515-.244-.521-.244-.873v-6.002zm3.611 7.48v-6.035h.927v6.035h-.927zm.471-7.041c-.18 0-.337-.061-.467-.184s-.193-.272-.193-.445a.59.59 0 0 1 .193-.443c.13-.123.287-.184.467-.184s.335.061.464.184a.59.59 0 0 1 .197.443c0 .173-.067.322-.197.445s-.283.184-.464.184zm4.605 7.167c-.544 0-1.022-.13-1.433-.389s-.729-.622-.959-1.089-.342-1.011-.342-1.634c0-.629.114-1.178.342-1.646a2.63 2.63 0 0 1 .959-1.093c.411-.259.889-.388 1.433-.388s1.023.129 1.431.388.73.623.959 1.093.345 1.017.345 1.646c0 .623-.115 1.169-.345 1.634s-.549.83-.959 1.089-.886.389-1.431.389zm0-.834c.415 0 .755-.105 1.023-.317s.464-.492.592-.838.193-.72.193-1.123-.064-.779-.193-1.128-.326-.63-.592-.845-.608-.321-1.023-.321-.753.106-1.021.321-.465.497-.594.845a3.27 3.27 0 0 0-.192 1.128 3.23 3.23 0 0 0 .192 1.123 1.89 1.89 0 0 0 .594.838c.268.212.607.317 1.021.317zm5.078-2.923v3.631h-.928v-6.035h.896v.943h.079c.141-.306.356-.553.644-.738s.66-.283 1.116-.283c.408 0 .766.083 1.073.251a1.7 1.7 0 0 1 .715.755c.17.335.255.759.255 1.273v3.834h-.927v-3.772c0-.474-.123-.843-.37-1.108s-.583-.4-1.014-.4a1.61 1.61 0 0 0-.793.192c-.23.128-.412.316-.546.561s-.2.546-.2.896z" fill="#231f20"/><path d="M94.176 171.48H63.072c-1.536 0-2.496-1.056-2.496-2.496v-31.2c0-1.536 1.056-2.496 2.496-2.496h31.2c1.536 0 2.496 1.056 2.496 2.496v31.2c.096 1.344-.96 2.496-2.592 2.496zm41.376 0h-31.104c-1.536 0-2.496-1.056-2.496-2.496v-31.2c0-1.536 1.056-2.496 2.496-2.496h31.2c1.536 0 2.496 1.056 2.496 2.496v31.2c.096 1.344-.96 2.496-2.592 2.496zm41.472 0h-31.2c-1.536 0-2.496-1.056-2.496-2.496v-31.2c0-1.536 1.056-2.496 2.496-2.496h31.2c1.536 0 2.496 1.056 2.496 2.496v31.2c.192 1.344-.96 2.496-2.496 2.496zm-2.688-40.416H65.664a5.16 5.16 0 0 1-5.184-5.184V17.208a5.16 5.16 0 0 1 5.184-5.184h108.672a5.16 5.16 0 0 1 5.184 5.184V125.88a5.16 5.16 0 0 1-5.184 5.184z" fill="#8796a1"/><path d="M164.448 79.992c-.48 0-1.056-.192-1.248-.48a2.09 2.09 0 0 1 0-2.88l5.184-5.184-5.184-5.184a2.09 2.09 0 0 1 0-2.88 2.09 2.09 0 0 1 2.88 0l6.432 6.432a2.09 2.09 0 0 1 0 2.88l-6.432 6.432c-.576.672-1.056.864-1.632.864zM75.552 62.808c.48 0 1.056.192 1.248.48a2.09 2.09 0 0 1 0 2.88l-5.184 5.184 5.184 5.184a2.09 2.09 0 0 1 0 2.88 2.09 2.09 0 0 1-2.88 0l-6.432-6.432a2.09 2.09 0 0 1 0-2.88l6.432-6.432c.576-.672 1.056-.864 1.632-.864zM91.776 149.4l-6.24-6.24-3.168-.48c0 1.824-1.536 3.456-3.648 3.456s-3.648-1.536-3.648-3.456l-3.168.48-6.24 6.24 4.224 4.224 2.016-2.016v12.48H85.44v-12.48l2.016 2.016 4.32-4.224z" fill="#fff"/><path d="M83.616 148.056h-9.504v11.52h9.504v-11.52z" fill="#ffd2fd"/><path d="M76.608 148.056h-2.496v11.52h2.496v-11.52z" fill="#d7e2ff"/><path d="M83.616 148.056H81.12v11.52h2.496v-11.52z" fill="#ffebd7"/><path d="M111.264 161.016c4.224 1.056 8.16.864 13.632-.48.96-.288 1.92-.768 2.88-1.248-.384 0-.864 0-1.344.096-9.6-.192-12-1.44-12.576-2.208-.096-.096-.096-.192-.192-.288-2.4.384-5.76 1.248-5.952 2.016-.096.384 1.152 1.536 3.552 2.112z" fill="#d7e2ff"/><path d="M126.144 158.904v-5.568s.096-3.648-2.016-6.24h-.288c-1.152 0-2.016-.384-2.208-.96-2.496.288-7.008 1.536-7.392 7.2l-.192 3.264c0 .096.096.192.192.288.384.48 2.496 1.824 11.904 2.016z" fill="#ffd2fd"/><path d="M126.528 153.336v5.568c4.224-.096 5.376-.864 5.76-1.344.096-.096.096-.192.096-.384v-.096-3.744c0-1.344-.384-2.688-1.056-3.936-1.344-2.208-3.552-3.072-5.28-3.36-.192.384-.768.672-1.44.864 2.016 2.784 1.92 6.24 1.92 6.432z" fill="#ffebd7"/><path d="M125.76 145.848c0 .48-.864.768-1.92.768s-1.92-.384-1.92-.768c0-.48.864-.768 1.92-.768 1.056-.096 1.92.288 1.92.768zm43.104-4.512h-14.88c-.192 0-.384.192-.384.384v1.824h15.552v-1.824c0-.192-.096-.384-.288-.384z" fill="#d7e2ff"/><path d="M169.152 148.632v-4.32h-2.4c0 .768.096 2.976 2.4 4.32zm-15.552 0c2.304-1.344 2.4-3.552 2.4-4.32h-2.4v4.32z" fill="#ffebd7"/><path d="M169.152 164.952V149.4c-2.88-1.44-3.072-4.128-3.072-5.184h-4.32v8.928l2.784 11.808c0 .192.192.288.384.288h3.936c.192.096.288-.096.288-.288zm-15.168.384h3.936c.192 0 .288-.096.384-.288l2.784-11.808v-8.928h-4.32c0 1.056-.192 3.744-3.072 5.184v15.552c-.096.096.096.288.288.288z" fill="#ffd2fd"/><path d="M153.696 61.368L137.472 45.24l-8.064-1.536c0 4.992-4.128 9.12-9.312 9.12s-9.312-4.128-9.312-9.12l-8.064 1.536-16.416 15.744L97.536 72.12l5.376-5.376v32.64h34.656v-32.16l5.184 5.184 10.944-11.04z" fill="#fff"/><path d="M131.808 58.296h-23.712v28.8h23.712v-28.8z" fill="#ffd2fd"/><path d="M114.336 58.296h-6.24v28.8h6.24v-28.8z" fill="#d7e2ff"/><path d="M131.904 58.296h-6.24v28.8h6.24v-28.8z" fill="#ffebd7"/><path opacity=".5" d="M179.52 137.784v31.2c.096 1.44-1.056 2.592-2.496 2.592h-3.744v-36.288h3.744c1.536-.096 2.496.96 2.496 2.496zm-118.944 31.2v-31.2c-.096-1.44 1.056-2.592 2.496-2.592h3.744v36.288h-3.744c-1.44 0-2.496-.96-2.496-2.496z" fill="#000"/><path d="M64.8 150.648c.192 0 .288.096.384.192a.64.64 0 0 1 0 .96l-1.632 1.632 1.632 1.632a.64.64 0 0 1 0 .96.64.64 0 0 1-.96 0l-2.016-2.016a.64.64 0 0 1 0-.96l2.112-2.208c.096-.192.288-.192.48-.192zm110.496 5.472c-.192 0-.288-.096-.384-.192a.64.64 0 0 1 0-.96l1.632-1.632-1.632-1.632a.64.64 0 0 1 0-.96.64.64 0 0 1 .96 0l2.016 2.016a.64.64 0 0 1 0 .96l-2.016 2.016c-.192.288-.384.384-.576.384z" fill="#fff"/><path d="M71.424 184.632c-20.352-7.776-36.96-24.96-42.816-46.08-4.8-17.088-3.168-37.248 8.16-51.456.768-1.056 1.632-2.016 2.592-2.976 4.992-5.28 11.52-8.928 18.528-11.04" stroke="#f26522" stroke-miterlimit="10" stroke-linecap="round" stroke-dasharray="2 2"/><path d="M72.288 181.848c1.536.576 2.304 2.208 1.728 3.744s-2.208 2.304-3.744 1.728-2.304-2.208-1.728-3.744 2.208-2.208 3.744-1.728zM57.792 77.112l5.472-5.376-7.392-2.016 1.92 7.392z" fill="#f26522"/><path d="M168 184.632c20.352-7.776 36.96-24.96 42.816-46.08 4.8-17.088 3.168-37.248-8.16-51.456-.768-1.056-1.632-2.016-2.592-2.976-5.088-5.28-11.616-8.928-18.624-11.04" stroke="#f26522" stroke-miterlimit="10" stroke-linecap="round" stroke-dasharray="2 2"/><path d="M169.056 187.32c-1.536.576-3.168-.192-3.744-1.728s.192-3.168 1.728-3.744 3.168.192 3.744 1.728-.192 3.168-1.728 3.744zm14.4-117.6l-7.392 2.016 5.472 5.376 1.92-7.392z" fill="#f26522"/></g></g><defs><clipPath id="B"><path fill="#fff" transform="translate(0 .12)" d="M0 0h240v201.6H0z"/></clipPath></defs></svg>