<svg xmlns="http://www.w3.org/2000/svg" width="240" height="137" fill="none" xmlns:v="https://vecta.io/nano"><g clip-path="url(#B)"><mask id="A" maskUnits="userSpaceOnUse" x="0" y="0" width="240" height="137"><path d="M2.88 0h234.24c1.632 0 2.88 1.248 2.88 2.88v130.56c0 1.632-1.248 2.88-2.88 2.88H2.88c-1.632 0-2.88-1.248-2.88-2.88V2.88C0 1.248 1.248 0 2.88 0z" fill="#fff"/></mask><g mask="url(#A)"><path d="M240 0H0V136.32H240V0Z" fill="#f4f4f4"/><path d="M225.12 113.088h-94.944a4.51 4.51 0 0 1-4.512-4.512V13.632c0-2.496 2.016-4.512 4.512-4.512h94.944c2.496 0 4.512 2.016 4.512 4.512v94.944c.096 2.496-1.92 4.512-4.512 4.512z" fill="#8796a1"/><path d="M185.376 22.176c0 .384-.192.864-.384 1.152a1.8 1.8 0 0 1-2.496 0l-4.512-4.512-4.512 4.512a1.8 1.8 0 0 1-2.496 0 1.8 1.8 0 0 1 0-2.496l5.664-5.664a1.8 1.8 0 0 1 2.496 0l5.664 5.664c.384.48.576.864.576 1.344zm0 77.856c0 .384-.192.864-.384 1.152l-5.664 5.664a1.8 1.8 0 0 1-2.496 0l-5.664-5.664a1.8 1.8 0 0 1 0-2.496 1.8 1.8 0 0 1 2.496 0l4.512 4.512 4.512-4.512a1.8 1.8 0 0 1 2.496 0c0 .48.192.864.192 1.344z" fill="#fff"/><path d="M109.824 113.088H14.88a4.51 4.51 0 0 1-4.512-4.512V13.632c0-2.496 2.016-4.512 4.512-4.512h94.944c2.496 0 4.512 2.016 4.512 4.512v94.944a4.51 4.51 0 0 1-4.512 4.512z" fill="#8796a1"/><path d="M101.28 68.544c-.384 0-.864-.192-1.152-.384a1.8 1.8 0 0 1 0-2.496l4.512-4.512-4.512-4.512a1.8 1.8 0 0 1 0-2.496 1.8 1.8 0 0 1 2.496 0l5.664 5.664a1.8 1.8 0 0 1 0 2.496l-5.664 5.664c-.48.288-.864.576-1.344.576zm-77.856 0c-.384 0-.864-.192-1.152-.384l-5.664-5.664a1.8 1.8 0 0 1 0-2.496l5.664-5.664a1.8 1.8 0 0 1 2.496 0 1.8 1.8 0 0 1 0 2.496l-4.512 4.512 4.512 4.512a1.8 1.8 0 0 1 0 2.496c-.48-.096-.864.192-1.344.192z" fill="#fff"/><path d="M165.024 125.664l-1.632-5.184h-1.248l2.304 6.528h.288.576.288l2.4-6.528h-1.248l-1.728 5.184zm6.912-2.88c-.192-.192-.384-.384-.672-.48s-.576-.192-.96-.192c-.288 0-.576.096-.864.192s-.48.288-.672.48a2.09 2.09 0 0 0-.48.768c-.096.288-.192.672-.192 1.056v.192c0 .288.096.672.192.96a2.09 2.09 0 0 0 1.248 1.248c.288.096.576.192.96.192.288 0 .576 0 .864-.096.192-.096.384-.192.576-.384.192-.096.288-.288.384-.48l-.576-.576c-.192.192-.288.384-.576.48-.192.096-.48.192-.672.192s-.384 0-.576-.096-.288-.192-.384-.288-.192-.288-.288-.48c0-.096-.096-.288-.096-.48h3.168v-.48c0-.288 0-.672-.096-.96 0-.288-.096-.576-.288-.768zm-.576 1.344h-2.112v-.192c.096-.192.096-.384.192-.48s.192-.288.384-.288c.192-.096.288-.096.48-.096s.48.096.576.192c.192.096.288.288.288.384.192.096.192.192.192.48zm7.584 2.112h-.192-.288c-.096 0-.096-.096-.192-.192 0-.096-.096-.192-.096-.384v-2.688h.864v-.768h-.864v-1.248h-1.056v1.152h-.768v.768h.768v2.784a1.81 1.81 0 0 0 .192.768 1.16 1.16 0 0 0 .48.48c.192.096.384.096.672.096h.384c.096 0 .192 0 .288-.096v-.864l-.192.192zm11.904-.288v-2.208a1.62 1.62 0 0 0-.288-.96c-.192-.288-.384-.48-.672-.576s-.576-.192-.96-.192c-.288 0-.576 0-.864.096-.192.096-.48.192-.672.288s-.288.288-.384.48-.096.384-.096.576h1.056c0-.096 0-.288.096-.384l.288-.288c.192-.096.288-.096.48-.096s.384 0 .48.096l.288.288c.096.096.096.288.096.48v.384h-.576c-.384 0-.672 0-.96.096s-.48.192-.672.288-.288.288-.48.48c-.096.192-.096.384-.096.672s.096.48.192.768c.096.192.384.384.576.48.288.096.576.192.864.192.192 0 .48 0 .672-.096s.384-.192.48-.288.096-.096.096-.192v.096c0 .192.096.288.096.48h1.152v-.096c-.096-.096-.096-.288-.096-.48-.096 0-.096-.192-.096-.384zm-1.536.192c-.192.096-.384.096-.576.096s-.288 0-.384-.096-.192-.096-.288-.288c-.096-.096-.096-.192-.096-.384s0-.288.096-.384.096-.192.192-.288.288-.096.384-.192c.192 0 .288-.096.576-.096h.576v.864s0 .096-.096.096c-.096.48-.192.576-.384.672zm-8.832-5.856c-.192 0-.384.096-.48.192s-.192.288-.192.384c0 .192.096.288.192.384s.288.192.48.192.384-.096.48-.192.192-.288.192-.384c0-.192-.096-.288-.192-.384s-.288-.192-.48-.192zm-4.992 1.824c-.192 0-.48.096-.672.192a1.16 1.16 0 0 0-.48.48v-.576h-1.056v4.896h1.056v-3.264c.096-.096.096-.192.192-.288s.192-.192.384-.192c.192-.096.288-.096.48-.096h.192.192v-.96h-.192c.096-.192 0-.192-.096-.192zm17.664-1.92h-1.056v6.912h1.056v-6.912zm-9.984 3.744c0-.192.096-.384.192-.48a.75.75 0 0 1 .384-.384c.192-.096.384-.096.576-.096s.384 0 .48.096.288.192.288.384c.096.192.096.288.096.48h1.056a1.62 1.62 0 0 0-.288-.96 2.24 2.24 0 0 0-.672-.672c-.288-.192-.672-.288-1.056-.192-.384 0-.672.096-.96.192s-.48.288-.672.48-.288.48-.384.768-.096.576-.096.96v.192c0 .288 0 .672.096.96s.192.576.384.768.384.384.672.576c.288.096.672.192.96.192.384 0 .672-.096.96-.192.288-.192.576-.384.672-.576.192-.288.288-.576.288-.864h-1.056c0 .192-.096.288-.192.48-.096.096-.192.192-.384.288-.096.096-.288.096-.48.096s-.384 0-.576-.096c-.096-.096-.288-.192-.384-.384s-.096-.288-.192-.48c0-.192-.096-.384-.096-.576v-.192c.288-.384.288-.576.384-.768zm-2.208-1.728h-1.056v4.896h1.056v-4.896zm-123.552-1.92c-.192 0-.384.096-.48.192s-.192.288-.192.384c0 .192.096.288.192.384s.288.192.48.192.384-.096.48-.192.192-.192.192-.384-.096-.288-.192-.384c-.192-.096-.288-.192-.48-.192zm-1.728 1.824c-.192 0-.48.096-.672.192a1.16 1.16 0 0 0-.48.48v-.576h-1.056v4.896h1.056v-3.264c0-.096.096-.192.192-.288s.192-.192.384-.192c.096-.096.288-.096.48-.096h.192.192v-1.056h-.192c.096-.096 0-.096-.096-.096zm2.208.096h-1.056v4.896h1.056v-4.896zm-5.856.576a2.92 2.92 0 0 0-.672-.48c-.288-.096-.576-.192-.96-.192s-.672.096-.96.192-.48.288-.672.48a2.09 2.09 0 0 0-.48.768c-.096.288-.192.672-.192.96v.096c0 .384.096.672.192.96a2.09 2.09 0 0 0 .48.768c.192.192.384.384.672.48s.576.192.96.192c.288 0 .672-.096.96-.192s.48-.288.672-.48a2.09 2.09 0 0 0 .48-.768c.096-.288.192-.672.192-.96v-.096c0-.384-.096-.672-.192-.96l-.48-.768zm-.48 1.92c0 .192 0 .384-.096.576 0 .192-.096.384-.192.48a.75.75 0 0 1-.384.384c-.192.096-.288.096-.48.096s-.384 0-.576-.096a.75.75 0 0 1-.384-.384c-.096-.192-.192-.288-.192-.48s-.096-.384-.096-.576v-.096c0-.192 0-.384.096-.576 0-.192.096-.384.192-.48a.75.75 0 0 1 .384-.384c.192-.096.384-.096.576-.096s.384 0 .48.096a.75.75 0 0 1 .384.384c.096.192.192.288.192.48s.096.384.096.576v.096zm-5.664-1.44h-2.88v-2.784h-1.152v6.528h1.152v-2.88h2.88v2.88h1.152v-6.528h-1.152v2.784zm30.24 2.976h-.192-.288c-.096 0-.192-.096-.192-.192s-.096-.192-.096-.384v-2.688h.864v-.768h-.864v-1.248h-1.056v1.152h-.768v.768h.768v2.784a1.81 1.81 0 0 0 .192.768 1.16 1.16 0 0 0 .48.48c.192.096.384.096.672.096h.384c.096 0 .192 0 .288-.096v-.864l-.192.192z" fill="#231f20"/><path d="M80.928 125.952v-2.208a1.62 1.62 0 0 0-.288-.96c-.192-.288-.384-.48-.672-.576s-.576-.192-.96-.192c-.288 0-.576 0-.864.096a4.68 4.68 0 0 0-.672.288c-.192.096-.288.288-.384.48s-.096.384-.096.576h1.056c0-.096 0-.288.096-.384l.288-.288c.096-.096.288-.096.48-.096s.384 0 .48.096l.288.288c.096.096.096.288.096.48v.384h-.672c-.288 0-.672 0-.96.096a4.68 4.68 0 0 0-.672.288 1.16 1.16 0 0 0-.48.48c-.096.192-.192.384-.192.672s.096.48.192.768c.192.192.384.384.576.48.288.096.576.192.864.192s.48 0 .672-.096.384-.192.48-.288c.096 0 .096-.096.096-.192v.096c0 .192.096.288.096.48h1.152v-.096c-.096-.096-.096-.288-.096-.48.096 0 .096-.192.096-.384zm-1.536.192c-.192.096-.384.096-.576.096s-.288 0-.384-.096-.192-.096-.288-.288c-.096-.096-.096-.192-.096-.384 0-.096 0-.288.096-.384s.096-.192.192-.288.192-.096.384-.192c.192 0 .384-.096.576-.096h.576v.864s0 .096-.096.096c-.096.48-.288.576-.384.672zm-6.912-3.648c-.096-.096-.288-.288-.48-.288s-.384-.096-.672-.096a1.81 1.81 0 0 0-.768.192c-.192.096-.48.288-.576.48v-.576h-1.056v4.896h1.056v-3.456c0-.096.096-.192.096-.192.096-.096.192-.288.384-.288s.288-.096.48-.096.288 0 .48.096l.288.288c.096.096.096.288.096.576v3.168h1.152v-3.168c0-.288 0-.576-.096-.864s-.192-.48-.384-.672zm-5.088.288a2.92 2.92 0 0 0-.672-.48c-.288-.096-.576-.192-.96-.192s-.672.096-.96.192-.48.288-.672.48a2.09 2.09 0 0 0-.48.768c-.096.288-.192.672-.192.96v.096c0 .384.096.672.192.96a2.09 2.09 0 0 0 .48.768 2.92 2.92 0 0 0 .672.48c.288.096.576.192.96.192.288 0 .672-.096.96-.192s.48-.288.672-.48a2.09 2.09 0 0 0 .48-.768c.096-.288.192-.672.192-.96v-.096c0-.384-.096-.672-.192-.96s-.288-.48-.48-.768zm-.48 1.92c0 .192 0 .384-.096.576 0 .192-.096.384-.192.48a.75.75 0 0 1-.384.384c-.192.096-.288.096-.48.096s-.384 0-.576-.096a.75.75 0 0 1-.384-.384c-.096-.192-.192-.288-.192-.48s-.096-.384-.096-.576v-.096c0-.192 0-.384.096-.576 0-.192.096-.384.192-.48a.75.75 0 0 1 .384-.384c.192-.096.384-.096.576-.096s.384 0 .48.096a.75.75 0 0 1 .384.384c.096.192.192.288.192.48s.096.384.096.576v.096zm16.32-4.512h-1.056v6.912h1.056v-6.912zm-20.448 2.688v-.672H62.4h-.288-3.072v.864h2.4l-2.496 3.264v.672h.288.384 3.264v-.864h-2.592l2.496-3.264z" fill="#231f20"/><path d="M92.448 51.936l-14.4-14.4-7.2-1.344c0 4.416-3.744 8.16-8.352 8.16s-8.352-3.744-8.352-8.16l-7.2 1.344-14.688 14.112 9.984 9.984 4.8-4.8v29.184h31.008v-28.8l4.608 4.608 9.792-9.888z" fill="#fff"/><path d="M72.96 49.344H51.744V75.072H72.96V49.344Z" fill="#ffd2fd"/><path d="M57.312 49.344h-5.568v25.728h5.568V49.344z" fill="#d7e2ff"/><path d="M72.96 49.344H67.392V75.072H72.96V49.344Z" fill="#ffebd7"/><path d="M207.744 51.936l-14.4-14.4-7.2-1.344c0 4.416-3.744 8.16-8.352 8.16s-8.352-3.744-8.352-8.16l-7.2 1.344-14.592 14.112 9.984 9.984 4.8-4.8v29.184h31.008v-28.8l4.608 4.608 9.696-9.888z" fill="#fff"/><path d="M188.256 49.344H167.04v25.728h21.216V49.344z" fill="#ffd2fd"/><path d="M172.608 49.344h-5.568v25.728h5.568V49.344z" fill="#d7e2ff"/><path d="M188.352 49.344h-5.568v25.728h5.568V49.344z" fill="#ffebd7"/></g></g><defs><clipPath id="B"><path fill="#fff" d="M0 0h240v136.32H0z"/></clipPath></defs></svg>