<svg xmlns="http://www.w3.org/2000/svg" xmlns:xlink="http://www.w3.org/1999/xlink" width="240" height="209" fill="none" xmlns:v="https://vecta.io/nano"><g clip-path="url(#A)"><path d="M240 0H0V208.32H240V0Z" fill="#f4f4f4"/><path d="M174.432 130.944H65.664a5.16 5.16 0 0 1-5.184-5.184V17.088a5.16 5.16 0 0 1 5.184-5.184h108.672a5.16 5.16 0 0 1 5.184 5.184V125.76c.096 2.88-2.208 5.184-5.088 5.184z" fill="#8796a1"/><path d="M76.896 63.648c-.389-.369-.904-.574-1.44-.574s-1.051.206-1.44.574l-6.528 6.432c-.369.389-.574.904-.574 1.44s.206 1.051.574 1.44l6.528 6.432c.192.288.768.48 1.248.48.576 0 .96-.192 1.536-.096.369-.389.574-.904.574-1.44s-.206-1.051-.574-1.44l-5.184-5.184 5.184-5.184c.768-.768.768-2.112.096-2.88zm95.616 6.048l-6.432-6.432c-.389-.369-.904-.574-1.44-.574s-1.051.206-1.44.574a2.09 2.09 0 0 0 0 2.88l5.184 5.184-5.184 5.184a2.09 2.09 0 0 0 0 2.88c.192.288.768.48 1.248.48.576 0 1.056-.192 1.632-.864l6.432-6.432a2.09 2.09 0 0 0 0-2.88zm-18.816-8.448L137.472 45.12l-8.064-1.536c0 4.992-4.128 9.12-9.312 9.12s-9.312-4.128-9.312-9.12l-8.064 1.536-16.416 15.744L97.44 72l5.376-5.376v32.64h34.656v-32.16l5.184 5.184 11.04-11.04z" fill="#fff"/><path d="M131.904 58.272h-23.712v28.8h23.712v-28.8z" fill="#ffd2fd"/><path d="M123.072 58.272h-6.24v28.8h6.24v-28.8z" fill="#d7e2ff"/><path d="M123.072 58.272h-6.24v28.8h6.24v-28.8z" fill="#ffebd7"/><path d="M87.456 192.288c0-.384-.096-.576-.384-.864s-.672-.384-1.344-.576c-.96-.192-1.632-.576-2.112-.96s-.768-.96-.768-1.536c0-.672.288-1.248.864-1.632s1.248-.672 2.112-.672 1.632.288 2.208.768.768 1.056.768 1.728h-1.344c0-.384-.096-.768-.384-1.056s-.672-.384-1.248-.384c-.48 0-.864.096-1.152.288s-.384.48-.384.864c0 .288.192.576.48.768s.768.384 1.44.576c.737.162 1.426.49 2.016.96.48.384.672.96.672 1.632s-.288 1.248-.864 1.632-1.248.576-2.112.576-1.632-.192-2.208-.672-.96-1.056-.96-1.824h1.344a1.59 1.59 0 0 0 .48 1.152c.288.288.768.384 1.344.384.48 0 .864-.096 1.152-.288.192-.192.384-.48.384-.864zm4.032 2.112h-1.344v-8.736h1.344v8.736zm2.976-7.584H93.12v-1.152h1.344v1.152zm0 7.584H93.12v-6.048h1.344v6.048zm1.344-2.976c0-.96.192-1.728.672-2.304s.96-.864 1.728-.864c.298.007.591.073.864.192a1.8 1.8 0 0 1 .672.576v-3.36h1.344v8.736h-1.152l-.096-.768a2.24 2.24 0 0 1-.672.672c-.288.192-.576.192-.96.192-.768 0-1.344-.288-1.728-.768s-.672-1.248-.672-2.112v-.192zm1.344.096c0 .576.096 1.056.288 1.344s.576.48 1.056.48a1.81 1.81 0 0 0 .768-.192c.192-.096.384-.288.48-.576v-2.496a1.16 1.16 0 0 0-.48-.48 1.81 1.81 0 0 0-.768-.192c-.48 0-.768.192-1.056.576s-.288.864-.288 1.536zm7.968 2.976c-.864 0-1.536-.288-2.016-.864s-.768-1.248-.768-2.208v-.192c0-.864.288-1.632.768-2.208s1.152-.864 1.92-.864c.864 0 1.44.288 1.92.768s.672 1.152.672 2.016v.768h-3.84c0 .48.192.864.384 1.152s.576.48 1.056.48c.384 0 .672 0 .96-.096s.48-.192.768-.384l.48.864c-.192.192-.576.384-.864.48s-.864.288-1.44.288zm-.096-5.184c-.384 0-.576.096-.864.384s-.384.576-.384 1.056h2.4v-.096a1.62 1.62 0 0 0-.288-.96c-.192-.288-.48-.384-.864-.384zm6.624.192h-.576c-.288 0-.48.096-.672.192s-.288.288-.384.48v4.224h-1.344v-6.048h1.248l.096.864c.192-.288.384-.576.576-.768s.48-.288.864-.288h.192.192l-.192 1.344zm5.376 1.824v3.072h-1.344v-8.16h3.168c.864 0 1.632.192 2.112.672s.768 1.056.768 1.824-.288 1.344-.768 1.824-1.248.672-2.112.672h-1.824v.096zm0-1.152h1.824c.48 0 .864-.096 1.152-.384s.384-.576.384-1.056-.096-.768-.384-1.056-.672-.384-1.152-.384h-1.824v2.88zm9.504 4.224c-.096-.192-.096-.288-.096-.48s-.096-.288-.096-.48c-.192.288-.48.48-.768.672s-.672.288-1.056.288c-.672 0-1.152-.192-1.44-.48-.384-.288-.48-.768-.48-1.344s.192-1.056.672-1.344 1.152-.48 1.92-.48h1.056v-.576c0-.288-.096-.576-.288-.768s-.48-.288-.768-.288a1.81 1.81 0 0 0-.768.192c-.192.096-.288.384-.288.576h-1.344c0-.48.192-.864.672-1.248s1.056-.576 1.824-.576c.672 0 1.248.192 1.728.576s.672.864.672 1.536v2.688c0 .288 0 .48.096.768s.096.48.192.672l-1.44.096zm-1.632-.96a1.62 1.62 0 0 0 .96-.288c.288-.192.48-.384.576-.576v-.864h-1.056a1.62 1.62 0 0 0-.96.288c-.288.192-.384.384-.384.672 0 .192.096.384.192.576s.384.192.672.192zm4.032-2.016c0-.96.192-1.728.672-2.304s1.056-.864 1.728-.864c.384 0 .672.096.96.192s.48.384.672.672l.096-.768h1.152v6.048c0 .768-.288 1.344-.768 1.824s-1.152.672-2.016.672c-.288 0-.576 0-.96-.096l-.96-.288.288-1.056c.192.096.48.192.768.288s.576.096.864.096c.48 0 .864-.096 1.056-.288.24-.263.377-.604.384-.96v-.672c-.192.288-.384.384-.672.576s-.576.192-.864.192c-.768 0-1.344-.288-1.728-.768s-.672-1.248-.672-2.112v-.384zm1.344.096c0 .576.096.96.288 1.344s.576.48 1.056.48a1.81 1.81 0 0 0 .768-.192 1.16 1.16 0 0 0 .48-.48v-2.592a1.16 1.16 0 0 0-.48-.48 1.81 1.81 0 0 0-.768-.192c-.48 0-.864.192-1.056.576s-.384.864-.288 1.536zm6.816-4.704h-1.344v-1.152h1.344v1.152zm0 7.584h-1.344v-6.048h1.344v6.048zm2.784-6.048l.096.864a2.92 2.92 0 0 1 .768-.768c.288-.192.672-.288 1.056-.288.672 0 1.152.192 1.44.576s.576.96.576 1.824v3.84h-1.344v-3.84c0-.48-.096-.768-.288-.96s-.48-.288-.864-.288c-.288 0-.48.096-.672.192a1.16 1.16 0 0 0-.48.48v4.416h-1.344v-6.048h1.056zm9.024 6.048c-.096-.192-.096-.288-.096-.48s-.096-.288-.096-.48c-.192.288-.48.48-.768.672s-.672.288-1.056.288c-.672 0-1.152-.192-1.44-.48s-.48-.768-.48-1.344.192-1.056.672-1.344 1.152-.48 1.92-.48h1.056v-.576c0-.288-.096-.576-.288-.768s-.48-.288-.768-.288a1.81 1.81 0 0 0-.768.192c-.192.096-.288.384-.288.576h-1.344c0-.48.192-.864.672-1.248s1.056-.576 1.824-.576c.672 0 1.248.192 1.728.576s.672.864.672 1.536v2.688c0 .288 0 .48.096.768s.096.48.192.672l-1.44.096zm-1.728-.96a1.62 1.62 0 0 0 .96-.288c.288-.192.48-.384.576-.576v-.864h-1.056a1.62 1.62 0 0 0-.96.288c-.288.192-.384.384-.384.672 0 .192.096.384.192.576s.384.192.672.192zm5.952-6.624v1.44h1.056v1.056h-1.056v3.36c0 .288.096.384.192.576s.288.192.48.192h.192s.096 0 .192-.096l.192.96c-.096.096-.288.096-.384.192s-.288.096-.48.096a1.59 1.59 0 0 1-1.152-.48c-.288-.288-.384-.768-.384-1.344v-3.36h-.96v-1.056h.96v-1.44h1.152v-.096zm3.84 0h-1.44v-1.152h1.344v1.152h.096zm0 7.584h-1.44v-6.048h1.344v6.048h.096zm1.248-3.072c0-.864.288-1.632.768-2.208s1.152-.864 2.016-.864 1.536.288 2.016.864.768 1.344.768 2.208v.096c0 .96-.288 1.632-.768 2.208s-1.152.864-2.016.864-1.536-.288-2.016-.864-.768-1.344-.768-2.208v-.096zm1.344.096c0 .576.096 1.056.384 1.44.192.384.576.576 1.056.576s.864-.192 1.056-.576.384-.864.384-1.44v-.096c0-.576-.096-1.056-.384-1.44-.192-.384-.576-.576-1.056-.576s-.864.192-1.056.576-.384.864-.384 1.44v.096zm6.624-3.072l.096.864a2.92 2.92 0 0 1 .768-.768c.288-.192.672-.288 1.056-.288.672 0 1.152.192 1.44.576s.576.96.576 1.824v3.84h-1.344v-3.84c0-.48-.096-.768-.288-.96s-.48-.288-.864-.288c-.288 0-.48.096-.672.192a1.16 1.16 0 0 0-.48.48v4.416h-1.344v-6.048h1.056z" fill="#231f20"/><path d="M92.544 172.608H62.88c-1.44 0-2.4-.96-2.4-2.4v-29.664c0-1.44.96-2.4 2.4-2.4h29.664c1.44 0 2.4.96 2.4 2.4v29.664c.096 1.344-.96 2.4-2.4 2.4z" fill="#8796a1"/><path d="M91.488 151.2l-6.528-6.528-3.36-.48c0 1.92-1.632 3.648-3.84 3.648s-3.84-1.632-3.84-3.648l-3.36.48-6.528 6.528 4.416 4.416 2.112-2.112v13.056h14.208v-13.056l2.112 2.112 4.608-4.416z" fill="#fff"/><path d="M82.848 149.76h-9.984v12.096h9.984V149.76z" fill="#ffd2fd"/><path d="M79.008 149.76h-2.592v12.096h2.592V149.76z" fill="#ffebd7"/><path d="M135.552 172.608h-29.664c-1.44 0-2.4-.96-2.4-2.4v-29.76c0-1.44.96-2.4 2.4-2.4h29.76c1.44 0 2.4.96 2.4 2.4v29.76c0 1.344-.96 2.4-2.496 2.4z" fill="#8796a1"/><path d="M111.552 163.872c4.416 1.152 8.544.864 14.304-.48.96-.288 2.016-.768 2.976-1.344-.384 0-.864 0-1.44.096-10.08-.192-12.576-1.536-13.152-2.304-.096-.096-.096-.192-.192-.288-2.496.384-6.048 1.344-6.24 2.112-.096.384 1.248 1.536 3.744 2.208z" fill="#ffebd7"/><path d="M127.2 161.664v-5.856s.096-3.84-2.112-6.528h-.288c-1.248 0-2.112-.384-2.304-.96-2.592.288-7.392 1.632-7.776 7.584l-.192 3.456c0 .096.096.192.192.288.384.384 2.592 1.728 12.48 2.016z" fill="#ffd2fd"/><path d="M127.584 155.808v5.856c4.416-.096 5.664-.864 6.048-1.44.096-.096.096-.192.096-.384v-.096-3.936c0-1.44-.384-2.784-1.152-4.128-1.44-2.304-3.744-3.264-5.568-3.552-.192.384-.768.672-1.536.864 2.208 2.976 2.112 6.624 2.112 6.816z" fill="#ffebd7"/><path d="M126.816 147.936c0 .48-.864.768-2.016.768s-2.016-.384-2.016-.768c0-.48.864-.768 2.016-.768 1.056-.096 2.016.288 2.016.768z" fill="#ffd2fd"/><path d="M177.024 172.608H147.36c-1.44 0-2.4-.96-2.4-2.4v-29.76c0-1.44.96-2.4 2.4-2.4h29.76c1.44 0 2.4.96 2.4 2.4v29.76c0 1.344-.96 2.4-2.496 2.4z" fill="#8796a1"/><path d="M170.112 143.232H154.56c-.192 0-.384.192-.384.384v1.92h16.32v-1.92c.096-.192-.192-.384-.384-.384z" fill="#ffd2fd"/><path d="M170.592 150.912V146.4H168c0 .768.096 3.072 2.592 4.512zm-16.32 0c2.4-1.44 2.496-3.744 2.496-4.512h-2.496v4.512z" fill="#ffebd7"/><path d="M170.592 168v-16.32c-2.976-1.536-3.264-4.32-3.264-5.472h-4.512v9.408l2.88 12.384c0 .192.192.288.384.288h4.128c.096.096.384-.096.384-.288zm-16.032.384h4.128c.192 0 .288-.096.384-.288l2.88-12.384v-9.408h-4.512c0 1.152-.192 3.936-3.264 5.472v16.32c.096.096.192.288.384.288z" fill="#ffd2fd"/><path d="M186.912 119.712h-35.328v-1.728l-4.032 2.208 4.032 2.304v-1.824h34.848v70.08H174.72c-.09-.336-.291-.633-.569-.841a1.55 1.55 0 0 0-.967-.311c-.407 0-.798.162-1.086.45s-.45.679-.45 1.086.162.798.45 1.086.679.45 1.086.45c.672 0 1.152-.384 1.44-.96h12.288c.064.004.128-.005.189-.028a.47.47 0 0 0 .16-.103c.045-.046.08-.1.103-.161s.032-.124.028-.188v-71.04c0-.192-.192-.48-.48-.48z" fill="#f21197"/><g fill="#333233"><use xlink:href="#B"/><path opacity=".5" d="M104.64 123.84a2.88 2.88 0 1 0 0-5.76 2.88 2.88 0 1 0 0 5.76zm7.68 0a2.88 2.88 0 1 0 0-5.76 2.88 2.88 0 1 0 0 5.76zm15.36 0a2.88 2.88 0 1 0 0-5.76 2.88 2.88 0 1 0 0 5.76zm7.68 0a2.88 2.88 0 1 0 0-5.76 2.88 2.88 0 1 0 0 5.76z"/></g><path d="M144.288 126.912H95.712c-1.152 0-2.016-.864-2.016-2.016v-8.352c0-1.152.864-2.016 2.016-2.016h48.48c1.152 0 2.016.864 2.016 2.016v8.352c.096 1.152-.864 2.016-1.92 2.016z" stroke="#f21197" stroke-width="1.113" stroke-miterlimit="10"/><path d="M78.72 190.176v-.288c0-.096-.096-.288-.096-.384s-.096-.192-.096-.192a.73.73 0 0 0-.192-.384c0-.096-.096-.192-.096-.192-.096-.096-.096-.192-.192-.288 0-.096-.096-.096-.096-.192-.096-.096-.192-.192-.192-.288s-.096-.096-.096-.192l-.288-.288-.192-.192c-.096-.096-.192-.192-.288-.192-.096-.096-.096-.096-.192-.096-.096-.096-.192-.096-.288-.192-.096 0-.096-.096-.192-.096-.096-.096-.288-.096-.384-.192-.096 0-.096-.096-.192-.096-.096-.096-.288-.096-.384-.096s-.192 0-.288-.096c-.192 0-.288 0-.48-.096h-.288-.576c-.096 0-.192 0-.384.096-.288.096-.48.096-.768.192l-.576.288c-.768.48-1.536 1.152-1.92 1.92l-.288.576a1.81 1.81 0 0 0-.192.768c0 .096 0 .192-.096.384v.576.288c-.015.166.018.333.096.48 0 .096 0 .192.096.288 0 .096.096.288.096.384s0 .192.096.192a.73.73 0 0 0 .192.384c0 .096.096.096.096.192.096.096.096.192.192.384 0 .096.096.096.096.192.096.096.192.192.192.288l.192.192.288.288c.096.096.096.096.192.096.096.096.192.192.288.192.096.096.096.096.192.096.096.096.192.096.288.192.096 0 .096.096.192.096.096.096.192.096.384.192.096 0 .192.096.288.096.096.096.288.096.384.096h.288c.192 0 .288.096.48.096h.288.096.48c.096 0 .288 0 .384-.096.288 0 .48-.096.768-.192.192-.096.384-.096.48-.192.864-.48 1.632-1.152 2.112-2.112.096-.192.192-.384.192-.48a1.81 1.81 0 0 0 .192-.768c0-.096 0-.288.096-.384v-.48-.288c-.288-.096-.288-.288-.384-.48zm-7.968-1.44l.96-.96c.192-.192.48-.288.672-.384l-2.016 2.016c.096-.288.192-.48.384-.672zm-.672 1.44l3.072-3.072c.096 0 .288-.096.384-.096l-3.552 3.552c0-.096 0-.288.096-.384zm-.096.96l4.128-4.128h.288l-4.416 4.416v-.288zm.096.768l4.8-4.8c.096 0 .192 0 .192.096l-4.992 4.992v-.288zm.288.864c0-.096-.096-.096-.096-.192l5.28-5.28c.096 0 .096.096.192.096l-5.376 5.376zm.288.48c0-.096-.096-.096-.096-.192l5.568-5.568c.096 0 .096.096.192.096l-5.664 5.664zm.384.48l-.192-.192 5.664-5.664c.096 0 .096.096.192.192l-5.664 5.664zm.384.48c-.096 0-.096-.096-.192-.096l5.76-5.76s.096.096.096.192l-5.664 5.664zm.288.192l5.664-5.664c0 .096.096.096.096.192l-5.568 5.568s-.096-.096-.192-.096zm.768.384c-.096 0-.096-.096-.192-.096l5.376-5.376c0 .096.096.192.096.192l-5.28 5.28zm.672.192c-.096 0-.192 0-.288-.096l4.992-4.992c0 .096.096.192.096.288l-4.8 4.8zm4.224-1.728l-1.152 1.152c-.192.192-.48.288-.768.384l2.208-2.208a.87.87 0 0 1-.288.672zm.576-1.44l-3.168 3.168c-.096 0-.192 0-.384.096l3.648-3.648c0 .096 0 .288-.096.384zm-4.032 3.264h-.288l4.416-4.416v.288l-4.128 4.128z" fill="#f21197"/></g><defs><clipPath id="A"><path fill="#fff" d="M0 0h240v208.32H0z"/></clipPath><path id="B" d="M120 123.84a2.88 2.88 0 1 0 0-5.76 2.88 2.88 0 1 0 0 5.76z"/></defs></svg>