<svg xmlns="http://www.w3.org/2000/svg" width="240" height="209" fill="none" xmlns:v="https://vecta.io/nano"><style><![CDATA[.B{fill:#8796a1}.C{stroke-miterlimit:10}.D{stroke:#ff5a08}.E{stroke-width:.5}.F{stroke:#f21197}]]></style><g clip-path="url(#A)"><path d="M240.231.397H0v208.038h240.231V.397z" fill="#f4f4f4"/><path d="M90.692 173.243H62.423c-1.385 0-2.308-.923-2.308-2.308v-28.384c0-1.385.923-2.308 2.308-2.308h28.385c1.385 0 2.308.923 2.308 2.308v28.384c0 1.269-.923 2.308-2.423 2.308z" class="B"/><path d="M88.385 153.166l-5.654-5.654-2.885-.461c0 1.615-1.385 3.115-3.346 3.115s-3.346-1.385-3.346-3.115l-2.885.461-5.654 5.654 3.808 3.808 1.846-1.847v11.308h12.346v-11.308l1.846 1.847 3.923-3.808z" fill="#fff"/><path d="M133.962 173.243h-28.27c-1.384 0-2.307-.923-2.307-2.308v-28.384c0-1.385.923-2.308 2.307-2.308h28.385c1.385 0 2.308.923 2.308 2.308v28.384c0 1.269-.923 2.308-2.423 2.308z" class="B"/><path d="M131.654 153.166L126 147.512l-2.885-.461c0 1.615-1.384 3.115-3.346 3.115-1.846 0-3.346-1.385-3.346-3.115l-2.885.461-5.653 5.654 3.807 3.808 1.846-1.847v11.308h12.347v-11.308l1.846 1.847 3.923-3.808z" fill="#fff"/><path d="M177.231 173.243h-28.385c-1.384 0-2.308-.923-2.308-2.308v-28.384c0-1.385.924-2.308 2.308-2.308h28.385c1.384 0 2.307.923 2.307 2.308v28.384c.116 1.269-.923 2.308-2.307 2.308z" class="B"/><path d="M174.923 153.166l-5.654-5.654-2.884-.461c0 1.615-1.385 3.115-3.347 3.115-1.846 0-3.346-1.385-3.346-3.115l-2.884.461-5.654 5.654 3.808 3.808 1.846-1.847v11.308h12.346v-11.308l1.846 1.847 3.923-3.808z" fill="#fff"/><path d="M174 131.474H65.192A5.17 5.17 0 0 1 60 126.281V17.474a5.17 5.17 0 0 1 5.192-5.192H174a5.17 5.17 0 0 1 5.192 5.192v108.807a5.17 5.17 0 0 1-5.192 5.193z" class="B"/><g fill="#fff"><path d="M153.346 61.782l-16.154-16.154-8.077-1.5c0 4.962-4.153 9.115-9.346 9.115s-9.346-4.154-9.346-9.115l-8.077 1.5-16.385 15.808 11.192 11.192 5.423-5.423v32.654h34.731V67.666l5.192 5.192 10.846-11.077zm10.846 18.576c-.461 0-1.038-.231-1.269-.462a2.02 2.02 0 0 1 0-2.885l5.192-5.192-5.192-5.192a2.04 2.04 0 1 1 2.885-2.885l6.461 6.461a2.02 2.02 0 0 1 0 2.885l-6.461 6.462c-.577.577-1.039.808-1.616.808zm-89.192 0c-.462 0-1.038-.231-1.269-.462l-6.462-6.462a2.02 2.02 0 0 1 0-2.885l6.462-6.462a2.04 2.04 0 1 1 2.885 2.885l-5.192 5.192 5.192 5.192a2.02 2.02 0 0 1 0 2.885c-.577-.115-1.038.115-1.615.115z"/></g><g class="C"><path d="M179.192 132.328H60v7h119.192v-7z" fill="#ffdccc" class="D E"/><g fill="#ffd9f1" class="F"><path d="M102.115 142.781h-8v28.27h8v-28.27zm43.27 0h-8v28.27h8v-28.27z"/></g></g><path d="M77.36 186.834a2.45 2.45 0 0 0-.296-.616c-.12-.184-.265-.341-.433-.471s-.355-.228-.566-.296a2.26 2.26 0 0 0-.695-.103c-.414 0-.79.107-1.128.321s-.608.528-.808.944-.3.926-.3 1.53.101 1.115.303 1.531.476.73.821.944.734.32 1.166.32c.4 0 .752-.085 1.057-.256s.545-.415.716-.729.259-.687.259-1.114l.259.054h-2.1v-.75h2.659v.75c0 .575-.123 1.075-.368 1.5a2.54 2.54 0 0 1-1.009.988c-.427.232-.918.348-1.472.348-.618 0-1.161-.146-1.629-.437s-.829-.704-1.091-1.24-.389-1.173-.389-1.909c0-.552.074-1.048.222-1.489s.361-.82.634-1.132.595-.55.968-.715a2.99 2.99 0 0 1 1.23-.249c.368 0 .711.055 1.029.167s.606.264.856.467a2.65 2.65 0 0 1 .63.719c.168.277.284.585.348.923h-.873zm3.793 4.922c-.332 0-.633-.062-.903-.187a1.56 1.56 0 0 1-.644-.549c-.159-.241-.239-.532-.239-.873 0-.3.059-.543.177-.729a1.25 1.25 0 0 1 .474-.443 2.51 2.51 0 0 1 .654-.239l.726-.129.774-.092c.2-.023.345-.06.436-.113s.14-.143.14-.272v-.028c0-.336-.092-.597-.276-.784s-.458-.279-.828-.279c-.384 0-.685.084-.903.252a1.49 1.49 0 0 0-.46.539l-.764-.273c.136-.318.318-.566.545-.743s.48-.304.75-.375a3.1 3.1 0 0 1 .804-.109c.168 0 .361.02.579.061s.433.12.637.242.378.308.515.556.204.579.204.995v3.449h-.804v-.709h-.041c-.055.114-.145.236-.273.365s-.296.24-.508.331-.469.136-.774.136zm.123-.723c.318 0 .586-.062.804-.187s.386-.286.498-.484.17-.406.17-.624v-.736c-.034.041-.109.079-.225.113s-.245.06-.395.085l-.433.061-.337.041c-.209.027-.404.072-.586.133s-.325.149-.436.269-.164.28-.164.484c0 .28.103.491.31.634s.474.211.794.211zm3.745 2.563v-7.198h.777v.832h.095l.245-.348a1.45 1.45 0 0 1 .457-.382c.2-.113.47-.17.811-.17.441 0 .829.11 1.166.331s.599.532.787.937.283.882.283 1.431c0 .555-.094 1.035-.283 1.442s-.45.718-.784.941-.719.33-1.155.33c-.336 0-.606-.055-.808-.167a1.49 1.49 0 0 1-.467-.385l-.252-.361h-.068v2.767h-.804zm.791-4.58c0 .395.058.744.174 1.046s.285.535.508.706.495.252.818.252c.336 0 .617-.089.842-.266s.398-.42.511-.723.174-.643.174-1.015-.057-.7-.17-.995a1.54 1.54 0 0 0-.508-.706c-.225-.175-.508-.262-.849-.262-.327 0-.602.083-.825.248s-.391.393-.504.689-.171.635-.171 1.026z" fill="#000"/><path d="M64.269 192.308c2.294 0 4.154-1.86 4.154-4.154S66.563 184 64.269 184s-4.154 1.86-4.154 4.154 1.86 4.154 4.154 4.154z" fill="#ffd9f1" class="C F"/><path d="M121.093 184.653l2.072 5.876h.082l2.072-5.876h.886l-2.563 6.98h-.872l-2.563-6.98h.886zm7.798 7.089c-.504 0-.939-.111-1.305-.334a2.24 2.24 0 0 1-.842-.94c-.196-.405-.293-.875-.293-1.411s.097-1.009.293-1.418.473-.732.825-.961.768-.348 1.24-.348a2.48 2.48 0 0 1 .808.136c.266.091.508.239.726.443s.392.471.521.805.195.745.195 1.234v.34h-4.036v-.695h3.218a1.72 1.72 0 0 0-.177-.791 1.34 1.34 0 0 0-.498-.548c-.214-.134-.466-.201-.757-.201-.32 0-.597.079-.831.238s-.41.361-.535.614a1.8 1.8 0 0 0-.188.811v.463c0 .396.068.731.205 1.006a1.47 1.47 0 0 0 .576.623c.245.141.53.212.855.212a1.75 1.75 0 0 0 .573-.089 1.23 1.23 0 0 0 .446-.272 1.24 1.24 0 0 0 .29-.457l.777.218a1.72 1.72 0 0 1-.412.695c-.194.198-.432.352-.716.464s-.603.163-.958.163zm3.391-.109v-5.235h.777v.791h.055c.095-.259.268-.469.518-.631s.532-.242.845-.242l.222.004.201.01v.818a2.4 2.4 0 0 0-.188-.031c-.095-.016-.196-.024-.303-.024-.254 0-.482.054-.682.161a1.21 1.21 0 0 0-.47.436 1.17 1.17 0 0 0-.17.63v3.313h-.805zm6.176-5.235v.682h-2.713v-.682h2.713zm-1.922-1.254h.804v4.99c0 .227.033.397.099.511s.155.186.259.225a1.05 1.05 0 0 0 .338.054c.088 0 .161-.004.218-.013l.136-.028.164.723c-.055.02-.131.041-.229.061s-.221.034-.371.034a1.61 1.61 0 0 1-.668-.146 1.33 1.33 0 0 1-.539-.447c-.141-.2-.211-.452-.211-.756v-5.208zm3.132 6.489v-5.235h.804v5.235h-.804zm.409-6.107c-.157 0-.292-.054-.406-.161s-.167-.235-.167-.385.056-.278.167-.385a.57.57 0 0 1 .406-.16c.157 0 .291.053.402.16a.51.51 0 0 1 .171.385c0 .15-.057.279-.171.385a.56.56 0 0 1-.402.161zm3.995 6.216c-.49 0-.913-.116-1.267-.347s-.628-.551-.818-.958-.287-.871-.287-1.394c0-.532.098-1.001.293-1.408s.473-.728.825-.957.768-.348 1.241-.348c.368 0 .7.068.995.205a1.91 1.91 0 0 1 .726.572 1.78 1.78 0 0 1 .351.859h-.804c-.062-.239-.198-.45-.409-.634s-.491-.279-.846-.279c-.313 0-.588.081-.824.245a1.6 1.6 0 0 0-.549.685c-.13.293-.194.637-.194 1.033 0 .404.063.756.19 1.056s.312.533.546.699.513.249.831.249c.209 0 .399-.037.57-.109a1.17 1.17 0 0 0 .432-.314 1.19 1.19 0 0 0 .253-.491h.804a1.86 1.86 0 0 1-.337.835c-.178.246-.413.441-.706.587s-.629.214-1.016.214zm4.775.014a2.13 2.13 0 0 1-.903-.187 1.56 1.56 0 0 1-.644-.549c-.159-.241-.239-.532-.239-.873 0-.3.06-.543.178-.729a1.25 1.25 0 0 1 .473-.443c.198-.107.416-.186.655-.239l.726-.129.773-.092c.2-.023.346-.06.437-.113s.139-.143.139-.272v-.028c0-.336-.092-.597-.276-.784s-.457-.279-.828-.279c-.384 0-.685.084-.903.252s-.372.348-.46.539l-.764-.273c.137-.318.319-.566.546-.743s.479-.304.75-.375a3.09 3.09 0 0 1 .804-.109 3.17 3.17 0 0 1 .579.061 1.88 1.88 0 0 1 .638.242c.206.123.378.308.514.556s.205.579.205.995v3.449h-.805v-.709h-.04a1.42 1.42 0 0 1-.273.365 1.57 1.57 0 0 1-.508.331c-.211.091-.469.136-.774.136zm.123-.723c.318 0 .586-.062.804-.187a1.27 1.27 0 0 0 .498-.484 1.23 1.23 0 0 0 .17-.624v-.736c-.034.041-.109.079-.224.113a4.06 4.06 0 0 1-.396.085l-.433.061-.337.041c-.209.027-.405.072-.586.133s-.325.149-.437.269-.163.28-.163.484c0 .28.103.491.31.634s.474.211.794.211zm4.549-6.38v6.98h-.804v-6.98h.804zm9.054 2.181c-.075-.229-.174-.435-.297-.616a1.91 1.91 0 0 0-.433-.471 1.82 1.82 0 0 0-.566-.296c-.211-.068-.443-.103-.695-.103a2.07 2.07 0 0 0-1.128.321c-.339.213-.608.528-.808.944s-.3.926-.3 1.53.101 1.115.304 1.531.476.73.821.944.734.32 1.166.32c.4 0 .752-.085 1.056-.256a1.8 1.8 0 0 0 .716-.729c.173-.316.259-.687.259-1.114l.259.054h-2.1v-.75h2.659v.75c0 .575-.123 1.075-.368 1.5s-.58.754-1.009.988-.918.348-1.472.348c-.618 0-1.161-.146-1.63-.437s-.829-.704-1.09-1.24-.389-1.173-.389-1.909c0-.552.074-1.048.222-1.489s.361-.82.634-1.132.595-.55.968-.715.782-.249 1.23-.249c.368 0 .711.055 1.029.167a2.74 2.74 0 0 1 .856.467 2.65 2.65 0 0 1 .63.719 2.73 2.73 0 0 1 .348.923h-.872zm3.792 4.922c-.332 0-.633-.062-.903-.187s-.485-.311-.644-.549-.239-.532-.239-.873c0-.3.059-.543.177-.729s.276-.336.474-.443.416-.186.655-.239l.725-.129.774-.092c.2-.023.346-.06.436-.113s.14-.143.14-.272v-.028c0-.336-.092-.597-.276-.784s-.458-.279-.828-.279c-.384 0-.685.084-.903.252s-.372.348-.46.539l-.764-.273a1.83 1.83 0 0 1 .545-.743c.23-.18.48-.304.75-.375s.541-.109.805-.109a3.17 3.17 0 0 1 .579.061c.22.039.433.12.637.242a1.42 1.42 0 0 1 .515.556c.136.248.205.579.205.995v3.449h-.805v-.709h-.041a1.39 1.39 0 0 1-.272.365 1.58 1.58 0 0 1-.508.331c-.212.091-.469.136-.774.136zm.123-.723c.318 0 .586-.062.804-.187s.386-.286.498-.484a1.24 1.24 0 0 0 .17-.624v-.736c-.034.041-.109.079-.225.113s-.245.06-.395.085l-.433.061-.337.041a3.09 3.09 0 0 0-.587.133c-.179.059-.325.149-.436.269s-.164.28-.164.484c0 .28.104.491.311.634s.473.211.794.211zm3.745 2.563v-7.198h.777v.832h.095l.246-.348c.106-.143.259-.27.456-.382s.471-.17.811-.17c.441 0 .83.11 1.166.331a2.19 2.19 0 0 1 .787.937c.189.404.283.882.283 1.431 0 .555-.094 1.035-.283 1.442s-.45.718-.784.941-.719.33-1.155.33c-.336 0-.605-.055-.808-.167s-.358-.242-.467-.385l-.252-.361h-.068v2.767h-.804zm.79-4.58c0 .395.058.744.174 1.046s.285.535.508.706.495.252.818.252c.336 0 .617-.089.842-.266a1.63 1.63 0 0 0 .511-.723 2.83 2.83 0 0 0 .174-1.015c0-.368-.057-.7-.171-.995s-.28-.533-.507-.706-.508-.262-.849-.262c-.327 0-.602.083-.825.248s-.391.393-.504.689-.171.635-.171 1.026z" fill="#231f20"/><g class="C"><path d="M112.154 192.308c2.294 0 4.154-1.86 4.154-4.154s-1.86-4.154-4.154-4.154-4.154 1.86-4.154 4.154 1.86 4.154 4.154 4.154z" fill="#ffdccc" class="D"/><path d="M97.962 176.012v15.231h-3.692" class="E F"/></g><g fill="#f21197"><path d="M96 176.589l1.962-3.461 1.962 3.461H96zm-1.731 16.039c.765 0 1.385-.62 1.385-1.385s-.62-1.385-1.385-1.385-1.385.62-1.385 1.385.62 1.385 1.385 1.385z"/></g><path d="M183 191.012h4.269v-54.923h-3.231" class="C D E"/><g fill="#ff5a08"><path d="M183.115 192.397c.765 0 1.385-.62 1.385-1.385s-.62-1.384-1.385-1.384-1.384.62-1.384 1.384.62 1.385 1.384 1.385zm1.5-58.385l-3.461 2.077 3.461 1.962v-4.039z"/></g></g><defs><clipPath id="A"><path fill="#fff" transform="translate(0 .628)" d="M0 0h240v207.692H0z"/></clipPath></defs></svg>