<svg xmlns="http://www.w3.org/2000/svg" width="240" height="209" fill="none" xmlns:v="https://vecta.io/nano"><g clip-path="url(#A)"><path d="M240 .4H0v207.84h240V.4z" fill="#f4f4f4"/><path d="M90.624 173.104H62.4c-1.344 0-2.304-.96-2.304-2.304v-28.32c0-1.344.96-2.304 2.304-2.304h28.32c1.344 0 2.304.96 2.304 2.304v28.32c0 1.248-.96 2.304-2.4 2.304zm43.2 0H105.6c-1.344 0-2.304-.96-2.304-2.304v-28.32c0-1.344.96-2.304 2.304-2.304h28.32c1.344 0 2.304.96 2.304 2.304v28.32c0 1.248-.864 2.304-2.4 2.304zm43.2 0h-28.32c-1.344 0-2.304-.96-2.304-2.304v-28.32c0-1.344.96-2.304 2.304-2.304h28.32c1.344 0 2.304.96 2.304 2.304v28.32c.192 1.248-.864 2.304-2.304 2.304zm-3.168-41.76H65.088a5.16 5.16 0 0 1-5.184-5.184V17.488a5.16 5.16 0 0 1 5.184-5.184H173.76a5.16 5.16 0 0 1 5.184 5.184V126.16c.096 2.88-2.208 5.184-5.088 5.184z" fill="#8796a1"/><path d="M164.064 80.272c-.48 0-1.056-.192-1.248-.48a2.09 2.09 0 0 1 0-2.88L168 71.728l-5.184-5.184a2.09 2.09 0 0 1 0-2.88c.389-.369.904-.574 1.44-.574s1.051.206 1.44.574l6.432 6.432a2.09 2.09 0 0 1 0 2.88l-6.432 6.432c-.576.672-1.056.864-1.632.864zm-89.088 0c-.48 0-1.056-.192-1.248-.48L67.2 73.36c-.369-.389-.574-.904-.574-1.44s.206-1.051.574-1.44l6.432-6.432c.389-.369.904-.574 1.44-.574s1.051.206 1.44.574c.369.389.574.904.574 1.44s-.206 1.051-.574 1.44l-5.184 5.184 5.184 5.184c.369.389.574.904.574 1.44s-.206 1.051-.574 1.44c-.576-.096-.96.096-1.536.096z" fill="#fff"/><g fill="#000"><path d="M73.728 187.696c.096-.288.192-.576.384-.864.192-.192.384-.384.576-.48s.48-.192.864-.192.672.096.864.192.384.288.576.48c.096.192.192.48.288.768h1.344c-.096-.48-.192-.96-.48-1.344-.192-.384-.576-.672-.96-.864s-.96-.288-1.632-.288c-.48 0-.96.096-1.344.288s-.768.384-1.056.768c-.288.288-.48.768-.672 1.152-.192.48-.192.96-.192 1.632v.576c0 .576.096 1.152.288 1.632s.384.864.672 1.152a4.25 4.25 0 0 0 1.056.768c.384.192.864.288 1.344.288a5.81 5.81 0 0 0 1.44-.192c.384-.096.672-.288.96-.48l.48-.48v-2.976h-2.976v1.056h1.632v1.536c-.096.096-.192.096-.288.192s-.288.096-.48.192-.48.096-.768.096-.576-.096-.864-.192-.48-.288-.672-.48-.288-.48-.384-.864c-.096-.288-.096-.672-.096-1.152v-.576c0-.672 0-1.056.096-1.344zm10.752 4.032v-2.592c0-.48-.096-.864-.288-1.152s-.48-.48-.768-.672c-.384-.192-.768-.192-1.152-.192s-.672.096-.96.192-.576.192-.768.384-.384.384-.48.576-.192.48-.192.672h1.344c0-.192 0-.288.096-.384s.192-.192.384-.288.384-.096.576-.096.384 0 .576.096c.171.075.309.212.384.384.096.192.096.288.096.576v.384h-.864c-.384 0-.768 0-1.152.096-.288.096-.576.192-.864.384-.192.192-.384.384-.48.576s-.192.48-.192.864c0 .288.096.672.288.864.192.288.384.48.672.576.288.192.672.192 1.056.192.288 0 .576 0 .768-.192.192-.096.48-.192.576-.384l.192-.192v.096c0 .192.096.384.192.576h1.344v-.096c-.096-.192-.096-.384-.192-.576-.192-.192-.192-.48-.192-.672zm-1.824.192c-.192.096-.384.192-.672.192-.192 0-.384 0-.48-.096s-.288-.192-.288-.288c-.096-.096-.096-.288-.096-.384s0-.288.096-.384l.288-.288c.096-.096.288-.192.48-.192s.384-.096.672-.096h.768v1.056c0 .096-.096.096-.096.192-.384.096-.48.192-.672.288zm8.16-3.072c-.096-.384-.288-.672-.48-.96a1.8 1.8 0 0 0-.672-.576c-.288-.192-.576-.192-.96-.192s-.672.096-.96.192-.48.288-.672.48l-.096-.576h-1.152v8.064h1.344v-2.784c.192.192.384.384.576.48.288.096.576.192.96.192s.672-.096.96-.192c.288-.192.48-.384.672-.576.192-.288.384-.576.48-.96s.192-.768.192-1.152v-.096c0-.576-.096-.96-.192-1.344h0zm-1.152 1.344c0 .288 0 .48-.096.768-.096.192-.096.48-.192.576-.075.171-.213.308-.384.384-.192.096-.384.192-.576.192a1.81 1.81 0 0 1-.768-.192 1.16 1.16 0 0 1-.48-.48v-2.496c.096-.096.096-.192.192-.288s.288-.288.384-.288c.192-.096.384-.096.576-.096s.48.096.576.192c.171.075.309.212.384.384.096.192.192.384.192.576.096.192.096.48.096.768h.096z"/></g><g fill="#231f20"><path d="M140.064 192.016h-.288c-.096 0-.192 0-.288-.096-.096 0-.192-.096-.192-.192-.096-.096-.096-.192-.096-.384v-3.264h1.056v-.96H139.2v-1.44h-1.344v1.44h-.96v.96h.96v3.36c0 .384.096.768.192.96.096.288.288.384.576.48a1.81 1.81 0 0 0 .768.192h.48c.192 0 .288-.096.384-.096v-.96h-.192zm-4.032-4.896a1.81 1.81 0 0 0-.768.192c-.192.096-.384.288-.576.576v-.672h-1.248v5.856h1.344v-3.936c.096-.192.096-.288.192-.384s.288-.192.384-.288c.192-.096.384-.096.576-.096h.288.288v-1.248s-.096 0-.192-.096c-.192.096-.288.096-.288.096zm-12.576 4.224l-2.016-6.144h-1.536l2.88 7.872h.288.672.384l2.784-7.872h-1.536l-1.92 6.144zm17.856-4.128h1.344v5.856h-1.344v-5.856zm32.16 4.512v-2.592c0-.48-.096-.864-.288-1.152s-.48-.48-.768-.672c-.384-.192-.768-.192-1.152-.192s-.672.096-.96.192-.576.192-.768.384-.384.384-.48.576-.192.48-.192.672h1.344c0-.192 0-.288.096-.384s.192-.192.384-.288.384-.096.576-.096.384 0 .576.096a.74.74 0 0 1 .384.384c.096.192.096.288.096.576v.384h-.864c-.384 0-.768 0-1.152.096-.288.096-.576.192-.864.384-.192.192-.384.384-.48.576s-.192.48-.192.864c0 .288.096.672.288.864.192.288.384.48.672.576.288.192.672.192 1.056.192.288 0 .576 0 .768-.192.192-.096.48-.192.576-.384l.192-.192v.096c0 .192.096.384.192.576h1.344v-.096c-.096-.192-.096-.384-.192-.576s-.192-.48-.192-.672zm-1.824.192c-.192.096-.384.192-.672.192-.192 0-.384 0-.48-.096s-.288-.192-.288-.288c-.096-.096-.096-.288-.096-.384s0-.288.096-.384l.288-.288c.096-.096.288-.192.48-.192s.384-.096.672-.096h.768v1.056c0 .096-.096.096-.096.192-.288.096-.48.192-.672.288zm8.16-3.072c-.096-.384-.288-.672-.48-.96a1.8 1.8 0 0 0-.672-.576c-.288-.192-.576-.192-.96-.192s-.672.096-.96.192-.48.288-.672.48l-.096-.576h-1.152v8.064h1.344v-2.784c.192.192.384.384.576.48.288.096.576.192.96.192s.672-.096.96-.192c.288-.192.48-.384.672-.576.192-.288.384-.576.48-.96s.192-.768.192-1.152v-.096c0-.576-.096-.96-.192-1.344h0zm-1.152 1.344c0 .288 0 .48-.096.768-.096.192-.096.48-.192.576a.75.75 0 0 1-.384.384c-.192.096-.384.192-.576.192a1.81 1.81 0 0 1-.768-.192 1.16 1.16 0 0 1-.48-.48v-2.496c.096-.096.096-.192.192-.288s.288-.288.384-.288c.192-.096.384-.096.576-.096s.48.096.576.192a.74.74 0 0 1 .384.384c.096.192.192.384.192.576.096.192.096.48.096.768h.096zm-46.944-2.304c-.192-.288-.48-.48-.768-.576s-.672-.192-1.056-.192-.768.096-1.056.192-.576.384-.864.576l-.576.96c-.096.384-.192.768-.192 1.248v.192c0 .384.096.768.192 1.152s.288.672.576.864c.288.288.576.48.864.576.384.096.768.192 1.152.192s.672-.096.96-.192.576-.192.768-.384.384-.384.48-.576l-.672-.672c-.192.192-.384.384-.672.576-.288.096-.48.192-.864.192-.288 0-.48 0-.672-.096s-.384-.192-.48-.384-.288-.384-.288-.576c-.096-.192-.096-.384-.096-.48h3.84v-.576c0-.384-.096-.768-.192-1.152 0-.288-.192-.576-.384-.864zm-.672 1.632h-2.496v-.288c.096-.288.192-.48.288-.672s.288-.288.384-.384c.192-.096.384-.096.576-.096.288 0 .48.096.672.192s.288.288.384.48.096.384.096.672v.096h.096zm24.864-4.8h1.344v8.256h-1.344v-8.256zm6.816 2.976c.096-.288.192-.576.384-.864.192-.192.384-.384.576-.48s.48-.192.864-.192.672.096.864.192.384.288.576.48c.096.192.192.48.288.768h1.344c-.096-.48-.192-.96-.48-1.344-.192-.384-.576-.672-.96-.864s-.96-.288-1.632-.288c-.48 0-.96.096-1.344.288s-.768.384-1.056.768c-.288.288-.48.768-.672 1.152-.192.48-.192.96-.192 1.632v.576c0 .576.096 1.152.288 1.632s.384.864.672 1.152c.31.309.667.568 1.056.768.384.192.864.288 1.344.288a5.81 5.81 0 0 0 1.44-.192c.384-.096.672-.288.96-.48l.48-.48v-2.976h-2.976v1.056h1.632v1.536c-.096.096-.192.096-.288.192s-.288.096-.48.192-.48.096-.768.096-.576-.096-.864-.192-.48-.288-.672-.48-.288-.48-.384-.864c-.096-.288-.096-.672-.096-1.152v-.576c0-.672.096-1.056.096-1.344zm-8.256 4.032v-2.592c0-.48-.096-.864-.288-1.152s-.48-.48-.768-.672c-.384-.192-.768-.192-1.152-.192s-.672.096-.96.192-.576.192-.768.384-.384.384-.48.576-.192.48-.192.672h1.344c0-.192 0-.288.096-.384s.192-.192.384-.288.384-.096.576-.096.384 0 .576.096a.74.74 0 0 1 .384.384c.096.192.096.288.096.576v.384h-.864c-.384 0-.768 0-1.152.096-.288.096-.576.192-.864.384-.192.192-.384.384-.48.576s-.192.48-.192.864c0 .288.096.672.288.864.192.288.384.48.672.576.288.192.672.192 1.056.192.288 0 .576 0 .768-.192.192-.096.48-.192.576-.384l.192-.192v.096c0 .192.096.384.192.576h1.344v-.096c-.096-.192-.096-.384-.192-.576-.192-.192-.192-.48-.192-.672zm-1.92.192c-.192.096-.384.192-.672.192-.192 0-.384 0-.48-.096s-.288-.192-.288-.288c-.096-.096-.096-.288-.096-.384s0-.288.096-.384l.288-.288c.096-.096.288-.192.48-.192s.384-.096.672-.096h.768v1.056c0 .096-.096.096-.096.192-.288.096-.48.192-.672.288zm-10.56-6.912c-.192 0-.384.096-.576.192-.096.096-.192.288-.192.48s.096.384.192.48.288.192.576.192c.192 0 .384-.096.576-.192.096-.096.192-.288.192-.48s-.096-.384-.192-.48c-.192-.192-.384-.192-.576-.192zm3.168 4.32c0-.192.096-.384.192-.576a.74.74 0 0 1 .384-.384c.192-.096.384-.192.672-.192.192 0 .48.096.576.192.192.096.288.288.384.384.096.192.192.384.192.576h1.248c0-.48-.096-.864-.288-1.152a2.27 2.27 0 0 0-.864-.768c-.384-.192-.768-.288-1.248-.288-.392 0-.781.065-1.152.192-.288.192-.576.384-.864.672-.192.288-.384.576-.48.96s-.192.768-.192 1.152v.192c0 .384.096.768.192 1.152s.288.672.48.96.48.48.864.672c.288.192.768.192 1.152.192.48 0 .864-.096 1.152-.288.384-.192.672-.384.864-.768.192-.288.288-.672.288-1.056h-1.248c0 .192-.096.384-.192.48-.096.192-.288.288-.384.384-.192.096-.384.096-.576.096-.288 0-.48-.096-.672-.192s-.288-.288-.384-.384c-.096-.192-.192-.384-.192-.576s-.096-.48-.096-.672v-.192c.096-.288.192-.576.192-.768z"/></g><path d="M97.92 175.888v15.168h-3.744" stroke="#f21197" stroke-miterlimit="10"/><path d="M95.616 177.04l2.304-4.032 2.208 4.032h-4.512zm-1.248 15.552c.407 0 .798-.162 1.086-.45s.45-.679.45-1.086-.162-.798-.45-1.086-.679-.45-1.086-.45-.798.162-1.086.45-.45.678-.45 1.086.162.798.45 1.086.679.45 1.086.45z" fill="#f21197"/><path d="M182.784 190.864h4.32v-54.912h-3.264" stroke="#ff5a08" stroke-miterlimit="10"/><path d="M183.168 192.496c.864 0 1.632-.768 1.632-1.632s-.768-1.632-1.632-1.632-1.632.768-1.632 1.632.768 1.632 1.632 1.632zm1.728-58.848l-3.936 2.304 3.936 2.304v-4.608z" fill="#ff5a08"/><path d="M89.664 152.656l-6.24-6.24-3.168-.48c0 1.824-1.536 3.456-3.648 3.456s-3.648-1.536-3.648-3.456l-3.168.48-6.24 6.24 4.224 4.224 2.016-2.016v12.48h13.536v-12.48l2.016 2.016 4.32-4.224z" fill="#fff"/><path d="M81.408 151.312h-9.504v11.52h9.504v-11.52z" fill="#ffd2fd"/><path d="M74.4 151.312h-2.496v11.52H74.4v-11.52z" fill="#d7e2ff"/><path d="M81.408 151.312h-2.496v11.52h2.496v-11.52z" fill="#ffebd7"/><path d="M110.976 164.272c4.224 1.056 8.16.864 13.632-.48.96-.288 1.92-.768 2.88-1.248-.384 0-.864 0-1.344.096-9.6-.192-12-1.44-12.576-2.208-.096-.096-.096-.192-.192-.288-2.4.384-5.76 1.248-5.952 2.016-.096.384 1.152 1.536 3.552 2.112z" fill="#d7e2ff"/><path d="M125.856 162.16v-5.568s.096-3.648-2.016-6.24h-.288c-1.152 0-2.016-.384-2.208-.96-2.496.288-7.008 1.536-7.392 7.2l-.192 3.264c0 .096.096.192.192.288.384.48 2.496 1.824 11.904 2.016z" fill="#ffd2fd"/><path d="M126.24 156.592v5.568c4.224-.096 5.376-.864 5.76-1.344.096-.096.096-.192.096-.384v-.096-3.744c0-1.344-.384-2.688-1.056-3.936-1.344-2.208-3.552-3.072-5.28-3.36-.192.384-.768.672-1.44.864 2.016 2.784 1.92 6.24 1.92 6.432z" fill="#ffebd7"/><path d="M125.472 149.104c0 .48-.864.768-1.92.768s-1.92-.384-1.92-.768c0-.48.864-.768 1.92-.768s1.92.288 1.92.768zm44.832-4.512h-14.88c-.192 0-.384.192-.384.384v1.824h15.552v-1.824c.096-.192-.096-.384-.288-.384z" fill="#d7e2ff"/><path d="M170.688 151.888v-4.32h-2.4c0 .768.096 2.976 2.4 4.32zm-15.552 0c2.304-1.344 2.4-3.552 2.4-4.32h-2.4v4.32z" fill="#ffebd7"/><path d="M170.688 168.208v-15.552c-2.88-1.44-3.072-4.128-3.072-5.184h-4.32v8.928l2.784 11.808c0 .192.192.288.384.288h3.936c.096.096.288-.096.288-.288zm-15.264.384h3.936c.192 0 .288-.096.384-.288l2.784-11.808v-8.928h-4.32c0 1.056-.192 3.744-3.072 5.184v15.552c0 .096.096.288.288.288z" fill="#ffd2fd"/><path d="M153.12 61.648L136.992 45.52l-8.064-1.536c0 4.992-4.128 9.12-9.312 9.12s-9.312-4.128-9.312-9.12l-8.064 1.536-16.416 15.744L96.96 72.4l5.376-5.376v32.64h34.656v-32.16l5.184 5.184 10.944-11.04z" fill="#fff"/><path d="M131.328 58.672h-23.712v28.8h23.712v-28.8z" fill="#ffd2fd"/><path d="M113.856 58.672h-6.24v28.8h6.24v-28.8z" fill="#d7e2ff"/><path d="M131.424 58.672h-6.24v28.8h6.24v-28.8z" fill="#ffebd7"/><g stroke-miterlimit="10"><path d="M94.368 142h7.68v29.76h-7.68V142zm43.104 0h7.68v29.76h-7.68V142z" fill="#ffd9f1" stroke="#f21197"/><g stroke="#ff5a08" fill="#ffdccc"><path d="M60.672 132.592h117.984v6.336H60.672v-6.336z"/></g></g><path d="M113.088 193.744a4.32 4.32 0 1 0 0-8.64 4.32 4.32 0 0 0 0 8.64z" fill="#ffdccc" stroke="#ff5a08"/><path d="M64.608 193.744a4.32 4.32 0 0 0 0-8.64 4.32 4.32 0 0 0 0 8.64z" fill="#ffd9f1" stroke="#f21197"/></g><defs><clipPath id="A"><path fill="#fff" transform="translate(0 .4)" d="M0 0h240v208.32H0z"/></clipPath></defs></svg>