<svg xmlns="http://www.w3.org/2000/svg" width="240" height="203" fill="none" xmlns:v="https://vecta.io/nano"><style><![CDATA[.B{fill:#ffd2fd}.C{fill:#d7e2ff}.D{fill:#ffebd7}.E{stroke:#f26522}.F{stroke-miterlimit:10}.G{stroke-linecap:round}]]></style><g clip-path="url(#B)"><mask id="A" maskUnits="userSpaceOnUse" x="0" y="0" width="240" height="203"><path d="M240 .8H0v201.312h240V.8z" fill="#fff"/></mask><g mask="url(#A)"><path d="M240 .8H0v201.312h240V.8z" fill="#f4f4f4"/><path d="M63.774 183.419v-.865h6.035v.865h-2.53v7.182h-.974v-7.182h-2.53zm8.34 3.551v3.631h-.927v-8.047h.927v2.955h.079a1.7 1.7 0 0 1 .636-.742c.285-.186.665-.28 1.139-.28.411 0 .771.083 1.08.248s.549.413.719.75.259.762.259 1.282v3.834H75.1v-3.772c0-.479-.124-.85-.373-1.112s-.588-.396-1.025-.396c-.304 0-.576.063-.817.192a1.41 1.41 0 0 0-.566.561c-.136.247-.204.546-.204.896zm9.413 1.164v-3.568h.927v6.035h-.927v-1.022h-.063a1.97 1.97 0 0 1-.66.782c-.299.212-.676.318-1.132.318-.377 0-.712-.082-1.006-.247s-.524-.42-.691-.755-.251-.763-.251-1.277v-3.834h.927v3.772c0 .44.123.791.369 1.052s.566.394.951.394a1.59 1.59 0 0 0 .703-.177 1.53 1.53 0 0 0 .605-.542c.165-.244.248-.554.248-.931zm2.625 2.467v-6.035h.896v.943h.079c.126-.323.329-.572.609-.751s.617-.271 1.01-.271c.398 0 .73.091.994.271s.475.428.625.751h.063c.154-.312.386-.559.695-.742s.68-.28 1.112-.28c.54 0 .981.169 1.324.507s.515.858.515 1.568v4.039h-.927v-4.039c0-.445-.122-.763-.365-.955s-.53-.286-.86-.286c-.424 0-.753.127-.986.385s-.35.576-.35.965v3.93h-.943v-4.133c0-.344-.111-.62-.334-.829s-.51-.318-.86-.318c-.241 0-.466.063-.676.192s-.375.306-.503.534-.189.486-.189.782v3.772h-.927zm9.742 0v-8.047h.927v2.97h.079l.283-.4c.123-.165.299-.312.526-.44s.542-.197.935-.197c.508 0 .956.127 1.343.382s.69.614.908 1.08.325 1.016.325 1.65c0 .639-.108 1.193-.325 1.662s-.518.828-.904 1.084-.828.382-1.332.382c-.388 0-.698-.065-.931-.193s-.412-.279-.538-.444l-.291-.417h-.11v.928h-.896zm.912-3.018c0 .456.067.858.2 1.206s.329.618.585.813.571.291.943.291c.388 0 .711-.102.971-.306s.458-.485.59-.833.201-.741.201-1.171c0-.424-.066-.806-.197-1.147s-.323-.614-.586-.813-.586-.302-.978-.302c-.377 0-.694.095-.951.286s-.451.453-.582.794-.196.732-.196 1.182zm6.762-.613v3.631h-.927v-6.035h.895v.943h.079c.141-.306.356-.553.644-.738s.66-.284 1.116-.284c.409 0 .766.084 1.072.252a1.69 1.69 0 0 1 .715.755c.171.335.256.759.256 1.273v3.834h-.927v-3.772c0-.474-.124-.843-.369-1.108s-.585-.4-1.014-.4c-.296 0-.561.063-.794.192s-.412.316-.546.561-.2.546-.2.896zm7.32 3.772c-.382 0-.73-.072-1.041-.216s-.559-.357-.743-.633-.274-.612-.274-1.005c0-.346.068-.626.203-.841s.319-.388.547-.511.48-.215.754-.275l.837-.149.892-.106c.23-.026.398-.07.503-.13s.16-.165.16-.314v-.032c0-.387-.105-.688-.317-.903s-.528-.323-.956-.323c-.442 0-.789.097-1.04.291s-.428.402-.531.621l-.879-.314c.156-.367.366-.652.627-.857s.553-.35.865-.432.623-.126.928-.126c.194 0 .415.024.667.072s.499.137.735.278.436.355.594.64.235.668.235 1.147v3.977h-.928v-.817h-.047c-.062.13-.167.271-.314.42s-.341.276-.585.381-.541.157-.892.157zm.141-.832c.367 0 .676-.072.928-.216s.445-.331.574-.559a1.43 1.43 0 0 0 .195-.718v-.849c-.039.047-.125.09-.259.13s-.282.069-.455.098l-.499.071-.389.047a3.5 3.5 0 0 0-.676.152c-.207.069-.374.172-.503.311s-.189.322-.189.558c0 .322.12.566.358.731s.547.244.915.244zm4.317.691v-6.035h.928v6.035h-.928zm.472-7.041a.66.66 0 0 1-.468-.184c-.128-.123-.192-.272-.192-.445s.064-.32.192-.443a.66.66 0 0 1 .468-.185c.18 0 .335.062.463.185s.197.271.197.443-.065.322-.197.445-.283.184-.463.184zm3.081-1.006v8.047h-.927v-8.047h.927zm5.972 3.364l-.832.235c-.053-.138-.13-.274-.232-.404a1.11 1.11 0 0 0-.408-.33c-.173-.087-.395-.13-.665-.13-.369 0-.676.086-.923.255s-.365.382-.365.641a.66.66 0 0 0 .252.546c.167.133.429.245.785.334l.896.22c.539.13.941.331 1.206.601s.397.611.397 1.033a1.53 1.53 0 0 1-.299.927c-.197.273-.471.488-.824.644s-.766.237-1.234.237c-.616 0-1.125-.134-1.528-.401s-.66-.657-.767-1.171l.88-.22c.084.325.243.568.475.731s.544.244.924.244c.432 0 .775-.093 1.029-.276s.385-.408.385-.668a.7.7 0 0 0-.22-.526c-.146-.144-.372-.252-.676-.323l-1.005-.235c-.553-.131-.959-.334-1.218-.609s-.385-.625-.385-1.041c0-.341.096-.641.287-.904a1.96 1.96 0 0 1 .789-.617 2.78 2.78 0 0 1 1.139-.224c.598 0 1.067.131 1.407.393a2.11 2.11 0 0 1 .73 1.038zm11.124-3.364v8.047h-.943l-4.384-6.318h-.079v6.318h-.974v-8.047h.942l4.401 6.334h.079v-6.334h.958zm3.6 8.188c-.382 0-.73-.072-1.041-.216s-.559-.357-.743-.633-.274-.612-.274-1.005c0-.346.068-.626.204-.841a1.44 1.44 0 0 1 .545-.511 2.92 2.92 0 0 1 .755-.275l.837-.149.892-.106c.23-.026.398-.07.503-.13s.161-.165.161-.314v-.032c0-.387-.106-.688-.318-.903s-.528-.323-.955-.323c-.442 0-.79.097-1.041.291s-.428.402-.53.621l-.881-.314c.158-.367.367-.652.629-.857s.552-.35.864-.432.623-.126.928-.126c.194 0 .416.024.668.072a2.14 2.14 0 0 1 .734.278c.238.142.436.355.593.64s.236.668.236 1.147v3.977h-.927v-.817h-.048c-.062.13-.167.271-.314.42a1.82 1.82 0 0 1-.585.381c-.243.105-.541.157-.892.157zm.142-.832c.367 0 .676-.072.926-.216s.446-.331.574-.559.197-.468.197-.718v-.849c-.039.047-.125.09-.26.13s-.282.069-.455.098l-.499.071-.389.047a3.5 3.5 0 0 0-.676.152c-.207.069-.374.172-.503.311s-.188.322-.188.558c0 .322.119.566.357.731s.546.244.916.244zm9.035-5.344l-2.231 6.035h-.943l-2.232-6.035h1.006l1.665 4.809h.063l1.666-4.809h1.006zm1.224 6.035v-6.035h.927v6.035h-.927zm.471-7.041a.66.66 0 0 1-.468-.184.6.6 0 0 1-.192-.445c0-.172.065-.32.192-.443a.66.66 0 0 1 .468-.185c.181 0 .336.062.464.185s.196.271.196.443a.59.59 0 0 1-.196.445c-.128.123-.283.184-.464.184zm4.59 9.429c-.448 0-.833-.057-1.155-.173s-.591-.262-.806-.447-.381-.38-.507-.589l.74-.519c.083.11.19.235.317.377s.305.268.527.373.52.161.884.161c.487 0 .89-.118 1.206-.353s.476-.606.476-1.108v-1.226h-.079c-.068.11-.165.246-.291.408s-.3.303-.534.428-.542.186-.935.186c-.487 0-.924-.116-1.312-.346s-.69-.566-.916-1.006-.334-.974-.334-1.603c0-.618.109-1.156.326-1.615s.521-.817.908-1.068.836-.382 1.344-.382c.392 0 .704.066.935.197s.411.275.534.44l.291.4h.094v-.958h.896v6.208c0 .518-.118.94-.353 1.265a2.02 2.02 0 0 1-.944.719c-.393.154-.83.231-1.312.231zm-.031-3.316c.371 0 .686-.085.943-.255s.452-.415.585-.734.2-.702.2-1.148a3.13 3.13 0 0 0-.196-1.151 1.72 1.72 0 0 0-.582-.782c-.256-.188-.573-.282-.95-.282-.394 0-.721.099-.982.298a1.81 1.81 0 0 0-.586.802 3.1 3.1 0 0 0-.193 1.115c0 .419.066.79.197 1.112s.33.571.59.755.586.27.974.27zm6.113 1.069c-.383 0-.729-.072-1.041-.216s-.559-.357-.742-.633-.276-.612-.276-1.005c0-.346.068-.626.205-.841s.318-.388.546-.511.479-.215.754-.275l.836-.149.892-.106c.231-.026.399-.07.503-.13s.162-.165.162-.314v-.032c0-.387-.106-.688-.318-.903s-.528-.323-.955-.323c-.443 0-.79.097-1.041.291s-.429.402-.531.621l-.88-.314c.157-.367.367-.652.629-.857a2.39 2.39 0 0 1 .864-.432c.315-.083.624-.126.927-.126.194 0 .417.024.668.072a2.13 2.13 0 0 1 .735.278c.239.142.436.355.593.64s.236.668.236 1.147v3.977h-.927v-.817h-.047c-.064.13-.168.271-.314.42s-.343.276-.586.381-.541.157-.892.157zm.141-.832c.367 0 .676-.072.928-.216s.445-.331.573-.559.197-.468.197-.718v-.849c-.04.047-.126.09-.26.13a4.55 4.55 0 0 1-.456.098l-.499.071-.389.047a3.49 3.49 0 0 0-.675.152 1.16 1.16 0 0 0-.502.311c-.126.136-.19.322-.19.558 0 .322.119.566.358.731s.546.244.915.244zm6.942-5.344v.785h-3.128v-.785h3.128zm-2.217-1.446h.928v5.752c0 .262.038.459.114.589s.178.215.299.259.252.064.388.064c.102 0 .187-.006.252-.017l.157-.03.189.832c-.063.024-.151.047-.263.071a1.96 1.96 0 0 1-.429.039c-.262 0-.518-.056-.77-.168s-.456-.285-.621-.515-.244-.521-.244-.873v-6.003zm3.611 7.481v-6.035h.927v6.035h-.927zm.472-7.041c-.181 0-.337-.061-.467-.184s-.193-.272-.193-.445a.59.59 0 0 1 .193-.443c.13-.123.286-.185.467-.185s.335.062.463.185.197.271.197.443-.065.322-.197.445-.282.184-.463.184zm4.605 7.167c-.544 0-1.022-.13-1.434-.389s-.727-.622-.958-1.089-.342-1.011-.342-1.634c0-.629.114-1.178.342-1.646s.55-.834.958-1.093.89-.389 1.434-.389 1.022.13 1.431.389.73.623.958 1.093.346 1.017.346 1.646c0 .623-.116 1.168-.346 1.634s-.547.83-.958 1.089-.886.389-1.431.389zm0-.834c.414 0 .755-.105 1.022-.318s.465-.491.593-.837.193-.72.193-1.123-.064-.779-.193-1.128-.326-.63-.593-.845-.608-.321-1.022-.321-.754.106-1.021.321-.465.497-.593.845-.193.724-.193 1.128.064.778.193 1.123.326.625.593.837.608.318 1.021.318zm5.078-2.923v3.631h-.927v-6.035h.895v.943h.079c.141-.306.356-.553.644-.738s.66-.284 1.116-.284c.409 0 .766.084 1.072.252a1.69 1.69 0 0 1 .715.755c.171.335.256.759.256 1.273v3.834h-.928v-3.772c0-.474-.123-.843-.368-1.108s-.585-.4-1.014-.4c-.296 0-.561.063-.794.192s-.413.316-.546.561-.2.546-.2.896z" fill="#231f20"/><path d="M94.176 172.16H63.072c-1.536 0-2.496-1.056-2.496-2.496v-31.2c0-1.536 1.056-2.496 2.496-2.496h31.2c1.536 0 2.496 1.056 2.496 2.496v31.2c.096 1.344-.96 2.496-2.592 2.496zm41.376 0h-31.104c-1.536 0-2.496-1.056-2.496-2.496v-31.2c0-1.536 1.056-2.496 2.496-2.496h31.2c1.536 0 2.496 1.056 2.496 2.496v31.2c.096 1.344-.96 2.496-2.592 2.496zm41.472 0h-31.2c-1.536 0-2.496-1.056-2.496-2.496v-31.2c0-1.536 1.056-2.496 2.496-2.496h31.2c1.536 0 2.496 1.056 2.496 2.496v31.2c.192 1.344-.96 2.496-2.496 2.496zm-2.688-40.416H65.664a5.16 5.16 0 0 1-5.184-5.184V17.888a5.16 5.16 0 0 1 5.184-5.184h108.672a5.16 5.16 0 0 1 5.184 5.184V126.56a5.16 5.16 0 0 1-5.184 5.184z" fill="#8796a1"/><path d="M164.448 80.672c-.48 0-1.056-.192-1.248-.48a2.09 2.09 0 0 1 0-2.88l5.184-5.184-5.184-5.184a2.09 2.09 0 0 1 0-2.88 2.09 2.09 0 0 1 2.88 0l6.432 6.432a2.09 2.09 0 0 1 0 2.88l-6.432 6.432c-.576.672-1.056.864-1.632.864zM75.552 63.488c.48 0 1.056.192 1.248.48a2.09 2.09 0 0 1 0 2.88l-5.184 5.184 5.184 5.184a2.09 2.09 0 0 1 0 2.88 2.09 2.09 0 0 1-2.88 0l-6.432-6.432a2.09 2.09 0 0 1 0-2.88l6.432-6.432c.576-.672 1.056-.864 1.632-.864zm16.224 86.592l-6.24-6.24-3.168-.48c0 1.824-1.536 3.456-3.648 3.456s-3.648-1.536-3.648-3.456l-3.168.48-6.24 6.24 4.224 4.224 2.016-2.016v12.48H85.44v-12.48l2.016 2.016 4.32-4.224z" fill="#fff"/><path d="M83.616 148.736h-9.504v11.52h9.504v-11.52z" class="B"/><path d="M76.608 148.736h-2.496v11.52h2.496v-11.52z" class="C"/><path d="M83.616 148.736H81.12v11.52h2.496v-11.52z" class="D"/><path d="M111.264 161.696c4.224 1.056 8.16.864 13.632-.48.96-.288 1.92-.768 2.88-1.248-.384 0-.864 0-1.344.096-9.6-.192-12-1.44-12.576-2.208-.096-.096-.096-.192-.192-.288-2.4.384-5.76 1.248-5.952 2.016-.096.384 1.152 1.536 3.552 2.112z" class="C"/><path d="M126.144 159.584v-5.568s.096-3.648-2.016-6.24h-.288c-1.152 0-2.016-.384-2.208-.96-2.496.288-7.008 1.536-7.392 7.2l-.192 3.264c0 .096.096.192.192.288.384.48 2.496 1.824 11.904 2.016z" class="B"/><path d="M126.528 154.016v5.568c4.224-.096 5.376-.864 5.76-1.344.096-.096.096-.192.096-.384v-.096-3.744c0-1.344-.384-2.688-1.056-3.936-1.344-2.208-3.552-3.072-5.28-3.36-.192.384-.768.672-1.44.864 2.016 2.784 1.92 6.24 1.92 6.432z" class="D"/><path d="M125.76 146.528c0 .48-.864.768-1.92.768s-1.92-.384-1.92-.768c0-.48.864-.768 1.92-.768 1.056-.096 1.92.288 1.92.768zm43.104-4.512h-14.88c-.192 0-.384.192-.384.384v1.824h15.552V142.4c0-.192-.096-.384-.288-.384z" class="C"/><path d="M169.152 149.312v-4.32h-2.4c0 .768.096 2.976 2.4 4.32zm-15.552 0c2.304-1.344 2.4-3.552 2.4-4.32h-2.4v4.32z" class="D"/><path d="M169.152 165.632V150.08c-2.88-1.44-3.072-4.128-3.072-5.184h-4.32v8.928l2.784 11.808c0 .192.192.288.384.288h3.936c.192.096.288-.096.288-.288zm-15.168.384h3.936c.192 0 .288-.096.384-.288l2.784-11.808v-8.928h-4.32c0 1.056-.192 3.744-3.072 5.184v15.552c-.096.096.096.288.288.288z" class="B"/><path d="M153.696 62.048L137.472 45.92l-8.064-1.536c0 4.992-4.128 9.12-9.312 9.12s-9.312-4.128-9.312-9.12l-8.064 1.536-16.416 15.744L97.536 72.8l5.376-5.376v32.64h34.656v-32.16l5.184 5.184 10.944-11.04z" fill="#fff"/><path d="M131.808 58.976h-23.712v28.8h23.712v-28.8z" class="B"/><path d="M114.336 58.976h-6.24v28.8h6.24v-28.8z" class="C"/><path d="M131.904 58.976h-6.24v28.8h6.24v-28.8z" class="D"/><path opacity=".5" d="M179.52 138.464v31.2c.096 1.44-1.056 2.592-2.496 2.592h-3.744v-36.288h3.744c1.536-.096 2.496.96 2.496 2.496zm-118.944 31.2v-31.2c-.096-1.44 1.056-2.592 2.496-2.592h3.744v36.288h-3.744c-1.44 0-2.496-.96-2.496-2.496z" fill="#000"/><path d="M64.8 151.328c.192 0 .288.096.384.192a.64.64 0 0 1 0 .96l-1.632 1.632 1.632 1.632a.64.64 0 0 1 0 .96.64.64 0 0 1-.96 0l-2.016-2.016a.64.64 0 0 1 0-.96l2.112-2.208c.096-.192.288-.192.48-.192zm110.496 5.472c-.192 0-.288-.096-.384-.192a.64.64 0 0 1 0-.96l1.632-1.632-1.632-1.632a.64.64 0 0 1 0-.96.64.64 0 0 1 .96 0l2.016 2.016a.64.64 0 0 1 0 .96l-2.016 2.016c-.192.288-.384.384-.576.384z" fill="#fff"/><path d="M53.76 154.88c-6.72 2.592-11.328 8.448-11.712 14.688-.48 8.352 6.816 16.512 16.8 17.76" stroke-dasharray="2 2" class="E F G"/><path d="M54.432 159.584l-2.592-9.024 5.76 3.168-3.168 5.856zm4.032 30.528c1.632.096 2.976-1.056 3.072-2.688s-1.056-2.976-2.688-3.072-2.976 1.056-3.072 2.688c-.096 1.536 1.152 2.976 2.688 3.072z" fill="#f26522"/><path d="M186.336 154.88c.288.096.576.192.864.384" class="E F G"/><path d="M188.928 156.128c5.28 2.976 8.736 8.064 9.024 13.44.48 7.872-5.856 15.456-14.88 17.376" stroke-dasharray="2.02 2.02" class="E F G"/><path d="M182.208 187.136c-.288.096-.672.096-.96.096" class="E F G"/><path d="M188.256 150.56l-2.592 9.024-3.264-5.856 5.856-3.168zm-7.104 33.792c-1.632.096-2.784 1.44-2.688 3.072s1.44 2.784 3.072 2.688 2.784-1.44 2.688-3.072-1.44-2.784-3.072-2.688z" fill="#f26522"/></g></g><defs><clipPath id="B"><path fill="#fff" transform="translate(0 .8)" d="M0 0h240v201.6H0z"/></clipPath></defs></svg>