<svg xmlns="http://www.w3.org/2000/svg" xmlns:xlink="http://www.w3.org/1999/xlink" width="240" height="209" fill="none" xmlns:v="https://vecta.io/nano"><style><![CDATA[.B{fill:#8796a1}.C{fill:#ffd2fd}.D{fill:#ffebd7}]]></style><g clip-path="url(#B)"><mask id="A" maskUnits="userSpaceOnUse" x="0" y="0" width="240" height="208"><path d="M0 .08h240v207.84H0V.08z" fill="#fff"/></mask><g mask="url(#A)"><path d="M240 .08H0v207.84h240V.08z" fill="#f4f4f4"/><path d="M137.981 144.08H29.94c-2.811 0-5.171-2.248-5.171-5.171V30.98c0-2.811 2.248-5.172 5.171-5.172h107.929c2.81 0 5.172 2.248 5.172 5.172v107.929c0 2.923-2.248 5.171-5.059 5.171z" class="B"/><path d="M86.94 71.903h-6.183v28.556h6.183V71.903z" fill="#d7e2ff"/><path d="M117.295 74.826L101.33 58.861l-7.983-1.574c0 4.947-4.047 9.106-9.219 9.106s-9.219-4.047-9.219-9.106l-7.982 1.574-16.414 15.627 11.018 11.018 5.284-5.284v32.379h34.403V80.672l5.171 5.172 10.906-11.018z" fill="#fff"/><path d="M95.709 71.903H72.1v28.556h23.497V71.903h.112z" class="C"/><path d="M86.94 71.903h-6.183v28.556h6.183V71.903z" class="D"/><path opacity=".75" d="M240 .08H0V208.4h240V.08z" fill="#000"/><path d="M181.394 146H59.566a5.76 5.76 0 0 1-2.226-.435 5.77 5.77 0 0 1-3.145-3.145 5.78 5.78 0 0 1-.435-2.226V18.366a5.78 5.78 0 0 1 1.693-4.113 5.78 5.78 0 0 1 4.114-1.693h121.828a5.78 5.78 0 0 1 2.226.435 5.77 5.77 0 0 1 3.145 3.145 5.76 5.76 0 0 1 .435 2.226v121.828c.004.763-.144 1.52-.435 2.226a5.76 5.76 0 0 1-3.145 3.145c-.706.291-1.463.439-2.226.435z" class="B"/><path d="M158.171 67.853l-18.062-18.062-9.032-1.751c0 5.622-4.608 10.229-10.413 10.229S110.25 53.661 110.25 48.04l-9.123 1.751-18.431 17.602 12.441 12.441 5.99-5.99v36.585h38.798V74.396l5.805 5.806 12.441-12.349z" fill="#fff"/><path d="M133.75 64.535h-26.632V96.79h26.54V64.535h.092z" class="C"/><path d="M123.89 64.535h-7.004V96.79h7.004V64.535z" fill="#d7e2ff"/><path d="M123.89 64.535h-7.004V96.79h7.004V64.535z" class="D"/><path opacity=".4" d="M0 158v49.92h240V158H0z" class="B"/><path d="M58.752 197.744H33.696c-1.248 0-2.016-.864-2.016-2.016v-25.152c0-1.248.864-2.016 2.016-2.016h25.152c1.248 0 2.016.864 2.016 2.016v25.152c.096 1.152-.864 2.016-2.112 2.016z" class="B"/><path d="M58.656 197.36h-24.96c-1.248 0-2.016-.864-2.016-2.016v-25.152c0-1.248.864-2.016 2.016-2.016h25.152c1.248 0 2.016.864 2.016 2.016v25.152c0 1.152-.864 2.016-2.208 2.016z" stroke="#ec008c" stroke-miterlimit="10" class="B"/><path d="M56.64 179.6l-4.992-4.992-2.592-.384c0 1.44-1.248 2.784-2.976 2.784s-2.976-1.248-2.976-2.784l-2.592.384-4.992 4.992 3.36 3.36 1.632-1.632v9.984h10.944v-9.984l1.632 1.632 3.552-3.36z" fill="#fff"/><path d="M50.112 178.544h-7.68v9.312h7.68v-9.312z" class="C"/><path d="M47.328 178.544h-2.016v9.312h2.016v-9.312z" class="D"/><path d="M95.623 197.36H70.567c-1.248 0-2.016-.864-2.016-2.016v-25.152c0-1.248.864-2.016 2.016-2.016h25.152c1.248 0 2.016.864 2.016 2.016v25.152c.096 1.152-.864 2.016-2.112 2.016z" class="B"/><path d="M75.079 189.104c3.36.864 6.528.768 11.04-.384.768-.288 1.536-.576 2.304-.96h-1.152c-7.68-.096-9.6-1.152-10.08-1.824-.096-.096-.096-.192-.096-.288-1.92.288-4.608 1.056-4.8 1.632-.192.48.864 1.344 2.784 1.824z" class="D"/><path d="M87.079 187.472v-4.512s.096-2.976-1.632-5.088h-.288c-.864 0-1.632-.288-1.824-.768-2.016.192-5.664 1.248-5.952 5.76l-.192 2.592c0 .096.096.192.096.288.48.48 2.208 1.536 9.792 1.728z" class="C"/><path d="M87.367 182.96v4.512c3.36-.096 4.32-.672 4.608-1.056.096-.096.096-.192.096-.288v-2.976c0-1.152-.288-2.208-.864-3.168-1.056-1.824-2.88-2.496-4.224-2.688-.192.288-.576.576-1.152.672 1.632 2.016 1.536 4.8 1.536 4.992z" class="D"/><path d="M86.694 176.912c0 .384-.672.672-1.536.672s-1.536-.288-1.536-.672.672-.672 1.536-.672 1.536.288 1.536.672z" class="C"/><use xlink:href="#C" class="B"/><path d="M125.965 173.072h-12a.25.25 0 0 0-.288.288v1.44h12.576v-1.44c0-.096-.096-.288-.288-.288z" class="C"/><path d="M126.253 178.928v-3.552h-1.92c0 .672.096 2.496 1.92 3.552zm-12.576 0c1.824-1.056 1.92-2.88 1.92-3.552h-1.92v3.552z" class="D"/><path d="M126.253 192.08V179.6c-2.304-1.152-2.496-3.36-2.496-4.128h-3.456v7.2l2.208 9.504c0 .096.192.192.288.192h3.168c.192.096.288-.096.288-.288zm-12.288.384h3.168c.096 0 .288-.096.288-.192l2.208-9.504v-7.2h-3.456c0 .864-.096 3.072-2.496 4.128v12.48c0 .096.192.288.288.288z" class="C"/><path d="M169.364 197.36h-25.056c-1.248 0-2.016-.864-2.016-2.016v-25.152c0-1.248.864-2.016 2.016-2.016h25.152c1.248 0 2.016.864 2.016 2.016v25.152c.096 1.152-.864 2.016-2.112 2.016z" class="B"/><path d="M160.724 179.12c0 .096 0 .192-.096.192h-.096-.097l-3.455-1.728v14.496h8.928v-15.84h-5.184v2.88zm3.071 1.92v1.248c0 .096-.095.288-.287.288h-4.416c-.096 0-.288-.096-.288-.288v-1.248c0-.096.096-.288.288-.288h4.416c.192.096.287.192.287.288zm-4.415.288h3.935v.768h-3.935v-.768zm-11.904-5.088v15.84h8.928v-14.496l-3.456 1.728h-.096-.096c-.096 0-.096-.096-.096-.192v-2.88h-5.184z" class="C"/><path d="M160.148 176.048v-1.92l-3.073 3.072 3.073 1.536v-2.688zm-6.624-2.304l3.168 3.168 3.168-3.168h-6.336zm-.384 2.304v2.784l3.072-1.536-3.072-3.072v1.824z" class="D"/><path d="M206.234 197.36h-25.056c-1.248 0-2.016-.864-2.016-2.016v-25.152c0-1.248.864-2.016 2.016-2.016h25.152c1.248 0 2.016.864 2.016 2.016v25.152c.096 1.152-.864 2.016-2.112 2.016z" class="B"/><path d="M199.61 174.608l-3.072-1.248-.672 11.136-2.304 2.304-2.304-2.304-.672-11.136-3.072 1.248s-3.168 3.84-3.744 12.096h2.592c.48-2.784 1.344-7.104 1.92-7.584.768-.768 0 10.656 0 10.656s2.304 2.304 5.28 2.304 5.28-2.304 5.28-2.304-.768-11.424 0-10.656c.48.48 1.344 4.8 1.92 7.584h2.592c-.576-8.256-3.744-12.096-3.744-12.096z" class="C"/><path d="M201.146 189.008h2.304v-1.536h-2.496l.192 1.536zm-17.472 0h2.304l.288-1.536h-2.496c-.096.48-.096 1.056-.096 1.536zm9.12-15.936h1.536v1.536h-1.536v-1.536zm2.208 9.12l-.768-6.816h-1.536l-.768 6.816 1.536 2.304 1.536-2.304z" class="D"/></g></g><defs><clipPath id="B"><path fill="#fff" transform="translate(0 .08)" d="M0 0h240v208.32H0z"/></clipPath><path id="C" d="M132.493 197.36h-25.056c-1.248 0-2.016-.864-2.016-2.016v-25.152c0-1.248.864-2.016 2.016-2.016h25.152c1.248 0 2.016.864 2.016 2.016v25.152c.096 1.152-.864 2.016-2.112 2.016z"/></defs></svg>