<svg xmlns="http://www.w3.org/2000/svg" xmlns:xlink="http://www.w3.org/1999/xlink" width="240" height="209" fill="none" xmlns:v="https://vecta.io/nano"><g clip-path="url(#A)"><g fill="#f4f4f4"><path d="M240 .08H0V208.4h240V.08z"/><path d="M239.904.08h-240V208.4h240V.08z"/></g><path d="M174.432 131.024H65.664a5.16 5.16 0 0 1-5.184-5.184V17.168a5.16 5.16 0 0 1 5.184-5.184h108.672a5.16 5.16 0 0 1 5.184 5.184V125.84c.096 2.88-2.208 5.184-5.088 5.184z" fill="#8796a1"/><path d="M172.416 69.776l-6.432-6.432c-.389-.369-.904-.574-1.44-.574s-1.051.206-1.44.574a2.09 2.09 0 0 0 0 2.88l5.184 5.184-5.184 5.184a2.09 2.09 0 0 0 0 2.88c.192.288.768.48 1.248.48.576 0 1.056-.192 1.632-.864l6.432-6.432c.864-.768.864-2.112 0-2.88zM76.8 63.728c-.389-.369-.904-.574-1.44-.574s-1.051.206-1.44.574l-6.432 6.432c-.369.389-.574.904-.574 1.44s.206 1.051.574 1.44l6.528 6.432c.192.288.768.48 1.248.48.576 0 .96-.192 1.536-.096.369-.389.574-.904.574-1.44s-.206-1.051-.574-1.44l-5.184-5.184 5.184-5.184c.369-.389.574-.904.574-1.44s-.206-1.051-.574-1.44zm76.896-2.4L137.472 45.2l-8.064-1.536c0 4.992-4.128 9.12-9.312 9.12s-9.312-4.128-9.312-9.12L102.72 45.2 86.304 60.944 97.44 72.08l5.376-5.376v32.64h34.656v-32.16l5.184 5.184 11.04-11.04z" fill="#fff"/><path d="M131.904 58.352h-23.712v28.8h23.712v-28.8z" fill="#ffd2fd"/><path d="M123.072 58.352h-6.24v28.8h6.24v-28.8z" fill="#d7e2ff"/><path d="M123.072 58.352h-6.24v28.8h6.24v-28.8z" fill="#ffebd7"/><g fill="#231f20"><path d="M92.736 194.48h-1.344v-8.16h1.344v8.16z"/><use xlink:href="#B"/><path d="M102.24 188.432l.096.864a2.92 2.92 0 0 1 .768-.768c.288-.192.672-.288 1.056-.288.672 0 1.152.192 1.44.576s.576.96.576 1.824v3.84h-1.344v-3.84c0-.48-.096-.768-.288-.96s-.48-.288-.864-.288c-.288 0-.48.096-.672.192a1.16 1.16 0 0 0-.48.48v4.416h-1.344v-6.048h1.056 0zm7.872 6.144c-.864 0-1.536-.288-2.016-.864s-.768-1.248-.768-2.208v-.192c0-.864.288-1.632.768-2.208s1.152-.864 1.92-.864c.864 0 1.44.288 1.92.768s.672 1.152.672 2.016v.768h-3.84c0 .48.192.864.384 1.152s.576.48 1.056.48c.384 0 .672 0 .96-.096s.48-.192.768-.384l.48.864c-.192.192-.576.384-.864.48s-.96.288-1.44.288zm-.192-5.184c-.384 0-.576.096-.864.384s-.384.576-.384 1.056h2.4v-.096a1.62 1.62 0 0 0-.288-.96c-.192-.288-.48-.384-.864-.384zm6.72.192h-.576c-.288 0-.48.096-.672.192s-.288.288-.384.48v4.224h-1.344v-6.048h1.248l.096.864c.192-.288.384-.576.576-.768s.48-.288.864-.288h.192.192l-.192 1.344zm5.376 1.824v3.072h-1.344v-8.16h3.168c.864 0 1.632.192 2.112.672s.768 1.056.768 1.824-.288 1.344-.768 1.824-1.248.672-2.112.672h-1.824v.096zm0-1.152h1.824c.48 0 .864-.096 1.152-.384s.384-.576.384-1.056-.096-.768-.384-1.056-.672-.384-1.152-.384h-1.824v2.88zm9.504 4.224c-.096-.192-.096-.288-.096-.48s-.096-.288-.096-.48c-.192.288-.48.48-.768.672s-.672.288-1.056.288c-.672 0-1.152-.192-1.44-.48s-.48-.768-.48-1.344.192-1.056.672-1.344 1.152-.48 1.92-.48h1.056v-.576c0-.288-.096-.576-.288-.768s-.48-.288-.768-.288a1.81 1.81 0 0 0-.768.192c-.192.096-.288.384-.288.576h-1.344c0-.48.192-.864.672-1.248s1.056-.576 1.824-.576c.672 0 1.248.192 1.728.576s.672.864.672 1.536v2.688c0 .288 0 .48.096.768s.096.48.192.672l-1.44.096zm-1.728-.96a1.62 1.62 0 0 0 .96-.288c.288-.192.48-.384.576-.576v-.864h-1.056a1.62 1.62 0 0 0-.96.288c-.288.192-.384.384-.384.672 0 .192.096.384.192.576s.384.192.672.192z"/><use xlink:href="#C"/><path d="M140.352 191.504c0-.96.192-1.728.672-2.304s.96-.864 1.728-.864c.298.007.591.073.864.192a1.8 1.8 0 0 1 .672.576v-3.36h1.344v8.736h-1.152l-.096-.768a2.24 2.24 0 0 1-.672.672c-.288.192-.576.192-.96.192-.768 0-1.344-.288-1.728-.768s-.672-1.248-.672-2.112v-.192h0zm1.344.096c0 .576.096 1.056.288 1.344s.576.48 1.056.48a1.81 1.81 0 0 0 .768-.192c.192-.096.384-.288.48-.576v-2.496a1.16 1.16 0 0 0-.48-.48 1.81 1.81 0 0 0-.768-.192c-.48 0-.768.192-1.056.576s-.288.864-.288 1.536zm6.912-4.704h-1.344v-1.152h1.344v1.152zm0 7.584h-1.344v-6.048h1.344v6.048zm2.784-6.048l.096.864a2.92 2.92 0 0 1 .768-.768c.288-.192.672-.288 1.056-.288.672 0 1.152.192 1.44.576s.576.96.576 1.824v3.84h-1.344v-3.84c0-.48-.096-.768-.288-.96s-.48-.288-.864-.288c-.288 0-.48.096-.672.192a1.16 1.16 0 0 0-.48.48v4.416h-1.344v-6.048h1.056 0zm4.992 3.072c0-.96.192-1.728.672-2.304s1.056-.864 1.728-.864c.384 0 .672.096.96.192s.48.384.672.672l.096-.768h1.152v6.048c0 .768-.288 1.344-.768 1.824s-1.152.672-2.016.672c-.288 0-.576 0-.96-.096l-.96-.288.288-1.056c.192.096.48.192.768.288s.576.096.864.096c.48 0 .864-.096 1.056-.288.24-.263.377-.604.384-.96V194c-.192.288-.384.384-.672.576s-.576.192-.864.192c-.768 0-1.344-.288-1.728-.768s-.672-1.248-.672-2.112v-.384zm1.344.096c0 .576.096.96.288 1.344s.576.48 1.056.48a1.81 1.81 0 0 0 .768-.192 1.16 1.16 0 0 0 .48-.48v-2.592a1.16 1.16 0 0 0-.48-.48 1.81 1.81 0 0 0-.768-.192c-.48 0-.864.192-1.056.576s-.384.864-.288 1.536z"/></g><path d="M92.544 172.976H62.88a2.62 2.62 0 0 1-1.04-.186c-.33-.132-.63-.329-.882-.581a2.61 2.61 0 0 1-.581-.882c-.132-.33-.195-.683-.186-1.039v-29.76c-.009-.356.054-.709.186-1.039a2.61 2.61 0 0 1 .581-.882c.252-.252.551-.449.882-.581a2.62 2.62 0 0 1 1.04-.186h29.76a2.62 2.62 0 0 1 1.04.186c.33.132.63.329.882.581a2.61 2.61 0 0 1 .581.882c.132.33.195.683.186 1.039v29.76c0 1.536-1.248 2.688-2.784 2.688zm-29.664-34.56c-1.248 0-2.208.864-2.208 2.208v29.76c0 1.248.864 2.208 2.208 2.208h29.664c1.248 0 2.304-.96 2.304-2.208v-29.76c0-1.248-.864-2.208-2.208-2.208H62.88zm25.152 29.088H67.488c-.96 0-1.632-.672-1.632-1.632v-20.64c0-.96.672-1.632 1.632-1.632h20.64c.96 0 1.632.672 1.632 1.632v20.64c0 .864-.672 1.632-1.728 1.632z" fill="#8796a1"/><path d="M87.36 152.528l-4.512-4.512-2.304-.384c0 1.344-1.152 2.496-2.688 2.496s-2.688-1.152-2.688-2.496l-2.304.384-4.512 4.512 3.072 3.072 1.44-1.44v9.12h9.888v-9.12l1.44 1.44 3.168-3.072z" fill="#fff"/><path d="M81.312 151.568H74.4v8.352h6.912v-8.352z" fill="#ffd2fd"/><path d="M78.816 151.568h-1.824v8.352h1.824v-8.352z" fill="#ffebd7"/><g fill="#f21197"><path d="M89.472 167.888H66.048c-.192 0-.192.096-.192.192v3.936h23.808c.096 0 .288-.096.288-.288v-3.648c-.096-.192-.384-.192-.48-.192zm0 3.84H66.144v-3.552h23.328v3.552zm0-32.736H66.048c-.192 0-.192.096-.192.288v3.84h23.808c.096 0 .288-.096.288-.192v-3.648c-.096-.288-.384-.288-.48-.288zm0 3.84H66.144v-3.552h23.328v3.552zm4.608.864h-3.936v23.808c0 .096.096.288.288.288h3.648c.192 0 .192-.288.192-.384v-23.424c0-.192-.096-.288-.192-.288zm-.096 23.712h-3.552V144.08h3.552v23.328zM65.28 143.696h-3.936v23.808c0 .096.096.288.288.288h3.648c.192 0 .192-.288.192-.384v-23.424c0-.192-.096-.288-.192-.288zm-.096 23.712h-3.552V144.08h3.552v23.328z"/><path d="M89.568 142.736l-.192.096h.096c.096.096.096 0 .096-.096zm-.096 29.184c.096 0 .096-.096.096-.096v-.096l-.096.192z"/></g><use xlink:href="#D" stroke="#8796a1" stroke-width=".525" stroke-miterlimit="10"/><use xlink:href="#E" fill="#8796a1"/><path d="M114.336 161.36c3.072.768 5.952.672 9.984-.384.672-.192 1.44-.576 2.112-.864-.288 0-.672 0-.96.096-7.008-.096-8.736-1.056-9.12-1.632-.096-.096-.096-.096-.096-.192-1.728.288-4.224.864-4.32 1.44-.192.288.672 1.056 2.4 1.536z" fill="#ffebd7"/><path d="M125.184 159.824v-4.032s.096-2.688-1.44-4.512h-.192c-.864 0-1.44-.288-1.632-.672-1.824.192-5.088 1.152-5.376 5.28l-.096 2.4c0 .096.096.096.096.192.288.192 1.824 1.152 8.64 1.344z" fill="#ffd2fd"/><path d="M125.472 155.696v4.032c3.072-.096 3.936-.672 4.224-.96.096-.096.096-.096.096-.288v-2.688c0-.96-.288-1.92-.768-2.88-.96-1.632-2.592-2.208-3.84-2.496-.096.288-.576.48-1.056.672 1.44 2.016 1.344 4.512 1.344 4.608z" fill="#ffebd7"/><path d="M124.992 150.224c0 .384-.672.576-1.44.576s-1.44-.288-1.44-.576c0-.384.672-.576 1.44-.576.768.096 1.44.288 1.44.576z" fill="#ffd2fd"/><g opacity=".35" fill="#000"><use xlink:href="#D"/><path d="M135.552 172.976h-29.664c-.356.009-.709-.054-1.039-.186s-.631-.329-.882-.581-.449-.551-.581-.882-.195-.683-.186-1.039v-29.76c-.009-.356.054-.709.186-1.039s.329-.631.581-.882.551-.449.882-.581.683-.195 1.039-.186h29.76c.356-.009.709.054 1.039.186s.631.329.882.581.449.551.581.882.195.683.186 1.039v29.76c0 1.536-1.248 2.688-2.784 2.688zm-29.664-34.56c-1.248 0-2.208.864-2.208 2.208v29.76c0 1.248.864 2.208 2.208 2.208h29.664c1.248 0 2.304-.96 2.304-2.208v-29.76c0-1.248-.864-2.208-2.208-2.208h-29.76z"/></g><use xlink:href="#F" stroke="#8796a1" stroke-width=".525" stroke-miterlimit="10"/><path d="M172.512 167.504h-20.544c-.96 0-1.632-.672-1.632-1.632v-20.64c0-.96.672-1.632 1.632-1.632h20.64c.96 0 1.632.672 1.632 1.632v20.64c0 .864-.672 1.632-1.728 1.632h0z" fill="#8796a1"/><path d="M167.712 147.056h-10.848c-.096 0-.288.096-.288.288v1.344h11.328v-1.344c.096-.192 0-.288-.192-.288z" fill="#ffd2fd"/><path d="M168 152.336v-3.168h-1.728c0 .576.096 2.208 1.728 3.168zm-11.328 0c1.632-.96 1.728-2.592 1.728-3.168h-1.728v3.168z" fill="#ffebd7"/><path d="M168 164.24v-11.328c-2.112-1.056-2.208-2.976-2.208-3.744h-3.168v6.528l2.016 8.64c0 .096.096.192.288.192h2.88c.096 0 .192-.096.192-.288zm-11.136.288h2.88c.096 0 .192-.096.288-.192l2.016-8.64v-6.528h-3.168c0 .768-.096 2.688-2.208 3.744v11.328c0 .192.096.288.192.288z" fill="#ffd2fd"/><g opacity=".35" fill="#000"><use xlink:href="#F"/><path d="M177.024 173.072H147.36c-1.632 0-2.688-1.056-2.688-2.688v-29.76c0-1.632 1.056-2.688 2.688-2.688h29.76c1.632 0 2.688 1.056 2.688 2.688v29.76c-.001.361-.075.718-.216 1.05a2.69 2.69 0 0 1-.608.882c-.259.251-.567.447-.903.577s-.696.191-1.057.179zm-29.664-34.56c-1.344 0-2.112.864-2.112 2.112v29.76c0 1.344.864 2.112 2.112 2.112h29.664c1.44 0 2.208-1.152 2.208-2.112v-29.76c0-1.344-.864-2.112-2.112-2.112h-29.76z"/></g><path d="M82.464 187.28h.096.096.384.096.096.096.096c.096 0 .192 0 .192.096h.096.096c.096 0 .192.096.288.096h.096c.096 0 .096.096.192.096h.096.096.096c.096 0 .096.096.192.192h.096l.096.096.096.096c.096 0 .096.096.096.096l.096.096.096.096.192.192v.096.096.096c.096.096.096.192.096.192v.096.096.096c0 .096.096.096.096.192v.096.096.096.096c0 .096.096.192.096.192v.096.096.384.288.384.096.288c0 .192-.096.384-.192.576a.73.73 0 0 1-.192.384c-.384.768-.96 1.344-1.632 1.632-.096.096-.192.096-.384.192s-.384.096-.576.192h-.288-.384-.096-.288-.384-.096-.096c-.096 0-.192 0-.288-.096h-.096-.096-.096c-.096 0-.192-.096-.192-.096l-.096-.096h-.096c-.096 0-.192-.096-.192-.096l-.096-.096h-.096l-.096-.096-.096-.096-.096-.096-.096-.096h-.096l-.192-.192-.096-.096c-.096-.096-.096-.192-.192-.192 0 0 0-.096-.096-.096-.096-.096-.096-.192-.192-.288v-.096-.096c0-.096-.096-.096-.096-.192v-.096c0-.096-.096-.192-.096-.384v-.096-.096-.096-.288-.096-.096-.192-.48-.288c0-.192.096-.384.192-.576 0-.096.096-.192.192-.384l.096-.096c.358-.646.89-1.178 1.536-1.536l.192-.096c.096 0 .192-.096.384-.096.192-.096.384-.096.576-.192h.288.48zm-.096-.96h-.576c-.096 0-.192 0-.384.096-.288.096-.48.096-.768.192l-.576.288c-.768.48-1.536 1.152-1.92 1.92l-.288.576a1.81 1.81 0 0 0-.192.768c0 .096 0 .192-.096.384v.576.288c-.015.166.018.333.096.48 0 .096 0 .192.096.288 0 .096.096.288.096.384s0 .192.096.192a.73.73 0 0 0 .192.384c0 .096.096.096.096.192.096.096.096.192.192.384 0 .096.096.096.096.192.096.096.192.192.192.288l.192.192.288.288c.096.096.096.096.192.096.096.096.192.192.288.192.096.096.096.096.192.096.096.096.192.096.288.192.096 0 .096.096.192.096.096.096.192.096.384.192.096 0 .192.096.288.096.096.096.288.096.384.096h.288c.192 0 .288.096.48.096h.288.096.48c.096 0 .288 0 .384-.096.288 0 .48-.096.768-.192.192-.096.384-.096.48-.192.864-.48 1.632-1.152 2.112-2.112.096-.192.192-.384.192-.48a1.81 1.81 0 0 0 .192-.768c0-.096 0-.288.096-.384v-.48-.288c0-.192 0-.288-.096-.48v-.288c0-.096-.096-.288-.096-.384s-.096-.192-.096-.192a.73.73 0 0 0-.192-.384c0-.096-.096-.192-.096-.192-.096-.096-.096-.192-.192-.288 0-.096-.096-.096-.096-.192-.096-.096-.192-.192-.192-.288s-.096-.096-.096-.192l-.288-.288-.192-.192c-.096-.096-.192-.192-.288-.192-.096-.096-.096-.096-.192-.096-.096-.096-.192-.096-.288-.192-.096 0-.096-.096-.192-.096-.096-.096-.288-.096-.384-.192-.096 0-.096-.096-.192-.096-.096-.096-.288-.096-.384-.096s-.192 0-.288-.096c-.192 0-.288 0-.48-.096h-.576z" fill="#f21197"/></g><defs><clipPath id="A"><path fill="#fff" transform="translate(0 .08)" d="M0 0h240v208.32H0z"/></clipPath><path id="B" d="M95.712 188.432l.096.864a2.92 2.92 0 0 1 .768-.768c.288-.192.672-.288 1.056-.288.672 0 1.152.192 1.44.576s.576.96.576 1.824v3.84h-1.344v-3.84c0-.48-.096-.768-.288-.96s-.48-.288-.864-.288c-.288 0-.48.096-.672.192a1.16 1.16 0 0 0-.48.48v4.416h-1.344v-6.048h1.056 0z"/><path id="C" d="M133.824 191.504c0-.96.192-1.728.672-2.304s.96-.864 1.728-.864c.298.007.591.073.864.192a1.8 1.8 0 0 1 .672.576v-3.36h1.344v8.736h-1.152l-.096-.768a2.24 2.24 0 0 1-.672.672c-.288.192-.576.192-.96.192-.768 0-1.344-.288-1.728-.768s-.672-1.248-.672-2.112v-.192h0zm1.344.096c0 .576.096 1.056.288 1.344s.576.48 1.056.48a1.81 1.81 0 0 0 .768-.192c.192-.096.384-.288.48-.576v-2.496a1.16 1.16 0 0 0-.48-.48 1.81 1.81 0 0 0-.768-.192c-.48 0-.768.192-1.056.576s-.288.864-.288 1.536z"/><path id="D" d="M135.552 172.688h-29.664c-1.44 0-2.4-.96-2.4-2.4v-29.76c0-1.44.96-2.4 2.4-2.4h29.76c1.44 0 2.4.96 2.4 2.4v29.76c0 1.344-.96 2.4-2.496 2.4z"/><path id="E" d="M131.04 167.408h-20.544c-.96 0-1.632-.672-1.632-1.632v-20.64c0-.96.672-1.632 1.632-1.632h20.64c.96 0 1.632.672 1.632 1.632v20.64c0 .864-.672 1.632-1.728 1.632h0z"/><path id="F" d="M177.024 172.784H147.36c-1.44 0-2.4-.96-2.4-2.4v-29.76c0-1.44.96-2.4 2.4-2.4h29.76c1.44 0 2.4.96 2.4 2.4v29.76c0 1.248-.96 2.4-2.496 2.4z"/></defs></svg>