<svg xmlns="http://www.w3.org/2000/svg" width="240" height="215" fill="none" xmlns:v="https://vecta.io/nano"><g clip-path="url(#A)"><path d="M0 .608h240v213.6H0V.608z" fill="#f4f4f4"/><path d="M198.72 136.544H85.44c-.706.001-1.406-.137-2.059-.407s-1.246-.665-1.746-1.165a5.36 5.36 0 0 1-1.165-1.745 5.37 5.37 0 0 1-.407-2.059V17.888c-.001-.706.137-1.406.407-2.059a5.37 5.37 0 0 1 2.911-2.911c.653-.27 1.352-.408 2.059-.407h113.28a5.37 5.37 0 0 1 2.059.407 5.36 5.36 0 0 1 1.745 1.165c.5.499.896 1.093 1.165 1.745s.408 1.352.407 2.059v113.28a5.37 5.37 0 0 1-.407 2.059 5.34 5.34 0 0 1-2.91 2.91 5.37 5.37 0 0 1-2.059.407z" fill="#8796a1"/><path d="M188.544 83.36c-.48 0-1.056-.288-1.344-.48-.864-.864-.864-2.208 0-2.976l5.376-5.376-5.376-5.376c-.864-.864-.864-2.208 0-2.976.864-.864 2.208-.864 2.976 0l6.72 6.72c.864.864.864 2.208 0 2.976l-6.72 6.72c-.576.48-1.056.768-1.632.768zm-92.832 0c-.48 0-1.056-.288-1.344-.48l-6.72-6.72c-.864-.864-.864-2.208 0-2.976l6.72-6.72c.864-.864 2.208-.864 2.976 0 .864.864.864 2.208 0 2.976l-5.376 5.376 5.376 5.376c.864.864.864 2.208 0 2.976-.576-.096-1.056.192-1.632.192zm81.504-19.392l-16.8-16.8-8.448-1.536c0 5.184-4.32 9.504-9.696 9.504s-9.696-4.32-9.696-9.504l-8.448 1.536-17.088 16.416L118.656 75.2l5.664-5.664v33.984h36.192V70.112l5.376 5.376 11.328-11.52z" fill="#fff"/><path d="M129.792 60.896h24.672v29.952h-24.672V60.896z" fill="#ffd2fd"/><path d="M129.792 60.896h6.432v29.952h-6.432V60.896z" fill="#d7e2ff"/><path d="M148.032 60.896h6.432v29.952h-6.432V60.896z" fill="#ffebd7"/><path d="M70.944 136.544H38.496c-1.632 0-2.688-1.056-2.688-2.688v-32.544c0-1.632 1.056-2.688 2.688-2.688H71.04c1.632 0 2.688 1.056 2.688 2.688v32.544c0 1.44-1.056 2.688-2.784 2.688z" fill="#8796a1"/><path d="M68.256 113.504l-6.432-6.432-3.264-.576c0 1.824-1.632 3.552-3.84 3.552s-3.84-1.632-3.84-3.552l-3.264.576-6.432 6.432 4.32 4.32 2.112-2.112v12.96h14.112v-12.864l2.112 2.112 4.416-4.416z" fill="#fff"/><path d="M49.824 112.064h9.888v12h-9.888v-12z" fill="#ffd2fd"/><path d="M49.824 112.064h2.592v12h-2.592v-12z" fill="#d7e2ff"/><path d="M57.12 112.064h2.592v12H57.12v-12z" fill="#ffebd7"/><path d="M71.04 50.336H38.496c-1.632 0-2.688-1.056-2.688-2.688V15.104c0-1.632 1.056-2.688 2.688-2.688H71.04c1.632 0 2.688 1.056 2.688 2.688v32.544c.096 1.44-1.056 2.688-2.688 2.688z" fill="#8796a1"/><path d="M62.496 18.944H47.04c-.192 0-.384.192-.384.384v1.824H62.88v-1.824c0-.288-.192-.384-.384-.384z" fill="#d7e2ff"/><path d="M62.88 26.432V21.92h-2.4c-.096.864 0 3.168 2.4 4.512zm-16.224 0c2.4-1.344 2.496-3.648 2.496-4.512h-2.496v4.512z" fill="#ffebd7"/><path d="M62.88 43.52V27.296c-3.072-1.44-3.264-4.32-3.168-5.376H55.2v9.312l2.88 12.288c0 .192.192.288.384.288h4.128c.096.096.288-.096.288-.288zm-15.84.384h4.128c.192 0 .288-.096.384-.288l2.88-12.288v-9.312H49.92c0 1.056-.192 3.936-3.168 5.376v16.224c-.096.096.096.288.288.288z" fill="#ffd2fd"/><path d="M70.944 93.44H38.496c-1.632 0-2.688-1.056-2.688-2.688V58.208c0-1.632 1.056-2.688 2.688-2.688H71.04c1.632 0 2.688 1.056 2.688 2.688v32.544c0 1.44-1.056 2.688-2.784 2.688z" fill="#8796a1"/><path d="M44.64 82.496c4.416 1.056 8.448.96 14.208-.48 1.056-.384 2.016-.768 2.976-1.248-.48 0-.96 0-1.44.096-9.984-.192-12.48-1.536-13.056-2.304-.096-.096-.096-.192-.192-.288-2.496.384-5.952 1.344-6.144 2.112-.192.288 1.152 1.44 3.648 2.112z" fill="#d7e2ff"/><path d="M60.096 80.288v-5.856c0-.096.096-3.84-2.112-6.528h-.288c-1.152 0-2.112-.384-2.304-.96-2.592.288-7.296 1.632-7.68 7.488l-.192 3.36c0 .096.096.192.192.288.384.672 2.592 2.016 12.384 2.208z" fill="#ffd2fd"/><path d="M60.576 74.432v5.856c4.416-.096 5.568-.864 5.952-1.344.096-.096.096-.192.096-.384v-.096-3.84c0-1.44-.384-2.88-1.056-4.032-1.44-2.304-3.648-3.168-5.472-3.552-.192.384-.768.768-1.536.864 2.112 2.784 2.016 6.336 2.016 6.528z" fill="#ffebd7"/><path d="M59.712 66.656c0 .48-.864.864-1.92.864s-1.92-.384-1.92-.864.864-.864 1.92-.864 1.92.384 1.92.864z" fill="#d7e2ff"/><path d="M167.232 194.24H39.552a.25.25 0 0 1-.288-.288v-5.568a.25.25 0 0 1 .288-.288h127.68a.25.25 0 0 1 .288.288v5.568a.25.25 0 0 1-.288.288z" fill="#fff"/><path d="M167.232 194.624H39.552c-.089.003-.178-.013-.26-.046s-.158-.082-.221-.145a.65.65 0 0 1-.191-.481v-5.568a.65.65 0 0 1 .191-.481c.063-.063.138-.112.221-.145s.171-.049.26-.046h127.68a.64.64 0 0 1 .26.046c.083.033.158.082.221.145s.112.138.145.221a.64.64 0 0 1 .046.26v5.568a.64.64 0 0 1-.046.26c-.033.083-.082.158-.145.221s-.138.112-.221.145a.64.64 0 0 1-.26.046zm-.096-6.24H39.456v5.472h127.68v-5.472z" fill="#a8a8a8"/><path d="M76.992 194.24h-37.44a.25.25 0 0 1-.288-.288v-5.568a.25.25 0 0 1 .288-.288h37.44a.25.25 0 0 1 .288.288v5.568c0 .192-.192.288-.288.288z" fill="#0285ba"/><path d="M81.216 195.584h-7.968c-.089.003-.178-.013-.26-.046s-.158-.082-.221-.145a.65.65 0 0 1-.191-.481v-7.68a.65.65 0 0 1 .191-.481.64.64 0 0 1 .221-.145c.083-.033.171-.049.26-.046h7.968c.089-.003.178.013.26.046a.64.64 0 0 1 .221.145.65.65 0 0 1 .191.481v7.68a.65.65 0 0 1-.191.481c-.063.063-.138.112-.221.145s-.171.049-.26.046z" fill="#fff"/><path d="M81.216 195.968h-7.968c-.576 0-.96-.48-.96-.96v-7.68c0-.576.48-.96.96-.96h7.968c.576 0 .96.48.96.96v7.68c0 .48-.384.96-.96.96zm-7.968-8.928a.25.25 0 0 0-.288.288v7.68a.25.25 0 0 0 .288.288h7.968a.25.25 0 0 0 .288-.288v-7.68a.25.25 0 0 0-.288-.288h-7.968z" fill="#a8a8a8"/><path d="M172.128 183.68h17.376v14.976h-17.376V183.68z" fill="#fff"/><path d="M189.888 199.04H171.84v-15.648h18.144v15.648h-.096zm-17.376-.768h16.704v-14.304h-16.704v14.304zm21.6-9.792c0-.384.096-.768.384-1.056s.672-.384 1.056-.384c.48 0 .864.096 1.056.384.288.288.384.576.384 1.056v.384c0 .384-.096.768-.384 1.056s-.672.384-1.056.384c-.48 0-.768-.096-1.056-.384s-.384-.576-.384-1.056v-.384zm.864.288c0 .192.096.384.192.48a.73.73 0 0 0 .384.192.73.73 0 0 0 .384-.192c.096-.096.192-.288.192-.48v-.384c0-.192-.096-.384-.192-.48s-.288-.192-.48-.192-.288.096-.384.192-.192.288-.192.48v.384h.096zm.864 4.704l-.672-.384 3.36-5.376.672.384-3.36 5.376zm1.536-1.152c0-.384.096-.768.384-1.056s.672-.384 1.056-.384c.48 0 .768.096 1.056.384s.384.576.384 1.056v.384c0 .384-.096.768-.384 1.056s-.672.384-1.056.384c-.48 0-.864-.096-1.056-.384-.288-.288-.384-.576-.384-1.056v-.384zm.96.384c0 .192.096.288.192.48a.73.73 0 0 0 .384.192c.384 0 .576-.192.576-.672v-.384c0-.192-.096-.384-.192-.48a.73.73 0 0 0-.384-.192c-.192 0-.288.096-.384.192s-.192.288-.192.48v.384z" fill="#a8a8a8"/><path d="M180.48 194.24h-4.224v-.864l2.016-2.112c.288-.288.48-.576.576-.768s.192-.48.192-.672c0-.288-.096-.48-.192-.672s-.288-.192-.576-.192a.87.87 0 0 0-.672.288c-.192.192-.192.48-.192.768h-1.248c0-.384.096-.672.288-1.056.192-.288.384-.576.768-.768.288-.192.672-.288 1.152-.288.672 0 1.152.192 1.44.48.384.288.48.768.48 1.248 0 .288-.096.576-.192.96-.192.288-.384.672-.768 1.056l-1.44 1.44h2.688v1.152h-.096zm4.896-2.592c0 .864-.192 1.536-.48 1.92s-.864.672-1.536.672-1.152-.192-1.536-.672-.576-1.056-.576-1.92v-1.152c0-.864.192-1.536.576-1.92.384-.48.864-.672 1.536-.672s1.152.192 1.536.672.576 1.056.576 1.92v1.152h-.096zm-1.152-1.248c0-.392-.065-.781-.192-1.152a.81.81 0 0 0-.672-.384.87.87 0 0 0-.672.288c-.096.192-.192.576-.192 1.056v1.536c.001.392.065.781.192 1.152.096.288.384.384.672.384s.48-.096.672-.384c.096-.192.192-.576.192-1.056v-1.44z" fill="#231f20"/><path d="M73.632 140.768a.45.45 0 0 0-.349.131.45.45 0 0 0-.103.16c-.023.06-.032.125-.028.189v6.048H36.864v-6.048c.004-.064-.005-.129-.028-.189a.45.45 0 0 0-.264-.263.45.45 0 0 0-.189-.028.45.45 0 0 0-.349.131.45.45 0 0 0-.103.16c-.023.06-.032.125-.028.189v7.008H54.72c-.096.096-.192.192-.192.384v8.16a.48.48 0 0 0 .48.48.48.48 0 0 0 .48-.48v-8.16c0-.192-.096-.288-.192-.384h18.816v-7.008c.096-.288-.192-.48-.48-.48zm130.464 0c-.064-.004-.128.005-.189.028s-.114.058-.16.103a.46.46 0 0 0-.103.16.45.45 0 0 0-.028.189v6.048h-122.4v-6.048a.48.48 0 0 0-.48-.48.48.48 0 0 0-.48.48v7.008h61.824c-.096.096-.192.192-.192.384v8.16a.48.48 0 0 0 .48.48.48.48 0 0 0 .48-.48v-8.16c0-.192-.096-.288-.192-.384h61.92v-7.008a.45.45 0 0 0-.028-.189c-.022-.06-.058-.115-.103-.16s-.1-.081-.16-.103a.45.45 0 0 0-.189-.028zM48.768 164.384c.96-1.056 1.44-2.016 1.44-2.784 0-.672-.192-1.152-.672-1.536-.384-.384-.96-.576-1.728-.576s-1.44.192-1.824.672c-.48.48-.672 1.056-.672 1.728h.96c0-.48.096-.864.384-1.152s.672-.384 1.152-.384c.384 0 .768.096.96.384.288.288.384.576.384 1.056 0 .288-.096.576-.192.864-.192.288-.384.672-.864 1.152l-2.688 3.072v.672h5.184v-.768h-3.936l2.112-2.4zm5.376-4.896c-.864 0-1.44.288-1.92.864-.384.576-.576 1.44-.576 2.592v1.344c0 1.152.192 1.92.672 2.496.384.576 1.056.864 1.824.864.864 0 1.44-.288 1.92-.864s.576-1.44.576-2.592v-1.344c0-1.152-.192-1.92-.576-2.496-.48-.576-1.056-.864-1.92-.864zm1.536 4.896c0 .864-.096 1.44-.384 1.824-.192.384-.576.576-1.056.576s-.864-.192-1.152-.576-.384-1.056-.384-1.92v-1.632c0-.768.096-1.44.384-1.824.192-.384.576-.576 1.152-.576.48 0 .864.192 1.152.576s.384.96.384 1.824v1.728h-.096zm7.296-4.032l-3.84 6.144.576.384 3.84-6.144-.576-.384zm-2.4 2.304a1.59 1.59 0 0 0 .48-1.152v-.384a1.59 1.59 0 0 0-1.632-1.632 1.59 1.59 0 0 0-1.632 1.632v.384c0 .48.192.864.48 1.248s.672.48 1.152.48c.48-.096.864-.288 1.152-.576zm-2.016-1.152v-.384a1.81 1.81 0 0 1 .192-.768.87.87 0 0 1 .672-.288.87.87 0 0 1 .672.288c.192.192.192.384.192.672v.384a1.81 1.81 0 0 1-.192.768c-.192.192-.384.288-.576.288a.87.87 0 0 1-.672-.288.87.87 0 0 1-.288-.672zm4.704 2.4a1.59 1.59 0 0 0-1.632 1.632v.384c0 .48.192.864.48 1.248a1.59 1.59 0 0 0 1.152.48 1.59 1.59 0 0 0 1.632-1.632v-.384c0-.48-.192-.864-.48-1.248a1.59 1.59 0 0 0-1.152-.48zm.864 2.016a1.81 1.81 0 0 1-.192.768c-.192.192-.384.288-.576.288a.87.87 0 0 1-.672-.288c-.192-.192-.192-.384-.192-.672v-.384c0-.288.096-.576.288-.768s.384-.288.576-.288a.87.87 0 0 1 .672.288c.192.192.192.384.192.672v.384h-.096zm72.384-2.496c.384-.192.672-.384.864-.672s.288-.672.288-1.056c0-.672-.192-1.152-.672-1.536-.454-.387-1.036-.592-1.632-.576-.672 0-1.248.192-1.728.576s-.672.96-.672 1.536c0 .384.096.768.288 1.056s.48.576.864.672c-.384.192-.768.48-.96.768s-.384.768-.384 1.152c0 .672.192 1.248.672 1.632s1.056.576 1.824.576 1.344-.192 1.824-.576.672-.96.672-1.632c.006-.417-.129-.823-.384-1.152-.096-.384-.384-.576-.864-.768zm-2.4-1.728c0-.384.096-.768.384-.96a1.23 1.23 0 0 1 .96-.384 1.23 1.23 0 0 1 1.344 1.344c0 .384-.096.768-.384.96-.192.288-.576.384-.96.384a1.23 1.23 0 0 1-1.344-1.344zm2.4 4.704c-.288.288-.672.384-1.056.384-.48 0-.864-.096-1.152-.384s-.384-.576-.384-1.056.096-.768.384-1.056.672-.384 1.056-.384c.48 0 .768.096 1.056.384s.384.672.384 1.056c.096.384 0 .768-.288 1.056zm5.088-6.912c-.864 0-1.44.288-1.92.864-.384.576-.576 1.44-.576 2.592v1.344c0 1.152.192 1.92.672 2.496.384.576 1.056.864 1.824.864.864 0 1.44-.288 1.92-.864.384-.576.576-1.44.576-2.592v-1.344c0-1.152-.192-1.92-.576-2.496-.48-.576-1.056-.864-1.92-.864zm1.44 4.896c0 .864-.096 1.44-.384 1.824-.192.384-.576.576-1.056.576s-.864-.192-1.152-.576-.384-1.056-.384-1.92v-1.632c0-.768.096-1.44.384-1.824s.576-.576 1.152-.576c.48 0 .864.192 1.152.576.192.384.384.96.384 1.824v1.728h-.096zm7.68-.48a1.59 1.59 0 0 0-1.632 1.632v.384c0 .48.192.864.48 1.248a1.59 1.59 0 0 0 1.152.48 1.59 1.59 0 0 0 1.632-1.632v-.384c0-.48-.192-.864-.48-1.248a1.59 1.59 0 0 0-1.152-.48zm.864 2.016a1.81 1.81 0 0 1-.192.768c-.192.192-.384.288-.576.288a.87.87 0 0 1-.672-.288c-.192-.192-.192-.384-.192-.672v-.384a1.81 1.81 0 0 1 .192-.768.87.87 0 0 1 .672-.288.87.87 0 0 1 .672.288c.192.192.192.384.192.672v.384h-.096zm-3.552-3.264a1.59 1.59 0 0 0 .48-1.152v-.384a1.59 1.59 0 0 0-1.632-1.632 1.59 1.59 0 0 0-1.632 1.632v.384c0 .48.192.864.48 1.248a1.59 1.59 0 0 0 1.152.48c.48-.096.864-.288 1.152-.576zm-2.016-1.152v-.384a1.81 1.81 0 0 1 .192-.768.87.87 0 0 1 .672-.288.87.87 0 0 1 .672.288c.192.192.192.384.192.672v.384a1.81 1.81 0 0 1-.192.768c-.192.192-.384.288-.576.288a.87.87 0 0 1-.96-.96zm4.416-1.152l-3.84 6.144.576.384 3.84-6.144-.576-.384z" fill="#f21197"/></g><defs><clipPath id="A"><path fill="#fff" transform="translate(0 .608)" d="M0 0h240v213.792H0z"/></clipPath></defs></svg>