<svg xmlns="http://www.w3.org/2000/svg" xmlns:xlink="http://www.w3.org/1999/xlink" width="240" height="215" fill="none" xmlns:v="https://vecta.io/nano"><style><![CDATA[.B{fill:#fff}.C{fill:#f4f4f4}.D{fill:#b1bcc4}.E{fill:#ffd2fd}.F{fill:#d7e2ff}.G{fill:#8796a1}.H{fill:#ffebd7}.I{opacity:.7}]]></style><g clip-path="url(#B)"><mask id="A" maskUnits="userSpaceOnUse" x="0" y="0" width="240" height="215"><path d="M237.12.32H2.88A2.88 2.88 0 0 0 0 3.2v208.032a2.88 2.88 0 0 0 2.88 2.88h234.24a2.88 2.88 0 0 0 2.88-2.88V3.2a2.88 2.88 0 0 0-2.88-2.88z" class="B"/></mask><g mask="url(#A)"><path d="M240 .416H0v213.6h240V.416z" class="C"/><path d="M76.032 77.12h-59.52a2.89 2.89 0 0 1-2.88-2.88V14.72a2.89 2.89 0 0 1 2.88-2.88h59.52a2.89 2.89 0 0 1 2.88 2.88v59.52c-.096 1.632-1.344 2.88-2.88 2.88z" class="G"/><path d="M64.704 39.008l-8.832-8.832-4.416-.864c0 2.688-2.304 4.992-5.088 4.992-2.88 0-5.088-2.304-5.088-4.992l-4.416.864-9.024 8.544 6.144 6.144 2.976-2.976v17.856h19.008V42.176l2.88 2.88 5.856-6.048z" class="B"/><path d="M62.112 85.184H30.336a1.73 1.73 0 0 1-.661-.132c-.21-.087-.4-.214-.561-.375s-.288-.351-.375-.561a1.73 1.73 0 0 1 .935-2.258c.21-.087.434-.132.661-.132h31.776a1.72 1.72 0 0 1 .661.132 1.73 1.73 0 0 1 .935.935c.087.21.132.434.132.661a1.72 1.72 0 0 1-.132.661 1.73 1.73 0 0 1-1.596 1.067zm-.96 17.376H31.776a.45.45 0 0 1-.349-.131c-.045-.046-.081-.1-.103-.16s-.032-.125-.028-.189v-7.104a.45.45 0 0 1 .48-.48h29.376c.064-.004.128.005.189.028a.45.45 0 0 1 .292.453v7.104c.004.064-.005.128-.028.189a.46.46 0 0 1-.103.16.45.45 0 0 1-.349.131zm-7.008-11.616h-15.84c-.279-.002-.546-.115-.744-.312a1.06 1.06 0 0 1-.312-.744 1.07 1.07 0 0 1 .312-.744 1.06 1.06 0 0 1 .744-.312h15.84a1.07 1.07 0 0 1 .744.312 1.06 1.06 0 0 1 .312.744 1.07 1.07 0 0 1-.312.744c-.197.198-.465.309-.744.312h0z" class="D"/><path d="M55.008 99.68H38.016c-.672 0-1.152-.48-1.152-1.152s.48-1.152 1.152-1.152h16.992c.672 0 1.152.48 1.152 1.152s-.48 1.152-1.152 1.152z" class="C"/><path d="M53.184 36.704h-13.92V53.6h13.92V36.704z" class="E"/><path d="M42.912 36.704h-3.648V53.6h3.648V36.704z" class="F"/><path d="M53.376 36.704h-3.648V53.6h3.648V36.704z" class="H"/><path d="M149.76 77.12H90.24a2.89 2.89 0 0 1-2.88-2.88V14.72a2.89 2.89 0 0 1 2.88-2.88h59.52a2.89 2.89 0 0 1 2.034.846c.539.54.843 1.271.846 2.034v59.52c0 1.632-1.248 2.88-2.88 2.88z" class="G"/><path d="M135.84 85.184h-31.776a1.72 1.72 0 0 1-.661-.132 1.73 1.73 0 0 1-.561-.375 1.72 1.72 0 0 1-.374-.561c-.087-.21-.132-.434-.132-.661a1.72 1.72 0 0 1 .506-1.222 1.73 1.73 0 0 1 .561-.375 1.72 1.72 0 0 1 .661-.132h31.776a1.72 1.72 0 0 1 .663.129 1.73 1.73 0 0 1 .562.374 1.72 1.72 0 0 1 .374.562 1.73 1.73 0 0 1 .129.663c.096.96-.768 1.728-1.728 1.728zm-.864 17.376H105.6c-.064.004-.128-.005-.189-.028a.46.46 0 0 1-.16-.103.47.47 0 0 1-.103-.16c-.023-.061-.032-.125-.028-.189v-7.104a.45.45 0 0 1 .028-.189.46.46 0 0 1 .263-.263c.061-.023.125-.032.189-.028h29.376c.064-.004.128.005.189.028a.46.46 0 0 1 .16.103.47.47 0 0 1 .103.16.45.45 0 0 1 .028.189v7.104c-.096.288-.288.48-.48.48zm-7.104-11.616h-15.84c-.279-.002-.546-.115-.744-.312a1.07 1.07 0 0 1-.312-.744 1.07 1.07 0 0 1 .312-.744c.198-.197.465-.31.744-.312h15.84a1.07 1.07 0 0 1 .744.312 1.06 1.06 0 0 1 .312.744 1.05 1.05 0 0 1-.312.744c-.197.198-.465.309-.744.312h0z" class="D"/><use xlink:href="#C" class="C"/><path d="M223.488 77.12h-59.52a2.89 2.89 0 0 1-2.034-.846c-.539-.54-.843-1.271-.846-2.034V14.72c.003-.763.307-1.494.846-2.034a2.89 2.89 0 0 1 2.034-.846h59.52a2.89 2.89 0 0 1 2.034.846c.539.54.843 1.271.846 2.034v59.52c0 1.632-1.248 2.88-2.88 2.88z" class="G"/><path d="M209.664 85.184h-31.776a1.73 1.73 0 0 1-1.728-1.728 1.73 1.73 0 0 1 1.728-1.728h31.776a1.73 1.73 0 0 1 1.728 1.728 1.73 1.73 0 0 1-1.728 1.728z" class="D"/><path d="M203.616 28.544H183.84c-.064-.004-.128.005-.189.028a.46.46 0 0 0-.16.103c-.045.046-.08.1-.103.16a.45.45 0 0 0-.028.189v2.4h20.736v-2.4a.45.45 0 0 0-.028-.189c-.023-.06-.058-.115-.103-.16a.46.46 0 0 0-.16-.103c-.061-.023-.125-.032-.189-.028z" class="F"/><path d="M204.096 38.144v-5.856h-3.168c0 1.152.096 4.128 3.168 5.856zm-20.736 0c3.072-1.728 3.168-4.704 3.168-5.76h-3.168v5.76z" class="H"/><path d="M204.096 59.936v-20.64c-3.84-1.92-4.128-5.472-4.128-6.912h-5.76v11.904l3.648 15.744c.096.192.288.384.48.384h5.28c.064.004.128-.005.189-.028s.114-.058.16-.103.08-.1.103-.16a.45.45 0 0 0 .028-.189zm-20.256.48h5.28c.192 0 .384-.192.48-.384l3.648-15.744V32.384h-5.76c0 1.344-.192 4.992-4.128 6.912v20.736c0 .192.192.384.48.384z" class="E"/><path d="M208.704 102.56h-29.376c-.064.004-.128-.005-.189-.028s-.114-.058-.16-.103a.47.47 0 0 1-.103-.16c-.023-.061-.032-.125-.028-.189v-7.104a.45.45 0 0 1 .028-.189.46.46 0 0 1 .103-.16c.046-.045.1-.081.16-.103s.125-.032.189-.028h29.376c.064-.004.128.005.189.028s.114.058.16.103a.45.45 0 0 1 .131.349v7.104c-.096.288-.288.48-.48.48zm-7.008-11.616h-15.84c-.279-.002-.546-.115-.744-.312a1.07 1.07 0 0 1-.312-.744 1.07 1.07 0 0 1 .312-.744c.198-.197.465-.31.744-.312h15.84c.279.003.546.115.744.312s.31.465.312.744-.115.546-.312.744-.465.309-.744.312z" class="D"/><path d="M202.464 99.68h-16.992c-.672 0-1.152-.48-1.152-1.152s.48-1.152 1.152-1.152h16.992c.672 0 1.152.48 1.152 1.152s-.48 1.152-1.152 1.152z" class="C"/><path d="M76.032 177.248h-59.52c-.763-.003-1.494-.307-2.034-.846a2.89 2.89 0 0 1-.846-2.034v-59.52a2.89 2.89 0 0 1 .846-2.034c.54-.539 1.271-.843 2.034-.846h59.52c.763.003 1.494.307 2.034.846a2.89 2.89 0 0 1 .846 2.034v59.52c-.096 1.632-1.344 2.88-2.88 2.88z" class="G"/><path d="M53.184 138.176c0 .192-.096.288-.192.384-.096 0-.192.096-.192.096h-.192l-5.856-2.976v24.864h15.36v-27.36h-8.928v4.992zm5.472 3.264v2.208c0 .192-.192.48-.48.48h-7.584c-.192 0-.48-.192-.48-.48v-2.208c0-.192.192-.48.48-.48h7.584a.45.45 0 0 1 .189.028.46.46 0 0 1 .16.103.45.45 0 0 1 .131.349z" class="E"/><path d="M50.976 141.824h6.72v1.344h-6.72v-1.344z" class="F"/><path d="M30.432 133.184v27.36h15.36V135.68l-5.856 2.976h-.192c-.096 0-.192 0-.192-.096-.096-.096-.192-.192-.192-.384v-4.992h-8.928z" class="E"/><path d="M52.32 132.704v-3.264l-5.376 5.376 5.376 2.688v-4.8zm-11.52-3.84l5.472 5.472 5.472-5.472H40.8zm-.672 3.84v4.704l5.376-2.688-5.376-5.376v3.36z" class="H"/><path d="M62.112 185.312H30.336a1.73 1.73 0 0 1-1.728-1.728 1.73 1.73 0 0 1 1.728-1.728h31.776a1.73 1.73 0 0 1 1.728 1.728 1.73 1.73 0 0 1-1.728 1.728zm-.96 17.472H31.776a.45.45 0 0 1-.189-.028c-.06-.023-.115-.058-.16-.103s-.081-.1-.103-.16-.032-.125-.028-.189V195.2c-.004-.064.005-.128.028-.189s.058-.114.103-.16a.45.45 0 0 1 .349-.131h29.376a.45.45 0 0 1 .349.131c.045.046.081.1.103.16s.032.125.028.189v7.104c.004.064-.005.128-.028.189s-.058.114-.103.16a.46.46 0 0 1-.16.103.45.45 0 0 1-.189.028zm-7.008-11.712h-15.84a1.07 1.07 0 0 1-.744-.312c-.198-.198-.309-.465-.312-.744.003-.279.114-.546.312-.744s.465-.31.744-.312h15.84c.279.002.546.115.744.312s.31.465.312.744c-.003.279-.115.546-.312.744a1.07 1.07 0 0 1-.744.312z" class="D"/><path d="M55.008 199.904H38.016c-.672 0-1.152-.48-1.152-1.152s.48-1.152 1.152-1.152h16.992c.672 0 1.152.48 1.152 1.152 0 .576-.48 1.152-1.152 1.152z" class="C"/><path d="M149.76 177.248H90.24c-.763-.003-1.494-.307-2.034-.846a2.89 2.89 0 0 1-.846-2.034v-59.52a2.89 2.89 0 0 1 .846-2.034c.54-.539 1.271-.843 2.034-.846h59.52c.763.003 1.494.307 2.034.846s.843 1.271.846 2.034v59.52c0 1.632-1.248 2.88-2.88 2.88z" class="G"/><path d="M130.464 130.976l-5.376-2.112-1.152 19.104-3.936 3.936-3.936-3.936-1.152-19.104-5.376 2.112s-5.472 6.624-6.432 20.928h4.512c.864-4.704 2.304-12.192 3.264-13.056 1.344-1.344 0 18.24 0 18.24s3.936 3.936 9.12 3.936 9.12-3.936 9.12-3.936-1.344-19.584 0-18.24c.864.864 2.4 8.352 3.264 13.056h4.512c-.96-14.304-6.432-20.928-6.432-20.928z" class="E"/><path d="M133.056 155.744h3.936l-.096-2.592h-4.32l.48 2.592zm-30.048 0h3.936l.48-2.592h-4.32c-.096.864-.096 1.728-.096 2.592z" class="H"/><path d="M118.656 128.384h2.592v2.592h-2.592v-2.592zm3.936 15.648l-1.344-11.712h-2.592l-1.344 11.712 2.592 3.936 2.688-3.936z" class="F"/><path d="M135.84 185.312h-31.776a1.73 1.73 0 0 1-1.728-1.728 1.73 1.73 0 0 1 1.728-1.728h31.776a1.73 1.73 0 0 1 1.225.503 1.73 1.73 0 0 1 .503 1.225c.096.96-.768 1.728-1.728 1.728zm-.864 17.472H105.6c-.064.004-.128-.005-.189-.028a.47.47 0 0 1-.263-.263c-.023-.061-.032-.125-.028-.189V195.2c-.004-.064.005-.128.028-.189a.47.47 0 0 1 .103-.16c.046-.045.1-.081.16-.103s.125-.032.189-.028h29.376c.064-.004.128.005.189.028s.114.058.16.103a.47.47 0 0 1 .103.16c.023.061.032.125.028.189v7.104c-.096.288-.288.48-.48.48zm-7.104-11.712h-15.84a1.07 1.07 0 0 1-1.056-1.056 1.07 1.07 0 0 1 .312-.744c.198-.197.465-.31.744-.312h15.84c.279.002.546.115.744.312a1.07 1.07 0 0 1 .312.744 1.07 1.07 0 0 1-1.056 1.056z" class="D"/><use xlink:href="#D" class="C"/><path d="M223.488 177.248h-59.52c-.763-.003-1.494-.307-2.034-.846s-.843-1.271-.846-2.034v-59.52c.003-.763.307-1.494.846-2.034s1.271-.843 2.034-.846h59.52c.763.003 1.494.307 2.034.846s.843 1.271.846 2.034v59.52c0 1.632-1.248 2.88-2.88 2.88z" class="G"/><path d="M168.48 142.208v5.856l6.336.48c-.48-3.072-3.072-5.664-6.336-6.336zm26.112 3.168c-5.76-1.056-9.888 2.016-11.808 3.744l2.208.192c.192.096 25.44 5.568 33.984.384-.082-.735-.412-1.421-.936-1.944s-1.209-.854-1.944-.936c-4.8-.672-13.44-2.016-18.24-4.032l-2.592 2.4c-.192.192-.384.288-.672.192z" class="E"/><path d="M176.544 148.64l4.224.288c1.152-1.44 6.144-6.528 13.824-5.28l2.208-2.112-.864-2.016-.864-.672-1.632 2.496c-.192.384-.768.48-1.152.192-.384-.192-.48-.768-.192-1.152l1.728-2.592-.96-.768-1.536 2.4c-.672.96-2.016 0-1.44-.96l1.536-2.496-.96-.768-1.344 2.304c-.192.384-.768.48-1.152.192-.384-.192-.48-.768-.192-1.152l1.536-2.304-1.728-1.344c-5.28 3.744-12 5.472-18.912 5.088v2.592c4.032.672 7.488 4.032 7.872 8.064z" class="H"/><path d="M219.072 151.616c-9.6 4.704-32.64-.192-34.272-.672l-16.32-1.152v5.472h13.92c.096-.672-.384-2.88 1.056-2.496.192 0 12.576 2.496 22.176 3.648 3.936.48 10.656-.864 13.536-3.168l-.096-1.632z" class="F"/><path d="M209.664 185.312h-31.776a1.73 1.73 0 0 1-1.728-1.728 1.73 1.73 0 0 1 1.728-1.728h31.776a1.73 1.73 0 0 1 1.728 1.728 1.73 1.73 0 0 1-1.728 1.728zm-.96 17.472h-29.376c-.064.004-.128-.005-.189-.028a.47.47 0 0 1-.263-.263c-.023-.061-.032-.125-.028-.189V195.2c-.004-.064.005-.128.028-.189a.47.47 0 0 1 .103-.16c.046-.045.1-.081.16-.103s.125-.032.189-.028h29.376c.064-.004.128.005.189.028s.114.058.16.103.081.1.103.16.032.125.028.189v7.104c-.096.288-.288.48-.48.48zm-7.008-11.712h-15.84a1.07 1.07 0 0 1-1.056-1.056 1.07 1.07 0 0 1 .312-.744c.198-.197.465-.31.744-.312h15.84c.279.002.546.115.744.312s.31.465.312.744-.115.546-.312.744a1.07 1.07 0 0 1-.744.312z" class="D"/><path d="M202.464 199.904h-16.992c-.672 0-1.152-.48-1.152-1.152s.48-1.152 1.152-1.152h16.992c.672 0 1.152.48 1.152 1.152 0 .576-.48 1.152-1.152 1.152z" class="C"/><path d="M105.408 56.192c6.432 1.632 12.48 1.344 20.832-.768 1.536-.48 2.976-1.152 4.32-1.92-.672 0-1.344.096-2.112.096-14.592-.288-18.336-2.304-19.2-3.456-.096-.192-.192-.288-.288-.48-3.744.576-8.832 1.92-9.024 3.072-.096.864 1.824 2.496 5.472 3.456z" class="F"/><path d="M128.16 52.928v-8.544c0-.096.096-5.568-3.072-9.6h-.48c-1.728 0-3.072-.576-3.456-1.44-3.84.384-10.656 2.4-11.328 10.944l-.288 4.896v.096c0 .192.096.384.192.48.864.96 4.128 2.88 18.432 3.168z" class="E"/><path d="M128.832 44.384v8.544c6.432-.192 8.256-1.344 8.736-2.016.096-.192.192-.384.192-.576v-.096-5.664c0-2.112-.48-4.128-1.632-5.952-2.112-3.456-5.376-4.704-8.064-5.184-.288.576-1.152 1.056-2.208 1.248 3.072 4.224 2.976 9.504 2.976 9.696z" class="H"/><path d="M127.584 32.96c0 .672-1.248 1.248-2.88 1.248s-2.88-.576-2.88-1.248 1.248-1.248 2.88-1.248c1.536.096 2.88.576 2.88 1.248z" class="F"/><g class="I"><path d="M51.84 49.472H40.608c-.864 0-1.632-.768-1.632-1.632v-6.72c0-.864.768-1.632 1.632-1.632H51.84c.864 0 1.632.768 1.632 1.632v6.72c0 .864-.768 1.632-1.632 1.632z" fill="#000"/></g><path d="M48.672 44.48l-4.32-2.496v4.992l4.32-2.496z" class="B"/><g class="I"><path d="M199.872 50.624H188.64c-.864 0-1.632-.768-1.632-1.632v-6.72c0-.864.768-1.632 1.632-1.632h11.232c.864 0 1.632.768 1.632 1.632v6.72c0 .96-.768 1.632-1.632 1.632z" fill="#000"/></g><path d="M196.704 45.632l-4.32-2.496v5.088l4.32-2.592z" class="B"/><g class="I"><path d="M52.416 150.848H41.184c-.864 0-1.632-.768-1.632-1.632v-6.72c0-.864.768-1.632 1.632-1.632h11.232c.864 0 1.632.768 1.632 1.632v6.72c-.096.864-.768 1.632-1.632 1.632z" fill="#000"/></g><path d="M49.248 145.856l-4.416-2.496v4.992l4.416-2.496z" class="B"/><g opacity=".9"><path d="M120 151.904c-3.936 0-7.2-3.264-7.2-7.2s3.264-7.2 7.2-7.2 7.2 3.264 7.2 7.2-3.264 7.2-7.2 7.2z" stroke="#fff" stroke-miterlimit="10"/></g><path d="M122.784 144.704l-4.32-2.592v5.088l4.32-2.496z" class="B"/><g class="I"><path d="M199.872 150.848H188.64c-.864 0-1.632-.768-1.632-1.632v-6.72c0-.864.768-1.632 1.632-1.632h11.232c.864 0 1.632.768 1.632 1.632v6.72c0 .864-.768 1.632-1.632 1.632z" fill="#000"/></g><path d="M196.704 145.856l-4.32-2.496v4.992l4.32-2.496z" class="B"/><g class="I"><path d="M126.144 50.624h-11.232c-.864 0-1.632-.768-1.632-1.632v-6.72c0-.864.768-1.632 1.632-1.632h11.232c.864 0 1.632.768 1.632 1.632v6.72c0 .96-.768 1.632-1.632 1.632z" fill="#000"/></g><path d="M122.976 45.632l-4.32-2.496v5.088l4.32-2.592z" class="B"/></g></g><defs><clipPath id="B"><path transform="translate(0 .32)" d="M0 0h240v214.08H0z" class="B"/></clipPath><path id="C" d="M128.736 99.68h-16.992c-.672 0-1.152-.48-1.152-1.152s.48-1.152 1.152-1.152h16.992c.672 0 1.152.48 1.152 1.152s-.48 1.152-1.152 1.152z"/><path id="D" d="M128.736 199.904h-16.992c-.672 0-1.152-.48-1.152-1.152s.48-1.152 1.152-1.152h16.992c.672 0 1.152.48 1.152 1.152 0 .576-.48 1.152-1.152 1.152z"/></defs></svg>