<svg xmlns="http://www.w3.org/2000/svg" xmlns:xlink="http://www.w3.org/1999/xlink" width="240" height="209" fill="none" xmlns:v="https://vecta.io/nano"><style><![CDATA[.B{fill:#fff}.C{fill:#ffd2fd}.D{fill:#ffebd7}.E{fill:#8796a1}]]></style><g clip-path="url(#B)"><path d="M240 .4H0v208.32h240V.4z" fill="#f4f4f4"/><g fill="#231f20"><path d="M67.392 186.16h4.32v1.056h-5.856v-.864l4.128-6.24h-4.032v-1.056h5.76v.864l-4.32 6.24z"/><use xlink:href="#C"/><path d="M78.912 184.144c0-.864.288-1.632.768-2.208s1.152-.864 2.016-.864 1.536.288 2.016.864.768 1.344.768 2.208v.096c0 .96-.288 1.632-.768 2.208s-1.152.864-2.016.864-1.536-.288-2.016-.864-.768-1.344-.768-2.208v-.096zm1.44.192c0 .576.096 1.056.384 1.44.192.384.576.576 1.056.576s.864-.192 1.056-.576.384-.864.384-1.44v-.096c0-.576-.096-1.056-.384-1.44-.192-.384-.576-.576-1.056-.576s-.864.192-1.056.576-.384.864-.384 1.44v.096zm6.624-3.168l.096.768c.192-.288.48-.48.768-.672s.672-.192 1.056-.192.768.096 1.056.288.48.48.672.768c.192-.384.48-.576.768-.768s.672-.288 1.056-.288c.576 0 1.056.192 1.44.672s.576 1.056.576 1.92v3.648H93.12v-3.648c0-.48-.096-.864-.288-1.056s-.48-.288-.768-.288a1.81 1.81 0 0 0-.768.192c-.192.096-.384.384-.48.672v.192.096 3.936h-1.344v-3.648c0-.48-.096-.864-.288-1.056s-.48-.288-.768-.288-.48.096-.672.192a1.16 1.16 0 0 0-.48.48v4.512H85.92v-6.048h1.056v-.384zm13.824 3.936l1.632-6.048h1.056l1.632 6.048v-.096l1.248-5.952h1.344l-1.92 8.16h-1.152l-1.632-5.856-1.632 5.856h-1.248l-1.92-8.16h1.344l1.248 6.048zm9.504-5.376h-1.344v-1.152h1.344v1.152zm0 7.584h-1.344v-6.048h1.344v6.048z"/><use xlink:href="#D"/><path d="M118.08 184.336c0-.96.192-1.728.672-2.304s.96-.864 1.728-.864a2.28 2.28 0 0 1 .864.192 1.8 1.8 0 0 1 .672.576v-3.36h1.344v8.736h-1.152l-.096-.768a2.24 2.24 0 0 1-.672.672c-.288.192-.576.192-.96.192-.768 0-1.344-.288-1.728-.768s-.672-1.248-.672-2.112v-.192zm1.344.096c0 .576.096 1.056.288 1.344s.576.48 1.056.48a1.81 1.81 0 0 0 .768-.192c.192-.096.384-.288.48-.576V182.8a1.16 1.16 0 0 0-.48-.48 1.81 1.81 0 0 0-.768-.192c-.48 0-.768.192-1.056.576s-.288.864-.288 1.536v.192zm5.184-.288c0-.864.288-1.632.768-2.208s1.152-.864 2.016-.864 1.536.288 2.016.864.768 1.344.768 2.208v.096c0 .96-.288 1.632-.768 2.208s-1.152.864-2.016.864-1.536-.288-2.016-.864-.768-1.344-.768-2.208v-.096zm1.344.192c0 .576.096 1.056.384 1.44.192.384.576.576 1.056.576s.864-.192 1.056-.576.384-.864.384-1.44v-.096c0-.576-.096-1.056-.384-1.44-.192-.384-.576-.576-1.056-.576s-.864.192-1.056.576-.384.864-.384 1.44v.096zm10.752 1.152l.96-4.32h1.344l-1.632 6.048h-1.152l-1.248-4.128-1.248 4.128h-1.248l-1.632-6.048h1.344l.96 4.224 1.248-4.224h.96l1.344 4.32zm6.336 1.824v-8.16h2.688c1.056 0 1.92.288 2.496.96s.96 1.44.96 2.496v1.248c0 1.056-.288 1.824-.96 2.496s-1.536.96-2.496.96h-2.688zm1.344-7.104v5.952h1.248c.672 0 1.248-.192 1.632-.672s.576-1.056.576-1.728v-1.248c0-.672-.192-1.248-.576-1.728s-.96-.672-1.632-.672h-1.248v.096zm7.488-.48h-1.344v-1.152h1.344v1.152zm0 7.584h-1.344v-6.048h1.344v6.048zm4.992-1.632c.002-.099-.024-.196-.075-.281a.53.53 0 0 0-.213-.199c-.192-.096-.48-.288-.96-.384-.768-.192-1.248-.384-1.632-.672s-.576-.672-.576-1.152.192-.96.672-1.344.96-.576 1.728-.576 1.344.192 1.728.576.672.864.672 1.344h-1.344a.87.87 0 0 0-.288-.672c-.192-.192-.48-.288-.768-.288a1.81 1.81 0 0 0-.768.192c-.192.096-.288.288-.288.576s.096.384.288.48.48.192.96.288c.768.192 1.344.384 1.728.672s.576.672.576 1.152c0 .576-.192.96-.672 1.344s-1.056.48-1.824.48-1.44-.192-1.92-.576-.672-.864-.672-1.44h1.248c0 .384.096.576.384.768s.576.288.864.288c.384 0 .672-.096.768-.192s.384-.192.384-.384zm4.224-5.952v1.44h1.056v1.056h-1.056v3.36c0 .288.096.384.192.576s.288.192.48.192h.192s.096 0 .192-.096l.192.96c-.096.096-.288.096-.384.192s-.288.096-.48.096a1.59 1.59 0 0 1-1.152-.48c-.288-.288-.384-.768-.384-1.344v-3.36h-.96v-1.056h.96v-1.44h1.152v-.096zm5.952 7.584c-.096-.192-.096-.288-.096-.48s-.096-.288-.096-.48c-.192.288-.48.48-.768.672s-.672.288-1.056.288c-.672 0-1.152-.192-1.44-.48s-.48-.768-.48-1.344.192-1.056.672-1.344 1.152-.48 1.92-.48h1.056v-.576c0-.288-.096-.576-.288-.768s-.48-.288-.768-.288a1.81 1.81 0 0 0-.768.192c-.192.096-.288.384-.288.576h-1.344c0-.48.192-.864.672-1.248s1.056-.576 1.824-.576c.672 0 1.248.192 1.728.576s.672.864.672 1.536v2.688c0 .288 0 .48.096.768s.096.48.192.672l-1.44.096zm-1.632-.96a1.62 1.62 0 0 0 .96-.288c.288-.192.48-.384.576-.576v-.864h-1.056a1.62 1.62 0 0 0-.96.288c-.288.192-.384.384-.384.672 0 .192.096.384.192.576s.384.192.672.192zm5.472-5.184l.096.864a2.92 2.92 0 0 1 .768-.768c.288-.192.672-.288 1.056-.288.672 0 1.152.192 1.44.576s.576.96.576 1.824v3.84h-1.344v-3.84c0-.48-.096-.768-.288-.96s-.48-.288-.864-.288c-.288 0-.48.096-.672.192a1.16 1.16 0 0 0-.48.48v4.416h-1.344v-6.048h1.056 0zm7.872 5.184c.288 0 .576-.096.864-.288s.384-.48.384-.768h1.248c0 .576-.192 1.056-.672 1.44s-1.056.576-1.728.576c-.864 0-1.536-.288-2.016-.864s-.672-1.344-.672-2.208v-.192c0-.864.192-1.632.672-2.208s1.152-.864 2.016-.864c.768 0 1.344.192 1.824.672.224.207.399.46.515.742a2.1 2.1 0 0 1 .157.89h-1.248c0-.288-.096-.576-.288-.864s-.48-.384-.864-.384c-.48 0-.864.192-1.056.576s-.288.864-.288 1.44v.192c0 .576.096 1.056.288 1.44-.096.48.288.672.864.672zm6.144 1.056c-.864 0-1.536-.288-2.016-.864s-.768-1.248-.768-2.208v-.192c0-.864.288-1.632.768-2.208s1.152-.864 1.92-.864c.864 0 1.44.288 1.92.768s.672 1.152.672 2.016v.768h-3.84c0 .48.192.864.384 1.152s.576.48 1.056.48c.384 0 .672 0 .96-.096s.48-.192.768-.384l.48.864c-.192.192-.576.384-.864.48s-.96.288-1.44.288zm-.192-5.184c-.384 0-.576.096-.864.384s-.384.576-.384 1.056h2.4v-.096c.008-.343-.093-.679-.288-.96-.192-.288-.48-.384-.864-.384z"/></g><path d="M39.456 155.728H14.4c-1.152 0-2.016-.864-2.016-2.016V128.56c0-1.152.864-2.016 2.016-2.016h25.152c1.152 0 2.016.864 2.016 2.016v25.152c.096 1.056-.768 2.016-2.112 2.016z" class="E"/><path d="M38.688 137.584l-5.568-5.568-2.784-.384c0 1.632-1.344 3.072-3.264 3.072s-3.264-1.344-3.264-3.072l-2.784.384-5.568 5.568 3.744 3.744 1.824-1.824v11.136h12v-11.136l1.824 1.824 3.84-3.744z" class="B"/><path d="M31.296 136.336h-8.448v10.272h8.448v-10.272z" class="C"/><path d="M28.128 136.336H25.92v10.272h2.208v-10.272z" class="D"/><path d="M76.032 155.728H50.88c-1.152 0-2.016-.864-2.016-2.016v-25.248c0-1.152.864-2.016 2.016-2.016h25.248c1.152 0 2.016.864 2.016 2.016v25.248c0 1.056-.864 2.016-2.112 2.016z" class="E"/><path d="M57.984 144.976c-.096-.096-.096-.192-.192-.288-2.112.384-5.088 1.152-5.28 1.824-.096.288.96 1.248 3.168 1.824 3.744.96 7.296.768 12.096-.384.898-.303 1.766-.689 2.592-1.152-.384 0-.768 0-1.152.096-8.544-.192-10.656-1.248-11.232-1.92zm15.456-7.008c-1.152-1.92-3.168-2.688-4.704-2.976-.192.384-.672.576-1.248.768 1.824 2.496 1.728 5.568 1.728 5.664v4.992c3.744-.096 4.8-.768 5.088-1.152.096-.096.096-.192.096-.384v-.096-3.36c0-1.152-.384-2.4-.96-3.456z" class="D"/><g class="C"><path d="M67.104 135.856h-.288c-1.056 0-1.824-.384-1.92-.864-2.208.288-6.24 1.344-6.624 6.432l-.192 2.88c0 .096.096.192.192.288.384.48 2.208 1.632 10.656 1.824v-4.992s.096-3.264-1.824-5.568zm-.288-.384c.96 0 1.728-.288 1.728-.672 0-.48-.768-.672-1.728-.672s-1.728.288-1.728.672c0 .288.768.672 1.728.672z"/></g><path d="M111.168 155.728H86.016c-1.152 0-2.016-.864-2.016-2.016v-25.248c0-1.152.864-2.016 2.016-2.016h25.248c1.152 0 2.016.864 2.016 2.016v25.248c0 1.056-.864 2.016-2.112 2.016z" class="E"/><path d="M105.696 137.296v-3.84h-2.112c-.096.672 0 2.688 2.112 3.84zm-13.824 0c2.016-1.152 2.112-3.168 2.112-3.84h-2.112v3.84z" class="D"/><path d="M105.6 131.152c.096-.192-.096-.384-.288-.384H92.064c-.192 0-.384.192-.384.384v1.632h13.92v-1.632zm-13.728 6.912v13.824c0 .096.096.288.192.288h3.456c.192 0 .288-.096.384-.288l2.496-10.464v-7.968h-3.84c0 .96-.192 3.36-2.688 4.608zm11.136-4.704h-3.84v7.968l2.496 10.464c0 .192.192.288.384.288h3.456c0 .096.192-.096.192-.288v-13.824c-2.592-1.248-2.688-3.648-2.688-4.608z" class="C"/><path d="M108.96 118.576H16.8c-2.4 0-4.416-1.92-4.416-4.416V22.192c0-2.4 1.92-4.416 4.416-4.416h91.968c2.4 0 4.416 1.92 4.416 4.416v91.968c.096 2.4-1.824 4.416-4.224 4.416z" class="E"/><path d="M65.664 57.136h-5.28V81.52h5.28V57.136z" fill="#d7e2ff"/><path d="M91.488 59.632L77.856 45.904l-6.816-1.248c0 4.224-3.456 7.776-7.872 7.776s-7.872-3.456-7.872-7.776L48.48 46 34.464 59.344l9.408 9.408 4.512-4.512v27.648H77.76V64.624l4.416 4.416 9.312-9.408z" class="B"/><path d="M73.056 57.136h-20.16V81.52H72.96l.096-24.384z" class="C"/><path d="M65.664 57.136h-5.28V81.52h5.28V57.136z" class="D"/><g opacity=".62"><path d="M108.96 118.576H16.608c-2.304 0-4.128-1.824-4.128-4.128V21.904c0-2.304 1.824-4.128 4.128-4.128h92.544c2.304 0 4.128 1.824 4.128 4.128v92.448c-.096 2.304-1.92 4.224-4.32 4.224z" fill="#333233"/></g><g opacity=".22"><path d="M58.176 72.208H86.784V99.952H58.176V72.208Z" fill="#eadfea"/></g><path d="M58.176 72.208h19.488v19.68H58.176v-19.68z" class="B"/><path d="M58.176 72.208H72.96V81.52H58.176V72.208Z" class="C"/><path d="M60.288 72.208h5.28v9.312h-5.28v-9.312z" class="D"/><path d="M223.392 118.672h-92.256c-2.4 0-4.416-1.92-4.416-4.416v-92.16c0-2.4 1.92-4.416 4.416-4.416h92.16c2.4 0 4.416 1.92 4.416 4.416v92.16c0 2.4-1.92 4.416-4.32 4.416z" class="E"/><mask id="A" maskUnits="userSpaceOnUse" x="126" y="17" width="102" height="102"><path d="M223.392 118.672h-92.256c-2.4 0-4.416-1.92-4.416-4.416v-92.16c0-2.4 1.92-4.416 4.416-4.416h92.16c2.4 0 4.416 1.92 4.416 4.416v92.16c0 2.4-1.92 4.416-4.32 4.416z" class="B"/></mask><g mask="url(#A)"><g opacity=".22"><path d="M126.72 17.68h100.992v100.992H126.72V17.68z" fill="#eadfea"/></g></g><path d="M195.84 17.68v71.616h-69.12v-67.2c0-2.496 2.016-4.416 4.416-4.416h64.704z" class="B"/><path d="M178.848 17.68v33.888H126.72V22.192a4.51 4.51 0 0 1 4.512-4.512h47.616z" class="C"/><path d="M133.92 17.68h18.72v33.888h-18.72V17.68z" class="D"/><path d="M120 174a4 4 0 1 0 0-8 4 4 0 1 0 0 8zm.53-53.53a.75.75 0 0 0-1.06 0l-4.773 4.773a.75.75 0 0 0 0 1.06.75.75 0 0 0 1.06 0l4.243-4.242 4.243 4.242a.75.75 0 0 0 1.06 0 .75.75 0 0 0 0-1.06l-4.773-4.773zm.22 49.53v-49h-1.5v49h1.5z" fill="#f21197"/><g fill="#ffd9f1" stroke="#f21197" stroke-miterlimit="10"><path d="M124.3 21h-9v95h9V21zM58.154 187.308c2.294 0 4.154-1.86 4.154-4.154S60.448 179 58.154 179 54 180.86 54 183.154s1.86 4.154 4.154 4.154z"/></g></g><defs><clipPath id="B"><path transform="translate(0 .4)" d="M0 0h240v208.32H0z" class="B"/></clipPath><path id="C" d="M72.384 184.144c0-.864.288-1.632.768-2.208s1.152-.864 2.016-.864 1.536.288 2.016.864.768 1.344.768 2.208v.096c0 .96-.288 1.632-.768 2.208s-1.152.864-2.016.864-1.536-.288-2.016-.864-.768-1.344-.768-2.208v-.096zm1.44.192c0 .576.096 1.056.384 1.44.192.384.576.576 1.056.576s.864-.192 1.056-.576.384-.864.384-1.44v-.096c0-.576-.096-1.056-.384-1.44-.192-.384-.576-.576-1.056-.576s-.864.192-1.056.576-.384.864-.384 1.44v.096z"/><path id="D" d="M112.992 181.168l.096.864a2.92 2.92 0 0 1 .768-.768c.288-.192.672-.288 1.056-.288.672 0 1.152.192 1.44.576s.576.96.576 1.824v3.84h-1.344v-3.84c0-.48-.096-.768-.288-.96s-.48-.288-.864-.288c-.288 0-.48.096-.672.192a1.16 1.16 0 0 0-.48.48v4.416h-1.344v-6.048h1.056 0z"/></defs></svg>