<svg xmlns="http://www.w3.org/2000/svg" xmlns:xlink="http://www.w3.org/1999/xlink" width="240" height="161" fill="none" xmlns:v="https://vecta.io/nano"><style><![CDATA[.B{fill:#ffd2fd}.C{fill:#d7e2ff}.D{fill:#ffebd7}.E{fill:#8796a1}.F{stroke-miterlimit:10}]]></style><g class="E"><path d="M44.16 147.76H18.08c-1.28 0-2.24-.8-2.24-2.24v-26.24c0-1.28.8-2.24 2.24-2.24h26.24c1.28 0 2.24.8 2.24 2.24v26.24c-.16 1.12-.96 2.24-2.4 2.24z" stroke="#1970a5" stroke-width=".5" class="F"/><path d="M78.88 147.76H52.8c-1.28 0-2.24-.8-2.24-2.24v-26.24c0-1.28.8-2.24 2.24-2.24h26.24c1.28 0 2.24.8 2.24 2.24v26.24c-.16 1.12-.96 2.24-2.4 2.24zm34.88 0H87.52c-1.28 0-2.24-.8-2.24-2.24v-26.24c0-1.28.8-2.24 2.24-2.24h26.24c1.28 0 2.24.8 2.24 2.24v26.24c0 1.12-.96 2.24-2.24 2.24zm-2.24-34.08H20.16c-.568.002-1.131-.108-1.656-.325a4.29 4.29 0 0 1-1.404-.936c-.402-.401-.72-.878-.936-1.403s-.327-1.088-.325-1.656V18c-.002-.568.108-1.131.325-1.656s.535-1.002.936-1.404.879-.72 1.404-.936a4.3 4.3 0 0 1 1.656-.325h91.36a4.3 4.3 0 0 1 1.656.325c.525.216 1.002.534 1.403.936a4.29 4.29 0 0 1 .936 1.404c.217.525.327 1.088.325 1.656v91.36c.002.568-.108 1.131-.325 1.656s-.534 1.002-.936 1.403-.878.72-1.403.936-1.088.327-1.656.325z"/></g><path d="M94.24 55.28l-13.6-13.6-6.88-1.28c0 4.16-3.52 7.68-7.84 7.68s-7.84-3.52-7.84-7.68l-6.72 1.28L37.6 54.96l9.28 9.28 4.48-4.48v27.36h29.12V60.24l4.32 4.32 9.44-9.28z" fill="#fff"/><path d="M75.84 52.72H56v24.16h20V52.72h-.16z" class="B"/><path d="M61.12 52.72H56v24.16h5.12V52.72z" class="C"/><path d="M75.84 52.72h-5.12v24.16h5.12V52.72z" class="D"/><path opacity=".5" d="M111.52 13.68H20.16a4.3 4.3 0 0 0-1.656.325c-.525.216-1.002.534-1.404.936s-.72.879-.936 1.404-.327 1.088-.325 1.656v91.36c-.002.568.108 1.131.325 1.656s.535 1.002.936 1.403a4.29 4.29 0 0 0 1.404.936c.525.217 1.088.327 1.656.325h91.36c.568.002 1.131-.108 1.656-.325s1.002-.534 1.403-.936.72-.878.936-1.403.327-1.088.325-1.656V18c.002-.568-.108-1.131-.325-1.656a4.29 4.29 0 0 0-.936-1.404c-.401-.402-.878-.72-1.403-.936a4.3 4.3 0 0 0-1.656-.325zM96.16 73.52H62.72v-36h33.44v36z" fill="#262626"/><path d="M42.08 129.2l-5.28-5.28-2.72-.48c0 1.44-1.28 2.88-3.04 2.88S28 125.04 28 123.44l-2.72.48-5.12 5.12 3.52 3.52 1.76-1.76v10.56H36.8V130.8l1.76 1.76 3.52-3.36z" fill="#fff"/><path d="M35.2 128.08h-8v9.6h8v-9.6z" class="B"/><path d="M29.28 128.08H27.2v9.6h2.08v-9.6z" class="C"/><path d="M35.2 128.08h-2.08v9.6h2.08v-9.6z" class="D"/><path d="M106.88 122.48H94.4c-.16 0-.32.16-.32.32v1.44h13.12v-1.44c0-.32-.16-.32-.32-.32z" class="C"/><path d="M107.2 128.4v-3.68h-1.92c-.16.8 0 2.56 1.92 3.68zm-13.12 0c1.92-1.12 1.92-3.04 1.92-3.68h-1.92v3.68z" class="D"/><path d="M107.2 142.32v-12.96c-2.4-1.28-2.72-3.52-2.56-4.32h-3.68v7.52l2.4 9.92c0 .16.16.16.32.16h3.36c0-.16.16-.32.16-.32zm-12.8.16h3.36c.16 0 .32-.16.32-.16l2.4-9.92v-7.52H96.8c0 .8-.16 3.04-2.56 4.32v12.96c-.16.16 0 .32.16.32z" class="B"/><path d="M57.6 138.8c3.52.8 6.88.8 11.52-.32l2.4-.96H70.4c-8-.16-10.08-1.28-10.56-1.92-.16-.16-.16-.16-.16-.32-2.08.32-4.8.96-4.96 1.76-.16.48.96 1.28 2.88 1.76z" class="C"/><path d="M70.24 137.04v-4.8s.16-3.04-1.76-5.28h-.16c-.96 0-1.76-.32-1.92-.8-2.08.16-5.92 1.28-6.24 6.08l-.16 2.88c0 .16.16.16.16.32.48.48 2.24 1.6 10.08 1.6z" class="B"/><path d="M70.56 132.4v4.8c3.52-.16 4.48-.8 4.8-1.12.16-.16.16-.16.16-.32v-.16-3.04c0-1.12-.32-2.24-.8-3.36-1.12-1.92-2.88-2.56-4.48-2.88-.16.32-.64.64-1.28.64 1.6 2.4 1.6 5.28 1.6 5.44z" class="D"/><path d="M69.92 126.16c0 .32-.8.64-1.6.64s-1.6-.32-1.6-.64.8-.64 1.6-.64 1.6.16 1.6.64z" class="C"/><path d="M224.32 31.12h-98.88c-1.28 0-2.24-.96-2.24-2.24s.96-2.24 2.24-2.24h99.04c1.28 0 2.24.96 2.24 2.24s-1.12 2.24-2.4 2.24z" class="E"/><path d="M142.24 134.48h-18.72c-.16 0-.32-.16-.32-.32v-8c0-.16.16-.32.32-.32h18.72c.16 0 .32.16.32.32v8c0 .16-.16.32-.32.32z" fill="#acb6bc"/><path d="M174.72 134.48h-28.8c-.16 0-.32-.16-.32-.32v-8c0-.16.16-.32.32-.32h28.96c.16 0 .32.16.32.32v8c0 .16-.16.32-.48.32z" class="E"/><g fill="#acb6bc"><path d="M149.6 40.88h-25.12c-.8 0-1.44-.64-1.44-1.44s.64-1.44 1.44-1.44h25.12c.8 0 1.44.64 1.44 1.44.16.64-.48 1.44-1.44 1.44zm0 65.6h-25.12c-.8 0-1.44-.64-1.44-1.44s.64-1.44 1.44-1.44h25.12c.8 0 1.44.64 1.44 1.44.16.96-.48 1.44-1.44 1.44zm10.72 6.72h-35.68c-.8 0-1.44-.64-1.44-1.44s.64-1.44 1.44-1.44h35.68c.8 0 1.44.64 1.44 1.44-.16.64-.8 1.44-1.44 1.44z"/><use xlink:href="#B"/><use xlink:href="#B" y="6.56"/><use xlink:href="#B" y="13.12"/><path d="M203.36 76.56h-79.52a.69.69 0 0 1-.64-.64.69.69 0 0 1 .64-.64h79.68a.69.69 0 0 1 .64.64c0 .32-.32.64-.8.64zm-24.32 10.88h-55.2a.69.69 0 0 1-.64-.64.69.69 0 0 1 .64-.64h55.2a.69.69 0 0 1 .64.64.69.69 0 0 1-.64.64zm-5.44 6.4h-49.76a.69.69 0 0 1-.64-.64.69.69 0 0 1 .64-.64h49.92a.69.69 0 0 1 .64.64c0 .32-.32.64-.8.64z"/></g><g stroke="#fff"><path d="M137.76 127.6v4.8"/><path d="M135.36 130h4.8"/></g><g class="E"><path d="M125.76 114.16c-2.56 0-4.8-2.08-4.8-4.8V18c0-2.56 2.08-4.8 4.8-4.8h91.36c2.56 0 4.8 2.08 4.8 4.8v91.36c0 2.56-2.08 4.8-4.8 4.8h-91.36z"/><path d="M217.12 13.68c.568-.002 1.131.108 1.656.325s1.002.534 1.403.936a4.29 4.29 0 0 1 .936 1.404c.217.525.327 1.088.325 1.656v91.36a4.3 4.3 0 0 1-.325 1.656c-.216.525-.534 1.002-.936 1.403s-.878.72-1.403.936-1.088.327-1.656.325h-91.36c-.568.002-1.131-.108-1.656-.325s-1.002-.534-1.403-.936-.72-.878-.936-1.403a4.3 4.3 0 0 1-.325-1.656V18c-.002-.568.108-1.131.325-1.656a4.29 4.29 0 0 1 .936-1.404c.401-.402.878-.72 1.403-.936s1.088-.327 1.656-.325h91.36zm0-.8h-91.36a5.05 5.05 0 0 0-5.12 5.12v91.36a5.05 5.05 0 0 0 5.12 5.12h91.36a5.05 5.05 0 0 0 5.12-5.12V18a5.05 5.05 0 0 0-5.12-5.12z"/></g><path d="M214.56 63.6l-27.52 27.84-13.12-13.12v35.52h-48.16c-.568.002-1.131-.108-1.656-.325s-1.002-.534-1.403-.936a4.3 4.3 0 0 1-.937-1.403c-.216-.525-.326-1.088-.324-1.656V40.4c2.56.96 5.44 1.6 8.48 1.6 12.96 0 23.52-10.56 23.52-23.04l20.48 3.68 40.64 40.96z" fill="#fff"/><path d="M159.68 55.92v57.92h-33.92a4.3 4.3 0 0 1-4.32-4.32v-53.6h38.24z" class="B"/><path d="M144 55.92h15.68v57.92H144V55.92z" class="D"/><path d="M86.56 59.92l-8.8-8.8c-.32-.32-.8 0-.8.32V63.6c0 .32.16.48.48.48.16 0 .32 0 .32-.16l2.4-2.08 2.08 4.64.16.16h.16.16l2.08-.96c.16 0 .32-.32.16-.48l-1.92-4.48h3.36c.32 0 .48-.16.48-.48l-.32-.32z" fill="#fff" stroke="#2b2b2b" stroke-width=".25" class="F"/><defs ><path id="B" d="M225.92 56.88H123.84a.69.69 0 0 1-.64-.64.69.69 0 0 1 .64-.64h102.08a.69.69 0 0 1 .64.64.69.69 0 0 1-.64.64z"/></defs></svg>