<svg width="20" height="20" viewBox="0 0 20 20" fill="none" xmlns="http://www.w3.org/2000/svg">
<path d="M14.5 19.0625H5.5C3 19.0625 1 17 1 14.5625V5.5C1 3 3.0625 1 5.5 1H14C14.5 1 14.9375 1.375 14.9375 1.9375C14.9375 2.5 14.5625 2.875 14 2.875H5.5C4 2.875 2.8125 4.125 2.8125 5.5625V14.625C2.8125 16.125 4.0625 17.375 5.5 17.375H14.5625C16.0625 17.375 17.3125 16.125 17.3125 14.625V7.5625C17.3125 7.0625 17.6875 6.625 18.1875 6.625C18.6875 6.625 19.125 7 19.125 7.5625V14.5625C19.0625 17 17 19.0625 14.5 19.0625Z" fill="#67439B"/>
<path d="M9.12501 11.25L5.81251 8.43751L5.75001 8.37501C5.37501 8.12501 4.81251 8.18751 4.50001 8.56251C4.18751 8.93751 4.18751 9.56251 4.62501 9.87501L9.00001 13.5625C9.31251 13.875 9.87501 13.8125 10.125 13.5L19.375 2.93751L19.4375 2.81251C19.6875 2.43751 19.625 1.87501 19.25 1.56251C18.875 1.25001 18.25 1.25001 17.9375 1.68751L9.56251 11.25C9.50001 11.375 9.31251 11.375 9.12501 11.25Z" fill="#67439B"/>
</svg>