<?xml version="1.0" standalone="no"?>
<!DOCTYPE svg PUBLIC "-//W3C//DTD SVG 1.1//EN" "http://www.w3.org/Graphics/SVG/1.1/DTD/svg11.dtd">
<svg xmlns="http://www.w3.org/2000/svg">
<metadata>Copyright (C) 2024 by original authors @ fontello.com</metadata>
<defs>
<font id="fontello" horiz-adv-x="1000" >
<font-face font-family="fontello" font-weight="400" font-stretch="normal" units-per-em="1000" ascent="850" descent="-150" />
<missing-glyph horiz-adv-x="1000" />
<glyph glyph-name="right-open-2" unicode="&#xe800;" d="M98 626l226-236q16-16 16-40 0-22-16-38l-226-236q-16-16-40-16t-40 16q-36 36 0 80l186 194-186 196q-36 44 0 80 16 16 41 16t39-16z" horiz-adv-x="340" />

<glyph glyph-name="resize-horizontal" unicode="&#xe801;" d="M1000 350q0-14-11-25l-142-143q-11-11-26-11t-25 11-10 25v72h-572v-72q0-14-10-25t-25-11-25 11l-143 143q-11 11-11 25t11 25l143 143q10 11 25 11t25-11 10-25v-72h572v72q0 14 10 25t25 11 26-11l142-143q11-10 11-25z" horiz-adv-x="1000" />

<glyph glyph-name="right-open-1" unicode="&#xe802;" d="M618 361l-414-415q-11-10-25-10t-25 10l-93 93q-11 11-11 25t11 25l296 297-296 296q-11 11-11 25t11 25l93 93q10 11 25 11t25-11l414-414q10-11 10-25t-10-25z" horiz-adv-x="714.3" />

<glyph glyph-name="resize-vertical" unicode="&#xe803;" d="M393 671q0-14-11-25t-25-10h-71v-572h71q15 0 25-10t11-25-11-25l-143-143q-10-11-25-11t-25 11l-143 143q-10 10-10 25t10 25 25 10h72v572h-72q-14 0-25 10t-10 25 10 26l143 142q11 11 25 11t25-11l143-142q11-11 11-26z" horiz-adv-x="428.6" />

<glyph glyph-name="right-open-big" unicode="&#xe804;" d="M13-20l358 370-358 372q-26 26 0 48 26 26 48 0l392-394q24-26 0-50l-392-394q-22-26-48 0-26 22 0 48z" horiz-adv-x="465" />

<glyph glyph-name="right" unicode="&#xe805;" d="M0 347q0 26 18 43t43 17h642l-242 244q-19 18-19 44t19 42q17 19 42 19t44-19l390-390-390-391q-20-18-44-18t-42 18-19 44 19 43l242 242h-642q-25 0-43 18t-18 44z" horiz-adv-x="938" />

<glyph glyph-name="right-open-outline" unicode="&#xe806;" d="M156-66q-63 0-110 46t-46 111 46 110l150 150-150 150q-46 46-46 110 0 65 46 111 44 44 110 44t110-44l372-371-372-372q-45-45-110-45z m0 729q-21 0-37-16t-15-36q0-20 16-37l223-223-223-224q-16-16-16-36 0-22 16-38 15-15 36-15t37 15l297 298-297 297q-15 15-37 15z" horiz-adv-x="638" />

<glyph glyph-name="right-outline" unicode="&#xe807;" d="M525-66q-64 0-110 46t-46 111q0 11 1 20t5 18 7 17 11 21 15 27l-252 0q-65 0-110 46t-46 111 46 110 110 46l252 0q-5 11-14 27t-12 22-7 16-5 20-1 20q0 65 45 110 44 44 110 44t111-44l371-371-371-371q-46-46-110-46z m-369 469q-21 0-37-16t-15-36 15-37 37-15l503 0-171-172q-15-15-15-36t15-37 36-15 37 15l298 297-298 297q-15 15-37 15t-36-15-15-36q0-23 15-38l171-171-503 0z" horiz-adv-x="1006" />

<glyph glyph-name="gallery-slider-v3-01" unicode="&#xe808;" d="M913 850h-832c-43 0-81-37-81-81v-838c0-44 38-81 81-81h838c25 0 44 12 62 25 13 19 19 37 13 62v832c0 44-38 81-81 81z m6-925h-838c-6 0-6 0-6 6v838c0 6 0 6 6 6h832c6 0 6 0 6-6v-832-12c0 0 0 0 0 0 0 0 0 0 0 0z m-144 656h-56c-19 44-69 75-119 75-56 0-100-31-119-75h-256c-31 0-56-25-56-56s25-56 56-56h256c19-50 63-81 119-81 56 0 100 31 119 75h56c31 0 56 25 56 56s-25 62-56 62z m0-350h-256c-19 50-63 82-119 82-56 0-100-32-119-82h-56c-31 0-56-25-56-56s25-56 56-56h56c19-44 69-75 119-75 56 0 100 31 119 75h256c31 0 56 25 56 56s-25 56-56 56z" horiz-adv-x="1000" />

<glyph glyph-name="zoom-in-1" unicode="&#xe809;" d="M571 404v-36q0-7-5-13t-12-5h-125v-125q0-7-6-13t-12-5h-36q-7 0-13 5t-5 13v125h-125q-7 0-12 5t-6 13v36q0 7 6 12t12 5h125v125q0 8 5 13t13 5h36q7 0 12-5t6-13v-125h125q7 0 12-5t5-12z m72-18q0 103-73 176t-177 74-177-74-73-176 73-177 177-73 177 73 73 177z m286-465q0-29-21-50t-51-21q-30 0-50 21l-191 191q-100-69-223-69-80 0-153 31t-125 84-84 125-31 153 31 152 84 126 125 84 153 31 153-31 125-84 84-126 31-152q0-123-69-223l191-191q21-21 21-51z" horiz-adv-x="928.6" />

<glyph glyph-name="resize-full" unicode="&#xe80a;" d="M421 261q0-7-5-13l-185-185 80-81q10-10 10-25t-10-25-25-11h-250q-15 0-25 11t-11 25v250q0 15 11 25t25 11 25-11l80-80 186 185q5 6 12 6t13-6l64-63q5-6 5-13z m436 482v-250q0-15-10-25t-26-11-25 11l-80 80-185-185q-6-6-13-6t-13 6l-64 64q-5 5-5 12t5 13l186 185-81 81q-10 10-10 25t10 25 25 11h250q15 0 26-11t10-25z" horiz-adv-x="857.1" />

<glyph glyph-name="resize-full-1" unicode="&#xe80b;" d="M573 767l261 0 0-260q0-22-16-37t-37-16-37 16-15 37l0 82-171-171q-15-15-37-15-22 0-37 15t-15 37 15 37l171 171-82 0q-22 0-37 15t-15 37 15 37 37 15z m-297-484q15 15 37 15t36-15 15-37-15-37l-171-171 82 0q21 0 37-16t16-37-16-36-37-15l-260 0 0 260q0 21 16 37t37 16 36-16 15-37l0-82z m-120 67q-21 0-37 16t-15 37l0 260 261 0q21 0 36-16t15-37-15-36-36-15l-156 0 0-156q0-21-16-37t-37-16z m522 0q21 0 36-15t15-37l0-260-260 0q-21 0-37 15t-16 37 16 37 37 15l156 0 0 156q0 21 16 37t37 15z" horiz-adv-x="834" />

<glyph glyph-name="resize-full-2" unicode="&#xe80c;" d="M784 111l127 128 0-336-335 0 128 130-128 127 79 79z m-431 686l-129-127 128-127-80-80-126 128-128-129 0 335 335 0z m0-637l-129-127 129-130-335 0 0 336 128-128 128 128z m558 637l0-335-127 129-128-128-79 80 127 127-128 127 335 0z" horiz-adv-x="928" />

<glyph glyph-name="eye" unicode="&#xe80d;" d="M929 314q-85 132-213 197 34-58 34-125 0-103-73-177t-177-73-177 73-73 177q0 67 34 125-128-65-213-197 75-114 187-182t242-68 243 68 186 182z m-402 215q0 11-8 19t-19 7q-70 0-120-50t-50-119q0-11 8-19t19-8 19 8 8 19q0 48 34 82t82 34q11 0 19 8t8 19z m473-215q0-19-11-38-78-129-210-206t-279-77-279 77-210 206q-11 19-11 38t11 39q78 128 210 205t279 78 279-78 210-205q11-20 11-39z" horiz-adv-x="1000" />

<glyph glyph-name="search" unicode="&#xe80e;" d="M643 386q0 103-73 176t-177 74-177-74-73-176 73-177 177-73 177 73 73 177z m286-465q0-29-22-50t-50-21q-30 0-50 21l-191 191q-100-69-223-69-80 0-153 31t-125 84-84 125-31 153 31 152 84 126 125 84 153 31 153-31 125-84 84-126 31-152q0-123-69-223l191-191q21-21 21-51z" horiz-adv-x="928.6" />

<glyph glyph-name="info" unicode="&#xe80f;" d="M74 351l-56 0 0 111 335 0 0-390q0-24 17-40t39-16l55 0 0-113-446 0 0 113 56 0q23 0 40 16t16 40l0 223q0 24-16 40t-40 16z m56 334q0 112 112 112t111-112-111-111-112 111z" horiz-adv-x="482" />

<glyph glyph-name="info-1" unicode="&#xe810;" d="M352 850q48 0 74-27t26-69q0-50-39-88t-95-38q-48 0-74 26t-24 72q0 46 35 85t97 39z m-206-1000q-100 0-54 178l60 254q14 56 0 56-12 0-54-18t-72-38l-26 44q90 78 189 126t151 48q78 0 36-162l-70-266q-16-64 6-64 44 0 118 60l30-40q-84-86-175-132t-139-46z" horiz-adv-x="460" />

<glyph glyph-name="plus" unicode="&#xe811;" d="M786 439v-107q0-22-16-38t-38-15h-232v-233q0-22-16-37t-38-16h-107q-22 0-38 16t-15 37v233h-232q-23 0-38 15t-16 38v107q0 23 16 38t38 16h232v232q0 22 15 38t38 16h107q23 0 38-16t16-38v-232h232q23 0 38-16t16-38z" horiz-adv-x="785.7" />

<glyph glyph-name="plus-1" unicode="&#xe812;" d="M550 400q30 0 30-50t-30-50l-210 0 0-210q0-30-50-30t-50 30l0 210-210 0q-30 0-30 50t30 50l210 0 0 210q0 30 50 30t50-30l0-210 210 0z" horiz-adv-x="580" />

<glyph glyph-name="eye-1" unicode="&#xe813;" d="M0 350q6 49 64 110 79 80 176 129 129 60 260 60 137-2 260-60 103-53 176-129 64-73 64-110-6-49-64-109-79-80-176-129-129-61-260-61-137 2-260 61-103 53-176 129-64 72-64 109z m264 0q0-94 69-159t167-65 167 65 69 159-69 159-167 66-167-66-69-159z m86 1q0 60 44 102t106 42 106-42 44-102-44-102-106-43-106 43-44 102z" horiz-adv-x="1000" />

<glyph glyph-name="left-open-2" unicode="&#xe814;" d="M654 682l-297-296 297-297q10-10 10-25t-10-25l-93-93q-11-10-25-10t-25 10l-414 415q-11 10-11 25t11 25l414 414q10 11 25 11t25-11l93-93q10-10 10-25t-10-25z" horiz-adv-x="714.3" />

<glyph glyph-name="right-big" unicode="&#xe815;" d="M821 314q0-30-20-50l-363-364q-22-20-51-20-29 0-50 20l-42 42q-22 21-22 51t22 51l163 163h-393q-29 0-47 21t-18 51v71q0 30 18 51t47 20h393l-163 165q-22 20-22 50t22 50l42 42q21 21 50 21 29 0 51-21l363-363q20-20 20-51z" horiz-adv-x="857.1" />

<glyph glyph-name="right-open-3" unicode="&#xe816;" d="M31 684q30 31 74 31t74-31l335-334-335-334q-31-31-74-31t-74 31-31 74 31 74l188 186-188 186q-31 32-31 74t31 74z" horiz-adv-x="514" />

<glyph glyph-name="left-outline" unicode="&#xe817;" d="M638 91q0-64-47-111t-110-46-110 46l-371 371 371 371q44 44 110 44t110-44q47-46 47-110 0-61-40-105l252 0q65 0 111-46t45-110-45-111-111-46l-252 0q40-43 40-103z m-490 260l297-297q15-15 37-15t37 15 15 37-15 36l-173 172 504 0q21 0 36 15t15 37-15 36-36 16l-504 0 173 171q15 15 15 38 0 21-15 36t-37 15-37-15z" horiz-adv-x="1006" />

<glyph glyph-name="left" unicode="&#xe818;" d="M0 353l390 391q19 18 44 18 25 0 43-18t18-44-18-43l-243-243h642q25 0 43-18t18-43-18-43-43-18h-642l243-243q18-18 18-44t-18-43-43-18-44 18z" horiz-adv-x="938" />

<glyph glyph-name="nav-n-pag-01" unicode="&#xe819;" d="M138 350l256 256c25 25 25 57 0 82-25 18-63 18-81-7l-294-293c-25-25-25-57 0-82l294-287c12-13 25-19 37-19s31 6 38 19c25 25 25 56 0 81l-250 250z m843 38l-293 293c-25 25-57 25-82 0-18-18-18-56 7-75l250-256-257-256c-25-25-25-56 0-81 13-13 25-19 38-19s31 6 37 19l294 293c31 25 31 63 6 82z" horiz-adv-x="1000" />

<glyph glyph-name="left-big" unicode="&#xe81a;" d="M857 350v-71q0-30-18-51t-47-21h-393l164-164q21-20 21-50t-21-50l-42-43q-21-20-51-20-29 0-50 20l-364 364q-20 21-20 50 0 29 20 51l364 363q21 21 50 21 29 0 51-21l42-41q21-22 21-51t-21-51l-164-164h393q29 0 47-20t18-51z" horiz-adv-x="857.1" />

<glyph glyph-name="right-circle" unicode="&#xe81b;" d="M465 797q184 0 315-131t131-316-131-315-315-132-316 132-131 315 131 316 316 131z m1-670l222 224-222 222 0-166-225 0 0-112 225 0 0-168z" horiz-adv-x="928" />

<glyph glyph-name="left-circle" unicode="&#xe81c;" d="M465-97q-185 0-316 132t-131 315 131 316 316 131 315-131 131-316-131-315-315-132z m-2 671l-222-223 222-222 0 166 225 0 0 112-225 0 0 167z" horiz-adv-x="928" />

<glyph glyph-name="left-circled" unicode="&#xe81d;" d="M920 350q0-190-135-325t-325-135-325 135-135 325q0 192 135 326t325 134 325-134 135-326z m-820 0q0-148 106-254t254-106 254 106 106 254q0 150-106 255t-254 105-254-105-106-255z m552-90l-204 0 0-112-190 202 190 204 0-114 204 0 0-180z" horiz-adv-x="920" />

<glyph glyph-name="right-circled" unicode="&#xe81e;" d="M0 350q0 190 135 325t325 135 325-135 135-325-135-325-325-135-325 135-135 325z m820 0q0 150-105 255t-255 105q-148 0-254-105t-106-255q0-148 106-254t254-106q150 0 255 106t105 254z m-552 90l204 0 0 114 190-204-190-202 0 112-204 0 0 180z" horiz-adv-x="920" />

<glyph glyph-name="left-open-3" unicode="&#xe81f;" d="M242 626q14 16 39 16t41-16q38-36 0-80l-186-196 186-194q38-44 0-80-16-16-40-16t-40 16l-226 236q-16 16-16 38 0 24 16 40 206 214 226 236z" horiz-adv-x="341" />

<glyph glyph-name="left-open-4" unicode="&#xe820;" d="M481 684q32-31 32-74t-32-74l-186-186 186-186q32-31 32-74t-32-74-73-31-74 31l-334 334 334 334q30 31 74 31t73-31z" horiz-adv-x="513" />

<glyph glyph-name="left-open-outline" unicode="&#xe821;" d="M638 91q0-64-47-111t-110-46q-65 0-110 45l-371 372 371 371q44 44 111 44t111-44q45-45 45-111 0-65-45-110l-150-150 150-150q45-45 45-110z m-490 260l297-298q15-15 37-15t37 15 15 38q0 21-15 36l-224 224 224 223q15 15 15 37 0 22-15 37t-37 15-37-15z" horiz-adv-x="638" />

<glyph glyph-name="left-open-big" unicode="&#xe822;" d="M452-20q26-26 0-48-26-26-48 0l-392 394q-24 24 0 50l392 394q22 26 48 0 26-22 0-48l-358-372z" horiz-adv-x="465" />

<glyph glyph-name="play-01" unicode="&#xe823;" d="M500 850c-275 0-500-225-500-500 0-275 225-500 500-500 275 0 500 225 500 500 0 275-225 500-500 500z m0-900c-221 0-400 179-400 400 0 221 179 400 400 400 221 0 400-179 400-400 0-221-179-400-400-400z m183 433l-241 142c-34 21-63 0-63-33v-279c0-38 29-55 63-34l241 142c34 21 34 50 0 71v-9z" horiz-adv-x="1000" />

<glyph glyph-name="product-image-v2-01" unicode="&#xe824;" d="M1000-56v825c0 44-37 81-81 81h-838c-43 0-81-37-81-81v-838c0-44 38-81 81-81h844c25 0 44 12 63 31 12 19 18 38 12 63z m-75-7v-6c0-6 0-6 0-6h-844c-6 0-6 6-6 6v838c0 0 0 6 6 6h838c6 0 6-6 6-6v-832z m-206 694h-438l7-50c-7-143-19-162-19-250 0-81 19-212 19-212l-7-50h444l-12 50c0 0 12 131 12 212 6 75-19 250-19 250l13 50z m-25-381c0 0-50-44-119-37-69 0-81 25-144 18-62-6-118-43-118-43s-13 75-13 125c0 37 6 93 6 93 0 7 38 44 75 57 38 6 82 18 163 0s125 43 137 56c7-56 19-119 19-163 0-31 0-56-6-106z" horiz-adv-x="1000" />

<glyph glyph-name="nav-n-pag-v" unicode="&#xe825;" d="M390 684c22-22 22-58 0-80l-254-254 254-254c22-22 22-58 0-79-22-23-58-23-80 0l-293 293c-23 22-23 58 0 80l293 294c22 22 58 22 80 0z m220 0c22 22 58 22 80 0l294-294c10-11 16-25 16-40 0-15-6-29-16-40l-294-293c-22-23-58-23-80 0-22 21-22 57 0 79l254 254-254 254c-22 22-22 58 0 80z m-110-459c69 0 125 56 125 125 0 69-56 125-125 125-69 0-125-56-125-125 0-69 56-125 125-125z" horiz-adv-x="1000" />

<glyph glyph-name="th-nav-01" unicode="&#xe826;" d="M200 506c-19 19-50 19-69 0l-118-125c-13-18-13-43 6-62l119-125c6-13 18-13 31-13 12 0 25 7 31 13 19 19 19 50 0 69l-87 87 87 94c19 19 19 50 0 62z m788-125l-125 125c-19 19-50 19-69 0s-19-50 0-68l94-88-94-94c-19-18-19-50 0-68 6-7 19-13 31-13s25 6 31 13l125 125c25 25 25 50 7 68z m-313 269h-144-62-144c-37 0-75-37-75-75v-444c0-43 31-75 75-75h144 62 144c44 0 75 32 75 75v444c0 38-37 75-75 75z m-206-537h-144c-6 0-12 6-12 12v450c0 6 6 13 12 13h144v-475z m219 12c0-6-7-12-13-12h-144v475h144c6 0 13-7 13-13v-450z" horiz-adv-x="1000" />

<glyph glyph-name="general-tab" unicode="&#xe827;" d="M563-38c-7-6-13-12-25-18-25-13-50-13-75 0-25 12-38 31-44 56 0 19-13 31-31 38-13 6-19 6-32 12-12 6-31 6-43-6-19-13-50-19-75-13s-44 25-50 50-7 50 12 75c13 13 13 32 6 44-6 19-12 19-18 38s-19 31-32 31c-25 6-50 19-62 44s-13 50 0 75c12 25 37 37 62 43 19 7 32 13 38 32 6 12 6 18 12 31 7 12 0 31-6 44-19 25-25 50-12 75 6 25 25 43 50 50s56 0 75-13 31-12 43-6c13 6 25 12 38 19 12 6 31 18 31 31 6 25 19 50 44 62 25 13 50 13 75 0 19-12 31-37 37-62 7-19 13-25 25-31s19-7 32-13c12-6 31-6 43 0 25 13 57 19 75 13 25-7 44-25 50-50 13-25 7-57-6-75-6-13-12-32-6-44 6-13 6-13 12-25s7-25 38-38c19-6 37-12 50-25 12-12 19-37 19-56 0-12 0-25-7-31-6-13-12-19-18-31-13-19-25-44-7-63 19-19 50-19 63-6 6 6 12 19 19 25 6 12 12 12 18 31s13 38 13 63c0 6 0 6 0 12 0 38-13 81-38 113-18 25-43 43-75 50 19 37 19 87 7 125-13 50-50 87-100 106-44 12-88 12-125-6-13 43-44 75-82 93-50 25-106 25-150 0-43-18-75-56-87-93-38 18-88 25-131 12-50-19-94-56-113-112-12-44-6-88 13-132-38-12-75-43-94-81-25-50-25-106 0-150 19-37 56-69 100-81-19-38-25-88-13-125 19-56 57-94 107-113 43-12 87-12 125 13 12-44 43-75 81-100 31-13 56-19 81-19 25 0 50 6 75 19 19 12 38 25 50 43s13 44-6 63c-13 12-44 6-56-13z m156 344c0 13 6 32 6 44 0 56-25 119-62 156-44 44-100 63-163 63-19 0-31 0-50-6-25 0-37-7-44-32 0-6 0-12 7-25 6-6 12-12 18-18 7-7 13-13 19-19s19-19 25-25c19-19 19-50 0-69-19-19-50-19-69 0l-56 50c-6 6-12 13-19 13-6 0-12 6-25 0-6-7-18-7-25-25-6-19-6-38-6-63 0-62 25-112 63-156 43-44 100-63 156-63 12 0 31 0 44 7l237-238c25-25 56-38 88-38s62 13 87 38c50 50 44 125 0 175l-231 231z m-325-62c-19 19-31 44-38 75 44-44 125-38 169 6 50 50 50 125 0 175l0 0c31-6 63-19 81-44 25-25 44-68 44-106s-12-75-44-106c-56-56-156-56-212 0z m512-300c-18-19-50-19-68 0l-219 219c12 6 25 18 37 31 13 12 19 25 32 37l212-212c25-25 25-57 6-75z" horiz-adv-x="1000" />

<glyph glyph-name="gallery-tab" unicode="&#xe828;" d="M919 850h-838c-43 0-81-37-81-81v-838c0-44 38-81 81-81h838c44 0 81 37 81 81v838c0 44-37 81-81 81z m12-888c0-25-18-37-37-37h-781c-25 0-38 19-38 37v776c0 25 19 37 38 37h781c25 0 37-19 37-37 0 0 0-776 0-776z m-625 188h-143c-13 0-19-6-19-19v-118c0-13 6-19 19-19h150c12 0 18 6 18 19v118c0 19-12 19-25 19z m275 0h-162c-13 0-19-6-19-19v-118c0-13 6-19 19-19h162c13 0 19 6 19 19v118c0 7-6 19-19 19z m257 0h-150c-13 0-19-6-19-19v-118c0-13 6-19 19-19h150c12 0 18 6 18 19v118c0 13-6 19-18 19z m-675 69h681c12 0 19 6 19 19v450c0 12-7 18-19 18h-681c-13 0-19-6-19-18v-450c0-13 6-19 19-19z m537 419c50 0 94-38 94-94 0-50-38-88-88-88-50 0-93 38-93 94 0 50 37 88 87 88z m-475-319l156 287c7 13 25 13 38 0l112-206c7-12 25-12 38 0l19 31c6 13 25 13 37 0l63-112c18-31-13-31-25-31h-419c-13 0-25 18-19 31z" horiz-adv-x="1000" />

<glyph glyph-name="lightbox-tab" unicode="&#xe829;" d="M975 6l-156 157c44 68 69 150 69 237 0 250-200 450-444 450s-444-200-444-450 200-450 444-450c94 0 181 31 250 81l156-156c38-38 94-31 125 0 38 31 31 106 0 131z m-850 394c0 181 144 325 319 325s319-144 319-319-144-318-319-318-319 137-319 312z" horiz-adv-x="1000" />

<glyph glyph-name="license-tab" unicode="&#xe82a;" d="M669 625c-25-25-25-69 0-94s69-25 94 0 25 69 0 94-69 31-94 0z m231 125c-62 63-144 100-237 100-82 0-169-37-232-100-87-87-118-212-81-331l-300-300c-31-31-44-81-50-157 0-31 6-56 31-81 19-19 44-31 75-31h269c19 0 31 6 44 19s19 25 19 43-7 44-13 69l0 0h56c13 0 32 6 44 19s19 25 19 44v119l37 37c32-6 63-12 94-12 88 0 175 37 238 100s87 150 87 237c0 88-37 163-100 225z m-69-400c-43-44-100-69-162-69-31 0-56 7-88 19l-31 13-94-94c-12-13-18-31-18-44v-100h-69c-31 0-56-25-56-56 0-19 6-44 12-69v-6h-119-100-6v6c6 63 19 88 19 94l350 350-19 31c-37 94-12 194 50 256 44 44 106 69 169 69s119-25 162-69 69-106 69-168c0-57-25-119-69-163z" horiz-adv-x="1000" />

<glyph glyph-name="advanced-tab" unicode="&#xe82b;" d="M256 150c-12-6-25-6-37 0-19 6-38 25-44 44-6 19 0 44 6 56 13 13 13 25 7 44-7 6-7 12-13 25-6 19-19 25-37 31-19 0-32 13-44 31-6 19-6 38 0 57 12 18 25 31 50 37 19 6 37 13 37 31 0 13 0 25 7 32 6 12 6 25-7 43-12 13-12 38-6 57s25 37 44 43c19 7 44 0 56-12 13-13 31-13 44-6s19 6 31 12c13 6 25 19 25 31 6 19 19 38 38 50 18 7 37 7 56 0 19-12 31-25 37-50 7-12 13-25 32-31 12-6 12-6 25-12s25-7 43 6c19 12 38 12 57 6 18-6 31-19 37-37s6-38-6-50c-13-19-6-50 19-63 18-12 50-6 62 19 19 37 25 81 13 119-13 43-50 81-94 93-38 13-75 13-106-6-19 38-44 69-82 81-43 25-93 25-131 0-37-12-62-43-75-75-37 13-75 19-112 7-44-13-82-50-100-100-13-38-7-75 6-113-31-12-63-37-75-69-25-43-25-93 0-137 12-31 44-63 81-75-19-31-19-69-6-106 12-44 50-82 100-94 12-6 31-6 44-6 18 0 31 0 50 6 18 6 31 31 25 50-7 25-32 37-57 31z m119 181c0 0-6 7-12 13-19 19-32 44-32 69 0 31 13 56 32 75 25 25 50 31 75 31s56-13 75-31c6-7 6-7 12-13 13-19 38-19 50-6 19 12 19 37 6 50-6 12-6 12-12 19-31 31-81 56-125 56-50 0-94-19-131-50s-57-81-57-125c0-50 19-94 50-125 7-6 19-19 25-25 7-6 13-6 19-6 13 0 19 6 31 18 19 19 13 32-6 50z m600-118c-12 12-25 25-44 31 7 25 13 50 0 75-12 31-37 56-68 62-25 7-50 7-69 0-6 25-25 44-50 57-31 12-63 12-94 0-25-13-37-32-50-57-19 13-44 13-69 7-31-13-56-38-68-69-7-25-7-50 6-75-25-13-44-25-56-50-13-31-13-63 0-94 12-25 31-37 56-50-13-25-13-50-6-75 12-31 37-56 68-63 25-6 50-6 75 7 7-25 25-44 50-57 13-6 32-12 50-12s32 6 50 12c25 13 38 32 50 57 25-13 50-13 75-7 32 13 57 38 69 69 6 25 6 50-6 75 12 7 31 19 37 32l0 0c19 25 19 43 19 68-6 25-6 38-25 57z m-50-94c-6-6-12-13-25-13s-19-6-25-18c0-7 0-13-6-19-6-13-6-19 0-31 6-13 12-25 6-38-6-13-6-19-25-25-19 0-25 0-37 6-7 6-19 13-32 0-6 0-12-6-18-6-13-6-19-13-19-25s-13-25-25-31-25-7-38 0c-12 6-18 18-25 31-6 12-6 12-12 19-6 6-13 6-19 12-6 0-12 0-19 0-6 0-12 0-18-6-13-6-25-13-38-6-12 6-19 12-25 25-6 19 0 25 6 37 7 7 7 19 0 32 0 6-6 12-6 18-6 19-12 25-25 25s-25 13-31 25-6 25 0 38c6 12 19 19 31 25 19 6 25 12 25 19 6 12 6 12 6 18 7 13 0 19-6 32-6 12-6 25 0 37 6 13 13 19 25 25 13 6 25 0 38-6 12-6 18-6 31-6 6 0 12 0 19 6 12 6 18 12 18 25 0 12 13 25 25 31s25 6 38 0c12-6 19-19 25-31 6-19 12-19 19-25 12-6 12-6 18-6 13-7 25-7 32 0 12 6 18 12 37 6 13 0 19-6 25-19 6-12 0-25-6-37-6-13-6-19 0-32 0-6 6-6 6-18 6-13 13-19 25-19s19-6 25-13c6-6 13-18 13-25 0-18-7-25-13-37z m-312 119c-25-25-38-57-38-88s13-62 38-87c25-25 56-38 87-38s63 13 88 38c25 25 37 56 37 87s-12 63-37 88c-44 43-125 43-175 0z m131-132c-25-25-63-25-88 0-12 13-18 25-18 44s6 31 18 44 25 19 44 19 31-7 44-19 19-25 19-44-7-37-19-44z" horiz-adv-x="1000" />

<glyph glyph-name="help-tab" unicode="&#xe82c;" d="M856 706c-100 94-231 144-356 144s-256-50-356-144c-194-193-194-512 0-706 100-100 231-150 356-150s256 50 356 144c194 200 194 512 0 712z m-581-462l-144-106c-75 131-75 293 0 418l144-106c-31-62-31-137 0-206z m225-319c-75 0-150 19-212 56l106 144c37-19 69-25 106-25 38 0 69 6 106 25l107-144c-63-37-138-56-213-56z m-175 425c0 44 19 94 50 125 31 31 75 50 125 50s94-19 125-50c31-31 50-75 50-125s-19-94-50-125c-31-31-75-50-125-50-44 0-94 19-125 50-31 31-50 81-50 125z m281 225c-37 19-68 25-106 25-37 0-69-6-106-25l-106 144c62 37 137 56 212 56 75 0 150-19 213-56l-107-144z m119-331c31 62 31 144 0 206l144 106c75-131 75-293 0-418l-144 106z" horiz-adv-x="1000" />

<glyph glyph-name="product-zoom-v3-01" unicode="&#xe82d;" d="M919 50h-638c-43 0-81 38-81 81v638c0 44 38 81 81 81h638c44 0 81-37 81-81v-638c0-43-37-81-81-81z m-638 725c-6 0-6-6-6-6v-638c0-6 6-6 6-6h638c6 0 6 6 6 6v638c0 6-6 6-6 6s-638 0-638 0z m125-775v-119c0-12-12-31-31-31h-344c-18 0-31 12-31 31v350c0 13 13 32 31 32h119v-125c0-75 63-132 131-132h125v-6z m369 325l-56 56c19 25 25 57 25 88 0 94-75 162-163 162s-162-68-162-162 75-163 162-163c32 0 69 13 94 32l56-57c13-12 32-12 44 0 13 13 13 32 0 44z m-312 144c0 69 50 119 118 119s119-50 119-119-50-119-119-119-118 56-118 119z" horiz-adv-x="1000" />

<glyph glyph-name="video-gallery-01" unicode="&#xe82e;" d="M919 850h-663c-43 0-81-37-81-81v-94h-94c-43 0-81-37-81-81v-657c0-50 38-87 81-87h657c43 0 81 37 81 81v100h94c43 0 81 38 81 82v656c6 44-31 81-75 81z m-169-919c0-6-6-6 0 0l-669-6c-6 0-6 6-6 6v663c0 6 6 6 6 6h94 75 488c12 0 12 0 12-6v-488-75-100z m169 182c0-7-6-7-6-7h-94v488c6 44-31 81-75 81h-494v94c0 0 0 6 6 6h657c6 0 6-6 6-6v-656z m-356 218l-207 119c-25 13-56 13-81 0-25-12-37-37-31-69v-237c0-31 12-56 37-69 13-6 25-12 38-12 12 0 25 6 37 12l207 119c25 12 37 37 37 69s-12 56-37 68z m-25-75l-207-118c-12-7-18 0-18 0s-7 6-7 12v238c0 6 7 12 7 12s0 0 6 0h6l213-119c6 0 6-12 6-12s0-6-6-13z" horiz-adv-x="1000" />

<glyph glyph-name="radius-01" unicode="&#xe82f;" d="M750 850h-125v-125h125c69 0 125-56 125-125v-137h125v137c0 138-112 250-250 250z m-750-250v-137h125v137c0 69 56 125 125 125h144v125h-144c-137 0-250-112-250-250z m875-369v-137c0-69-56-125-125-125h-125v-125h125c138 0 250 112 250 250v137h-125z m-750-137v137h-125v-137c0-138 113-250 250-250h144v125h-144c-69 0-125 56-125 125z" horiz-adv-x="1000" />

<glyph glyph-name="border-width-01" unicode="&#xe830;" d="M923 741h-846c-4 0-7-3-7-7v-65c0-3 3-6 7-6h846c4 0 7 3 7 6v65c0 4-3 7-7 7z m0-235h-846c-4 0-7-3-7-6v-143c0-4 3-7 7-7h846c4 0 7 3 7 7v143c0 3-3 6-7 6z m0-312h-846c-4 0-7-3-7-7v-221c0-4 3-7 7-7h846c4 0 7 3 7 7v221c0 4-3 7-7 7z" horiz-adv-x="1000" />

<glyph glyph-name="info-01" unicode="&#xe831;" d="M500 756c225 0 406-181 406-406s-181-406-406-406-406 181-406 406 181 406 406 406m0 94c-275 0-500-225-500-500s225-500 500-500 500 225 500 500-225 500-500 500l0 0z m0-737c-6 0-12 6-12 12v269c0 12 6 19 12 19s13-7 13-13v-269c0-12-7-18-13-18z m0 343c-37 0-62-31-62-62v-269c0-37 25-62 62-62s63 25 63 62v269c0 37-25 62-63 62l0 0z m0 182c-37 0-62-32-62-63s25-62 62-62 63 25 63 62-25 63-63 63l0 0z" horiz-adv-x="1000" />

<glyph glyph-name="video-01-1" unicode="&#xe832;" d="M500 844c-275 0-494-219-494-494 0-275 219-494 494-494 275 0 494 219 494 494 0 275-219 494-494 494z m0-875c-212 0-381 169-381 381 0 213 169 381 381 381 213 0 381-168 381-381 0-212-168-381-381-381z m-87 600c-13 6-32 6-50 0-13-6-19-19-19-38v-362c0-19 6-31 25-38 6-6 12-6 25-6 6 0 19 0 25 6l312 182c7 6 19 18 19 37s-6 31-25 38l-312 181z m25-319v200l168-100-168-100z" horiz-adv-x="1000" />

<glyph glyph-name="x" unicode="&#xe833;" d="M558 350l221 221c17 17 17 42 0 58s-41 17-58 0l-221-221-221 221c-16 17-41 17-58 0s-17-41 0-58l221-221-221-221c-17-16-17-41 0-58 8-8 17-13 29-13s21 5 29 13l221 221 221-221c8-8 21-13 29-13s21 5 29 13c17 17 17 42 0 58l-221 221z" horiz-adv-x="1000" />

<glyph glyph-name="heart" unicode="&#xe834;" d="M500-79q-14 0-25 10l-348 336q-5 5-15 15t-31 37-38 54-30 67-13 77q0 123 71 192t196 70q34 0 70-12t67-33 54-38 42-38q20 20 42 38t54 38 67 33 70 12q125 0 196-70t71-192q0-123-128-251l-347-335q-10-10-25-10z" horiz-adv-x="1000" />

<glyph glyph-name="advanced-2" unicode="&#xe835;" d="M769-150c-56 0-113 25-156 69-57 56-75 131-63 212l-269 269c-106-19-175 19-212 63-56 56-82 143-63 218 7 25 25 38 50 44 25 6 44 0 63-19l69-68c6-7 6-7 12-7 0 0 6 0 13 7 6 6 6 18 0 25l-75 68c-13 19-19 44-13 63 6 25 25 37 44 44 81 18 162 0 219-57 56-56 81-137 62-212l275-275c106 19 175-19 213-63 56-56 81-143 56-218-6-26-25-38-44-44-25-7-44 0-62 18l-75 76c0 0-7 6-13 6 0 0-6 0-12-6-7-7-7-19 0-25l75-76c18-18 25-37 18-62-6-25-25-38-43-44-25-6-44-6-69-6z m-469 638l331-332-6-18c-19-69-6-119 38-163 31-31 81-50 131-44l-56 56c-38 38-38 94 0 132 18 19 37 25 62 25 0 0 0 0 0 0 25 0 50-13 63-25l56-56c6 50-6 93-44 131-44 44-94 56-162 37l-19-6-331 325 12 31c13 50 0 107-37 150-38 32-82 50-132 44l57-56c37-38 37-94 0-131-13-19-38-32-63-32 0 0 0 0 0 0-25 0-50 13-62 25l-63 63c-6-50 13-94 44-131 44-38 94-50 162-32l19 7z m125-313l-225-225c-25-25-75-25-100 0-25 25-25 75 0 100l225 225-56 50-225-225c-57-56-57-150 0-206 25-25 62-44 106-44 38 0 69 12 100 44l225 225-50 56z m556 613l-43 43c-19 19-57 25-82 7l-143-88c-19-12-32-25-32-50 0-12 0-25 7-37l-125-125 50-50 175 175-32 31 125 75 38-38-75-125-31 38-175-175 50-50 125 125c12-6 25-13 43-6 19 0 38 12 50 31l88 144c12 18 6 50-13 75z" horiz-adv-x="1000" />

<glyph glyph-name="emo-grin" unicode="&#xe836;" d="M197 801c-61 0-110-64-110-144 0-80 49-144 110-144s109 64 109 144c0 80-49 144-109 144z m476 0c-60 0-109-64-109-144 0-80 49-144 109-144 61 0 110 64 110 144 0 80-49 144-110 144z m144-480l-765 0c-29 0-52-24-52-54 3-200 238-351 422-354 186-3 442 156 448 355 0 29-24 53-53 53z m-700-106l634 0c-62-121-190-201-331-197-130 4-246 83-303 197z" horiz-adv-x="870" />

<glyph glyph-name="play-02" unicode="&#xe837;" d="M500-150c-275 0-500 225-500 500 0 275 225 500 500 500 275 0 500-225 500-500 0-275-225-500-500-500z m0 925c-233 0-425-192-425-425 0-233 192-425 425-425 233 0 425 192 425 425 0 233-192 425-425 425z m-112-671c-13 0-25 0-34 9-21 12-33 33-33 58v354c0 25 12 46 33 58 21 13 46 13 71 0l313-175c20-12 33-33 33-58 0-25-13-50-33-58l-313-175c-12-4-21-9-33-9l-4-4z m8 409v-325l287 162-287 163z" horiz-adv-x="1000" />

<glyph glyph-name="play-03" unicode="&#xe838;" d="M500 850c-275 0-500-225-500-500 0-275 225-500 500-500 275 0 500 225 500 500 0 275-225 500-500 500z m213-525l-313-175c-21-12-46 0-46 25v350c0 25 25 38 46 25l313-175c20-12 20-42 0-54v4z" horiz-adv-x="1000" />

<glyph glyph-name="play-04" unicode="&#xe839;" d="M908 408l-750 434c-45 25-100-9-100-59v-866c0-50 55-84 100-59l750 434c46 25 46 87 0 112v4z" horiz-adv-x="1000" />

<glyph glyph-name="play-05" unicode="&#xe83a;" d="M221-150c-96 0-175 79-175 175v650c-4 96 75 175 175 175 29 0 62-8 87-25l563-325c83-50 112-154 62-237-16-25-37-50-62-63l-563-325c-25-17-58-25-87-25z m0 888c-13 0-21 0-33-9-21-12-34-33-34-54v-650c0-33 29-63 63-63 12 0 21 0 33 9l563 325c29 17 41 58 25 87-5 9-13 17-25 25l-563 321c-8 4-21 9-33 9h4z" horiz-adv-x="1000" />

<glyph glyph-name="play-06" unicode="&#xe83b;" d="M792-150h-584c-116 0-208 92-208 208v584c0 116 92 208 208 208h584c116 0 208-92 208-208v-584c0-116-92-208-208-208z m-584 917c-70 0-125-54-125-125v-584c0-71 55-125 125-125h584c71 0 125 54 125 125v584c0 71-54 125-125 125h-584z m180-625c-17 0-34 4-50 12-30 17-50 50-50 84v220c0 55 41 96 95 96 17 0 34-4 50-12l221-109c46-25 67-83 38-133-9-17-21-29-38-37l-225-113c-12-8-29-12-46-12l5 4z m0 333c0 0-5 0-9 0-4 0-8-8-8-12v-221c0-9 8-13 12-13 0 0 5 0 9 0l225 113c0 0 4 8 4 12 0 4 0 9-8 13l-221 108c0 0-4 0-9 0h5z" horiz-adv-x="1000" />

<glyph glyph-name="play-07" unicode="&#xe83c;" d="M771-150h-542c-125 0-229 104-229 229v542c0 125 104 229 229 229h542c125 0 229-104 229-229v-542c0-125-104-229-229-229z m-542 875c-58 0-104-46-104-104v-542c0-58 46-104 104-104h542c58 0 104 46 104 104v542c0 58-46 104-104 104h-542z m104-262v-221c0-29 25-54 55-54 8 0 20 0 29 8l221 112c25 17 37 50 20 75-4 9-12 17-20 21l-221 113c-25 16-63 4-75-21-4-8-9-17-9-29v-4z" horiz-adv-x="1000" />

<glyph glyph-name="play-08" unicode="&#xe83d;" d="M954 613c-29 12-58 12-83-9l-79-79c-17 113-113 200-225 200h-334c-129 0-233-104-233-229v-292c0-125 104-229 229-229h334c116 0 212 88 225 196l79-75c12-13 33-17 50-17 16 0 29 0 41 13 25 16 42 46 42 75v375c0 29-17 58-46 71z m-287-409c0-58-46-104-104-104h-334c-58 0-104 46-104 104v292c0 58 46 104 104 104h334c58 0 104-46 104-104v-292z" horiz-adv-x="1000" />

<glyph glyph-name="play-09" unicode="&#xe83e;" d="M792 808h-584c-116 0-208-91-208-208v-500c0-117 92-208 208-208h584c116 0 208 91 208 208v500c0 117-92 208-208 208z m125-250h-163l129 130c21-21 34-55 34-88v-42z m-113 167l-166-167h-142l167 167h129c0 0 8 0 12 0z m-262 0l-159-158c0 0-4-9-8-9h-146l167 167h142 4z m-334 0h75l-166-167h-34v42c0 71 55 125 125 125z m584-750h-584c-70 0-125 54-125 125v375h834v-375c0-71-54-125-125-125z m-167 217l-192-104c-25-17-58 0-58 33v208c0 29 33 50 58 34l192-105c25-16 25-50 0-66z" horiz-adv-x="1000" />

<glyph glyph-name="dailymotion" unicode="&#xe83f;" d="M372 641c41 0 84 0 125 0 69-7 128-35 175-82 47-43 72-100 84-162 19-131-53-259-175-313-34-15-68-21-106-21-22 0-44 0-66 0-6 0-12 0-15 6-31 31-63 62-94 90-6 7-9 13-9 22 0 28 0 53 0 82 0 12 6 18 18 18 54 0 107 0 157 0 50 0 81 44 68 91-9 28-37 47-68 47-35 0-66 0-100 0-10 0-16 0-22 9-31 31-60 63-91 91-6 6-9 12-9 22 0 28 0 53 0 81 0 12 6 19 19 19 37 0 75 0 112 0 0 0 0 0 0 0z m-78-32c19-18 37-34 56-53 9-9 19-15 34-15 38 0 79 0 116-3 88-10 159-91 163-179 3-87-47-165-129-193-21-7-43-13-68-13-16 0-28 0-44 0v-69c16 0 31 0 50 0 47 0 91 13 131 38 75 47 119 112 128 203 7 75-15 141-65 194-50 56-116 87-194 87-56 0-109 0-166 0h-12z m53-359s0 0 0 0c22-19 41-41 62-59 0 0 4 0 7 0 28 0 59 0 87 3 91 19 144 97 128 187-9 69-72 128-140 135-32 0-63 0-94 0-6 0-13 0-22 0v-66h9c29 0 57 0 82 0 15 0 28-3 40-9 41-16 66-63 60-103-7-47-44-82-91-85-41 0-78 0-119 0-3 0-6 0-9 0z m-28-19c0-15 0-28 0-43 0-7 0-13 6-16 19-19 38-38 53-53 0 0 3-3 10-6 0 28 9 59-25 78 0 0 0 0 0 0-13 12-29 25-44 40z m-47 360c0-19 0-35 0-47 0 0 0-6 3-6 19-19 41-41 59-60 0 0 4 0 7-6 0 9 0 19 0 28 0 19-3 31-19 44-19 15-34 31-53 50z" horiz-adv-x="1000" />

<glyph glyph-name="right-open" unicode="&#xf006;" d="M0 0q0 25 18 43l305 304-305 304q-18 18-18 44t18 43 44 18 43-18l390-391-390-391q-19-18-43-18t-44 18q-18 18-18 44z" horiz-adv-x="495.1" />

<glyph glyph-name="left-open" unicode="&#xf007;" d="M0 353l391 391q18 18 43 18 24 0 43-18 18-18 18-44t-18-43l-304-304 304-305q18-17 18-43t-18-43q-18-18-43-18t-43 18z" horiz-adv-x="495.1" />

<glyph glyph-name="zoom-in" unicode="&#xf07e;" d="M11 376q-24 91 0 181t92 158q51 51 115 77t134 26q69 0 134-26t115-77q54-53 80-124t23-143-38-139q31-10 52-31l181-182q38-37 38-89t-38-89-88-37q-52 0-89 37l-182 182q-20 20-31 52-75-37-157-37-69 0-134 26t-115 77q-68 68-92 158z m107 91q0-98 68-166 34-33 76-51t90-18q98 0 166 69 33 33 51 76t18 89q0 98-69 167-69 68-166 68-97 0-166-68t-68-166z m624 200q0 12 9 21t21 8h93v93q0 13 9 21t20 8 21-8 8-21v-93h94q11 0 20-8t9-21-9-21-20-8h-94v-94q0-12-8-20t-21-9q-12 0-20 9-9 8-9 20v94h-93q-12 0-21 8-9 9-9 21z" horiz-adv-x="1045.9" />

<glyph glyph-name="resize-full-alt" unicode="&#xf0b2;" d="M716 548l-198-198 198-198 80 80q17 18 39 8 22-9 22-33v-250q0-14-10-25t-26-11h-250q-23 0-32 23-10 21 7 38l81 81-198 198-198-198 80-81q17-17 8-38-10-23-33-23h-250q-15 0-25 11t-11 25v250q0 24 22 33 22 10 39-8l80-80 198 198-198 198-80-80q-11-11-25-11-7 0-14 3-22 9-22 33v250q0 14 11 25t25 11h250q23 0 33-23 9-21-8-38l-80-81 198-198 198 198-81 81q-17 17-7 38 9 23 32 23h250q15 0 26-11t10-25v-250q0-24-22-33-7-3-14-3-14 0-25 11z" horiz-adv-x="857.1" />

<glyph glyph-name="mail-alt" unicode="&#xf0e0;" d="M1000 454v-443q0-37-26-63t-63-27h-822q-36 0-63 27t-26 63v443q25-27 56-49 202-137 278-192 32-24 51-37t53-27 61-13h2q28 0 61 13t53 27 51 37q95 68 278 192 32 22 56 49z m0 164q0-44-27-84t-68-69q-210-146-262-181-5-4-23-17t-30-22-29-18-32-15-28-5h-2q-12 0-27 5t-32 15-30 18-30 22-23 17q-51 35-147 101t-114 80q-35 23-65 64t-31 77q0 43 23 72t66 29h822q36 0 63-26t26-63z" horiz-adv-x="1000" />

<glyph glyph-name="angle-double-left" unicode="&#xf100;" d="M350 82q0-7-6-13l-28-28q-5-5-12-5t-13 5l-260 261q-6 5-6 12t6 13l260 260q5 6 13 6t12-6l28-28q6-5 6-13t-6-12l-219-220 219-219q6-6 6-13z m214 0q0-7-5-13l-28-28q-6-5-13-5t-13 5l-260 261q-6 5-6 12t6 13l260 260q6 6 13 6t13-6l28-28q5-5 5-13t-5-12l-220-220 220-219q5-6 5-13z" horiz-adv-x="571.4" />

<glyph glyph-name="angle-double-right" unicode="&#xf101;" d="M332 314q0-7-5-12l-261-261q-5-5-12-5t-13 5l-28 28q-6 6-6 13t6 13l219 219-219 220q-6 5-6 12t6 13l28 28q5 6 13 6t12-6l261-260q5-5 5-13z m214 0q0-7-5-12l-260-261q-6-5-13-5t-13 5l-28 28q-5 6-5 13t5 13l219 219-219 220q-5 5-5 12t5 13l28 28q6 6 13 6t13-6l260-260q5-5 5-13z" horiz-adv-x="571.4" />

<glyph glyph-name="angle-left" unicode="&#xf104;" d="M350 546q0-7-6-12l-219-220 219-219q6-6 6-13t-6-13l-28-28q-5-5-12-5t-13 5l-260 261q-6 5-6 12t6 13l260 260q5 6 13 6t12-6l28-28q6-5 6-13z" horiz-adv-x="357.1" />

<glyph glyph-name="angle-right" unicode="&#xf105;" d="M332 314q0-7-5-12l-261-261q-5-5-12-5t-13 5l-28 28q-6 6-6 13t6 13l219 219-219 220q-6 5-6 12t6 13l28 28q5 6 13 6t12-6l261-260q5-5 5-13z" horiz-adv-x="357.1" />

<glyph glyph-name="laptop" unicode="&#xf109;" d="M232 136q-37 0-63 26t-26 63v393q0 37 26 63t63 26h607q37 0 63-26t27-63v-393q0-37-27-63t-63-26h-607z m-18 482v-393q0-7 6-13t12-5h607q8 0 13 5t5 13v393q0 7-5 12t-13 6h-607q-7 0-12-6t-6-12z m768-518h89v-54q0-22-26-37t-63-16h-893q-36 0-63 16t-26 37v54h982z m-402-54q9 0 9 9t-9 9h-89q-9 0-9-9t9-9h89z" horiz-adv-x="1071.4" />

<glyph glyph-name="tablet" unicode="&#xf10a;" d="M357 64q0 15-10 25t-26 11-25-11-10-25 10-25 25-10 26 10 10 25z m214 90v535q0 8-5 13t-12 5h-465q-7 0-12-5t-6-13v-535q0-8 6-13t12-5h465q7 0 12 5t5 13z m72 535v-607q0-37-26-63t-63-26h-465q-36 0-63 26t-26 63v607q0 37 26 63t63 27h465q36 0 63-27t26-63z" horiz-adv-x="642.9" />

<glyph glyph-name="mobile" unicode="&#xf10b;" d="M259 64q0 19-13 32t-32 13-31-13-13-32 13-31 31-13 32 13 13 31z m116 90v392q0 8-5 13t-13 5h-286q-7 0-12-5t-5-13v-392q0-8 5-13t12-5h286q7 0 13 5t5 13z m-107 473q0 9-9 9h-89q-9 0-9-9t9-9h89q9 0 9 9z m161 9v-572q0-29-22-50t-50-21h-286q-29 0-50 21t-21 50v572q0 29 21 50t50 21h286q29 0 50-21t22-50z" horiz-adv-x="428.6" />

<glyph glyph-name="angle-circled-left" unicode="&#xf137;" d="M507 72l57 57q11 10 11 25t-11 25l-171 171 171 171q11 11 11 25t-11 26l-57 57q-10 10-25 10t-25-10l-253-254q-11-10-11-25t11-25l253-253q11-11 25-11t25 11z m350 278q0-117-57-215t-156-156-215-58-216 58-155 156-58 215 58 215 155 156 216 58 215-58 156-156 57-215z" horiz-adv-x="857.1" />

<glyph glyph-name="angle-circled-right" unicode="&#xf138;" d="M400 72l254 253q10 11 10 25t-10 25l-254 254q-10 10-25 10t-25-10l-57-57q-11-11-11-26t11-25l171-171-171-171q-11-11-11-25t11-25l57-57q11-11 25-11t25 11z m457 278q0-117-57-215t-156-156-215-58-216 58-155 156-58 215 58 215 155 156 216 58 215-58 156-156 57-215z" horiz-adv-x="857.1" />

<glyph glyph-name="doc-text-inv" unicode="&#xf15c;" d="M819 584q8-7 16-20h-264v264q13-8 21-16z m-265-91h303v-589q0-23-15-38t-38-16h-750q-23 0-38 16t-16 38v892q0 23 16 38t38 16h446v-304q0-22 16-37t38-16z m89-411v36q0 8-5 13t-13 5h-393q-8 0-13-5t-5-13v-36q0-8 5-13t13-5h393q8 0 13 5t5 13z m0 143v36q0 8-5 13t-13 5h-393q-8 0-13-5t-5-13v-36q0-8 5-13t13-5h393q8 0 13 5t5 13z m0 143v36q0 7-5 12t-13 5h-393q-8 0-13-5t-5-12v-36q0-8 5-13t13-5h393q8 0 13 5t5 13z" horiz-adv-x="857.1" />

<glyph glyph-name="youtube-play" unicode="&#xf16a;" d="M397 221l270 139-270 141v-280z m103 481q94 0 181-3t128-5l41-2q0 0 9-1t13-2 13-2 16-5 16-7 17-11 16-15q4-3 9-10t16-33 15-56q4-36 7-76t3-64v-98q1-81-10-162-4-30-14-55t-18-35l-8-9q-7-8-16-15t-17-10-16-7-16-5-13-2-13-2-9-1q-140-11-350-11-115 2-201 4t-111 4l-28 3-20 2q-20 3-30 5t-29 12-31 23q-4 3-9 10t-16 33-15 56q-4 36-7 76t-3 64v98q-1 81 10 162 4 31 14 55t18 35l8 9q8 9 16 15t17 11 16 7 16 5 13 2 13 2 9 1q140 10 350 10z" horiz-adv-x="1000" />

<glyph glyph-name="file-video" unicode="&#xf1c8;" d="M819 638q16-16 27-42t11-50v-642q0-23-15-38t-38-16h-750q-23 0-38 16t-16 38v892q0 23 16 38t38 16h500q22 0 49-11t42-27z m-248 136v-210h210q-5 17-12 23l-175 175q-6 7-23 12z m215-853v572h-232q-23 0-38 16t-16 37v233h-429v-858h715z m-357 500q29 0 50-21t21-50v-214q0-29-21-50t-50-22h-215q-29 0-50 22t-21 50v214q0 29 21 50t50 21h215z m274-1q11-4 11-16v-322q0-12-11-17-4-1-7-1-7 0-12 5l-148 149v50l148 148q5 5 12 5 3 0 7-1z" horiz-adv-x="857.1" />

<glyph glyph-name="lifebuoy" unicode="&#xf1cd;" d="M500 850q102 0 194-40t160-106 106-160 40-194-40-194-106-160-160-106-194-40-194 40-160 106-106 160-40 194 40 194 106 160 160 106 194 40z m0-71q-106 0-201-51l108-108q46 16 93 16t93-16l109 108q-96 51-202 51z m-378-630l108 108q-16 46-16 93t16 93l-108 109q-51-96-51-202t51-201z m378-228q106 0 202 51l-109 108q-46-16-93-16t-93 16l-108-108q95-51 201-51z m0 215q89 0 152 63t62 151-62 152-152 62-151-62-63-152 63-151 151-63z m270 121l108-108q51 95 51 201t-51 202l-108-109q16-46 16-93t-16-93z" horiz-adv-x="1000" />

<glyph glyph-name="mouse-pointer" unicode="&#xf245;" d="M632 268q18-17 8-38-9-23-33-23h-213l112-266q6-13 0-27t-19-19l-99-42q-14-6-27 0t-19 19l-107 252-174-174q-11-11-25-11-7 0-14 3-22 10-22 33v839q0 24 22 33 7 3 14 3 15 0 25-11z" horiz-adv-x="714.3" />

<glyph glyph-name="hand-pointer-o" unicode="&#xf25a;" d="M357 779q-29 0-50-21t-21-51v-500l-84 113q-23 30-60 30-29 0-50-21t-21-50q0-24 15-43l214-286q21-29 57-29h401q12 0 22 8t12 19l52 206q13 53 13 108v121q0 23-15 40t-38 16-38-15-16-38h-18v34q0 27-18 45t-44 19q-26 0-44-18t-19-45v-35h-18v50q0 31-20 53t-51 22q-30 0-51-21t-21-51v-53h-17v318q0 31-21 53t-51 22z m0 71q60 0 101-43t42-103v-123q12 1 18 1 55 0 96-38 27 11 56 11 63 0 102-48 15 4 32 4 52 0 88-38t37-90v-121q0-65-16-126l-51-205q-9-36-38-58t-66-23h-401q-33 0-64 15t-50 42l-214 286q-29 38-29 86 0 58 42 100t100 42q39 0 72-19v305q0 59 42 101t101 42z m72-786v215h-18v-215h18z m142 0v215h-17v-215h17z m143 0v215h-18v-215h18z" horiz-adv-x="1000" />

<glyph glyph-name="vimeo" unicode="&#xf306;" d="M896 558q-32-186-171-351t-245-237q-42-28-81-17t-66 38-43 61q-16 32-78 239t-74 223q-16 12-38 5t-44-21l-20-14-36 50q18 20 46 52t100 89 124 67q30 6 53-7t36-35 23-60 15-70 12-75 13-67q14-54 21-80t17-54 18-39 18-11q40 0 126 166 42 76 6 124t-112 2q22 126 140 188 104 54 182 8 80-46 58-174z" horiz-adv-x="901" />

<glyph glyph-name="facebook-circled" unicode="&#xf30d;" d="M480 830q200 0 340-140t140-340q0-198-140-339t-340-141-340 141-140 339q0 200 140 340t340 140z m114-330l0 78-72 0q-44 0-74-33t-30-81l0-44-76 0 0-74 76 0 0-222 86 0 0 222 90 0 0 74-90 0 0 52q0 28 18 28l72 0z" horiz-adv-x="960" />
</font>
</defs>
</svg>
