<svg xmlns="http://www.w3.org/2000/svg" width="120" height="65" fill="none" xmlns:v="https://vecta.io/nano"><path d="M41.44 19.16H16.96c-.72 0-1.28.56-1.28 1.28v24.48c0 .72.56 1.28 1.28 1.28h24.48c.72 0 1.28-.56 1.28-1.28V20.36c-.08-.64-.64-1.2-1.28-1.2zm30.8 0H47.76c-.72 0-1.28.56-1.28 1.28v24.48c0 .72.56 1.28 1.28 1.28h24.48c.72 0 1.28-.56 1.28-1.28V20.36c-.08-.64-.64-1.2-1.28-1.2zm30.72 0H78.64c-.72 0-1.36.56-1.36 1.36v24.32c0 .72.56 1.36 1.36 1.36h24.32c.72 0 1.36-.56 1.36-1.36v-24.4c-.08-.72-.64-1.28-1.36-1.28z" fill="#d8dadb" stroke="#bbc2c7" stroke-width=".8" stroke-miterlimit="10"/><path d="M72.24 46.68H47.76a1.81 1.81 0 0 1-1.84-1.84V20.36a1.81 1.81 0 0 1 1.84-1.84h24.48a1.81 1.81 0 0 1 1.84 1.84v24.48c0 1.04-.88 1.84-1.84 1.84zM47.76 19.72a.63.63 0 0 0-.64.64v24.48a.63.63 0 0 0 .64.64h24.48a.63.63 0 0 0 .64-.64V20.36a.63.63 0 0 0-.64-.64H47.76z" fill="#0085ba"/><path d="M41.44 18.84H16.96c-.88 0-1.6.72-1.6 1.6v24.48c0 .88.72 1.6 1.6 1.6h24.48c.88 0 1.6-.72 1.6-1.6V20.36c-.08-.88-.72-1.52-1.6-1.52zm.88 26c0 .48-.4.96-.96.96h-24.4c-.48 0-.96-.4-.96-.96V20.36c0-.48.4-.96.96-.96h24.48c.48 0 .96.4.96.96v24.48h-.08zm60.64-26H78.64a1.69 1.69 0 0 0-1.68 1.68v24.32a1.69 1.69 0 0 0 1.68 1.68h24.32a1.69 1.69 0 0 0 1.68-1.68v-24.4c-.08-.88-.8-1.6-1.68-1.6zm.96 25.92a1.06 1.06 0 0 1-1.04 1.04H78.64a1.06 1.06 0 0 1-1.04-1.04V20.44a1.06 1.06 0 0 1 1.04-1.04h24.32a1.06 1.06 0 0 1 1.04 1.04v24.32h-.08z" fill="#bbc2c7"/><path d="M109.04 29.08a.53.53 0 0 0-.8 0 .53.53 0 0 0 0 .8l2.72 2.72-2.72 2.72a.53.53 0 0 0 0 .8.61.61 0 0 0 .4.16.61.61 0 0 0 .4-.16l3.12-3.12a.53.53 0 0 0 0-.8l-3.12-3.12zm-97.28 0a.61.61 0 0 0-.4-.16.61.61 0 0 0-.4.16L7.84 32.2a.53.53 0 0 0 0 .8l3.12 3.12a.53.53 0 0 0 .8 0 .53.53 0 0 0 0-.8L9.04 32.6l2.72-2.72a.53.53 0 0 0 0-.8zm58.16.48l-4.8-4.8-2.4-.48c0 1.52-1.2 2.72-2.8 2.72-1.52 0-2.8-1.2-2.8-2.72l-2.4.48-4.8 4.64 3.28 3.28 1.6-1.6v9.68h10.24v-9.44l1.52 1.52 3.36-3.28zm-30.8 0l-4.8-4.8-2.4-.48c0 1.52-1.2 2.72-2.8 2.72s-2.8-1.2-2.8-2.72l-2.4.48-4.8 4.64 3.28 3.28 1.6-1.6v9.68h10.4v-9.44l1.52 1.52 3.2-3.28zm61.6 0l-4.8-4.8-2.4-.48c0 1.52-1.2 2.72-2.8 2.72-1.52 0-2.8-1.2-2.8-2.72l-2.4.48-4.8 4.64L84 32.68l1.6-1.6v9.68H96v-9.44l1.52 1.52 3.2-3.28z" fill="#8796a1"/></svg>