<svg xmlns="http://www.w3.org/2000/svg" width="120" height="65" fill="none" xmlns:v="https://vecta.io/nano"><path d="M46.48 48.44v.96c0 .16.16.32.32.32h26.4c.16 0 .32-.16.32-.32v-1.04c0-.16-.16-.32-.32-.32H46.8c-.16.08-.32.24-.32.4z" fill="#0085ba"/><path d="M41.36 19.16H17.04c-.72 0-1.36.56-1.36 1.36v24.32c0 .72.56 1.36 1.36 1.36h24.32c.72 0 1.36-.56 1.36-1.36v-24.4c-.08-.72-.64-1.28-1.36-1.28zm30.8 0H47.84c-.72 0-1.36.56-1.36 1.36v24.32c0 .72.56 1.36 1.36 1.36h24.32c.72 0 1.36-.56 1.36-1.36v-24.4c-.08-.72-.64-1.28-1.36-1.28zm30.8 0H78.64c-.72 0-1.36.56-1.36 1.36v24.32c0 .72.56 1.36 1.36 1.36h24.32c.72 0 1.36-.56 1.36-1.36v-24.4c-.08-.72-.64-1.28-1.36-1.28z" fill="#d8dadb"/><path d="M112.16 32.2l-3.12-3.12a.53.53 0 0 0-.8 0 .53.53 0 0 0 0 .8l2.72 2.72-2.72 2.72a.53.53 0 0 0 0 .8.61.61 0 0 0 .4.16.61.61 0 0 0 .4-.16l3.12-3.12a.53.53 0 0 0 0-.8zm-100.4-3.12a.61.61 0 0 0-.4-.16.61.61 0 0 0-.4.16L7.84 32.2a.53.53 0 0 0 0 .8l3.12 3.12a.53.53 0 0 0 .8 0 .53.53 0 0 0 0-.8L9.04 32.6l2.72-2.72a.53.53 0 0 0 0-.8zm53.44-4.24l-2.4-.48c0 1.52-1.2 2.72-2.8 2.72s-2.8-1.2-2.8-2.72l-2.4.48-4.8 4.64 3.28 3.28 1.6-1.6v9.68h10.24v-9.52l1.52 1.52 3.28-3.28-4.72-4.72zm-30.8 0l-2.4-.48c0 1.52-1.2 2.72-2.8 2.72-1.52 0-2.8-1.2-2.8-2.72l-2.4.48-4.8 4.64 3.28 3.28 1.6-1.6v9.68H34.4v-9.52l1.52 1.52 3.28-3.28-4.8-4.72zm61.6 0l-2.4-.48c0 1.52-1.2 2.72-2.8 2.72s-2.8-1.2-2.8-2.72l-2.4.48-4.8 4.64 3.28 3.28 1.6-1.6v9.68H96v-9.52l1.52 1.52 3.28-3.28-4.8-4.72z" fill="#8796a1"/></svg>