<svg xmlns="http://www.w3.org/2000/svg" width="120" height="141" fill="none" xmlns:v="https://vecta.io/nano"><path d="M73.04 101.36H46.96c-1.28 0-2.16.88-2.16 2.16v26.08c0 1.28.88 2.16 2.16 2.16h26.08c1.28 0 2.16-.88 2.16-2.16v-26.08c0-1.28-.88-2.16-2.16-2.16zm-34.72 0H19.28v30.4h18.96c1.28 0 2.16-.88 2.16-2.16v-26.08c.08-1.28-.8-2.16-2.08-2.16zm43.36 0c-1.28 0-2.16.88-2.16 2.16v26.08c0 1.28.88 2.16 2.16 2.16h19.04v-30.4H81.68z" fill="#8796a1"/><path d="M12.24 101.36c-1.28 0-2.16.88-2.16 2.16v26.08c0 1.28.88 2.16 2.16 2.16h7.04v-30.4h-7.04zm97.68 28.24v-26.08c0-1.28-.88-2.16-2.16-2.16h-7.04v30.4h7.04c1.28 0 2.16-.88 2.16-2.16z" fill="#1b3444"/><path d="M103.92 120.48c-.24 0-.48-.08-.64-.24-.4-.4-.4-.96 0-1.36l2.32-2.32-2.32-2.32c-.4-.4-.4-.96 0-1.36.16-.16.4-.24.64-.24s.48.08.64.24l3.04 3.04c.4.4.4.96 0 1.36l-3.04 3.04c-.16.08-.4.16-.64.16zm-87.84 0c-.24 0-.48-.08-.64-.24l-3.04-3.04c-.16-.16-.24-.4-.24-.64s.08-.48.24-.64l3.04-3.04c.16-.16.4-.24.64-.24s.48.08.64.24c.4.4.4.96 0 1.36l-2.32 2.32 2.32 2.32c.4.4.4.96 0 1.36-.16.16-.4.24-.64.24z" fill="#fff"/><path d="M107.84 9.04H12.16c-1.2 0-2.24.96-2.24 2.24v84.16c0 1.2.96 2.24 2.24 2.24h95.76c1.2 0 2.24-.96 2.24-2.24V11.28c-.08-1.2-1.04-2.24-2.32-2.24z" fill="#8796a1"/></svg>