<svg width="35" height="32" viewBox="0 0 35 32" fill="none" xmlns="http://www.w3.org/2000/svg">
<path d="M34.5556 6.89803C34.0378 6.09972 32.9698 5.87318 32.1715 6.38021L24.717 10.7169L18.9563 1.76299C18.8268 1.55802 18.6542 1.38541 18.4385 1.24517C17.6402 0.727348 16.5722 0.953895 16.0543 1.76299L10.2936 10.7169L2.82837 6.38021C2.39685 6.09972 1.87903 6.035 1.39358 6.17524C0.476607 6.45572 -0.0304235 7.41585 0.239274 8.33282L4.6731 23.8674C4.88886 24.6333 5.60086 25.1619 6.39917 25.1296H28.6007C29.399 25.1619 30.111 24.6333 30.3267 23.8674L34.7606 8.33282C34.9116 7.84736 34.8361 7.31876 34.5556 6.89803ZM27.2845 21.6774H7.71529L4.83492 11.526L10.0131 14.5251C10.8114 14.989 11.8255 14.7408 12.3217 13.9749L17.4999 5.88397L22.6781 13.9749C23.1851 14.7516 24.21 14.9997 25.0083 14.5251L30.1865 11.526L27.2845 21.6774Z" fill="#FFAA05"/>
<path d="M27.8583 28.1309H7.1455C6.19616 28.1309 5.41943 28.9076 5.41943 29.8569C5.41943 30.8063 6.19616 31.583 7.1455 31.583H27.8583C28.8076 31.583 29.5843 30.8063 29.5843 29.8569C29.5843 28.9076 28.8076 28.1309 27.8583 28.1309Z" fill="#FFAA05"/>
</svg>
