<svg xmlns="http://www.w3.org/2000/svg" width="120" height="96" fill="none" xmlns:v="https://vecta.io/nano"><path d="M85.2 75.6H34.8a2.41 2.41 0 0 1-2.4-2.4V22.8a2.41 2.41 0 0 1 2.4-2.4h50.4a2.41 2.41 0 0 1 2.4 2.4v50.4a2.41 2.41 0 0 1-2.4 2.4z" fill="#8796a1"/><path d="M75.6 43.2l-7.44-7.44-3.72-.72c0 2.28-1.92 4.2-4.32 4.2s-4.32-1.92-4.32-4.2l-3.72.72-7.68 7.44 5.16 5.16 2.52-2.52v15.12h16.08v-15l2.4 2.4 5.04-5.16z" fill="#fff"/><path d="M80.64 45l3 3-3 3m-41.28 0l-3-3 3-3" stroke="#fff" stroke-width="1.5" stroke-miterlimit="10" stroke-linecap="round" stroke-linejoin="round"/></svg>