<svg xmlns="http://www.w3.org/2000/svg" xmlns:xlink="http://www.w3.org/1999/xlink" width="120" height="96" fill="none" xmlns:v="https://vecta.io/nano"><path d="M48 85.44H33.6a1.13 1.13 0 0 1-1.2-1.2v-14.4a1.13 1.13 0 0 1 1.2-1.2H48a1.13 1.13 0 0 1 1.2 1.2v14.4a1.13 1.13 0 0 1-1.2 1.2zm19.2 0H52.8a1.13 1.13 0 0 1-1.2-1.2v-14.4a1.13 1.13 0 0 1 1.2-1.2h14.4a1.13 1.13 0 0 1 1.2 1.2v14.4a1.13 1.13 0 0 1-1.2 1.2zm19.2 0H72a1.13 1.13 0 0 1-1.2-1.2v-14.4a1.13 1.13 0 0 1 1.2-1.2h14.4a1.13 1.13 0 0 1 1.2 1.2v14.4a1.13 1.13 0 0 1-1.2 1.2z" fill="#8796a1"/><g fill="#fff"><use xlink:href="#B"/><path d="M66 75.24l-2.88-2.88-1.44-.24c0 .84-.72 1.56-1.68 1.56s-1.68-.72-1.68-1.56l-1.44.24L54 75.24l1.92 1.92.96-.96v5.76h6.24V76.2l.96.96L66 75.24z"/><use xlink:href="#B" x="38.4"/></g><path d="M85.2 66.24H34.8a2.41 2.41 0 0 1-2.4-2.4v-50.4a2.41 2.41 0 0 1 2.4-2.4h50.4a2.41 2.41 0 0 1 2.4 2.4v50.4a2.41 2.41 0 0 1-2.4 2.4z" fill="#8796a1"/><path d="M75.6 33.96l-7.44-7.44-3.72-.72c0 2.28-1.92 4.2-4.32 4.2s-4.32-1.92-4.32-4.2l-3.72.72-7.68 7.32L49.56 39l2.52-2.52V51.6h16.08V36.72l2.4 2.4 5.04-5.16zm5.04 8.64c-.24 0-.48-.12-.6-.24-.36-.36-.36-.96 0-1.32l2.4-2.4-2.4-2.4c-.36-.36-.36-.96 0-1.32s.96-.36 1.32 0l3 3c.36.36.36.96 0 1.32l-3 3c-.24.24-.48.36-.72.36zm-41.28 0c-.24 0-.48-.12-.6-.24l-3-3c-.36-.36-.36-.96 0-1.32l3-3c.36-.36.96-.36 1.32 0s.36.96 0 1.32l-2.4 2.4 2.4 2.4c.36.36.36.96 0 1.32-.24 0-.48.12-.72.12z" fill="#fff"/><defs ><path id="B" d="M46.8 75.24l-2.88-2.88-1.44-.24c0 .84-.72 1.56-1.68 1.56s-1.68-.72-1.68-1.56l-1.44.24-2.88 2.88 1.92 1.92.96-.96v5.76h6.24V76.2l.96.96 1.92-1.92z"/></defs></svg>