<svg xmlns="http://www.w3.org/2000/svg" width="120" height="142" fill="none" xmlns:v="https://vecta.io/nano"><path d="M38.32 102.16H12.24c-1.28 0-2.16.88-2.16 2.16v26.08c0 1.28.88 2.16 2.16 2.16h26.08c1.28 0 2.16-.88 2.16-2.16v-26.08c0-1.28-.88-2.16-2.16-2.16zm34.72 0H46.96c-1.28 0-2.16.88-2.16 2.16v26.08c0 1.28.88 2.16 2.16 2.16h26.08c1.28 0 2.16-.88 2.16-2.16v-26.08c0-1.28-.88-2.16-2.16-2.16zm34.72 0H81.68c-1.28 0-2.16.88-2.16 2.16v26.08c0 1.28.88 2.16 2.16 2.16h26.08c1.28 0 2.16-.88 2.16-2.16v-26.08c0-1.28-.88-2.16-2.16-2.16z" fill="#8796a1"/><path d="M102.72 121.28c-.24 0-.48-.08-.64-.24-.4-.4-.4-.96 0-1.36l2.32-2.32-2.32-2.32c-.4-.4-.4-.96 0-1.36.16-.16.4-.24.64-.24s.48.08.64.24l3.04 3.04c.4.4.4.96 0 1.36l-3.04 3.04c-.16.08-.4.16-.64.16zm-85.04 0c-.24 0-.48-.08-.64-.24L14 118c-.16-.16-.24-.4-.24-.64s.08-.48.24-.64l3.04-3.04c.16-.16.4-.24.64-.24s.48.08.64.24c.4.4.4.96 0 1.36L16 117.36l2.32 2.32c.4.4.4.96 0 1.36-.16.16-.4.24-.64.24z" fill="#fff"/><path d="M107.84 9.84H12.16c-1.2 0-2.24.96-2.24 2.24v84.16c0 1.2.96 2.24 2.24 2.24h95.76c1.2 0 2.24-.96 2.24-2.24V12.08c-.08-1.2-1.04-2.24-2.32-2.24z" fill="#8796a1"/></svg>