<svg xmlns="http://www.w3.org/2000/svg" width="120" height="65" fill="none" xmlns:v="https://vecta.io/nano"><path d="M41.36 19.36H17.04c-.72 0-1.36.56-1.36 1.36v24.32c0 .72.56 1.36 1.36 1.36h24.32c.72 0 1.36-.56 1.36-1.36V20.72c-.08-.8-.64-1.36-1.36-1.36zm61.6 0h-24.4c-.72 0-1.28.56-1.28 1.28v24.4c0 .72.56 1.36 1.36 1.36h24.32c.72 0 1.36-.56 1.36-1.36v-24.4c-.08-.72-.64-1.28-1.36-1.28z" fill="#d8dadb"/><path d="M41.36 18.96H17.04c-.96 0-1.76.8-1.76 1.76v24.32c0 .96.8 1.76 1.76 1.76h24.32c.48 0 .88-.16 1.2-.48s.48-.8.48-1.2V20.64a1.64 1.64 0 0 0-1.68-1.68zm.88 26c0 .24-.08.48-.24.64s-.4.24-.64.24H17.04c-.48 0-.96-.4-.96-.96V20.64c0-.48.4-.96.96-.96h24.32c.48 0 .96.4.96.96v24.32h-.08zm60.72-26h-24.4a1.69 1.69 0 0 0-1.68 1.68v24.4c0 .96.8 1.76 1.76 1.76h24.32c.96 0 1.76-.8 1.76-1.76v-24.4c-.08-.96-.8-1.68-1.76-1.68zm.88 26c0 .48-.4.96-.96.96H78.64c-.48 0-.96-.4-.96-.96v-24.4a.89.89 0 0 1 .88-.88h24.4c.48 0 .96.4.96.96v24.32h-.08z" fill="#bbc2c7"/><path d="M47.76 19.36c-.72 0-1.28.56-1.28 1.28v24.4c0 .72.56 1.36 1.36 1.36h24.32c.72 0 1.36-.56 1.36-1.36v-24.4c0-.72-.56-1.36-1.36-1.36l-24.4.08z" fill="#f0f1f2"/><path d="M69.92 29.76l-4.8-4.8-2.4-.48c0 1.52-1.2 2.72-2.8 2.72-1.52 0-2.8-1.2-2.8-2.72l-2.4.48-4.8 4.64 3.28 3.28 1.6-1.6v9.68h10.24v-9.44l1.52 1.52 3.36-3.28z" fill="#cbcfd1"/><path d="M72.16 46.64H47.84c-.96 0-1.76-.8-1.76-1.76V20.56a1.69 1.69 0 0 1 1.68-1.68h24.4c.96 0 1.76.8 1.76 1.76v24.32c-.08.96-.8 1.68-1.76 1.68zm-24.4-26.88a.89.89 0 0 0-.88.88v24.4c0 .48.4.96.96.96h24.32c.48 0 .96-.4.96-.96v-24.4c0-.48-.4-.96-.96-.96h-24.4v.08z" fill="#e6e7e8"/><path d="M112.16 32.4l-3.12-3.12a.53.53 0 0 0-.8 0 .53.53 0 0 0 0 .8l2.72 2.72-2.72 2.72a.53.53 0 0 0 0 .8.61.61 0 0 0 .4.16.61.61 0 0 0 .4-.16l3.12-3.12a.53.53 0 0 0 0-.8zm-100.4-3.12a.61.61 0 0 0-.4-.16.61.61 0 0 0-.4.16L7.84 32.4a.53.53 0 0 0 0 .8l3.12 3.12a.53.53 0 0 0 .8 0 .53.53 0 0 0 0-.8L9.04 32.8l2.72-2.72a.53.53 0 0 0 0-.8zm22.64-4.24l-2.4-.48c0 1.52-1.2 2.72-2.8 2.72-1.52 0-2.8-1.2-2.8-2.72l-2.4.48-4.8 4.64 3.28 3.28 1.6-1.6v9.68H34.4v-9.52l1.52 1.52 3.28-3.28-4.8-4.72zm61.6 0l-2.4-.48c0 1.52-1.2 2.72-2.8 2.72s-2.8-1.2-2.8-2.72l-2.4.48-4.8 4.64 3.28 3.28 1.6-1.6v9.68H96v-9.52l1.52 1.52 3.28-3.28-4.8-4.72z" fill="#8796a1"/></svg>