<svg xmlns="http://www.w3.org/2000/svg" width="120" height="142" fill="#8796a1" xmlns:v="https://vecta.io/nano"><path d="M40.72 105.6H17.68c-1.12 0-1.92.8-1.92 1.92v23.12c0 1.12.8 1.92 1.92 1.92H40.8c1.12 0 1.92-.8 1.92-1.92v-23.12c-.08-1.12-.8-1.92-2-1.92zm30.8 0H48.48c-1.12 0-1.92.8-1.92 1.92v23.12c0 1.12.8 1.92 1.92 1.92H71.6c1.12 0 1.92-.8 1.92-1.92v-23.12c-.08-1.12-.8-1.92-2-1.92zm30.8 0H79.28c-1.12 0-1.92.8-1.92 1.92v23.12c0 1.12.8 1.92 1.92 1.92h23.12c1.12 0 1.92-.8 1.92-1.92v-23.12c-.08-1.12-.8-1.92-2-1.92zm6.32 17.6c-.24 0-.48-.08-.72-.32-.4-.4-.4-.96 0-1.36l2.4-2.4-2.4-2.4c-.4-.4-.4-.96 0-1.36.16-.16.4-.32.72-.32s.48.08.72.32l3.12 3.12c.4.4.4.96 0 1.36l-3.12 3.12c-.24.08-.48.24-.72.24zm-97.28 0c-.24 0-.48-.08-.72-.32l-3.12-3.12c-.16-.16-.32-.4-.32-.72 0-.24.08-.48.32-.72l3.12-3.12c.16-.16.4-.32.72-.32.24 0 .48.08.72.32.4.4.4.96 0 1.36l-2.4 2.4 2.4 2.4c.4.4.4.96 0 1.36-.16.32-.4.48-.72.48zM109.6 9.84H10c-1.2 0-2.24.96-2.24 2.24v87.6c0 1.2.96 2.24 2.24 2.24h99.6c1.2 0 2.24-.96 2.24-2.24v-87.6c0-1.2-1.04-2.24-2.24-2.24z"/></svg>