<svg xmlns="http://www.w3.org/2000/svg" width="120" height="97" fill="none" xmlns:v="https://vecta.io/nano"><g clip-path="url(#B)"><mask id="A" maskUnits="userSpaceOnUse" x="0" y="0" width="120" height="97"><path d="M0 .6h120v96H0V.6z" fill="#fff"/></mask><g mask="url(#A)"><path d="M120 1.8H1.2v94.8H120V1.8z" fill="#fff"/><path d="M61.472 52.787a.91.91 0 0 1-.6-.24l-3-3c-.174-.175-.272-.413-.272-.66s.098-.485.272-.66l3-3c.179-.154.41-.234.645-.226s.46.107.627.274.265.391.274.627-.072.466-.226.645l-2.4 2.4 2.4 2.4c.174.175.272.413.272.66s-.098.485-.272.66c-.24 0-.48.12-.72.12z" fill="#fff"/><path d="M89.704 81h-57.01a2.68 2.68 0 0 1-1.033-.2c-.328-.134-.626-.333-.876-.583s-.449-.548-.584-.876-.203-.679-.201-1.033V21.292c-.002-.354.066-.705.201-1.033s.333-.625.584-.876.548-.448.876-.583.679-.202 1.033-.2h57.01c.354-.002.706.066 1.033.2s.626.333.876.583.449.548.584.876.203.679.201 1.033v56.956c.061 1.53-1.164 2.753-2.694 2.753z" fill="#a0aaaf"/><path d="M78.865 44.477l-8.45-8.442-4.225-.796c0 2.63-2.143 4.772-4.898 4.772s-4.898-2.141-4.898-4.772l-4.225.796-8.573 8.197 5.818 5.812 2.816-2.814v17.129h18.186V47.535l2.694 2.692 5.756-5.749z" fill="#fff"/><path opacity=".7" d="M81.978 35.68a6.61 6.61 0 0 0 6.613-6.607c0-1.754-.697-3.436-1.937-4.676s-2.922-1.937-4.676-1.937-3.436.697-4.676 1.937-1.937 2.922-1.937 4.676a6.61 6.61 0 0 0 6.613 6.607z" fill="#000"/><path d="M83.876 29.867c-.122-.122-.122-.245-.061-.367a2.91 2.91 0 0 0-.612-3.242c-.551-.551-1.409-.857-2.204-.857-.857.061-1.592.428-2.082 1.102-.416.51-.642 1.147-.642 1.805s.227 1.295.642 1.805c.796 1.04 2.266 1.346 3.43.857.122-.061.245 0 .367.061l1.409 1.406c.184.184.367.245.612.245.184 0 .367-.061.551-.184s.245-.367.245-.612-.061-.428-.245-.612l-1.409-1.406zm-1.409-.245c-.673.673-1.837.673-2.51 0a1.81 1.81 0 0 1 0-2.508c.367-.367.796-.551 1.286-.551s.918.184 1.286.551c.612.673.611 1.775-.062 2.508z" fill="#fff"/></g></g><defs><clipPath id="B"><path fill="#fff" transform="translate(0 .6)" d="M0 0h120v96H0z"/></clipPath></defs></svg>