<svg xmlns="http://www.w3.org/2000/svg" xmlns:xlink="http://www.w3.org/1999/xlink" width="120" height="97" fill="none" xmlns:v="https://vecta.io/nano"><path d="M75.6 76.2H25.2a2.41 2.41 0 0 1-2.4-2.4V23.4a2.41 2.41 0 0 1 2.4-2.4h50.4a2.41 2.41 0 0 1 2.4 2.4v50.4a2.41 2.41 0 0 1-2.4 2.4z" fill="#8796a1"/><path d="M66 43.8l-7.44-7.44-3.72-.72c0 2.28-1.92 4.2-4.32 4.2s-4.32-1.92-4.32-4.2l-3.72.72-7.68 7.44 5.16 5.16 2.52-2.52v15.12h16.08v-15l2.4 2.4L66 43.8z" fill="#fff"/><path d="M96 37.8H81.6a1.13 1.13 0 0 1-1.2-1.2V22.2a1.13 1.13 0 0 1 1.2-1.2H96a1.13 1.13 0 0 1 1.2 1.2v14.4a1.13 1.13 0 0 1-1.2 1.2z" fill="#8796a1"/><use xlink:href="#B" fill="#fff"/><path d="M96 57H81.6a1.13 1.13 0 0 1-1.2-1.2V41.4a1.13 1.13 0 0 1 1.2-1.2H96a1.13 1.13 0 0 1 1.2 1.2v14.4A1.13 1.13 0 0 1 96 57z" fill="#8796a1"/><use xlink:href="#B" y="19.2" fill="#fff"/><path d="M96 76.2H81.6a1.13 1.13 0 0 1-1.2-1.2V60.6a1.13 1.13 0 0 1 1.2-1.2H96a1.13 1.13 0 0 1 1.2 1.2V75a1.13 1.13 0 0 1-1.2 1.2z" fill="#8796a1"/><path d="M94.8 66l-2.88-2.88-1.44-.24c0 .84-.72 1.56-1.68 1.56s-1.68-.72-1.68-1.56l-1.44.24L82.8 66l1.92 1.92.96-.96v5.76h6.24v-5.76l.96.96L94.8 66zM71.04 52.44c-.24 0-.48-.12-.6-.24-.36-.36-.36-.96 0-1.32l2.4-2.4-2.4-2.4c-.36-.36-.36-.96 0-1.32s.96-.36 1.32 0l3 3c.36.36.36.96 0 1.32l-3.12 3.12c-.12.24-.36.24-.6.24zm-41.28 0c-.24 0-.48-.12-.6-.24l-3-3c-.36-.36-.36-.96 0-1.32l3-3c.36-.36.96-.36 1.32 0s.36.96 0 1.32l-2.4 2.4 2.4 2.4c.36.36.36.96 0 1.32-.24.12-.48.12-.72.12z" fill="#fff"/><defs ><path id="B" d="M94.8 27.6l-2.88-2.88-1.44-.24c0 .84-.72 1.56-1.68 1.56s-1.68-.72-1.68-1.56l-1.44.24-2.88 2.88 1.92 1.92.96-.96v5.76h6.24v-5.76l.96.96 1.92-1.92z"/></defs></svg>