<svg xmlns="http://www.w3.org/2000/svg" width="48" height="48" fill="none" xmlns:v="https://vecta.io/nano"><g clip-path="url(#B)"><path d="M44.963 48H3.038C1.35 48 0 46.65 0 44.963V3.038C0 1.35 1.35 0 3.038 0h41.925C46.65 0 48 1.35 48 3.038v41.925C48 46.65 46.65 48 44.963 48z" fill="url(#A)"/><g opacity=".85" fill="#fff"><path d="M34.013 21.037c.487.712 1.5.862 2.212.375s.862-1.5.375-2.213L28.988 8.775c-.488-.713-1.5-.863-2.213-.375s-.862 1.5-.375 2.212l7.613 10.425zm-22.238.375c.713.487 1.725.375 2.213-.375l7.537-10.388c.488-.713.375-1.725-.375-2.213-.712-.487-1.725-.375-2.212.375L11.4 19.162c-.488.712-.338 1.725.375 2.25z"/><path d="M40.013 23.475H7.987a2.61 2.61 0 0 1-2.625-2.625v-.263a2.61 2.61 0 0 1 2.625-2.625h32.025a2.61 2.61 0 0 1 2.625 2.625v.263c0 1.462-1.2 2.625-2.625 2.625z"/><path d="M8.362 23.212l3.975 15c.262 1.012 1.125 1.65 2.137 1.65H33.6c.975 0 1.837-.638 2.137-1.65l3.9-15H8.362zm18 8.738c0 .3-.225.525-.45.525h-7.125c-.263 0-.45-.225-.45-.525v-6.3c0-.3.225-.525.45-.525h7.125c.262 0 .45.262.45.525v6.3zm3.337 0c0 .3-.225.525-.488.525H27.3v-7.387h1.912c.263 0 .488.263.488.525v6.337z"/></g></g><defs><linearGradient id="A" x1=".892" y1="47.108" x2="47.108" y2=".892" gradientUnits="userSpaceOnUse"><stop stop-color="#912968"/><stop offset="1" stop-color="#cc2b5e"/></linearGradient><clipPath id="B"><path fill="#fff" d="M0 0h48v48H0z"/></clipPath></defs></svg>