<svg width="48" height="48" viewBox="0 0 48 48" fill="none" xmlns="http://www.w3.org/2000/svg">
<g clip-path="url(#clip0_596_10220)">
<path d="M45.75 48H2.25C1.0125 48 0 46.9875 0 45.75V2.25C0 1.0125 1.0125 0 2.25 0H45.75C46.9875 0 48 1.0125 48 2.25V45.75C48 46.9875 46.9875 48 45.75 48Z" fill="url(#paint0_linear_596_10220)"/>
<g opacity="0.5">
<path d="M41.5125 41.8125H8.51251C7.27501 41.8125 6.26251 40.8 6.26251 39.5625V10.3125C6.26251 9.075 7.27501 8.0625 8.51251 8.0625H41.5125C42.75 8.0625 43.7625 9.075 43.7625 10.3125V39.5625C43.7625 40.8 42.75 41.8125 41.5125 41.8125Z" fill="black"/>
</g>
<path d="M40.575 40.875H7.57501C6.33751 40.875 5.32501 39.8625 5.32501 38.625V9.375C5.32501 8.1375 6.33751 7.125 7.57501 7.125H40.575C41.8125 7.125 42.825 8.1375 42.825 9.375V38.625C42.825 39.8625 41.8125 40.875 40.575 40.875Z" fill="#F0FBFF"/>
<path d="M23.025 20.6813L21.5062 23.175C21.4687 23.25 21.375 23.2688 21.3 23.2313L19.875 22.5375V30.7125C19.875 30.75 19.8562 30.7875 19.8375 30.825C19.8187 30.8625 19.7625 30.8625 19.725 30.8625H11.4937C11.4 30.8625 11.3437 30.7875 11.3437 30.7125V22.5375L10.0687 23.1375C9.99374 23.175 9.91874 23.1563 9.88124 23.0813L8.23124 20.6813C8.19374 20.625 8.19374 20.5313 8.24999 20.475L11.5312 17.6813C11.55 17.6625 11.5687 17.6625 11.6062 17.6438L13.5937 17.1563C13.65 17.1375 13.7062 17.1563 13.7437 17.1938C15.0187 18.4875 16.2937 18.4875 17.6437 17.1938C17.6812 17.1563 17.7375 17.1375 17.775 17.1563L19.9125 17.6813C19.9407 17.686 19.9668 17.699 19.9875 17.7188L23.025 20.475C23.0625 20.5313 23.0812 20.6063 23.025 20.6813Z" fill="#08477C"/>
<path d="M25.7062 17.7749H33.75C33.825 17.7749 33.9 17.8499 33.9 17.9249V18.6749C33.9 18.7499 33.825 18.8249 33.75 18.8249H25.7062C25.6312 18.8249 25.5562 18.7499 25.5562 18.6749V17.9249C25.5562 17.8499 25.6312 17.7749 25.7062 17.7749Z" fill="#3E585F"/>
<path d="M25.6312 20.5125H39.8812C39.9187 20.5125 39.9562 20.55 39.9562 20.5875V21.2625C39.9562 21.3 39.9187 21.3375 39.8812 21.3375H25.6312C25.5937 21.3375 25.5562 21.3 25.5562 21.2625V20.5875C25.5562 20.55 25.5937 20.5125 25.6312 20.5125ZM25.6312 22.6312H39.8812C39.9187 22.6312 39.9562 22.6687 39.9562 22.7062V23.3812C39.9562 23.4187 39.9187 23.4562 39.8812 23.4562H25.6312C25.5937 23.4562 25.5562 23.4187 25.5562 23.3812V22.7062C25.5562 22.6687 25.5937 22.6312 25.6312 22.6312ZM25.6312 24.75H35.4187C35.4562 24.75 35.4937 24.7874 35.4937 24.8249V25.5C35.4937 25.5375 35.4562 25.5749 35.4187 25.5749H25.6312C25.5937 25.5749 25.5562 25.5375 25.5562 25.5V24.8249C25.5562 24.7874 25.5937 24.75 25.6312 24.75Z" fill="#83A2AA"/>
<path d="M26.85 27.6375H30.6375C31.35 27.6375 31.9312 28.2187 31.9312 28.9312C31.9312 29.6437 31.35 30.225 30.6375 30.225H26.85C26.1375 30.225 25.5562 29.6437 25.5562 28.9312C25.5562 28.2187 26.1375 27.6375 26.85 27.6375Z" fill="#2DC952"/>
<path d="M27.4313 28.5563H30.0563C30.0688 28.5555 30.0813 28.5574 30.0931 28.5618C30.1048 28.5662 30.1155 28.5731 30.1244 28.582C30.1333 28.5908 30.1401 28.6015 30.1446 28.6133C30.149 28.625 30.1508 28.6376 30.15 28.6501V29.2126C30.1508 29.2251 30.149 29.2377 30.1446 29.2494C30.1401 29.2612 30.1333 29.2718 30.1244 29.2807C30.1155 29.2896 30.1048 29.2965 30.0931 29.3009C30.0813 29.3053 30.0688 29.3072 30.0563 29.3063H27.4313C27.4187 29.3072 27.4062 29.3053 27.3944 29.3009C27.3827 29.2965 27.372 29.2896 27.3631 29.2807C27.3542 29.2718 27.3474 29.2612 27.343 29.2494C27.3385 29.2377 27.3367 29.2251 27.3375 29.2126V28.6501C27.3367 28.6376 27.3385 28.625 27.343 28.6133C27.3474 28.6015 27.3542 28.5908 27.3631 28.582C27.372 28.5731 27.3827 28.5662 27.3944 28.5618C27.4062 28.5574 27.4187 28.5555 27.4313 28.5563Z" fill="white"/>
<path d="M39.9375 10.2188L40.4625 9.69375C40.5188 9.6375 40.5188 9.54375 40.4625 9.4875L40.3875 9.4125C40.3312 9.35625 40.2375 9.35625 40.1813 9.4125L39.6562 9.9375L39.1312 9.4125C39.075 9.35625 38.9813 9.35625 38.925 9.4125L38.85 9.4875C38.7937 9.54375 38.7937 9.6375 38.85 9.69375L39.375 10.2188L38.85 10.7437C38.7937 10.8 38.7937 10.8938 38.85 10.95L38.925 11.025C38.9813 11.0812 39.075 11.0812 39.1312 11.025L39.6562 10.5L40.1813 11.025C40.2375 11.0812 40.3312 11.0812 40.3875 11.025L40.4625 10.95C40.5188 10.8938 40.5188 10.8 40.4625 10.7437L39.9375 10.2188ZM39.6562 12.1875C39.1341 12.1875 38.6333 11.9801 38.2641 11.6109C37.8949 11.2417 37.6875 10.7409 37.6875 10.2188C37.6875 9.69661 37.8949 9.19585 38.2641 8.82663C38.6333 8.45742 39.1341 8.25 39.6562 8.25C40.1784 8.25 40.6792 8.45742 41.0484 8.82663C41.4176 9.19585 41.625 9.69661 41.625 10.2188C41.625 10.7409 41.4176 11.2417 41.0484 11.6109C40.6792 11.9801 40.1784 12.1875 39.6562 12.1875ZM39.6562 8.56875C38.7375 8.56875 38.0062 9.31875 38.0062 10.2188C38.0062 11.1188 38.7562 11.8687 39.6562 11.8687C40.5563 11.8687 41.3063 11.1188 41.3063 10.2188C41.3063 9.31875 40.575 8.56875 39.6562 8.56875Z" fill="#83A2AA"/>
</g>
<defs>
<linearGradient id="paint0_linear_596_10220" x1="0.659062" y1="0.659062" x2="47.3409" y2="47.3409" gradientUnits="userSpaceOnUse">
<stop stop-color="#145A9D"/>
<stop offset="1" stop-color="#1E8AD4"/>
</linearGradient>
<clipPath id="clip0_596_10220">
<rect width="48" height="48" fill="white"/>
</clipPath>
</defs>
</svg>
