<svg xmlns="http://www.w3.org/2000/svg" width="125" height="125" fill="none" xmlns:v="https://vecta.io/nano"><g clip-path="url(#B)"><path d="M119.141 125H5.859A5.88 5.88 0 0 1 0 119.141V5.859A5.88 5.88 0 0 1 5.859 0h113.282A5.88 5.88 0 0 1 125 5.859v113.282a5.88 5.88 0 0 1-5.859 5.859z" fill="url(#A)"/><g opacity=".8"><path d="M105.762 113.867H24.121c-3.076 0-5.566-2.929-5.566-6.543V22.51c0-3.564 2.49-6.543 5.566-6.543h81.641c3.076 0 5.566 2.93 5.566 6.543v84.814c0 3.614-2.49 6.543-5.566 6.543z" fill="#23194c"/></g><path d="M103.32 111.426H21.68c-3.076 0-5.566-2.93-5.566-6.543V20.068c0-3.564 2.49-6.543 5.566-6.543h81.64c3.076 0 5.567 2.93 5.567 6.543v84.815c0 3.613-2.491 6.543-5.567 6.543z" fill="#f0fbff"/><path d="M28.955 20.264h67.09c1.904 0 3.418 1.514 3.418 3.32v58.74c0 1.855-1.514 3.32-3.418 3.32h-67.09c-1.904 0-3.418-1.514-3.418-3.32v-58.74c0-1.855 1.514-3.32 3.418-3.32z" fill="#93b1c9"/><path d="M86.182 42.285l-4.883 8.008c-.098.244-.439.293-.684.195l-4.541-2.246v26.172c0 .098-.049.244-.098.342s-.244.098-.342.098H49.268a.49.49 0 0 1-.488-.488V48.242l-4.102 1.904c-.244.098-.488.049-.586-.195l-5.322-7.666a.69.69 0 0 1 .049-.684l10.547-8.887c.049-.049.098-.049.244-.098l6.348-1.562c.195-.049.342 0 .488.098 4.102 4.15 8.154 4.15 12.5 0 .098-.098.293-.195.439-.098l6.836 1.66c.049 0 .195.049.244.098l9.717 8.838c.098.195.195.391 0 .635z" fill="#09347a"/><path d="M27.148 88.135H40.43c.219-.002.435.04.638.122a1.65 1.65 0 0 1 .9.9c.083.202.124.419.122.638v13.281c.002.219-.04.436-.122.638s-.205.386-.36.541a1.66 1.66 0 0 1-.541.359 1.64 1.64 0 0 1-.638.122H27.148a1.64 1.64 0 0 1-.638-.122c-.202-.083-.386-.205-.541-.359s-.277-.339-.359-.541-.124-.419-.122-.638V89.795c.049-.879.781-1.66 1.66-1.66z" fill="#b9cddb"/><path d="M39.697 93.799l-1.221 2.002c-.049.049-.098.098-.146.049l-1.123-.537v6.495c0 .048 0 .048-.049.097 0 .049-.049.049-.098.049h-6.543c-.098 0-.098-.049-.098-.098v-6.494l-1.025.488c-.049.049-.098 0-.146-.049l-1.318-1.904a.09.09 0 0 1 0-.147l2.637-2.246s.049 0 .049-.049l1.563-.391c.049 0 .098 0 .098.049 1.025 1.025 2.051 1.025 3.125 0 .049-.049.098-.049.098-.049l1.709.439s.049 0 .049.049l2.441 2.197c.049-.049.049 0 0 .049z" fill="#32ad4c"/><path d="M46.289 88.135H59.57c.219-.002.435.04.638.122a1.65 1.65 0 0 1 .9.9c.083.202.124.419.122.638v13.281c.002.219-.04.436-.122.638s-.205.386-.359.541a1.66 1.66 0 0 1-.541.359 1.64 1.64 0 0 1-.638.122H46.289a1.64 1.64 0 0 1-.638-.122c-.202-.083-.386-.205-.541-.359s-.277-.339-.359-.541-.124-.419-.122-.638V89.795a1.68 1.68 0 0 1 1.66-1.66z" fill="#b9cddb"/><path d="M58.838 93.799l-1.221 2.002c-.049.049-.098.098-.146.049l-1.123-.537v6.495c0 .048 0 .048-.049.097 0 .049-.049.049-.098.049h-6.543c-.098 0-.098-.049-.098-.098v-6.494l-1.025.488c-.049.049-.098 0-.147-.049l-1.318-1.904a.09.09 0 0 1 0-.147l2.637-2.246s.049 0 .049-.049l1.563-.391c.049 0 .098 0 .098.049 1.025 1.025 2.051 1.025 3.125 0 .049-.049.098-.049.098-.049l1.709.439s.049 0 .049.049l2.441 2.197c0-.049.049 0 0 .049z" fill="#8e0774"/><path d="M65.43 88.135h13.281c.219-.002.435.04.638.122s.386.205.541.359.277.338.359.541.124.419.122.638v13.281c.002.219-.04.436-.122.638s-.205.386-.359.541-.338.276-.541.359a1.64 1.64 0 0 1-.638.122H65.43a1.64 1.64 0 0 1-.638-.122 1.66 1.66 0 0 1-.541-.359c-.154-.155-.277-.339-.36-.541s-.124-.419-.122-.638V89.795a1.68 1.68 0 0 1 1.66-1.66z" fill="#b9cddb" stroke="#362063" stroke-width=".75" stroke-miterlimit="10"/><path d="M77.93 93.799l-1.221 2.002c-.049.049-.098.098-.147.049l-1.123-.537v6.495c0 .048 0 .048-.049.097 0 .049-.049.049-.098.049H68.75c-.098 0-.098-.049-.098-.098v-6.494l-1.025.488c-.049.049-.098 0-.146-.049l-1.318-1.904a.09.09 0 0 1 0-.147l2.637-2.246s.049 0 .049-.049l1.563-.391c.049 0 .098 0 .098.049 1.025 1.025 2.051 1.025 3.125 0 .049-.049.098-.049.098-.049l1.709.439s.049 0 .049.049l2.441 2.197c.049-.049.049 0 0 .049z" fill="#09347a"/><path d="M84.522 88.135h13.281c.219-.002.435.04.638.122s.386.205.541.359.277.338.36.541.124.419.122.638v13.281c.002.219-.04.436-.122.638s-.205.386-.36.541-.338.276-.541.359a1.64 1.64 0 0 1-.638.122H84.522a1.64 1.64 0 0 1-.638-.122 1.66 1.66 0 0 1-.541-.359c-.154-.155-.277-.339-.359-.541s-.124-.419-.122-.638V89.795c0-.879.781-1.66 1.66-1.66z" fill="#b9cddb"/><path d="M97.07 93.799l-1.221 2.002c-.049.049-.098.098-.146.049l-1.123-.537v6.495c0 .048 0 .048-.049.097 0 .049-.049.049-.098.049h-6.543c-.098 0-.098-.049-.098-.098v-6.494l-1.025.488c-.049.049-.098 0-.147-.049l-1.318-1.904a.09.09 0 0 1 0-.147l2.637-2.246s.049 0 .049-.049l1.563-.391c.049 0 .098 0 .098.049 1.025 1.025 2.051 1.025 3.125 0 .049-.049.098-.049.098-.049l1.709.439s.049 0 .049.049l2.441 2.197c.049-.049.049 0 0 .049z" fill="#ec4739"/><path opacity=".6" d="M97.852 104.736h-.733V88.135h.733c.218-.002.435.04.638.122s.386.205.541.359.277.338.36.541.124.419.122.638v13.281c-.049.928-.781 1.66-1.66 1.66z" fill="#09347a"/><path d="M98.828 96.533c.023-.017.042-.039.055-.064s.02-.054.02-.082-.007-.057-.02-.082a.18.18 0 0 0-.055-.064l-.83-.83a.18.18 0 0 0-.146-.075c-.029 0-.057.007-.082.02a.18.18 0 0 0-.064.055.18.18 0 0 0 0 .293l.684.684-.684.684a.18.18 0 0 0 0 .293.18.18 0 0 0 .064.055c.025.013.054.02.082.02a.18.18 0 0 0 .146-.075l.83-.83z" fill="#fff"/><path opacity=".6" d="M27.148 104.736h.733V88.135h-.733c-.218-.002-.435.04-.638.122s-.386.205-.541.359-.277.338-.359.541-.124.419-.122.638v13.281c.049.928.781 1.66 1.66 1.66z" fill="#09347a"/><path d="M27.002 97.412a.18.18 0 0 0 .293 0 .18.18 0 0 0 .055-.064c.013-.025.02-.054.02-.082a.18.18 0 0 0-.075-.147l-.684-.684.684-.684a.18.18 0 0 0 .075-.146c0-.029-.007-.057-.02-.082a.18.18 0 0 0-.055-.064.18.18 0 0 0-.293 0l-.83.83c-.023.017-.042.039-.055.064a.18.18 0 0 0-.02.082c0 .029.007.057.02.082s.032.047.055.064l.83.83z" fill="#fff"/><g opacity=".5"><path d="M95.508 53.174c.047-.054.073-.123.073-.195s-.026-.141-.073-.195l-1.27-1.221c-.098-.098-.293-.098-.439 0-.047.054-.073.123-.073.195s.026.141.073.195l1.025 1.025-1.025 1.025c-.047.054-.073.123-.073.195s.026.141.073.195c.098.098.293.098.439 0l1.27-1.221zm.83 2.49h-3.369a.98.98 0 0 1-.977-.977V51.27a.98.98 0 0 1 .977-.977h3.369a.98.98 0 0 1 .977.977v3.369c.049.537-.439 1.025-.977 1.025zm-3.369-4.883a.49.49 0 0 0-.488.488v3.369a.49.49 0 0 0 .488.488h3.369a.49.49 0 0 0 .488-.488V51.27a.49.49 0 0 0-.488-.488h-3.369z" fill="#281266"/></g><g opacity=".5"><path d="M30.664 54.395c.098.098.293.098.439 0 .047-.054.073-.123.073-.195s-.026-.141-.073-.195l-1.025-1.025 1.025-1.025c.047-.054.073-.123.073-.195s-.026-.141-.073-.195c-.098-.098-.293-.098-.439 0l-1.27 1.221c-.047.054-.073.123-.073.195s.026.141.073.195l1.27 1.221zm-3.125.244V51.27a.98.98 0 0 1 .976-.977h3.369a.98.98 0 0 1 .977.977v3.369a.98.98 0 0 1-.977.977h-3.369c-.537.049-.976-.439-.976-.977zm.976-3.857a.49.49 0 0 0-.488.488v3.369a.49.49 0 0 0 .488.488h3.369a.49.49 0 0 0 .488-.488V51.27a.49.49 0 0 0-.488-.488h-3.369z" fill="#281266"/></g></g><defs><linearGradient id="A" x1="1.721" y1="1.721" x2="123.279" y2="123.279" gradientUnits="userSpaceOnUse"><stop stop-color="#281266"/><stop offset=".312" stop-color="#3a1f75"/><stop offset=".933" stop-color="#68429c"/><stop offset="1" stop-color="#6d46a1"/></linearGradient><clipPath id="B"><path fill="#fff" d="M0 0h125v125H0z"/></clipPath></defs></svg>