<svg xmlns="http://www.w3.org/2000/svg" width="120" height="65" fill="none" xmlns:v="https://vecta.io/nano"><path d="M72.16 46.68H47.84a1.95 1.95 0 0 1-1.92-1.92v-24.4a1.81 1.81 0 0 1 1.84-1.84h24.4a1.95 1.95 0 0 1 1.92 1.92v24.32a1.95 1.95 0 0 1-1.92 1.92zm-24.4-26.96a.63.63 0 0 0-.64.64v24.4c0 .4.32.72.72.72h24.32c.4 0 .72-.32.72-.72V20.44c0-.4-.32-.72-.72-.72h-24.4z" fill="#0085ba"/><path d="M41.36 19.16H17.04c-.72 0-1.36.56-1.36 1.36v24.32c0 .72.56 1.36 1.36 1.36h24.32c.72 0 1.36-.56 1.36-1.36V20.52c-.08-.8-.64-1.36-1.36-1.36zM68.72 23H51.2c-.48 0-.8.4-.8.8v17.6c0 .48.4.8.8.8h17.52c.48 0 .8-.4.8-.8V23.8c.08-.4-.32-.8-.8-.8zm34.24-3.84h-24.4c-.72 0-1.28.56-1.28 1.28v24.4c0 .72.56 1.36 1.36 1.36h24.32c.72 0 1.36-.56 1.36-1.36v-24.4c-.08-.72-.64-1.28-1.36-1.28z" fill="#d8dadb"/><path d="M112.16 32.2l-3.12-3.12a.53.53 0 0 0-.8 0 .53.53 0 0 0 0 .8l2.72 2.72-2.72 2.72a.53.53 0 0 0 0 .8.61.61 0 0 0 .4.16.61.61 0 0 0 .4-.16l3.12-3.12a.53.53 0 0 0 0-.8zm-100.4-3.12a.61.61 0 0 0-.4-.16.61.61 0 0 0-.4.16L7.84 32.2a.53.53 0 0 0 0 .8l3.12 3.12a.53.53 0 0 0 .8 0 .53.53 0 0 0 0-.8L9.04 32.6l2.72-2.72a.53.53 0 0 0 0-.8zm52.16-2.4l-1.84-.32c0 1.12-.88 2.08-2.08 2.08s-2.08-.88-2.08-2.08l-1.84.32-3.6 3.52 2.48 2.48 1.2-1.2v7.36h7.76v-7.2l1.12 1.12 2.48-2.48-3.6-3.6zM34.4 24.84l-2.4-.48c0 1.52-1.2 2.72-2.8 2.72-1.52 0-2.8-1.2-2.8-2.72l-2.4.48-4.8 4.64 3.28 3.28 1.6-1.6v9.68H34.4v-9.52l1.52 1.52 3.28-3.28-4.8-4.72zm61.6 0l-2.4-.48c0 1.52-1.2 2.72-2.8 2.72s-2.8-1.2-2.8-2.72l-2.4.48-4.8 4.64 3.28 3.28 1.6-1.6v9.68H96v-9.52l1.52 1.52 3.28-3.28-4.8-4.72z" fill="#8796a1"/></svg>