<svg width="80" height="80" viewBox="0 0 80 80" fill="none" xmlns="http://www.w3.org/2000/svg">
<rect x="0.5" y="0.5" width="79" height="79" rx="1.5" fill="white" stroke="#8796A1"/>
<path opacity="0.25" d="M73.9612 29.9417L57.6505 13.6311L49.4951 12C49.4951 17.165 45.4175 21.2427 39.9806 21.2427C34.8155 21.2427 30.466 17.165 30.466 12L22.3107 13.6311L6 29.3981L17.1456 40.5437L22.5825 35.1068V68H57.3786V35.9223L62.5437 41.0874L73.9612 29.9417Z" fill="#8796A1"/>
<g clip-path="url(#clip0_741_10235)">
<path d="M16 54C10.5 54 6 58.5 6 64C6 69.5 10.5 74 16 74C21.5 74 26 69.5 26 64C26 58.5 21.5 54 16 54ZM20.25 64.5L14 68C13.5833 68.25 13.0833 68 13.0833 67.5V60.5C13.0833 60 13.5833 59.75 14 60L20.25 63.5C20.6667 63.75 20.6667 64.3333 20.25 64.5833V64.5Z" fill="#8796A1"/>
</g>
<defs>
<clipPath id="clip0_741_10235">
<rect width="20" height="20" fill="white" transform="translate(6 54)"/>
</clipPath>
</defs>
</svg>
