<svg width="80" height="80" viewBox="0 0 80 80" fill="none" xmlns="http://www.w3.org/2000/svg">
<rect x="0.5" y="0.5" width="79" height="79" rx="1.5" fill="white" stroke="#8796A1"/>
<path opacity="0.25" d="M73.9612 29.9417L57.6505 13.6311L49.4951 12C49.4951 17.165 45.4175 21.2427 39.9806 21.2427C34.8155 21.2427 30.466 17.165 30.466 12L22.3107 13.6311L6 29.3981L17.1456 40.5437L22.5825 35.1068V68H57.3786V35.9223L62.5437 41.0874L73.9612 29.9417Z" fill="#8796A1"/>
<g clip-path="url(#clip0_741_10219)">
<path d="M40 30C34.5 30 30 34.5 30 40C30 45.5 34.5 50 40 50C45.5 50 50 45.5 50 40C50 34.5 45.5 30 40 30ZM44.25 40.5L38 44C37.5833 44.25 37.0833 44 37.0833 43.5V36.5C37.0833 36 37.5833 35.75 38 36L44.25 39.5C44.6667 39.75 44.6667 40.3333 44.25 40.5833V40.5Z" fill="#8796A1"/>
</g>
<defs>
<clipPath id="clip0_741_10219">
<rect width="20" height="20" fill="white" transform="translate(30 30)"/>
</clipPath>
</defs>
</svg>
