<svg width="80" height="80" viewBox="0 0 80 80" fill="none" xmlns="http://www.w3.org/2000/svg">
<rect x="0.5" y="0.5" width="79" height="79" rx="1.5" fill="white" stroke="#8796A1"/>
<path opacity="0.25" d="M73.9612 29.9417L57.6505 13.6311L49.4951 12C49.4951 17.165 45.4175 21.2427 39.9806 21.2427C34.8155 21.2427 30.466 17.165 30.466 12L22.3107 13.6311L6 29.3981L17.1456 40.5437L22.5825 35.1068V68H57.3786V35.9223L62.5437 41.0874L73.9612 29.9417Z" fill="#8796A1"/>
<g clip-path="url(#clip0_741_10227)">
<path d="M64 6C58.5 6 54 10.5 54 16C54 21.5 58.5 26 64 26C69.5 26 74 21.5 74 16C74 10.5 69.5 6 64 6ZM68.25 16.5L62 20C61.5833 20.25 61.0833 20 61.0833 19.5V12.5C61.0833 12 61.5833 11.75 62 12L68.25 15.5C68.6667 15.75 68.6667 16.3333 68.25 16.5833V16.5Z" fill="#8796A1"/>
</g>
<defs>
<clipPath id="clip0_741_10227">
<rect width="20" height="20" fill="white" transform="translate(54 6)"/>
</clipPath>
</defs>
</svg>
