<svg width="80" height="80" viewBox="0 0 80 80" fill="none" xmlns="http://www.w3.org/2000/svg">
<rect x="0.5" y="0.5" width="79" height="79" rx="1.5" fill="white" stroke="#8796A1"/>
<path opacity="0.25" d="M73.9612 29.9417L57.6505 13.6311L49.4951 12C49.4951 17.165 45.4175 21.2427 39.9806 21.2427C34.8155 21.2427 30.466 17.165 30.466 12L22.3107 13.6311L6 29.3981L17.1456 40.5437L22.5825 35.1068V68H57.3786V35.9223L62.5437 41.0874L73.9612 29.9417Z" fill="#8796A1"/>
<g clip-path="url(#clip0_741_10221)">
<path d="M16 6C10.5 6 6 10.5 6 16C6 21.5 10.5 26 16 26C21.5 26 26 21.5 26 16C26 10.5 21.5 6 16 6ZM20.25 16.5L14 20C13.5833 20.25 13.0833 20 13.0833 19.5V12.5C13.0833 12 13.5833 11.75 14 12L20.25 15.5C20.6667 15.75 20.6667 16.3333 20.25 16.5833V16.5Z" fill="#8796A1"/>
</g>
<defs>
<clipPath id="clip0_741_10221">
<rect width="20" height="20" fill="white" transform="translate(6 6)"/>
</clipPath>
</defs>
</svg>
