<svg width="85" height="85" viewBox="0 0 85 85" fill="none" xmlns="http://www.w3.org/2000/svg">
<rect x="5" y="5" width="75" height="75" rx="2" fill="#8796A1"/>
<path d="M63.6956 33.3288L53.5869 23.2201L48.5326 22.2418C48.5326 25.3396 45.9239 27.9483 42.663 27.9483C39.4021 27.9483 36.7935 25.3396 36.7935 22.2418L31.7391 23.2201L21.3043 33.1657L28.3152 40.1766L31.7391 36.7527V57.2962H53.5869V37.0788L56.8478 40.3396L63.6956 33.3288Z" fill="white"/>
<rect x="10" y="65" width="10" height="10" fill="#32383C"/>
<path d="M16.2141 73.125C16.0225 73.125 15.8309 73.0292 15.7352 72.9334L13.3405 70.5388C13.0532 70.2514 13.0532 69.7725 13.3405 69.4852L15.7352 67.0905C16.0225 66.8032 16.5014 66.8032 16.7888 67.0905C17.0762 67.3779 17.0762 67.8568 16.7888 68.1442L14.8731 70.0599L16.7888 71.9756C17.0762 72.2629 17.0762 72.7419 16.7888 73.0292C16.5972 73.0292 16.4057 73.125 16.2141 73.125Z" fill="#F3F3F3"/>
<rect x="33.125" y="74.9999" width="10" height="10" transform="rotate(180 33.125 74.9999)" fill="#32383C"/>
<path d="M26.9109 66.8749C27.1025 66.8749 27.2941 66.9707 27.3898 67.0665L29.7845 69.4611C30.0718 69.7485 30.0718 70.2274 29.7845 70.5148L27.3898 72.9094C27.1025 73.1968 26.6236 73.1968 26.3362 72.9094C26.0488 72.6221 26.0488 72.1431 26.3362 71.8558L28.2519 69.9401L26.3362 68.0244C26.0488 67.737 26.0488 67.2581 26.3362 66.9707C26.5278 66.9707 26.7193 66.8749 26.9109 66.8749Z" fill="#F3F3F3"/>
</svg>
