<svg width="85" height="85" viewBox="0 0 85 85" fill="none" xmlns="http://www.w3.org/2000/svg">
<rect x="5" y="5" width="75" height="75" rx="2" fill="#8796A1"/>
<path d="M63.6956 33.3288L53.5869 23.2201L48.5326 22.2418C48.5326 25.3396 45.9239 27.9483 42.663 27.9483C39.4021 27.9483 36.7935 25.3396 36.7935 22.2418L31.7391 23.2201L21.3043 33.1657L28.3152 40.1766L31.7391 36.7527V57.2962H53.5869V37.0788L56.8478 40.3396L63.6956 33.3288Z" fill="white"/>
<rect x="51.875" y="65" width="10" height="10" fill="#32383C"/>
<path d="M58.0891 73.125C57.8975 73.125 57.7059 73.0292 57.6102 72.9334L55.2155 70.5388C54.9282 70.2514 54.9282 69.7725 55.2155 69.4852L57.6102 67.0905C57.8975 66.8032 58.3764 66.8032 58.6638 67.0905C58.9512 67.3779 58.9512 67.8568 58.6638 68.1442L56.7481 70.0599L58.6638 71.9756C58.9512 72.2629 58.9512 72.7419 58.6638 73.0292C58.4722 73.0292 58.2807 73.125 58.0891 73.125Z" fill="#F3F3F3"/>
<rect x="75" y="75" width="10" height="10" transform="rotate(180 75 75)" fill="#32383C"/>
<path d="M68.7859 66.875C68.9775 66.875 69.1691 66.9708 69.2648 67.0666L71.6595 69.4612C71.9468 69.7486 71.9468 70.2275 71.6595 70.5148L69.2648 72.9095C68.9775 73.1968 68.4986 73.1968 68.2112 72.9095C67.9238 72.6221 67.9238 72.1432 68.2112 71.8558L70.1269 69.9401L68.2112 68.0244C67.9238 67.7371 67.9238 67.2581 68.2112 66.9708C68.4028 66.9708 68.5943 66.875 68.7859 66.875Z" fill="#F3F3F3"/>
</svg>
