<svg width="85" height="85" viewBox="0 0 85 85" fill="none" xmlns="http://www.w3.org/2000/svg">
<rect x="5" y="5" width="75" height="75" rx="2" fill="#8796A1"/>
<path d="M63.6956 33.3288L53.5869 23.2201L48.5326 22.2418C48.5326 25.3396 45.9239 27.9483 42.663 27.9483C39.4021 27.9483 36.7935 25.3396 36.7935 22.2418L31.7391 23.2201L21.3043 33.1657L28.3152 40.1766L31.7391 36.7527V57.2962H53.5869V37.0788L56.8478 40.3396L63.6956 33.3288Z" fill="white"/>
<rect x="31.25" y="65" width="10" height="10" fill="#32383C"/>
<path d="M37.4641 73.125C37.2725 73.125 37.0809 73.0292 36.9852 72.9334L34.5905 70.5388C34.3032 70.2514 34.3032 69.7725 34.5905 69.4852L36.9852 67.0905C37.2725 66.8032 37.7514 66.8032 38.0388 67.0905C38.3262 67.3779 38.3262 67.8568 38.0388 68.1442L36.1231 70.0599L38.0388 71.9756C38.3262 72.2629 38.3262 72.7419 38.0388 73.0292C37.8472 73.0292 37.6557 73.125 37.4641 73.125Z" fill="#F3F3F3"/>
<rect x="54.375" y="75" width="10" height="10" transform="rotate(180 54.375 75)" fill="#32383C"/>
<path d="M48.1609 66.875C48.3525 66.875 48.5441 66.9708 48.6398 67.0666L51.0345 69.4612C51.3218 69.7486 51.3218 70.2275 51.0345 70.5148L48.6398 72.9095C48.3525 73.1968 47.8736 73.1968 47.5862 72.9095C47.2988 72.6221 47.2988 72.1432 47.5862 71.8558L49.5019 69.9401L47.5862 68.0244C47.2988 67.7371 47.2988 67.2581 47.5862 66.9708C47.7778 66.9708 47.9693 66.875 48.1609 66.875Z" fill="#F3F3F3"/>
</svg>
