<svg width="85" height="85" viewBox="0 0 85 85" fill="none" xmlns="http://www.w3.org/2000/svg">
<rect x="5" y="5" width="75" height="75" rx="2" fill="#8796A1"/>
<path d="M63.6956 33.3288L53.5869 23.2201L48.5326 22.2418C48.5326 25.3396 45.9239 27.9483 42.663 27.9483C39.4021 27.9483 36.7935 25.3396 36.7935 22.2418L31.7391 23.2201L21.3043 33.1657L28.3152 40.1766L31.7391 36.7527V57.2962H53.5869V37.0788L56.8478 40.3396L63.6956 33.3288Z" fill="white"/>
<rect x="9.6875" y="37.5" width="10" height="10" fill="#32383C"/>
<path d="M15.9016 45.625C15.71 45.625 15.5184 45.5292 15.4227 45.4334L13.028 43.0388C12.7407 42.7514 12.7407 42.2725 13.028 41.9852L15.4227 39.5905C15.71 39.3032 16.1889 39.3032 16.4763 39.5905C16.7637 39.8779 16.7637 40.3568 16.4763 40.6442L14.5606 42.5599L16.4763 44.4756C16.7637 44.7629 16.7637 45.2419 16.4763 45.5292C16.2847 45.5292 16.0932 45.625 15.9016 45.625Z" fill="#F3F3F3"/>
<rect x="75.3125" y="47.4999" width="10" height="10" transform="rotate(180 75.3125 47.4999)" fill="#32383C"/>
<path d="M69.0984 39.3749C69.29 39.3749 69.4816 39.4707 69.5773 39.5665L71.972 41.9611C72.2593 42.2485 72.2593 42.7274 71.972 43.0148L69.5773 45.4094C69.29 45.6968 68.8111 45.6968 68.5237 45.4094C68.2363 45.1221 68.2363 44.6431 68.5237 44.3558L70.4394 42.4401L68.5237 40.5244C68.2363 40.237 68.2363 39.7581 68.5237 39.4707C68.7153 39.4707 68.9068 39.3749 69.0984 39.3749Z" fill="#F3F3F3"/>
</svg>
